<?xml version="1.0" encoding="UTF-8" standalone="no"?>
<svg
   width="16"
   height="16"
   fill="currentColor"
   class="bi bi-envelope"
   viewBox="0 0 16 16"
   version="1.1"
   id="svg4"
   xmlns="http://www.w3.org/2000/svg"
   xmlns:svg="http://www.w3.org/2000/svg">
  <defs
     id="defs8" />
  <path
     d="M0 4a2 2 0 0 1 2-2h12a2 2 0 0 1 2 2v8a2 2 0 0 1-2 2H2a2 2 0 0 1-2-2V4Zm2-1a1 1 0 0 0-1 1v.217l7 4.2 7-4.2V4a1 1 0 0 0-1-1H2Zm13 2.383-4.708 2.825L15 11.105V5.383Zm-.034 6.876-5.64-3.471L8 9.583l-1.326-.795-5.64 3.47A1 1 0 0 0 2 13h12a1 1 0 0 0 .966-.741ZM1 11.105l4.708-2.897L1 5.383v5.722Z"
     id="path2" />
  <path
     style="fill:#9d9d9d;stroke:#ffffff;stroke-width:0.054;fill-opacity:1;stroke-dasharray:none"
     d="M 1.8286301,13.979384 C 1.047199,13.908844 0.36992281,13.378839 0.12050397,12.642682 0.00428955,12.299677 0.00995025,12.537397 0.00995025,8 c 0,-3.4641626 0.00468986,-4.2046381 0.02741397,-4.3283582 C 0.17227877,2.9371077 0.67975431,2.3455333 1.3731343,2.1145077 1.7050574,2.0039151 1.3225466,2.0099502 8,2.0099502 c 5.162929,0 6.20365,0.00451 6.328358,0.027414 0.735324,0.1350596 1.325861,0.6416448 1.557134,1.3357701 C 15.994833,3.7012999 15.99005,3.4896322 15.99005,8 c 0,3.324226 -0.0052,4.2076 -0.02564,4.318408 -0.155968,0.847441 -0.747547,1.449431 -1.616153,1.644596 -0.0854,0.01919 -1.454085,0.02539 -6.228856,0.02822 -3.3656717,0.002 -6.1965194,-0.0033 -6.2907729,-0.01184 z M 14.25486,12.97529 c 0.27181,-0.0708 0.51822,-0.268306 0.64105,-0.513829 0.0381,-0.07615 0.06885,-0.157396 0.06835,-0.180553 -7.44e-4,-0.03421 -0.519496,-0.36099 -2.767907,-1.743595 C 10.674506,9.6014925 9.4036581,8.8231827 9.372244,8.8077361 9.3160744,8.7801168 9.3042253,8.7861831 8.6575638,9.1736217 L 8,9.5675922 7.3424362,9.1736217 C 6.6957747,8.7861831 6.6839256,8.7801168 6.627756,8.8077361 6.5963419,8.8231827 5.3254935,9.6014925 3.8036488,10.537313 1.555238,11.919918 1.0364862,12.246697 1.0357419,12.280908 c -5.039e-4,0.02316 0.030253,0.104405 0.068348,0.180553 0.1207212,0.241308 0.3676315,0.441498 0.6325182,0.512836 0.1617736,0.04357 12.3510849,0.04453 12.5182519,9.93e-4 z M 3.4328358,9.6233976 C 4.680597,8.8558111 5.7039857,8.2205473 5.7070328,8.2117001 5.7119455,8.1974366 1.1052294,5.4211158 1.0265558,5.3909258 0.9978714,5.3799186 0.99502488,5.6378951 0.99502488,8.248518 V 11.11821 L 1.079602,11.06861 C 1.126119,11.04133 2.1850746,10.390984 3.4328358,9.6233976 Z M 14.99535,5.3867266 c -0.01146,-0.011463 -4.706793,2.8022344 -4.706793,2.8205663 0,0.00684 1.058955,0.6640655 2.353234,1.4605103 l 2.353234,1.4480818 0.005,-2.8596993 c 0.0028,-1.5728343 6.5e-4,-2.864091 -0.0047,-2.8694591 z M 11.504179,6.3273435 15.004975,4.2268261 V 4.0429674 c 0,-0.3178366 -0.08189,-0.5330578 -0.282172,-0.7416356 C 14.657983,3.2338296 14.553181,3.1510081 14.489909,3.1172841 14.241989,2.9851443 14.766483,2.9950249 8,2.9950249 c -6.70718,0 -6.2355852,-0.00815 -6.4723823,0.1118449 C 1.4706627,3.135731 1.3688341,3.2123785 1.3013318,3.2771975 1.0890035,3.4810856 0.99502488,3.7160319 0.99502488,4.0429636 V 4.2268189 L 4.4925373,6.3265081 c 1.9236319,1.1548288 3.5005123,2.1000632 3.5041789,2.1005208 0.00367,4.577e-4 1.5820247,-0.944401 3.5074628,-2.0996854 z"
     id="path306" />
</svg>
