<?xml version="1.0" encoding="UTF-8" standalone="no"?>
<!-- Created with Inkscape (http://www.inkscape.org/) -->

<svg
   width="450"
   height="270"
   viewBox="0 0 119.0625 71.4375"
   version="1.1"
   id="svg1319"
   xmlns="http://www.w3.org/2000/svg"
   xmlns:svg="http://www.w3.org/2000/svg">
  <defs
     id="defs1316" />
  <g
     id="layer1"
     transform="matrix(0.82343313,0,0,0.82343313,10.511247,3.0387476)">
    <g
       id="g1595"
       transform="matrix(6.0347692,0,0,6.0347692,-424.21855,-467.46955)">
      <path
         style="fill:#3f7381;fill-opacity:1;stroke-width:0.783439"
         d="m 75.408269,88.457752 c -0.3238,-0.15758 -0.52916,-0.33671 -0.52916,-0.52916 v -2.64584 c 0,0.19576 0.20685,0.36957 0.52916,0.52917 0,0.79375 0,1.85208 0,2.64583 z"
         id="path1138-4-99-5-1" />
      <path
         style="fill:#153d4d;fill-opacity:1;stroke-width:0.783439"
         d="m 81.487839,85.236022 0.0355,2.68666 -6.1151,0.53507 -0.006,-2.6926 6.08542,-0.52917 z"
         id="path1138-42-8-7" />
      <path
         style="fill:#2f90ad;fill-opacity:1;stroke-width:0.783439"
         d="m 76.287489,90.200222 c 0,-1.11683 0.0418,-2.62951 0.0418,-2.62951 l -4.05299,-0.72492 c 0,0 0.007,1.70544 0.007,2.62808 1.39212,0.43606 2.89221,0.63901 4.00361,0.72635 z"
         id="path26707-0-91" />
      <path
         style="fill:#3a6b77;fill-opacity:1;stroke-width:0.783439"
         d="m 76.282579,90.202292 2.1115,-1.26142 -0.005,-2.62936 -2.10698,1.25963 z"
         id="path26707-0-0-2" />
      <path
         style="fill:#1f5f70;fill-opacity:1;stroke-width:0.783439"
         d="m 81.493689,83.959842 c 3.70417,0 6.61458,0.52916 6.61458,1.32291 0,0.79375 -2.87158,1.41661 -6.57575,1.41661 -0.74128,0 -1.48959,-0.11489 -2.15033,-0.15519 1.31775,-0.73225 2.1115,-1.26142 2.1115,-1.26142 0,0 -3.175,0.26459 -6.1151,0.53507 -0.3224,-0.15962 -0.49948,-0.33932 -0.49948,-0.53511 0,-0.79375 2.91041,-1.32291 6.61458,-1.32291 z"
         id="path1138-42-6" />
      <path
         style="fill:#2f90ad;fill-opacity:1;stroke-width:0.783439"
         d="m 81.493689,86.605672 c 2.33254,0 6.61458,-0.52917 6.61458,-1.32292 v 2.64584 c 0,0.79375 -3.06784,1.32291 -6.61458,1.32291 -0.72571,0 -1.44378,-0.0222 -2.10721,-0.0642 0,-0.81477 -9.8e-4,-1.59664 -9.8e-4,-2.64288 0.65979,0.0401 1.36815,0.0613 2.10819,0.0613 z"
         id="path1138-4-99-4" />
      <path
         style="fill:#1f5f70;fill-opacity:1;stroke-width:0.783439"
         d="m 76.279469,87.574892 c 2.04149,-1.2208 2.1115,-1.26142 2.1115,-1.26142 0,0 -0.12994,0.0111 -6.1151,0.53507 1.39211,0.43606 2.89221,0.63901 4.0036,0.72635 z"
         id="path26707-07" />
      <path
         style="fill:#8d6c08;fill-opacity:1;stroke-width:0.783439"
         d="m 81.506849,82.260152 0.0282,2.66912 -6.11511,0.53507 0.002,-2.67506 6.08542,-0.52917 z"
         id="path1138-42-8-0" />
      <path
         style="fill:#f6c94c;fill-opacity:1;stroke-width:0.783439"
         d="m 76.299179,87.206812 c 0,-1.11683 0.0418,-2.62951 0.0418,-2.62951 l -4.05298,-0.72492 c 0,0 0.008,1.70544 0.008,2.62808 1.39211,0.43606 2.89221,0.63901 4.0036,0.72635 z"
         id="path26707-0-9" />
      <path
         style="fill:#bf910b;fill-opacity:1;stroke-width:0.783439"
         d="m 76.294279,87.208882 2.11149,-1.26142 -0.005,-2.62936 -2.10697,1.25963 z"
         id="path26707-0-0-0" />
      <path
         style="fill:#a97f0a;fill-opacity:1;stroke-width:0.783439"
         d="m 81.505379,80.966432 c 3.70417,0 6.61459,0.52916 6.61459,1.32291 0,0.79375 -2.88328,1.4996 -6.58745,1.4996 -0.74128,0 -1.4779,-0.19788 -2.13863,-0.23818 1.31774,-0.73225 2.11149,-1.26142 2.11149,-1.26142 0,0 -3.175,0.26459 -6.1151,0.53507 -0.3224,-0.15962 -0.49948,-0.33932 -0.49948,-0.53511 0,-0.79375 2.91042,-1.32291 6.61458,-1.32291 z"
         id="path1138-42-4" />
      <path
         style="fill:#f6c94c;fill-opacity:1;stroke-width:0.783439"
         d="m 81.505379,83.612262 c 2.33254,0 6.61459,-0.52917 6.61459,-1.32292 v 2.64584 c 0,0.79375 -3.06785,1.32291 -6.61459,1.32291 -0.72571,0 -1.44377,-0.0222 -2.1072,-0.0642 0,-0.81477 -9.9e-4,-1.59664 -9.9e-4,-2.64288 0.65979,0.0401 1.36815,0.0613 2.10819,0.0613 z"
         id="path1138-4-99-9" />
      <path
         style="fill:#ab800a;fill-opacity:1;stroke-width:0.783439"
         d="m 76.291169,84.581482 c 2.04148,-1.2208 2.1115,-1.26142 2.1115,-1.26142 0,0 -0.12994,0.0111 -6.11511,0.53507 1.39212,0.43606 2.89221,0.63901 4.00361,0.72635 z"
         id="path26707-02" />
      <path
         style="fill:#153d4d;fill-opacity:1;stroke-width:0.783439"
         d="m 81.530449,79.253732 0.0318,2.67722 -6.1151,0.53507 -0.002,-2.68316 6.08542,-0.52917 z"
         id="path1138-42-8" />
      <path
         style="fill:#2f90ad;fill-opacity:1;stroke-width:0.783439"
         d="m 76.326309,84.208492 c 0,-1.11683 0.0418,-2.62951 0.0418,-2.62951 l -4.05298,-0.72492 c 0,0 0.008,1.70544 0.008,2.62808 1.39212,0.43606 2.89221,0.63901 4.00361,0.72635 z"
         id="path26707-0" />
      <path
         style="fill:#3a6b77;fill-opacity:1;stroke-width:0.783439"
         d="m 76.321409,84.210562 2.1115,-1.26142 -0.005,-2.62936 -2.10698,1.25963 z"
         id="path26707-0-0" />
      <path
         style="fill:#205d6f;fill-opacity:1;stroke-width:0.783439"
         d="m 81.532519,77.968112 c 3.70417,0 6.61458,0.52916 6.61458,1.32291 0,0.79375 -2.91041,1.5875 -6.61458,1.5875 -0.74128,0 -1.45076,-0.28578 -2.1115,-0.32608 1.31775,-0.73225 2.1115,-1.26142 2.1115,-1.26142 0,0 -0.0423,0.009 -6.1151,0.53507 -0.3224,-0.15962 -0.49948,-0.33932 -0.49948,-0.53511 0,-0.79375 2.91041,-1.32291 6.61458,-1.32291 z"
         id="path1138-42-86" />
      <path
         style="fill:#2f90ad;fill-opacity:1;stroke-width:0.783439"
         d="m 81.532519,80.613942 c 2.33254,0 6.61458,-0.52917 6.61458,-1.32292 v 2.64584 c 0,0.79375 -3.06784,1.32291 -6.61458,1.32291 -0.72571,0 -1.44378,-0.0222 -2.10721,-0.0642 0,-0.81477 -9.9e-4,-1.59664 -9.9e-4,-2.64288 0.6598,0.0401 1.36816,0.0613 2.1082,0.0613 z"
         id="path1138-4-99-91" />
      <path
         style="fill:#3f7381;fill-opacity:1;stroke-width:0.783439"
         d="m 75.447099,82.466022 c -0.3238,-0.15758 -0.52916,-0.33671 -0.52916,-0.52916 v -2.64584 c 0,0.19576 0.20685,0.36957 0.52916,0.52917 0,0.79375 0,1.85208 0,2.64583 z"
         id="path1138-4-99-5" />
      <path
         style="fill:#4f330c;fill-opacity:1;stroke:#4d4d4d;stroke-width:0;stroke-linecap:round;stroke-linejoin:round;stroke-dasharray:none;stroke-opacity:1"
         d="m 78.033819,81.504332 c 0.28603,-0.20723 0.12155,-0.56316 0.22823,-0.6665 0.0591,-0.061 0.34579,-0.18776 0.29345,-0.55994 -0.0349,-0.19795 -0.39603,-0.32585 -0.97846,-0.31728 -0.58242,0.009 -1.92289,0.0684 -2.67199,0.13141 -0.74909,0.0629 -1.63535,0.0544 -2.20651,0.13095 -0.33024,0.0443 -0.44343,0.15311 -0.51472,0.45342 -0.0534,0.39196 0.11111,0.44466 0.38551,0.56662 0.18105,0.0932 -0.0648,0.77639 0.45823,0.97871 0.40014,0.11146 0.40547,-0.81411 0.95128,-0.67381 1.01395,0.18068 0.79898,1.02853 1.17386,1.11734 0.75653,0.15329 0.18886,-1.14227 0.72308,-1.08832 0.33766,0.0162 0.18331,0.60076 0.53658,0.62454 0.26645,-10e-4 0.25964,-0.5229 0.73415,-0.75122 0.45697,-0.2751 0.39499,0.4452 0.88731,0.0541 z"
         id="path26707" />
      <path
         id="path33495"
         style="fill:#cb0b0b;fill-opacity:1;stroke:#3b3b3b;stroke-width:0;stroke-linecap:round"
         d="m 76.347899,80.083052 c 0,0.39394 -0.31934,0.71328 -0.71327,0.71328 -0.39394,0 -0.71328,-0.31934 -0.71328,-0.71328 0,-0.39393 0.31935,-0.71327 0.71328,-0.71327 0.39393,0 0.71327,0.31935 0.71327,0.71327 z" />
      <path
         id="path33497"
         style="fill:#ffffff;stroke:#3b3b3b;stroke-width:0;stroke-linecap:round"
         d="m 75.520909,79.710882 c 0,0.0856 -0.0694,0.15506 -0.15506,0.15506 -0.0856,0 -0.15506,-0.0694 -0.15506,-0.15506 0,-0.0856 0.0694,-0.15506 0.15506,-0.15506 0.0856,0 0.15506,0.0694 0.15506,0.15506 z" />
      <path
         style="fill:none;fill-opacity:1;stroke:#000000;stroke-width:0.3;stroke-linecap:round;stroke-linejoin:round;stroke-dasharray:none;stroke-opacity:1"
         d="m 75.628999,79.431582 c 0,-1.48828 -0.57877,-1.4056 -0.57877,-1.4056"
         id="path36459" />
    </g>
  </g>
</svg>
