<?xml version="1.0" encoding="UTF-8" standalone="no"?>
<!-- Created with Inkscape (http://www.inkscape.org/) -->

<svg
   width="450"
   height="201"
   viewBox="0 0 119.0625 53.181249"
   version="1.1"
   id="svg2128"
   xmlns="http://www.w3.org/2000/svg"
   xmlns:svg="http://www.w3.org/2000/svg">
  <defs
     id="defs2125" />
  <g
     id="layer1">
    <g
       id="g2332"
       transform="matrix(2.7972408,0,0,2.7972408,-71.699131,-298.79498)">
      <path
         fill="#303035"
         d="m 45.100212,117.49687 v -5.00086 l -5.205991,0.73755 v 4.26331 z m 0.491829,0 h 6.845516 v -6.02582 l -6.845516,0.98379 z m -0.491829,0.49182 h -5.205991 v 4.30415 l 5.205991,0.69664 z m 0.491829,0 v 5.08287 l 6.845516,0.94282 v -6.02569 z"
         id="path35436"
         style="fill:#66cdff;fill-opacity:1;stroke-width:0.0666255" />
      <path
         d="m 65.922812,113.71428 c -0.08515,0.066 -1.588494,0.91316 -1.588494,2.79674 0,2.17868 1.912943,2.94943 1.970205,2.96852 -0.0088,0.0469 -0.303899,1.05557 -1.008597,2.08325 -0.628347,0.90435 -1.284588,1.80724 -2.282907,1.80724 -0.99831,0 -1.255228,-0.5799 -2.407694,-0.5799 -1.123102,0 -1.522433,0.59897 -2.435592,0.59897 -0.913165,0 -1.550327,-0.8368 -2.282909,-1.86449 -0.848571,-1.20678 -1.534175,-3.08155 -1.534175,-4.86091 0,-2.854 1.855691,-4.36761 3.682014,-4.36761 0.970424,0 1.779351,0.63715 2.388618,0.63715 0.5799,0 1.484254,-0.67533 2.588272,-0.67533 0.418411,0 1.921755,0.0382 2.911259,1.45637 z m -3.435374,-2.66462 c 0.456581,-0.54172 0.779568,-1.2934 0.779568,-2.04507 0,-0.10421 -0.0088,-0.20994 -0.02791,-0.29509 -0.742861,0.0279 -1.62666,0.49476 -2.159586,1.11283 -0.418411,0.47565 -0.808927,1.22733 -0.808927,1.98929 0,0.11451 0.01906,0.22902 0.02788,0.26572 0.04697,0.009 0.123324,0.0191 0.199664,0.0191 0.666523,0 1.504813,-0.4463 1.989289,-1.04675 z"
         id="path39955"
         style="fill:#939393;fill-opacity:1;stroke-width:0.0146811" />
      <g
         id="g4472"
         transform="matrix(0.00571062,0,0,0.00571062,33.246315,117.10296)">
        <path
           id="path3216"
           style="fill:#282828;fill-opacity:1;fill-rule:evenodd"
           d="m -330.39862,-790.23755 c -19.3561,38.2588 -32.0973,85.297 -33.2063,142.9971 -4.7038,244.7445 10.65064,206.89286 1.1753,319.1973 -3.48716,41.33086 -21.84066,103.30909 -51.97918,163.8002 -34.4576,69.159939 -80.00462,123.311347 -106.75976,163.0648051 -54.74642,81.3436139 -107.60597,151.7802349 -147.49852,232.5966149 -22.66951,45.92505 -38.95744,110.49144 -46.03444,156.91384 -4.7311,31.03072 -5.2806,71.15352 -4.2209,108.75562 -28.0548,24.373 -42.4649,65.4237 -71.2927,96.7193 -18.5943,20.1387 -54.5358,26.6795 -94.3696,34.3952 -34.1753,6.5408 -70.3366,19.844 -82.9777,40.203 -1.4113,2.2713 -2.687,4.6264 -3.8579,7.0463 -28.78278,55.4174 6.4447,150.53 -10.7365,220.89 -7.2756,29.9134 -19.69678,58.0626 -19.91848,83.8598 -0.075,13.3036 2.93918,27.41427 12.20108,43.43677 10.142,17.6398 32.4124,30.2068 64.0901,41.1582 29.546,10.2165 67.9117,19.1837 112.5238,29.6935 l 15.4353,3.6013 c 20.0639,4.7783 40.0555,9.5548 60.2669,13.5979 13.1561,2.7193 20.8009,4.0417 27.3398,5.2184 28.4424,5.0712 39.2466,7.0554 115.096,36.6744 18.3017,7.1299 38.5858,14.7728 60.047,21.3136 42.4077,13.1561 90.3282,22.7109 134.5743,14.7002 22.4176,-4.0414 43.5841,-12.5685 62.399,-27.2668 19.4766,-15.2133 38.2185,-35.7194 51.5217,-56.5185 3.5563,-5.5469 6.8445,-11.2885 9.7239,-17.197 2.5232,-4.9863 4.7632,-10.0953 6.6333,-15.3101 1.7827,-4.7531 3.2688,-9.6847 4.3515,-14.635 17.8459,-8.8988 62.0064,-22.3262 167.149901,-23.3435 158.46006,-1.544 264.001159,55.638 264.001159,55.638 l 0.075,-1.1749 c 1.3224,7.4972 2.9395,14.4781 4.9981,21.1664 3.0141,9.7747 7.0558,18.7419 12.494,27.4144 5.5131,8.5994 12.3486,16.7573 21.0211,24.7695 9.4072,8.6724 20.726,16.6846 33.6622,23.5198 12.0535,6.3209 25.577,11.612 40.4229,15.5079 13.5234,3.5286 28.1491,5.8805 43.65695,6.6153 14.48,0.7348 29.6187,0.074 45.4214,-2.2047 26.6796,-3.8215 47.2584,-12.2738 64.9707,-23.2251 17.2723,-10.657 31.3834,-23.4457 45.7888,-36.5273 l 0.4419,-0.3673 v 0 c 9.4818,-8.5998 19.1092,-17.345 29.7662,-25.3572 7.1284,-5.3655 13.6707,-10.3641 19.9186,-15.2132 9.2601,-7.1299 14.4057,-11.1716 19.6241,-15.2878 15.6552,-12.2737 31.8231,-25.0624 47.9932,-37.1163 16.7573,-12.4213 34.5427,-25.0625 53.8736,-37.4093 14.6257,-9.4073 31.0887,-20.06427 46.891,-30.42657 16.3172,-10.7314 33.3675,-21.9757 49.4631,-33.0001 28.749,-19.5266 68.4262,-43.729 83.4571,-75.1656 5.0201,-9.725 7.7153,-20.1488 6.9859,-31.3539 -2.3516,-35.9396 -44.9065,-68.3521 -82.5359,-100.5447 -18.3018,-15.7278 -36.7489,-31.3089 -46.3764,-47.2584 -7.7902,-12.8613 -17.1992,-32.2653 -19.844,-46.3764 -7.4278,-39.1314 -7.2692,-68.365 -25.7973,-94.2141 -17.0034,-23.7223 -31.8655,-30.5463 -58.0726,-33.5071 -3.9283,-0.4437 -7.6213,-0.9949 -11.2014,-1.5768 17.0254,-62.68 21.90746,-102.4753 18.79266,-154.98192 -7.1154,-119.9476 -82.46838,-246.89013 -180.94047,-391.485375 -33.20963,-48.764629 -72.06554,-99.195635 -99.66806,-142.430235 -31.97688,-50.08628 -65.28548,-108.01508 -78.12138,-160.64763 -9.66472,-39.62937 -13.7717,-114.42942 -15.0905,-239.00492 4.7038,-190.8726 -54.3882,-278.9942 -125.9001,-333.9704 -71.513299,-54.9759 -176.467159,-54.0939 -214.31826,-50.787 v 0 0 l -0.001,-10e-4 c -31.7335,2.7668 -165.2251,34.7885 -227.5283,160.4219 z" />
        <path
           id="path3218"
           style="fill:#fcc624;fill-rule:evenodd"
           d="m -806.04782,629.30093 c -37.6059,18.0678 -124.2004,17.7004 -145.2071,53.6907 -23.0626,39.5874 -8.1523,83.4369 -7.9325,133.9701 0.0744,35.7682 -0.5143,75.5788 -15.5701,117.9578 -12.34,34.8887 -16.5262,47.2273 1.1741,77.92927 17.7008,30.7755 94.527,45.5385 198.4563,70.3644 104.0022,24.753 70.8768,6.4635 187.2934,51.9275 72.1256,28.2031 173.9246,62.7988 239.881,11.3113 24.3115,-19.0237 64.1931,-62.0628 66.618,-104.0022 1.3957,-23.9445 -0.809,-49.50457 -6.5368,-65.00207 -19.0236,-51.7107 -57.0695,-73.8175 -93.2048,-127.8753 -66.178,-100.4047 -136.4675,-195.5929 -192.6556,-279.1772 -39.6618,-59.1254 -71.5384,-73.4485 -98.4946,-68.7479 -82.8497,14.6158 -56.1137,90.3404 -133.8228,127.6536 v 0 0 h 10e-4 z" />
        <path
           id="path3220"
           style="fill:#fcc624;fill-rule:evenodd"
           d="m 247.76254,543.81853 c -36.4924,25.7812 -28.5889,103.0533 -30.73,143.7566 -3.2506,62.2751 -3.6946,131.7155 -5.8357,159.3434 -3.5465,45.7266 -38.1926,149.0013 -33.9807,197.75747 4.1372,48.6828 7.6822,77.1973 37.97,105.1211 30.3609,27.9238 83.7715,48.7557 149.73965,39.2257 65.9687,-9.5304 90.9362,-50.5296 133.7104,-82.589 42.6974,-32.0609 86.6528,-70.1054 143.0911,-106.3036 56.4378,-36.27137 147.3026,-95.66587 160.378,-111.69557 13.0754,-16.1041 21.9399,-29.9912 12.4847,-51.1198 -9.3822,-21.1282 -42.3282,-53.7798 -78.3052,-83.4771 -93.8176,-77.5664 -53.3145,-149.6682 -92.4882,-187.7845 -11.9511,-12.8767 -20.8323,-19.9731 -34.7031,-22.7976 -74.8757,-15.2487 -95.4459,14.1606 -139.4109,9.8396 -47.4058,-4.6579 -29.5833,5.764 -126.8984,-7.2218 -33.49775,-3.8051 -71.89705,-17.0693 -95.02165,-2.0579 v 0 z" />
        <path
           id="path3222"
           style="fill:#fcc624;fill-rule:evenodd"
           d="m -310.71672,-315.63265 c 0.8476,0.896 0.5317,2.4828 1.4742,3.4211 11.0834,11.0389 23.9022,21.8597 35.0786,34.5205 12.8505,14.5579 24.6274,30.8412 35.5646,40.8189 20.1108,18.3467 39.2167,28.1514 67.1281,31.5963 53.9041,6.6533 94.206101,-8.2938 139.664201,-38.2742 21.3884,-14.1111 51.00706,-40.1289 68.13206,-52.9915 28.5164,-21.4617 36.6745,-19.7714 45.1266,-30.574 8.7469,-11.2445 13.0089,-40.6433 10.4369,-54.5341 -2.0573,-10.7313 -5.8061,-17.8596 -17.419,-25.2098 -12.9363,-8.1577 -35.2052,-16.7569 -73.79120004,-29.839 l -0.072,-0.073 c -19.74562496,-7.21595 -40.08808396,-14.48653 -57.58525996,-21.1647 -39.1736,-15.2135 -64.698311,-26.74025 -100.322801,-23.8875 -16.38312,1.31193 -32.50951,4.83112 -46.3788,10.2154 v 0.0726 c -26.09551,10.97666 -51.34957,27.85684 -72.0774,42.3751 -18.2273,12.7156 -36.8964,29.6188 -47.7006,46.9656 -6.4035,10.2641 -16.5395,31.4417 -7.0841,43.618 0.025,0.0314 24.1498,12.3899 48.3656,26.71 39.1494,23.1499 83.8691,35.1066 123.7966,32.8827 31.7572,-1.7686 67.204301,-11.7988 92.799901,-24.1184 25.7608,-12.3997 57.4357,-31.9549 88.30976,-55.7778 4.7781,-3.5284 13.8795,-12.4654 19.5696,-15.1617 5.0174,-2.377 21.1908,-0.9981 20.4482,4.4944 -0.5816,4.3008 -19.5753,11.9775 -26.4217,17.0626 -33.7738,25.0843 -71.37486,49.6531 -95.81406,60.9172 -25.2498,11.6374 -67.745901,25.0737 -96.467901,26.769 -26.2399,1.5482 -48.5217,-1.3627 -71.3318,-9.0757 -22.0531,-7.4571 -35.1262,-13.9321 -58.6071,-27.4938 -7.4889,-4.3251 -14.6886,-7.9359 -24.8239,-14.2642 z" />
        <path
           id="path3224"
           transform="translate(-160,-342.63782)"
           d="m 168.86133,-303.74805 c -43.02229,-0.50889 -84.568283,32.86875 -98.226564,77.86133 -11.312176,37.53429 -10.798824,67.35751 -8.962891,83.66602 v 0.002 c 12.636,3.8195 25.782597,8.81644 40.841795,14.61914 -9.329298,-21.0092 -8.66597,-48.26223 3.67383,-70.74023 17.6298,-32.2475 52.5216,-42.60476 77.9375,-23.06446 25.343,19.5387 31.65963,61.48297 13.95703,93.73047 -6.3916,11.6798 -15.05936,20.49347 -24.75586,26.07617 16.8209,5.802804 30.33781,10.723982 41.28321,15.205082 14.1194,-17.924202 32.81711,-46.516982 40.69531,-70.958982 12.8188,-39.7682 2.93949,-110.33067 -50.53711,-137.50977 -11.69802,-5.9451 -23.86001,-8.74423 -35.90625,-8.88672 z m -281.29883,19.13672 c -6.85387,-0.0123 -14.18989,1.26835 -22.01758,4 h -0.002 c -33.9363,11.8254 -46.86493,68.90194 -34.89063,120.61524 6.6116,28.5008 18.28942,55.60523 35.69922,72.427731 3.5994,-2.7905 7.27141,-5.50816 10.94532,-8.00586 2.86329,-2.0561 5.72743,-4.040572 8.51953,-5.951171 -21.9636,-10.7238 -36.43268,-43.99859 -32.61329,-76.24609 3.96661,-33.5691 26.29726,-53.40281 49.876958,-44.22071 23.5798,9.1821 39.445216,43.927 35.478516,77.4961 -0.5128,4.4067 -1.320175,8.59448 -2.421875,12.48828 6.9772,-3.5994 13.294675,-6.46449 19.171875,-8.74219 1.4705,-0.5872 2.863765,-1.17719 4.259765,-1.61719 2.2034,-16.8953 1.910229,-35.33288 -1.763671,-53.77148 -10.288941,-50.6353 -33.231279,-88.40644 -70.242188,-88.47266 z M 244.35938,29.890625 c -8.08051,4.1867 -22.18539,10.062981 -43.70899,26.738281 -15.6449,12.1943 -44.58583,37.536672 -66.76953,52.888674 -14.485,10.0282 -30.33915,18.69868 -45.935548,25.48828 -22.4457,9.7742 -44.357593,15.65439 -60.871093,16.08789 -59.1969,3.1303 -87.355803,-11.531 -114.345703,-39.6582 -11.3207,-11.797903 -19.896636,-24.723044 -34.177736,-40.494144 -6.3269,-6.9869 -15.08121,-16.269837 -24.00781,-22.648437 -0.2426,7.7521 -25.09527,173.206511 -58.54297,246.349611 -33.4478,73.1432 -31.80716,48.29118 -54.28516,124.74414 -31.217,28.3261 -65.4392,104.43025 -87.9707,169.93945 -23.24337,76.90817 -40.85403,136.21015 -42.30859,222.35742 -11.61678,-23.15359 -19.9724,-48.06233 -23.25586,-75.15625 -11.5708,-95.14262 13.61684,-208.62466 88.81054,-290.31836 3.1833,-3.45875 3.11719,-4.87262 1.70508,-4.7832 -1.0983,0.0696 -3.01141,1.04887 -4.84375,2.6836 -93.9076,83.78639 -116.23582,238.32598 -106.57812,307.375 6.90432,49.36533 19.78295,91.95939 45.98633,126.58789 0.006,0.0864 0.01,0.16936 0.0156,0.25585 0.44284,0.50504 0.89431,0.9975 1.3418,1.4961 6.87913,8.86582 14.6379,17.20908 23.43554,24.99023 7e-4,6.2e-4 0.001,0.001 0.002,0.002 15.33928,16.93571 34.48999,35.42083 73.49414,65.06445 71.7794,54.5524 122.08362,83.3556 131.98242,118.832 13.1763,47.2242 -16.35835,78.454 -53.18555,97.6562 26.9268,26.9413 112.884463,82.1363 269.630862,75.2383 138.042358,-6.0745 224.608608,-58.3186 298.503908,-148.459 0.4724,-20.7423 2.74233,-55.4521 3.76953,-92.9199 0.9804,-35.78204 1.18806,-71.61559 6.66406,-99.40619 1.2893,-6.5404 3.75665,-12.73474 5.96485,-18.18165 9.0155,-22.23859 33.27904,-37.38856 56.49804,-38.48046 12.2072,-0.5743 25.02059,-1.45742 37.27149,1.08398 2.26451,-17.69576 4.02553,-34.71702 5.26367,-51.26367 15.81778,-4.58671 43.63633,-8.9148 77.05469,-10.0293 51.78218,-1.72719 113.80857,3.10453 145.1289,22.7461 -6.97784,-6.10311 -15.53007,-11.48697 -24.63867,-15.84571 -36.64316,-17.53479 -86.83108,-23.4338 -137.98633,-25.02344 13.67043,-36.28974 27.80057,-88.34263 26.30274,-127.28124 -3.9318,-102.20142 -54.73457,-180.9247 -127.13672,-235.6836 -1.7989,-1.36035 -3.55094,-2.39214 -4.23047,-2.49414 -0.67953,-0.102 -0.28757,0.72624 2.20703,3.08789 83.84575,79.3682 111.87312,169.76136 104.88672,257.47266 -2.72673,34.23235 -17.58189,73.03581 -34.58203,104.39062 -7.96625,-0.013 -17.36283,0.40155 -25.40039,0.54492 4.06232,-107.43022 -17.05786,-197.562 -76.93946,-323.04687 -5.72989,-10.871 -33.13619,-56.97733 -49.49609,-69.99024 -12.7848,-62.54865 -14.46917,-59.47983 -40.04687,-116.74023 -38.791,-86.8387 -52.84869,-187.212265 -64.67578,-246.197265 z"
           style="fill:#f5f5f5;fill-rule:evenodd" />
        <path
           id="path3232"
           style="fill:#282828;fill-opacity:1;fill-rule:evenodd"
           d="m 552.04329,533.16883 c 1.2894,-2.4213 3.9011,-12.131 4.0987,-14.1028 4.9336,-49.1717 -90.7214,-60.2361 -165.1752,-57.7527 -33.7841,1.1267 -60.1135,5.1112 -75.8376,9.7535 -27.39375,8.0874 -40.88215,26.6398 -43.91705,49.8496 -6.1438,46.9864 7.7988,146.2455 54.41945,167.962 48.2104,22.4565 121.2194,-9.5981 164.3174,-57.9495 29.184,-32.7403 47.7684,-70.8593 62.0943,-97.7601 z" />
        <path
           id="path3234"
           style="fill:#282828;fill-opacity:1;fill-rule:evenodd"
           d="m -180.55522,-456.53795 c -3.1597,-4.7033 -16.3174,-2.2787 -22.6382,0 -6.2478,2.3521 -11.0985,9.1876 -8.525,13.8184 1.3222,2.3516 4.189,3.5284 6.3933,3.0867 3.3814,-0.7351 6.9828,-4.4838 11.5392,-7.9379 4.8511,-3.7487 11.9065,-7.0554 13.2288,-8.9672 v 0 z" />
        <path
           id="path3236"
           style="fill:#282828;fill-opacity:1;fill-rule:evenodd"
           d="m -139.69212,-456.39055 c -1.9114,-1.9843 21.3885,-6.7625 30.5741,0.4403 9.259701,7.2028 8.6725,12.8615 5.8801,15.8752 -2.9393,3.0867 -30.0605,-13.7435 -36.4542,-16.317 v 10e-4 z" />
      </g>
    </g>
  </g>
</svg>
