<?xml version="1.0" encoding="UTF-8" standalone="no"?>
<!-- Created with Inkscape (http://www.inkscape.org/) -->

<svg
   width="264"
   height="300"
   viewBox="0 0 69.85 79.375"
   version="1.1"
   id="svg2714"
   xmlns="http://www.w3.org/2000/svg"
   xmlns:svg="http://www.w3.org/2000/svg">
  <defs
     id="defs2711" />
  <g
     id="layer1">
    <g
       id="g2864"
       transform="matrix(2.9890241,0,0,2.9890241,-93.156914,-151.33122)">
      <g
         id="layer1-9"
         transform="matrix(0.6584539,0,0,0.6584539,-23.451563,-17.153048)">
        <path
           d="m 100.64032,105.62985 c -7.744749,-0.003 -14.017587,6.26657 -14.017587,14.00506 0,6.11938 3.924047,11.32117 9.388902,13.23152 0.735953,0.18477 0.623211,-0.33823 0.623211,-0.69524 v -2.42709 c -4.249745,0.49795 -4.42199,-2.31434 -4.706977,-2.7841 -0.576236,-0.98336 -1.938535,-1.23389 -1.531411,-1.70365 0.967702,-0.49795 1.954194,0.12527 3.097272,1.81326 0.826775,1.22451 2.439611,1.01781 3.25699,0.81425 0.178509,-0.73595 0.560578,-1.39361 1.086707,-1.90408 -4.403199,-0.7892 -6.238388,-3.47622 -6.238388,-6.67057 0,-1.5502 0.51047,-2.97514 1.512621,-4.12448 -0.638871,-1.89469 0.0595,-3.51692 0.153455,-3.75807 1.81953,-0.16284 3.711089,1.3028 3.85828,1.41867 1.033468,-0.27872 2.214128,-0.42591 3.535715,-0.42591 1.32785,0 2.51164,0.15345 3.5545,0.43531 0.35389,-0.26933 2.10765,-1.52828 3.79878,-1.37483 0.0908,0.24115 0.77354,1.8258 0.17225,3.69544 1.01467,1.15247 1.53141,2.58993 1.53141,4.14326 0,3.20062 -1.84772,5.89077 -6.26345,6.66744 a 3.9929451,3.9929451 0 0 1 1.19319,2.84987 v 3.52318 c 0.0251,0.28186 0,0.56058 0.46976,0.56058 5.54628,-1.86964 9.53922,-7.10901 9.53922,-13.28163 0,-7.74162 -6.27597,-14.00819 -14.01445,-14.00819 z"
           id="path109606"
           style="stroke-width:0.0313172" />
        <text
           xml:space="preserve"
           style="font-style:normal;font-variant:normal;font-weight:bold;font-stretch:normal;font-size:8.81944px;font-family:arial;-inkscape-font-specification:'arial Bold';fill:#000000;fill-opacity:1;stroke:none;stroke-width:0.499999;stroke-linecap:square;stroke-linejoin:round"
           x="85.311584"
           y="140.47491"
           id="text109617"><tspan
             id="tspan109615"
             style="font-style:normal;font-variant:normal;font-weight:bold;font-stretch:normal;font-size:8.81944px;font-family:Ebrima;-inkscape-font-specification:'Ebrima Bold';fill:#000000;fill-opacity:1;stroke:none;stroke-width:0.5"
             x="85.311584"
             y="140.47491">Git hub</tspan></text>
      </g>
    </g>
  </g>
</svg>
