<?xml version="1.0" encoding="UTF-8" standalone="no"?>
<svg
   version="1.1"
   viewBox="0 0 240 240"
   fill="none"
   stroke="none"
   stroke-linecap="square"
   stroke-miterlimit="10"
   id="svg1309"
   sodipodi:docname="invalid_deser_graph.svg"
   width="240"
   height="240"
   inkscape:version="1.2.1 (9c6d41e410, 2022-07-14)"
   xmlns:inkscape="http://www.inkscape.org/namespaces/inkscape"
   xmlns:sodipodi="http://sodipodi.sourceforge.net/DTD/sodipodi-0.dtd"
   xmlns="http://www.w3.org/2000/svg"
   xmlns:svg="http://www.w3.org/2000/svg">
  <defs
     id="defs1313" />
  <sodipodi:namedview
     id="namedview1311"
     pagecolor="#ffffff"
     bordercolor="#000000"
     borderopacity="0.25"
     inkscape:showpageshadow="2"
     inkscape:pageopacity="0.0"
     inkscape:pagecheckerboard="0"
     inkscape:deskcolor="#d1d1d1"
     showgrid="false"
     inkscape:zoom="1.3645833"
     inkscape:cx="362.38168"
     inkscape:cy="360.18321"
     inkscape:window-width="2560"
     inkscape:window-height="1351"
     inkscape:window-x="-9"
     inkscape:window-y="-9"
     inkscape:window-maximized="1"
     inkscape:current-layer="svg1309" />
  <clipPath
     id="p.0">
    <path
       d="M 0,0 H 960 V 720 H 0 Z"
       clip-rule="nonzero"
       id="path1248" />
  </clipPath>
  <g
     clip-path="url(#p.0)"
     id="g1307"
     transform="translate(-246.96183,-110.65649)">
    <path
       fill="#000000"
       fill-opacity="0"
       d="M 0,0 H 960 V 720 H 0 Z"
       fill-rule="evenodd"
       id="path1251" />
    <path
       fill="#cfe2f3"
       d="m 305.2034,218.37007 v 0 c 0,-11.698 9.48312,-21.18109 21.18112,-21.18109 v 0 c 5.61759,0 11.00507,2.23157 14.9773,6.2038 3.97223,3.97222 6.20379,9.35972 6.20379,14.97729 v 0 c 0,11.69801 -9.48309,21.18111 -21.18109,21.18111 v 0 c -11.698,0 -21.18112,-9.4831 -21.18112,-21.18111 z"
       fill-rule="evenodd"
       id="path1253" />
    <path
       stroke="#000000"
       stroke-width="1"
       stroke-linejoin="round"
       stroke-linecap="butt"
       d="m 305.2034,218.37007 v 0 c 0,-11.698 9.48312,-21.18109 21.18112,-21.18109 v 0 c 5.61759,0 11.00507,2.23157 14.9773,6.2038 3.97223,3.97222 6.20379,9.35972 6.20379,14.97729 v 0 c 0,11.69801 -9.48309,21.18111 -21.18109,21.18111 v 0 c -11.698,0 -21.18112,-9.4831 -21.18112,-21.18111 z"
       fill-rule="evenodd"
       id="path1255" />
    <path
       fill="#000000"
       d="m 328.4068,225.85008 h -1.875 v -11.9375 q -0.6875,0.64062 -1.78125,1.28125 -1.09375,0.64062 -1.96875,0.96875 v -1.8125 q 1.5625,-0.73438 2.73437,-1.78125 1.1875,-1.0625 1.67188,-2.04688 h 1.21875 z"
       fill-rule="nonzero"
       id="path1257" />
    <path
       fill="#cfe2f3"
       d="m 381.37665,225.72704 v 0 c 0,-11.698 9.48309,-21.18111 21.18109,-21.18111 v 0 c 5.61758,0 11.00507,2.23159 14.9773,6.20381 3.97223,3.97222 6.20379,9.35972 6.20379,14.9773 v 0 c 0,11.698 -9.48309,21.18111 -21.18109,21.18111 v 0 c -11.698,0 -21.18109,-9.48311 -21.18109,-21.18111 z"
       fill-rule="evenodd"
       id="path1259" />
    <path
       stroke="#000000"
       stroke-width="1"
       stroke-linejoin="round"
       stroke-linecap="butt"
       d="m 381.37665,225.72704 v 0 c 0,-11.698 9.48309,-21.18111 21.18109,-21.18111 v 0 c 5.61758,0 11.00507,2.23159 14.9773,6.20381 3.97223,3.97222 6.20379,9.35972 6.20379,14.9773 v 0 c 0,11.698 -9.48309,21.18111 -21.18109,21.18111 v 0 c -11.698,0 -21.18109,-9.48311 -21.18109,-21.18111 z"
       fill-rule="evenodd"
       id="path1261" />
    <path
       fill="#000000"
       d="m 407.36127,231.41016 v 1.79687 h -10.09375 q -0.0156,-0.67187 0.21875,-1.29687 0.39062,-1.03125 1.23437,-2.03125 0.85938,-1 2.45313,-2.3125 2.5,-2.04688 3.375,-3.23438 0.875,-1.20312 0.875,-2.25 0,-1.125 -0.79688,-1.89062 -0.79687,-0.76563 -2.07812,-0.76563 -1.35938,0 -2.17188,0.8125 -0.8125,0.8125 -0.82812,2.25 l -1.92188,-0.1875 q 0.20313,-2.15625 1.48438,-3.28125 1.29687,-1.14062 3.46875,-1.14062 2.20312,0 3.48437,1.21875 1.28125,1.21875 1.28125,3.01562 0,0.92188 -0.375,1.8125 -0.375,0.875 -1.25,1.85938 -0.85937,0.96875 -2.89062,2.6875 -1.6875,1.40625 -2.17188,1.92187 -0.46875,0.5 -0.78125,1.01563 z"
       fill-rule="nonzero"
       id="path1263" />
    <path
       fill="#cfe2f3"
       d="m 263.73752,295.9475 v 0 c 0,-11.698 9.48312,-21.18109 21.18112,-21.18109 v 0 c 5.61759,0 11.00507,2.23157 14.9773,6.2038 3.97223,3.97222 6.20379,9.35971 6.20379,14.97729 v 0 c 0,11.698 -9.48309,21.18109 -21.18109,21.18109 v 0 c -11.698,0 -21.18112,-9.48309 -21.18112,-21.18109 z"
       fill-rule="evenodd"
       id="path1265" />
    <path
       stroke="#000000"
       stroke-width="1"
       stroke-linejoin="round"
       stroke-linecap="butt"
       d="m 263.73752,295.9475 v 0 c 0,-11.698 9.48312,-21.18109 21.18112,-21.18109 v 0 c 5.61759,0 11.00507,2.23157 14.9773,6.2038 3.97223,3.97222 6.20379,9.35971 6.20379,14.97729 v 0 c 0,11.698 -9.48309,21.18109 -21.18109,21.18109 v 0 c -11.698,0 -21.18112,-9.48309 -21.18112,-21.18109 z"
       fill-rule="evenodd"
       id="path1267" />
    <path
       fill="#000000"
       d="m 279.87842,299.39627 1.875,-0.25 q 0.32812,1.59375 1.09375,2.29688 0.78125,0.70312 1.90625,0.70312 1.3125,0 2.21875,-0.90625 0.92187,-0.92187 0.92187,-2.28125 0,-1.29687 -0.84375,-2.125 -0.84375,-0.84375 -2.14062,-0.84375 -0.53125,0 -1.32813,0.20313 l 0.20313,-1.64063 q 0.1875,0.0156 0.3125,0.0156 1.1875,0 2.14062,-0.625 0.96875,-0.625 0.96875,-1.92188 0,-1.03125 -0.70312,-1.70312 -0.6875,-0.67188 -1.79688,-0.67188 -1.09375,0 -1.82812,0.6875 -0.71875,0.6875 -0.9375,2.0625 l -1.875,-0.34375 q 0.34375,-1.875 1.5625,-2.90625 1.21875,-1.04687 3.03125,-1.04687 1.25,0 2.29687,0.54687 1.0625,0.53125 1.60938,1.45313 0.5625,0.92187 0.5625,1.96875 0,0.98437 -0.53125,1.79687 -0.53125,0.8125 -1.5625,1.29688 1.34375,0.3125 2.09375,1.29687 0.75,0.98438 0.75,2.45313 0,2 -1.45313,3.39062 -1.45312,1.39063 -3.6875,1.39063 -2.01562,0 -3.34375,-1.1875 -1.32812,-1.20313 -1.51562,-3.10938 z"
       fill-rule="nonzero"
       id="path1269" />
    <path
       fill="#cfe2f3"
       d="m 343.1063,295.9475 v 0 c 0,-11.698 9.48312,-21.18109 21.18112,-21.18109 v 0 c 5.61756,0 11.00507,2.23157 14.9773,6.2038 3.97223,3.97222 6.20379,9.35971 6.20379,14.97729 v 0 c 0,11.698 -9.48309,21.18109 -21.18109,21.18109 v 0 c -11.698,0 -21.18112,-9.48309 -21.18112,-21.18109 z"
       fill-rule="evenodd"
       id="path1271" />
    <path
       stroke="#000000"
       stroke-width="1"
       stroke-linejoin="round"
       stroke-linecap="butt"
       d="m 343.1063,295.9475 v 0 c 0,-11.698 9.48312,-21.18109 21.18112,-21.18109 v 0 c 5.61756,0 11.00507,2.23157 14.9773,6.2038 3.97223,3.97222 6.20379,9.35971 6.20379,14.97729 v 0 c 0,11.698 -9.48309,21.18109 -21.18109,21.18109 v 0 c -11.698,0 -21.18112,-9.48309 -21.18112,-21.18109 z"
       fill-rule="evenodd"
       id="path1273" />
    <path
       fill="#000000"
       d="m 365.2472,303.42752 v -3.65625 h -6.625 v -1.71875 l 6.96875,-9.89062 h 1.53125 v 9.89062 h 2.0625 v 1.71875 h -2.0625 v 3.65625 z m 0,-5.375 v -6.875 l -4.78125,6.875 z"
       fill-rule="nonzero"
       id="path1275" />
    <path
       fill="#000000"
       fill-opacity="0"
       d="M 326.38452,239.55118 284.9042,274.7638"
       fill-rule="evenodd"
       id="path1277" />
    <path
       stroke="#000000"
       stroke-width="1"
       stroke-linejoin="round"
       stroke-linecap="butt"
       d="m 326.38452,239.55118 -36.90619,31.32965"
       fill-rule="evenodd"
       id="path1279" />
    <path
       fill="#000000"
       stroke="#000000"
       stroke-width="1"
       stroke-linecap="butt"
       d="m 288.4094,269.6216 -2.39072,4.19608 4.52857,-1.67768 z"
       fill-rule="evenodd"
       id="path1281" />
    <path
       fill="#000000"
       fill-opacity="0"
       d="m 326.38452,239.55118 37.88977,35.21262"
       fill-rule="evenodd"
       id="path1283" />
    <path
       stroke="#000000"
       stroke-width="1"
       stroke-linejoin="round"
       stroke-linecap="butt"
       d="m 326.38452,239.55118 33.49469,31.12808"
       fill-rule="evenodd"
       id="path1285" />
    <path
       fill="#000000"
       stroke="#000000"
       stroke-width="1"
       stroke-linecap="butt"
       d="m 358.7548,271.88916 4.44864,1.87943 -2.1998,-4.29926 z"
       fill-rule="evenodd"
       id="path1287" />
    <path
       fill="#000000"
       fill-opacity="0"
       d="M 284.9606,120.60368 H 464.11023 V 185.2336 H 284.9606 Z"
       fill-rule="evenodd"
       id="path1289" />
    <path
       fill="#000000"
       d="m 293.92935,147.52367 5.125,-13.35938 h 1.90625 l 5.46875,13.35938 h -2.01563 l -1.54687,-4.04688 h -5.59375 l -1.46875,4.04688 z m 3.85937,-5.48438 h 4.53125 l -1.40625,-3.70312 q -0.625,-1.6875 -0.9375,-2.76563 -0.26562,1.28125 -0.71875,2.54688 z m 16.16233,1.9375 1.60937,0.21875 q -0.26562,1.65625 -1.35937,2.60938 -1.07813,0.9375 -2.67188,0.9375 -1.98437,0 -3.1875,-1.29688 -1.20312,-1.29687 -1.20312,-3.71875 0,-1.57812 0.51562,-2.75 0.51563,-1.17187 1.57813,-1.75 1.0625,-0.59375 2.3125,-0.59375 1.57812,0 2.57812,0.79688 1,0.79687 1.28125,2.26562 l -1.59375,0.23438 q -0.23437,-0.96875 -0.8125,-1.45313 -0.57812,-0.5 -1.39062,-0.5 -1.23438,0 -2.01563,0.89063 -0.78125,0.89062 -0.78125,2.8125 0,1.95312 0.75,2.84375 0.75,0.875 1.95313,0.875 0.96875,0 1.60937,-0.59375 0.65625,-0.59375 0.82813,-1.82813 z m 2.9375,7.26563 -0.1875,-1.53125 q 0.54687,0.14062 0.9375,0.14062 0.54687,0 0.875,-0.1875 0.32812,-0.17187 0.54687,-0.5 0.15625,-0.25 0.5,-1.21875 0.0469,-0.14062 0.14063,-0.40625 l -3.67188,-9.6875 h 1.76563 l 2.01562,5.59375 q 0.39063,1.07813 0.70313,2.25 0.28125,-1.125 0.67187,-2.20312 l 2.07813,-5.64063 h 1.64062 l -3.6875,9.82813 q -0.59375,1.60937 -0.92187,2.20312 -0.4375,0.8125 -1,1.1875 -0.5625,0.375 -1.34375,0.375 -0.48438,0 -1.0625,-0.20312 z m 15.71875,-7.26563 1.60937,0.21875 q -0.26562,1.65625 -1.35937,2.60938 -1.07813,0.9375 -2.67188,0.9375 -1.98437,0 -3.1875,-1.29688 -1.20312,-1.29687 -1.20312,-3.71875 0,-1.57812 0.51562,-2.75 0.51563,-1.17187 1.57813,-1.75 1.0625,-0.59375 2.3125,-0.59375 1.57812,0 2.57812,0.79688 1,0.79687 1.28125,2.26562 l -1.59375,0.23438 q -0.23437,-0.96875 -0.8125,-1.45313 -0.57812,-0.5 -1.39062,-0.5 -1.23438,0 -2.01563,0.89063 -0.78125,0.89062 -0.78125,2.8125 0,1.95312 0.75,2.84375 0.75,0.875 1.95313,0.875 0.96875,0 1.60937,-0.59375 0.65625,-0.59375 0.82813,-1.82813 z m 2.96875,3.54688 v -13.35938 h 1.64062 v 13.35938 z m 4.19171,-11.46875 v -1.89063 h 1.64062 v 1.89063 z m 0,11.46875 v -9.67188 h 1.64062 v 9.67188 z m 10.45731,-3.54688 1.60937,0.21875 q -0.26562,1.65625 -1.35937,2.60938 -1.07813,0.9375 -2.67188,0.9375 -1.98437,0 -3.1875,-1.29688 -1.20312,-1.29687 -1.20312,-3.71875 0,-1.57812 0.51562,-2.75 0.51563,-1.17187 1.57813,-1.75 1.0625,-0.59375 2.3125,-0.59375 1.57812,0 2.57812,0.79688 1,0.79687 1.28125,2.26562 l -1.59375,0.23438 q -0.23437,-0.96875 -0.8125,-1.45313 -0.57812,-0.5 -1.39062,-0.5 -1.23438,0 -2.01563,0.89063 -0.78125,0.89062 -0.78125,2.8125 0,1.95312 0.75,2.84375 0.75,0.875 1.95313,0.875 0.96875,0 1.60937,-0.59375 0.65625,-0.59375 0.82813,-1.82813 z m 7.88644,4.34375 1.59375,0.23438 q 0.10937,0.75 0.5625,1.07812 0.60937,0.45313 1.67187,0.45313 1.14063,0 1.75,-0.45313 0.625,-0.45312 0.84375,-1.26562 0.125,-0.5 0.10938,-2.10938 -1.0625,1.26563 -2.67188,1.26563 -2,0 -3.09375,-1.4375 -1.09375,-1.4375 -1.09375,-3.45313 0,-1.39062 0.5,-2.5625 0.51563,-1.17187 1.45313,-1.79687 0.95312,-0.64063 2.25,-0.64063 1.70312,0 2.8125,1.375 v -1.15625 h 1.51562 v 8.35938 q 0,2.26562 -0.46875,3.20312 -0.45312,0.9375 -1.45312,1.48438 -0.98438,0.54687 -2.45313,0.54687 -1.71875,0 -2.79687,-0.78125 -1.0625,-0.76562 -1.03125,-2.34375 z m 1.35937,-5.8125 q 0,1.90625 0.75,2.78125 0.76563,0.875 1.90625,0.875 1.125,0 1.89063,-0.85937 0.76562,-0.875 0.76562,-2.73438 0,-1.78125 -0.79687,-2.67187 -0.78125,-0.90625 -1.89063,-0.90625 -1.09375,0 -1.85937,0.89062 -0.76563,0.875 -0.76563,2.625 z m 9.31321,5.01563 v -9.67188 h 1.46875 v 1.46875 q 0.5625,-1.03125 1.03125,-1.35937 0.48437,-0.32813 1.0625,-0.32813 0.82812,0 1.6875,0.53125 l -0.5625,1.51563 q -0.60938,-0.35938 -1.20313,-0.35938 -0.54687,0 -0.96875,0.32813 -0.42187,0.32812 -0.60937,0.89062 -0.28125,0.875 -0.28125,1.92188 v 5.0625 z m 12.5408,-1.1875 q -0.92188,0.76562 -1.76563,1.09375 -0.82812,0.3125 -1.79687,0.3125 -1.59375,0 -2.45313,-0.78125 -0.85937,-0.78125 -0.85937,-1.98438 0,-0.71875 0.32812,-1.29687 0.32813,-0.59375 0.84375,-0.9375 0.53125,-0.35938 1.1875,-0.54688 0.46875,-0.125 1.45313,-0.25 1.98437,-0.23437 2.92187,-0.5625 0.0156,-0.34375 0.0156,-0.42187 0,-1 -0.46875,-1.42188 -0.625,-0.54687 -1.875,-0.54687 -1.15625,0 -1.70313,0.40625 -0.54687,0.40625 -0.8125,1.42187 l -1.60937,-0.21875 q 0.21875,-1.01562 0.71875,-1.64062 0.5,-0.64063 1.45312,-0.98438 0.95313,-0.34375 2.1875,-0.34375 1.25,0 2.01563,0.29688 0.78125,0.28125 1.14062,0.73437 0.375,0.4375 0.51563,1.10938 0.0781,0.42187 0.0781,1.51562 v 2.1875 q 0,2.28125 0.10938,2.89063 0.10937,0.59375 0.40625,1.15625 h -1.70313 q -0.26562,-0.51563 -0.32812,-1.1875 z m -0.14063,-3.67188 q -0.89062,0.375 -2.67187,0.625 -1.01563,0.14063 -1.4375,0.32813 -0.42188,0.1875 -0.65625,0.53125 -0.21875,0.34375 -0.21875,0.78125 0,0.65625 0.5,1.09375 0.5,0.4375 1.45312,0.4375 0.9375,0 1.67188,-0.40625 0.75,-0.42188 1.09375,-1.14063 0.26562,-0.5625 0.26562,-1.64062 z m 4.20386,8.5625 v -13.375 h 1.48438 v 1.25 q 0.53125,-0.73437 1.1875,-1.09375 0.67187,-0.375 1.625,-0.375 1.23437,0 2.17187,0.64063 0.95313,0.625 1.4375,1.79687 0.48438,1.15625 0.48438,2.54688 0,1.48437 -0.53125,2.67187 -0.53125,1.1875 -1.54688,1.82813 -1.01562,0.625 -2.14062,0.625 -0.8125,0 -1.46875,-0.34375 -0.65625,-0.34375 -1.0625,-0.875 v 4.70312 z m 1.48438,-8.48437 q 0,1.85937 0.75,2.76562 0.76562,0.89063 1.82812,0.89063 1.09375,0 1.875,-0.92188 0.78125,-0.9375 0.78125,-2.875 0,-1.84375 -0.76562,-2.76562 -0.75,-0.92188 -1.8125,-0.92188 -1.04688,0 -1.85938,0.98438 -0.79687,0.96875 -0.79687,2.84375 z m 8.89132,4.78125 v -13.35938 h 1.64063 v 4.79688 q 1.14062,-1.32813 2.89062,-1.32813 1.07813,0 1.85938,0.42188 0.79687,0.42187 1.14062,1.17187 0.34375,0.75 0.34375,2.17188 v 6.125 h -1.64062 v -6.125 q 0,-1.23438 -0.53125,-1.79688 -0.53125,-0.5625 -1.51563,-0.5625 -0.71875,0 -1.35937,0.39063 -0.64063,0.375 -0.92188,1.01562 -0.26562,0.64063 -0.26562,1.78125 v 5.29688 z m 17.34027,0 -2.96875,-9.67188 h 1.70313 l 1.53125,5.57813 0.57812,2.07812 q 0.0469,-0.15625 0.5,-2 l 1.54688,-5.65625 h 1.6875 l 1.4375,5.60938 0.48437,1.84375 0.5625,-1.85938 1.65625,-5.59375 h 1.59375 l -3.03125,9.67188 h -1.70312 l -1.53125,-5.79688 -0.375,-1.64062 -1.95313,7.4375 z m 11.69171,-11.46875 v -1.89063 h 1.64063 v 1.89063 z m 0,11.46875 v -9.67188 h 1.64063 v 9.67188 z m 7.72294,-1.46875 0.23437,1.45312 q -0.6875,0.14063 -1.23437,0.14063 -0.89063,0 -1.39063,-0.28125 -0.48437,-0.28125 -0.6875,-0.73438 -0.20312,-0.46875 -0.20312,-1.9375 v -5.57812 h -1.20313 v -1.26563 h 1.20313 v -2.39062 l 1.625,-0.98438 v 3.375 h 1.65625 v 1.26563 h -1.65625 v 5.67187 q 0,0.6875 0.0781,0.89063 0.0937,0.20312 0.28125,0.32812 0.20313,0.10938 0.57813,0.10938 0.26562,0 0.71875,-0.0625 z m 1.60519,1.46875 v -13.35938 h 1.64062 v 4.79688 q 1.14063,-1.32813 2.89063,-1.32813 1.07812,0 1.85937,0.42188 0.79688,0.42187 1.14063,1.17187 0.34375,0.75 0.34375,2.17188 v 6.125 h -1.64063 v -6.125 q 0,-1.23438 -0.53125,-1.79688 -0.53125,-0.5625 -1.51562,-0.5625 -0.71875,0 -1.35938,0.39063 -0.64062,0.375 -0.92187,1.01562 -0.26563,0.64063 -0.26563,1.78125 v 5.29688 z"
       fill-rule="nonzero"
       id="path1291" />
    <path
       fill="#000000"
       d="m 295.19498,169.92368 v -9.67188 h 1.46875 v 1.35938 q 0.45312,-0.71875 1.20312,-1.14063 0.76563,-0.4375 1.71875,-0.4375 1.07813,0 1.76563,0.45313 0.6875,0.4375 0.96875,1.23437 1.15625,-1.6875 2.98437,-1.6875 1.45313,0 2.21875,0.79688 0.78125,0.79687 0.78125,2.45312 v 6.64063 h -1.64062 v -6.09375 q 0,-0.98438 -0.15625,-1.40625 -0.15625,-0.4375 -0.57813,-0.70313 -0.42187,-0.26562 -0.98437,-0.26562 -1.01563,0 -1.6875,0.6875 -0.67188,0.67187 -0.67188,2.15625 v 5.625 h -1.64062 v -6.28125 q 0,-1.09375 -0.40625,-1.64063 -0.40625,-0.54687 -1.3125,-0.54687 -0.6875,0 -1.28125,0.35937 -0.59375,0.35938 -0.85938,1.0625 -0.25,0.70313 -0.25,2.03125 v 5.01563 z m 21.86893,0 v -1.42188 q -1.125,1.64063 -3.0625,1.64063 -0.85938,0 -1.60938,-0.32813 -0.73437,-0.32812 -1.09375,-0.82812 -0.35937,-0.5 -0.5,-1.21875 -0.10937,-0.46875 -0.10937,-1.53125 v -5.98438 h 1.64062 v 5.35938 q 0,1.28125 0.10938,1.73437 0.15625,0.64063 0.65625,1.01563 0.5,0.375 1.23437,0.375 0.73438,0 1.375,-0.375 0.65625,-0.39063 0.92188,-1.03125 0.26562,-0.65625 0.26562,-1.89063 v -5.1875 h 1.64063 v 9.67188 z m 4.00073,0 V 156.5643 h 1.64062 v 13.35938 z m 7.76981,-1.46875 0.23437,1.45312 q -0.6875,0.14063 -1.23437,0.14063 -0.89063,0 -1.39063,-0.28125 -0.48437,-0.28125 -0.6875,-0.73438 -0.20312,-0.46875 -0.20312,-1.9375 v -5.57812 h -1.20313 v -1.26563 h 1.20313 v -2.39062 l 1.625,-0.98438 v 3.375 h 1.65625 v 1.26563 h -1.65625 v 5.67187 q 0,0.6875 0.0781,0.89063 0.0937,0.20312 0.28125,0.32812 0.20313,0.10938 0.57813,0.10938 0.26562,0 0.71875,-0.0625 z m 1.60519,-10 v -1.89063 h 1.64062 v 1.89063 z m 0,11.46875 v -9.67188 h 1.64062 v 9.67188 z m 4.12918,0 v -9.67188 h 1.46875 v 1.46875 q 0.5625,-1.03125 1.03125,-1.35937 0.48438,-0.32813 1.0625,-0.32813 0.82813,0 1.6875,0.53125 l -0.5625,1.51563 q -0.60937,-0.35938 -1.20312,-0.35938 -0.54688,0 -0.96875,0.32813 -0.42188,0.32812 -0.60938,0.89062 -0.28125,0.875 -0.28125,1.92188 v 5.0625 z m 12.8533,-3.10938 1.6875,0.20313 q -0.40625,1.48437 -1.48437,2.3125 -1.07813,0.8125 -2.76563,0.8125 -2.125,0 -3.375,-1.29688 -1.23437,-1.3125 -1.23437,-3.67187 0,-2.45313 1.25,-3.79688 1.26562,-1.34375 3.26562,-1.34375 1.9375,0 3.15625,1.32813 1.23438,1.3125 1.23438,3.70312 0,0.15625 0,0.4375 h -7.21875 q 0.0937,1.59375 0.90625,2.45313 0.8125,0.84375 2.01562,0.84375 0.90625,0 1.54688,-0.46875 0.64062,-0.48438 1.01562,-1.51563 z m -5.39062,-2.65625 h 5.40625 q -0.10938,-1.21875 -0.625,-1.82812 -0.78125,-0.95313 -2.03125,-0.95313 -1.125,0 -1.90625,0.76563 -0.76563,0.75 -0.84375,2.01562 z m 9.53198,5.76563 v -8.40625 h -1.45313 v -1.26563 h 1.45313 v -1.03125 q 0,-0.96875 0.17187,-1.45312 0.23438,-0.64063 0.82813,-1.03125 0.59375,-0.39063 1.67187,-0.39063 0.6875,0 1.53125,0.15625 l -0.25,1.4375 q -0.5,-0.0937 -0.95312,-0.0937 -0.75,0 -1.0625,0.32813 -0.3125,0.3125 -0.3125,1.1875 v 0.89062 h 1.89062 v 1.26563 h -1.89062 v 8.40625 z m 11.41766,-3.10938 1.6875,0.20313 q -0.40625,1.48437 -1.48437,2.3125 -1.07813,0.8125 -2.76563,0.8125 -2.125,0 -3.375,-1.29688 -1.23437,-1.3125 -1.23437,-3.67187 0,-2.45313 1.25,-3.79688 1.26562,-1.34375 3.26562,-1.34375 1.9375,0 3.15625,1.32813 1.23438,1.3125 1.23438,3.70312 0,0.15625 0,0.4375 h -7.21875 q 0.0937,1.59375 0.90625,2.45313 0.8125,0.84375 2.01562,0.84375 0.90625,0 1.54688,-0.46875 0.64062,-0.48438 1.01562,-1.51563 z m -5.39062,-2.65625 h 5.40625 q -0.10938,-1.21875 -0.625,-1.82812 -0.78125,-0.95313 -2.03125,-0.95313 -1.125,0 -1.90625,0.76563 -0.76563,0.75 -0.84375,2.01562 z m 9.12573,5.76563 v -9.67188 h 1.46875 v 1.46875 q 0.5625,-1.03125 1.03125,-1.35937 0.48438,-0.32813 1.0625,-0.32813 0.82813,0 1.6875,0.53125 l -0.5625,1.51563 q -0.60937,-0.35938 -1.20312,-0.35938 -0.54688,0 -0.96875,0.32813 -0.42188,0.32812 -0.60938,0.89062 -0.28125,0.875 -0.28125,1.92188 v 5.0625 z m 12.8533,-3.10938 1.6875,0.20313 q -0.40625,1.48437 -1.48437,2.3125 -1.07813,0.8125 -2.76563,0.8125 -2.125,0 -3.375,-1.29688 -1.23437,-1.3125 -1.23437,-3.67187 0,-2.45313 1.25,-3.79688 1.26562,-1.34375 3.26562,-1.34375 1.9375,0 3.15625,1.32813 1.23438,1.3125 1.23438,3.70312 0,0.15625 0,0.4375 h -7.21875 q 0.0937,1.59375 0.90625,2.45313 0.8125,0.84375 2.01562,0.84375 0.90625,0 1.54688,-0.46875 0.64062,-0.48438 1.01562,-1.51563 z m -5.39062,-2.65625 h 5.40625 q -0.10938,-1.21875 -0.625,-1.82812 -0.78125,-0.95313 -2.03125,-0.95313 -1.125,0 -1.90625,0.76563 -0.76563,0.75 -0.84375,2.01562 z m 9.14132,5.76563 v -9.67188 h 1.46875 v 1.375 q 1.0625,-1.59375 3.07813,-1.59375 0.875,0 1.60937,0.3125 0.73438,0.3125 1.09375,0.82813 0.375,0.5 0.51563,1.20312 0.0937,0.45313 0.0937,1.59375 v 5.95313 H 389.539 v -5.89063 q 0,-1 -0.20312,-1.48437 -0.1875,-0.5 -0.67188,-0.79688 -0.48437,-0.29687 -1.14062,-0.29687 -1.04688,0 -1.8125,0.67187 -0.75,0.65625 -0.75,2.51563 v 5.28125 z m 16.68824,-3.54688 1.60937,0.21875 q -0.26562,1.65625 -1.35937,2.60938 -1.07813,0.9375 -2.67188,0.9375 -1.98437,0 -3.1875,-1.29688 -1.20312,-1.29687 -1.20312,-3.71875 0,-1.57812 0.51562,-2.75 0.51563,-1.17187 1.57813,-1.75 1.0625,-0.59375 2.3125,-0.59375 1.57812,0 2.57812,0.79688 1,0.79687 1.28125,2.26562 l -1.59375,0.23438 q -0.23437,-0.96875 -0.8125,-1.45313 -0.57812,-0.5 -1.39062,-0.5 -1.23438,0 -2.01563,0.89063 -0.78125,0.89062 -0.78125,2.8125 0,1.95312 0.75,2.84375 0.75,0.875 1.95313,0.875 0.96875,0 1.60937,-0.59375 0.65625,-0.59375 0.82813,-1.82813 z m 9.64062,0.4375 1.6875,0.20313 q -0.40625,1.48437 -1.48437,2.3125 -1.07813,0.8125 -2.76563,0.8125 -2.125,0 -3.375,-1.29688 -1.23437,-1.3125 -1.23437,-3.67187 0,-2.45313 1.25,-3.79688 1.26562,-1.34375 3.26562,-1.34375 1.9375,0 3.15625,1.32813 1.23438,1.3125 1.23438,3.70312 0,0.15625 0,0.4375 h -7.21875 q 0.0937,1.59375 0.90625,2.45313 0.8125,0.84375 2.01562,0.84375 0.90625,0 1.54688,-0.46875 0.64062,-0.48438 1.01562,-1.51563 z m -5.39062,-2.65625 h 5.40625 q -0.10938,-1.21875 -0.625,-1.82812 -0.78125,-0.95313 -2.03125,-0.95313 -1.125,0 -1.90625,0.76563 -0.76563,0.75 -0.84375,2.01562 z m 8.48507,2.875 1.625,-0.25 q 0.125,0.96875 0.75,1.5 0.625,0.51563 1.75,0.51563 1.125,0 1.67188,-0.45313 0.54687,-0.46875 0.54687,-1.09375 0,-0.54687 -0.48437,-0.875 -0.32813,-0.21875 -1.67188,-0.54687 -1.8125,-0.46875 -2.51562,-0.79688 -0.6875,-0.32812 -1.04688,-0.90625 -0.35937,-0.59375 -0.35937,-1.3125 0,-0.64062 0.29687,-1.1875 0.29688,-0.5625 0.8125,-0.92187 0.375,-0.28125 1.03125,-0.46875 0.67188,-0.20313 1.42188,-0.20313 1.14062,0 2,0.32813 0.85937,0.32812 1.26562,0.89062 0.42188,0.5625 0.57813,1.5 l -1.60938,0.21875 q -0.10937,-0.75 -0.64062,-1.17187 -0.51563,-0.42188 -1.46875,-0.42188 -1.14063,0 -1.625,0.375 -0.46875,0.375 -0.46875,0.875 0,0.3125 0.1875,0.57813 0.20312,0.26562 0.64062,0.4375 0.23438,0.0937 1.4375,0.42187 1.75,0.45313 2.4375,0.75 0.6875,0.29688 1.07813,0.85938 0.39062,0.5625 0.39062,1.40625 0,0.82812 -0.48437,1.54687 -0.46875,0.71875 -1.375,1.125 -0.90625,0.39063 -2.04688,0.39063 -1.875,0 -2.875,-0.78125 -0.98437,-0.78125 -1.25,-2.32813 z"
       fill-rule="nonzero"
       id="path1293" />
    <path
       fill="#000000"
       fill-opacity="0"
       d="m 402.55774,246.90814 41.10236,27.87402"
       fill-rule="evenodd"
       id="path1295" />
    <path
       stroke="#000000"
       stroke-width="1"
       stroke-linejoin="round"
       stroke-linecap="butt"
       d="m 402.55774,246.90814 36.13657,24.50638"
       fill-rule="evenodd"
       id="path1297" />
    <path
       fill="#000000"
       stroke="#000000"
       stroke-width="1"
       stroke-linecap="butt"
       d="m 437.76724,272.78156 4.68295,1.18008 -2.82882,-3.91412 z"
       fill-rule="evenodd"
       id="path1299" />
    <path
       fill="#cfe2f3"
       d="m 422.47638,295.9475 v 0 c 0,-11.698 9.48309,-21.18109 21.18109,-21.18109 v 0 c 5.61758,0 11.0051,2.23157 14.97733,6.2038 3.97219,3.97222 6.20379,9.35971 6.20379,14.97729 v 0 c 0,11.698 -9.48312,21.18109 -21.18112,21.18109 v 0 c -11.698,0 -21.18109,-9.48309 -21.18109,-21.18109 z"
       fill-rule="evenodd"
       id="path1301" />
    <path
       stroke="#000000"
       stroke-width="1"
       stroke-linejoin="round"
       stroke-linecap="butt"
       d="m 422.47638,295.9475 v 0 c 0,-11.698 9.48309,-21.18109 21.18109,-21.18109 v 0 c 5.61758,0 11.0051,2.23157 14.97733,6.2038 3.97219,3.97222 6.20379,9.35971 6.20379,14.97729 v 0 c 0,11.698 -9.48312,21.18109 -21.18112,21.18109 v 0 c -11.698,0 -21.18109,-9.48309 -21.18109,-21.18109 z"
       fill-rule="evenodd"
       id="path1303" />
    <path
       fill="#000000"
       d="m 444.61725,303.42752 v -3.65625 h -6.625 v -1.71875 l 6.96875,-9.89062 h 1.53125 v 9.89062 h 2.0625 v 1.71875 h -2.0625 v 3.65625 z m 0,-5.375 v -6.875 l -4.78125,6.875 z"
       fill-rule="nonzero"
       id="path1305" />
  </g>
</svg>
