<svg version="1.1" viewBox="0.0 0.0 959.0918635170603 310.0" fill="none" stroke="none" stroke-linecap="square" stroke-miterlimit="10" xmlns:xlink="http://www.w3.org/1999/xlink" xmlns="http://www.w3.org/2000/svg"><clipPath id="p.0"><path d="m0 0l959.09186 0l0 310.0l-959.09186 0l0 -310.0z" clip-rule="nonzero"/></clipPath><g clip-path="url(#p.0)"><path fill="#000000" fill-opacity="0.0" d="m0 0l959.09186 0l0 310.0l-959.09186 0z" fill-rule="evenodd"/><path fill="#000000" fill-opacity="0.0" d="m347.90814 131.95013l118.58792 0l0 -55.057747l-131.29398 0l0 -42.35433l-111.811005 0l0 46.587925l97.41208 0l0 50.82415z" fill-rule="evenodd"/><path stroke="#3c78d8" stroke-width="3.0" stroke-linejoin="round" stroke-linecap="butt" d="m347.90814 131.95013l118.58792 0l0 -55.057747l-131.29398 0l0 -42.35433l-111.811005 0l0 46.587925l97.41208 0l0 50.82415z" fill-rule="evenodd"/><path fill="#000000" fill-opacity="0.0" d="m597.79004 187.0105l125.36481 0l0 -53.364822l-124.51703 0l0 -71.15486l-249.8819 0l0 -36.422573l-135.5302 0l0 61.834644l266.82416 0l0 61.837273l99.95276 0l0.8477783 37.27034z" fill-rule="evenodd"/><path stroke="#ffd966" stroke-width="3.0" stroke-linejoin="round" stroke-linecap="butt" d="m597.79004 187.0105l125.36481 0l0 -53.364822l-124.51703 0l0 -71.15486l-249.8819 0l0 -36.422573l-135.5302 0l0 61.834644l266.82416 0l0 61.837273l99.95276 0l0.8477783 37.27034z" fill-rule="evenodd"/><path fill="#cfe2f3" d="m101.4042 38.774277l94.86614 0l0 33.889763l-94.86614 0z" fill-rule="evenodd"/><path stroke="#000000" stroke-width="1.0" stroke-linejoin="round" stroke-linecap="butt" d="m101.4042 38.774277l94.86614 0l0 33.889763l-94.86614 0z" fill-rule="evenodd"/><path fill="#000000" d="m150.21484 61.85428l-1.28125 0l0 -8.203125q-0.46875 0.4375 -1.21875 0.890625q-0.75 0.4375 -1.359375 0.65625l0 -1.25q1.078125 -0.5 1.890625 -1.21875q0.8125 -0.734375 1.140625 -1.40625l0.828125 0l0 10.53125z" fill-rule="nonzero"/><path fill="#cfe2f3" d="m232.60367 38.774277l94.86615 0l0 33.889763l-94.86615 0z" fill-rule="evenodd"/><path stroke="#000000" stroke-width="1.0" stroke-linejoin="round" stroke-linecap="butt" d="m232.60367 38.774277l94.86615 0l0 33.889763l-94.86615 0z" fill-rule="evenodd"/><path fill="#000000" d="m283.33618 60.619904l0 1.234375l-6.9375 0q-0.015625 -0.46875 0.15625 -0.890625q0.265625 -0.71875 0.84375 -1.40625q0.59375 -0.6875 1.6875 -1.578125q1.71875 -1.40625 2.3125 -2.21875q0.609375 -0.828125 0.609375 -1.5625q0 -0.765625 -0.5625 -1.28125q-0.546875 -0.53125 -1.421875 -0.53125q-0.921875 0 -1.484375 0.5625q-0.5625 0.5625 -0.5625 1.546875l-1.328125 -0.140625q0.140625 -1.484375 1.015625 -2.25q0.890625 -0.78125 2.390625 -0.78125q1.515625 0 2.390625 0.84375q0.875 0.828125 0.875 2.0625q0 0.640625 -0.265625 1.25q-0.25 0.59375 -0.84375 1.265625q-0.59375 0.671875 -1.984375 1.859375q-1.15625 0.96875 -1.484375 1.3125q-0.328125 0.34375 -0.546875 0.703125l5.140625 0z" fill-rule="nonzero"/><path fill="#cfe2f3" d="m101.4042 91.19685l94.86614 0l0 33.889763l-94.86614 0z" fill-rule="evenodd"/><path stroke="#000000" stroke-width="1.0" stroke-linejoin="round" stroke-linecap="butt" d="m101.4042 91.19685l94.86614 0l0 33.889763l-94.86614 0z" fill-rule="evenodd"/><path fill="#000000" d="m150.21484 114.27685l-1.28125 0l0 -8.203125q-0.46875 0.4375 -1.21875 0.890625q-0.75 0.4375 -1.359375 0.65625l0 -1.25q1.078125 -0.5 1.890625 -1.21875q0.8125 -0.734375 1.140625 -1.40625l0.828125 0l0 10.53125z" fill-rule="nonzero"/><path fill="#cfe2f3" d="m363.80316 91.19685l94.86612 0l0 33.889763l-94.86612 0z" fill-rule="evenodd"/><path stroke="#000000" stroke-width="1.0" stroke-linejoin="round" stroke-linecap="butt" d="m363.80316 91.19685l94.86612 0l0 33.889763l-94.86612 0z" fill-rule="evenodd"/><path fill="#000000" d="m407.77005 111.51122l1.296875 -0.171875q0.21875 1.09375 0.75 1.578125q0.53125 0.484375 1.296875 0.484375q0.90625 0 1.53125 -0.625q0.640625 -0.640625 0.640625 -1.5625q0 -0.890625 -0.59375 -1.46875q-0.578125 -0.578125 -1.46875 -0.578125q-0.359375 0 -0.90625 0.140625l0.140625 -1.125q0.125 0.015625 0.203125 0.015625q0.828125 0 1.484375 -0.421875q0.65625 -0.4375 0.65625 -1.34375q0 -0.703125 -0.484375 -1.15625q-0.46875 -0.46875 -1.234375 -0.46875q-0.75 0 -1.25 0.46875q-0.5 0.46875 -0.640625 1.421875l-1.28125 -0.234375q0.234375 -1.296875 1.0625 -2.0q0.84375 -0.71875 2.09375 -0.71875q0.859375 0 1.578125 0.375q0.71875 0.359375 1.09375 1.0q0.390625 0.640625 0.390625 1.34375q0 0.6875 -0.375 1.25q-0.359375 0.546875 -1.0625 0.875q0.921875 0.21875 1.4375 0.90625q0.515625 0.671875 0.515625 1.6875q0 1.375 -1.0 2.328125q-1.0 0.953125 -2.53125 0.953125q-1.390625 0 -2.296875 -0.8125q-0.90625 -0.828125 -1.046875 -2.140625z" fill-rule="nonzero"/><path fill="#cfe2f3" d="m491.61417 91.19685l94.86612 0l0 33.889763l-94.86612 0z" fill-rule="evenodd"/><path stroke="#000000" stroke-width="1.0" stroke-linejoin="round" stroke-linecap="butt" d="m491.61417 91.19685l94.86612 0l0 33.889763l-94.86612 0z" fill-rule="evenodd"/><path fill="#000000" d="m539.70605 114.27685l0 -2.515625l-4.546875 0l0 -1.171875l4.78125 -6.796875l1.0625 0l0 6.796875l1.40625 0l0 1.171875l-1.40625 0l0 2.515625l-1.296875 0zm0 -3.6875l0 -4.734375l-3.28125 4.734375l3.28125 0z" fill-rule="nonzero"/><path fill="#cfe2f3" d="m617.0735 143.61942l94.86615 0l0 33.88977l-94.86615 0z" fill-rule="evenodd"/><path stroke="#000000" stroke-width="1.0" stroke-linejoin="round" stroke-linecap="butt" d="m617.0735 143.61942l94.86615 0l0 33.88977l-94.86615 0z" fill-rule="evenodd"/><path fill="#000000" d="m661.0404 163.94942l1.34375 -0.109375q0.15625 0.984375 0.703125 1.484375q0.546875 0.5 1.328125 0.5q0.921875 0 1.5625 -0.703125q0.65625 -0.703125 0.65625 -1.859375q0 -1.109375 -0.625 -1.734375q-0.625 -0.640625 -1.625 -0.640625q-0.625 0 -1.125 0.28125q-0.5 0.28125 -0.78125 0.734375l-1.203125 -0.15625l1.015625 -5.390625l5.21875 0l0 1.21875l-4.1875 0l-0.578125 2.828125q0.953125 -0.65625 1.984375 -0.65625q1.375 0 2.3125 0.953125q0.953125 0.953125 0.953125 2.4375q0 1.4375 -0.828125 2.46875q-1.015625 1.265625 -2.75 1.265625q-1.4375 0 -2.34375 -0.796875q-0.90625 -0.796875 -1.03125 -2.125z" fill-rule="nonzero"/><path fill="#000000" fill-opacity="0.0" d="m20.081366 38.774277l81.32283 0l0 38.771652l-81.32283 0z" fill-rule="evenodd"/><path fill="#000000" d="m29.862616 57.556152q0 -2.859375 1.53125 -4.46875q1.5312481 -1.609375 3.953123 -1.609375q1.578125 0 2.84375 0.765625q1.28125 0.75 1.953125 2.109375q0.671875 1.34375 0.671875 3.0625q0 1.75 -0.703125 3.125q-0.703125 1.375 -2.0 2.09375q-1.28125 0.703125 -2.78125 0.703125q-1.609375 0 -2.890625 -0.78125q-1.2656231 -0.796875 -1.9218731 -2.140625q-0.65625 -1.359375 -0.65625 -2.859375zm1.5625 0.015625q0 2.078125 1.1093731 3.265625q1.109375 1.1875 2.796875 1.1875q1.703125 0 2.8125 -1.203125q1.109375 -1.203125 1.109375 -3.40625q0 -1.40625 -0.484375 -2.4375q-0.46875 -1.046875 -1.375 -1.625q-0.90625 -0.578125 -2.046875 -0.578125q-1.609375 0 -2.765625 1.109375q-1.1562481 1.109375 -1.1562481 3.6875zm12.460936 5.5625l-1.3125 0l0 -11.453125l1.40625 0l0 4.078125q0.890625 -1.109375 2.28125 -1.109375q0.765625 0 1.4375 0.3125q0.6875 0.296875 1.125 0.859375q0.453125 0.5625 0.703125 1.359375q0.25 0.78125 0.25 1.671875q0 2.140625 -1.0625 3.3125q-1.046875 1.15625 -2.53125 1.15625q-1.46875 0 -2.296875 -1.234375l0 1.046875zm-0.015625 -4.21875q0 1.5 0.40625 2.15625q0.65625 1.09375 1.796875 1.09375q0.921875 0 1.59375 -0.796875q0.671875 -0.8125 0.671875 -2.390625q0 -1.625 -0.65625 -2.390625q-0.640625 -0.78125 -1.546875 -0.78125q-0.921875 0 -1.59375 0.796875q-0.671875 0.796875 -0.671875 2.3125zm7.6015625 -5.609375l0 -1.625l1.40625 0l0 1.625l-1.40625 0zm-1.78125 13.046875l0.265625 -1.1875q0.421875 0.109375 0.671875 0.109375q0.421875 0 0.625 -0.296875q0.21875 -0.28125 0.21875 -1.421875l0 -8.71875l1.40625 0l0 8.75q0 1.53125 -0.390625 2.140625q-0.515625 0.78125 -1.6875 0.78125q-0.578125 0 -1.109375 -0.15625zm11.0234375 -5.890625l1.453125 0.171875q-0.34375 1.28125 -1.28125 1.984375q-0.921875 0.703125 -2.359375 0.703125q-1.828125 0 -2.890625 -1.125q-1.0625 -1.125 -1.0625 -3.140625q0 -2.09375 1.078125 -3.25q1.078125 -1.15625 2.796875 -1.15625q1.65625 0 2.703125 1.140625q1.0625 1.125 1.0625 3.171875q0 0.125 0 0.375l-6.1875 0q0.078125 1.375 0.765625 2.109375q0.703125 0.71875 1.734375 0.71875q0.78125 0 1.328125 -0.40625q0.546875 -0.40625 0.859375 -1.296875zm-4.609375 -2.28125l4.625 0q-0.09375 -1.046875 -0.53125 -1.5625q-0.671875 -0.8125 -1.734375 -0.8125q-0.96875 0 -1.640625 0.65625q-0.65625 0.640625 -0.71875 1.71875zm13.242191 1.90625l1.390625 0.1875q-0.234375 1.421875 -1.171875 2.234375q-0.921875 0.8125 -2.28125 0.8125q-1.703125 0 -2.75 -1.109375q-1.0312538 -1.125 -1.0312538 -3.203125q0 -1.34375 0.4375 -2.34375q0.4531288 -1.015625 1.3593788 -1.515625q0.921875 -0.5 1.984375 -0.5q1.359375 0 2.21875 0.6875q0.859375 0.671875 1.09375 1.9375l-1.359375 0.203125q-0.203125 -0.828125 -0.703125 -1.25q-0.484375 -0.421875 -1.1875 -0.421875q-1.0625 0 -1.734375 0.765625q-0.65625 0.75 -0.65625 2.40625q0 1.671875 0.640625 2.4375q0.640625 0.75 1.671875 0.75q0.828125 0 1.375 -0.5q0.5625 -0.515625 0.703125 -1.578125zm5.65625 1.78125l0.203125 1.25q-0.59375 0.125 -1.0625 0.125q-0.765625 0 -1.1875 -0.234375q-0.421875 -0.25 -0.59375 -0.640625q-0.171875 -0.40625 -0.171875 -1.671875l0 -4.765625l-1.03125 0l0 -1.09375l1.03125 0l0 -2.0625l1.40625 -0.84375l0 2.90625l1.40625 0l0 1.09375l-1.40625 0l0 4.84375q0 0.609375 0.0625 0.78125q0.078125 0.171875 0.25 0.28125q0.171875 0.09375 0.484375 0.09375q0.234375 0 0.609375 -0.0625zm10.734375 1.265625l-1.40625 0l0 -8.96875q-0.515625 0.484375 -1.34375 0.96875q-0.8125 0.484375 -1.46875 0.734375l0 -1.359375q1.171875 -0.5625 2.046875 -1.34375q0.890625 -0.796875 1.265625 -1.53125l0.90625 0l0 11.5z" fill-rule="nonzero"/><path fill="#000000" fill-opacity="0.0" d="m20.081366 88.755905l81.32283 0l0 38.771652l-81.32283 0z" fill-rule="evenodd"/><path fill="#000000" d="m29.862616 107.53778q0 -2.859375 1.53125 -4.46875q1.5312481 -1.609375 3.953123 -1.609375q1.578125 0 2.84375 0.765625q1.28125 0.75 1.953125 2.109375q0.671875 1.34375 0.671875 3.0625q0 1.75 -0.703125 3.125q-0.703125 1.375 -2.0 2.09375q-1.28125 0.703125 -2.78125 0.703125q-1.609375 0 -2.890625 -0.78125q-1.2656231 -0.796875 -1.9218731 -2.140625q-0.65625 -1.359375 -0.65625 -2.859375zm1.5625 0.015625q0 2.078125 1.1093731 3.265625q1.109375 1.1875 2.796875 1.1875q1.703125 0 2.8125 -1.203125q1.109375 -1.203125 1.109375 -3.40625q0 -1.40625 -0.484375 -2.4375q-0.46875 -1.046875 -1.375 -1.625q-0.90625 -0.578125 -2.046875 -0.578125q-1.609375 0 -2.765625 1.109375q-1.1562481 1.109375 -1.1562481 3.6875zm12.460936 5.5625l-1.3125 0l0 -11.453125l1.40625 0l0 4.078125q0.890625 -1.109375 2.28125 -1.109375q0.765625 0 1.4375 0.3125q0.6875 0.296875 1.125 0.859375q0.453125 0.5625 0.703125 1.359375q0.25 0.78125 0.25 1.671875q0 2.140625 -1.0625 3.3125q-1.046875 1.15625 -2.53125 1.15625q-1.46875 0 -2.296875 -1.234375l0 1.046875zm-0.015625 -4.21875q0 1.5 0.40625 2.15625q0.65625 1.09375 1.796875 1.09375q0.921875 0 1.59375 -0.796875q0.671875 -0.8125 0.671875 -2.390625q0 -1.625 -0.65625 -2.390625q-0.640625 -0.78125 -1.546875 -0.78125q-0.921875 0 -1.59375 0.796875q-0.671875 0.796875 -0.671875 2.3125zm7.6015625 -5.609375l0 -1.625l1.40625 0l0 1.625l-1.40625 0zm-1.78125 13.046875l0.265625 -1.1875q0.421875 0.109375 0.671875 0.109375q0.421875 0 0.625 -0.296875q0.21875 -0.28125 0.21875 -1.421875l0 -8.71875l1.40625 0l0 8.75q0 1.53125 -0.390625 2.140625q-0.515625 0.78125 -1.6875 0.78125q-0.578125 0 -1.109375 -0.15625zm11.0234375 -5.890625l1.453125 0.171875q-0.34375 1.28125 -1.28125 1.984375q-0.921875 0.703125 -2.359375 0.703125q-1.828125 0 -2.890625 -1.125q-1.0625 -1.125 -1.0625 -3.140625q0 -2.09375 1.078125 -3.25q1.078125 -1.15625 2.796875 -1.15625q1.65625 0 2.703125 1.140625q1.0625 1.125 1.0625 3.171875q0 0.125 0 0.375l-6.1875 0q0.078125 1.375 0.765625 2.109375q0.703125 0.71875 1.734375 0.71875q0.78125 0 1.328125 -0.40625q0.546875 -0.40625 0.859375 -1.296875zm-4.609375 -2.28125l4.625 0q-0.09375 -1.046875 -0.53125 -1.5625q-0.671875 -0.8125 -1.734375 -0.8125q-0.96875 0 -1.640625 0.65625q-0.65625 0.640625 -0.71875 1.71875zm13.242191 1.90625l1.390625 0.1875q-0.234375 1.421875 -1.171875 2.234375q-0.921875 0.8125 -2.28125 0.8125q-1.703125 0 -2.75 -1.109375q-1.0312538 -1.125 -1.0312538 -3.203125q0 -1.34375 0.4375 -2.34375q0.4531288 -1.015625 1.3593788 -1.515625q0.921875 -0.5 1.984375 -0.5q1.359375 0 2.21875 0.6875q0.859375 0.671875 1.09375 1.9375l-1.359375 0.203125q-0.203125 -0.828125 -0.703125 -1.25q-0.484375 -0.421875 -1.1875 -0.421875q-1.0625 0 -1.734375 0.765625q-0.65625 0.75 -0.65625 2.40625q0 1.671875 0.640625 2.4375q0.640625 0.75 1.671875 0.75q0.828125 0 1.375 -0.5q0.5625 -0.515625 0.703125 -1.578125zm5.65625 1.78125l0.203125 1.25q-0.59375 0.125 -1.0625 0.125q-0.765625 0 -1.1875 -0.234375q-0.421875 -0.25 -0.59375 -0.640625q-0.171875 -0.40625 -0.171875 -1.671875l0 -4.765625l-1.03125 0l0 -1.09375l1.03125 0l0 -2.0625l1.40625 -0.84375l0 2.90625l1.40625 0l0 1.09375l-1.40625 0l0 4.84375q0 0.609375 0.0625 0.78125q0.078125 0.171875 0.25 0.28125q0.171875 0.09375 0.484375 0.09375q0.234375 0 0.609375 -0.0625zm12.828125 -0.09375l0 1.359375l-7.578125 0q-0.015625 -0.515625 0.171875 -0.984375q0.28125 -0.765625 0.921875 -1.515625q0.640625 -0.75 1.84375 -1.734375q1.859375 -1.53125 2.515625 -2.421875q0.65625 -0.90625 0.65625 -1.703125q0 -0.828125 -0.59375 -1.40625q-0.59375 -0.578125 -1.5625 -0.578125q-1.015625 0 -1.625 0.609375q-0.609375 0.609375 -0.609375 1.6875l-1.453125 -0.140625q0.15625 -1.625 1.125 -2.46875q0.96875 -0.84375 2.59375 -0.84375q1.65625 0 2.609375 0.921875q0.96875 0.90625 0.96875 2.25q0 0.6875 -0.28125 1.359375q-0.28125 0.65625 -0.9375 1.390625q-0.65625 0.734375 -2.171875 2.015625q-1.265625 1.0625 -1.625 1.453125q-0.359375 0.375 -0.59375 0.75l5.625 0z" fill-rule="nonzero"/><path fill="#000000" fill-opacity="0.0" d="m20.081366 141.17848l81.32283 0l0 38.771652l-81.32283 0z" fill-rule="evenodd"/><path fill="#000000" d="m29.862616 159.96036q0 -2.859375 1.53125 -4.46875q1.5312481 -1.609375 3.953123 -1.609375q1.578125 0 2.84375 0.765625q1.28125 0.75 1.953125 2.109375q0.671875 1.34375 0.671875 3.0625q0 1.75 -0.703125 3.125q-0.703125 1.375 -2.0 2.09375q-1.28125 0.703125 -2.78125 0.703125q-1.609375 0 -2.890625 -0.78125q-1.2656231 -0.796875 -1.9218731 -2.140625q-0.65625 -1.359375 -0.65625 -2.859375zm1.5625 0.015625q0 2.078125 1.1093731 3.265625q1.109375 1.1875 2.796875 1.1875q1.703125 0 2.8125 -1.203125q1.109375 -1.203125 1.109375 -3.40625q0 -1.40625 -0.484375 -2.4375q-0.46875 -1.046875 -1.375 -1.625q-0.90625 -0.578125 -2.046875 -0.578125q-1.609375 0 -2.765625 1.109375q-1.1562481 1.109375 -1.1562481 3.6875zm12.460936 5.5625l-1.3125 0l0 -11.453125l1.40625 0l0 4.078125q0.890625 -1.109375 2.28125 -1.109375q0.765625 0 1.4375 0.3125q0.6875 0.296875 1.125 0.859375q0.453125 0.5625 0.703125 1.359375q0.25 0.78125 0.25 1.671875q0 2.140625 -1.0625 3.3125q-1.046875 1.15625 -2.53125 1.15625q-1.46875 0 -2.296875 -1.234375l0 1.046875zm-0.015625 -4.21875q0 1.5 0.40625 2.15625q0.65625 1.09375 1.796875 1.09375q0.921875 0 1.59375 -0.796875q0.671875 -0.8125 0.671875 -2.390625q0 -1.625 -0.65625 -2.390625q-0.640625 -0.78125 -1.546875 -0.78125q-0.921875 0 -1.59375 0.796875q-0.671875 0.796875 -0.671875 2.3125zm7.6015625 -5.609375l0 -1.625l1.40625 0l0 1.625l-1.40625 0zm-1.78125 13.046875l0.265625 -1.1875q0.421875 0.109375 0.671875 0.109375q0.421875 0 0.625 -0.296875q0.21875 -0.28125 0.21875 -1.421875l0 -8.71875l1.40625 0l0 8.75q0 1.53125 -0.390625 2.140625q-0.515625 0.78125 -1.6875 0.78125q-0.578125 0 -1.109375 -0.15625zm11.0234375 -5.890625l1.453125 0.171875q-0.34375 1.28125 -1.28125 1.984375q-0.921875 0.703125 -2.359375 0.703125q-1.828125 0 -2.890625 -1.125q-1.0625 -1.125 -1.0625 -3.140625q0 -2.09375 1.078125 -3.25q1.078125 -1.15625 2.796875 -1.15625q1.65625 0 2.703125 1.140625q1.0625 1.125 1.0625 3.171875q0 0.125 0 0.375l-6.1875 0q0.078125 1.375 0.765625 2.109375q0.703125 0.71875 1.734375 0.71875q0.78125 0 1.328125 -0.40625q0.546875 -0.40625 0.859375 -1.296875zm-4.609375 -2.28125l4.625 0q-0.09375 -1.046875 -0.53125 -1.5625q-0.671875 -0.8125 -1.734375 -0.8125q-0.96875 0 -1.640625 0.65625q-0.65625 0.640625 -0.71875 1.71875zm13.242191 1.90625l1.390625 0.1875q-0.234375 1.421875 -1.171875 2.234375q-0.921875 0.8125 -2.28125 0.8125q-1.703125 0 -2.75 -1.109375q-1.0312538 -1.125 -1.0312538 -3.203125q0 -1.34375 0.4375 -2.34375q0.4531288 -1.015625 1.3593788 -1.515625q0.921875 -0.5 1.984375 -0.5q1.359375 0 2.21875 0.6875q0.859375 0.671875 1.09375 1.9375l-1.359375 0.203125q-0.203125 -0.828125 -0.703125 -1.25q-0.484375 -0.421875 -1.1875 -0.421875q-1.0625 0 -1.734375 0.765625q-0.65625 0.75 -0.65625 2.40625q0 1.671875 0.640625 2.4375q0.640625 0.75 1.671875 0.75q0.828125 0 1.375 -0.5q0.5625 -0.515625 0.703125 -1.578125zm5.65625 1.78125l0.203125 1.25q-0.59375 0.125 -1.0625 0.125q-0.765625 0 -1.1875 -0.234375q-0.421875 -0.25 -0.59375 -0.640625q-0.171875 -0.40625 -0.171875 -1.671875l0 -4.765625l-1.03125 0l0 -1.09375l1.03125 0l0 -2.0625l1.40625 -0.84375l0 2.90625l1.40625 0l0 1.09375l-1.40625 0l0 4.84375q0 0.609375 0.0625 0.78125q0.078125 0.171875 0.25 0.28125q0.171875 0.09375 0.484375 0.09375q0.234375 0 0.609375 -0.0625zm5.4375 -1.765625l1.40625 -0.1875q0.25 1.203125 0.828125 1.734375q0.578125 0.515625 1.421875 0.515625q0.984375 0 1.671875 -0.6875q0.6875 -0.6875 0.6875 -1.703125q0 -0.96875 -0.640625 -1.59375q-0.625 -0.625 -1.609375 -0.625q-0.390625 0 -0.984375 0.15625l0.15625 -1.234375q0.140625 0.015625 0.21875 0.015625q0.90625 0 1.625 -0.46875q0.71875 -0.46875 0.71875 -1.453125q0 -0.765625 -0.53125 -1.265625q-0.515625 -0.515625 -1.34375 -0.515625q-0.828125 0 -1.375 0.515625q-0.546875 0.515625 -0.703125 1.546875l-1.40625 -0.25q0.265625 -1.421875 1.171875 -2.1875q0.921875 -0.78125 2.28125 -0.78125q0.9375 0 1.71875 0.40625q0.796875 0.390625 1.203125 1.09375q0.421875 0.6875 0.421875 1.46875q0 0.75 -0.40625 1.359375q-0.390625 0.609375 -1.171875 0.96875q1.015625 0.234375 1.578125 0.96875q0.5625 0.734375 0.5625 1.84375q0 1.5 -1.09375 2.546875q-1.09375 1.046875 -2.765625 1.046875q-1.5 0 -2.5 -0.890625q-1.0 -0.90625 -1.140625 -2.34375z" fill-rule="nonzero"/><path fill="#000000" fill-opacity="0.0" d="m411.2362 244.61417l1.0393982 -105.03937" fill-rule="evenodd"/><path stroke="#000000" stroke-width="1.0" stroke-linejoin="round" stroke-linecap="butt" d="m411.2362 244.61417l0.980011 -99.03966" fill-rule="evenodd"/><path fill="#000000" stroke="#000000" stroke-width="1.0" stroke-linecap="butt" d="m413.8679 145.59085l-1.6067505 -4.5542145l-1.6965637 4.52153z" fill-rule="evenodd"/><path fill="#6d9eeb" d="m347.4252 251.06837l0 0c0 -3.5689087 2.893158 -6.462082 6.4620667 -6.462082l114.69791 0c1.7138367 0 3.3575134 0.6808319 4.5693665 1.8927002c1.2118835 1.2118835 1.8927002 2.8555298 1.8927002 4.5693817l0 25.847519c0 3.5688782 -2.893158 6.4620667 -6.4620667 6.4620667l-114.69791 0c-3.5689087 0 -6.4620667 -2.8931885 -6.4620667 -6.4620667z" fill-rule="evenodd"/><path stroke="#000000" stroke-width="1.0" stroke-linejoin="round" stroke-linecap="butt" d="m347.4252 251.06837l0 0c0 -3.5689087 2.893158 -6.462082 6.4620667 -6.462082l114.69791 0c1.7138367 0 3.3575134 0.6808319 4.5693665 1.8927002c1.2118835 1.2118835 1.8927002 2.8555298 1.8927002 4.5693817l0 25.847519c0 3.5688782 -2.893158 6.4620667 -6.4620667 6.4620667l-114.69791 0c-3.5689087 0 -6.4620667 -2.8931885 -6.4620667 -6.4620667z" fill-rule="evenodd"/><path fill="#000000" d="m391.88306 259.6321l0 -12.406235l5.5 0q1.65625 0 2.515625 0.34375q0.875 0.328125 1.390625 1.171875q0.515625 0.84375 0.515625 1.875q0 1.3125 -0.859375 2.21875q-0.859375 0.90625 -2.640625 1.15625q0.65625 0.3125 1.0 0.609375q0.71875 0.671875 1.359375 1.6562347l2.15625 3.375l-2.0625 0l-1.640625 -2.578125q-0.71875 -1.1249847 -1.1875 -1.7031097q-0.46875 -0.59375 -0.84375 -0.828125q-0.359375 -0.25 -0.734375 -0.34375q-0.28125 -0.0625 -0.921875 -0.0625l-1.90625 0l0 5.5156097l-1.640625 0zm1.640625 -6.9218597l3.53125 0q1.125 0 1.75 -0.234375q0.640625 -0.234375 0.96875 -0.75q0.34375 -0.515625 0.34375 -1.109375q0 -0.890625 -0.640625 -1.453125q-0.640625 -0.5625 -2.03125 -0.5625l-3.921875 0l0 4.109375zm16.8107 4.0312347l1.5625 0.1875q-0.359375 1.390625 -1.375 2.15625q-1.0 0.75 -2.5625 0.75q-1.984375 0 -3.140625 -1.203125q-1.140625 -1.21875 -1.140625 -3.4218597q0 -2.265625 1.15625 -3.515625q1.171875 -1.25 3.03125 -1.25q1.8125 0 2.953125 1.234375q1.140625 1.21875 1.140625 3.4375q0 0.140625 -0.015625 0.40625l-6.703125 0q0.09375 1.4843597 0.84375 2.2812347q0.75 0.78125 1.875 0.78125q0.84375 0 1.4375 -0.4375q0.59375 -0.4375 0.9375 -1.40625zm-5.0 -2.4687347l5.015625 0q-0.109375 -1.125 -0.578125 -1.703125q-0.734375 -0.875 -1.890625 -0.875q-1.046875 0 -1.765625 0.703125q-0.703125 0.703125 -0.78125 1.875zm14.34021 4.2499847q-0.84375 0.71875 -1.625 1.015625q-0.78125 0.296875 -1.671875 0.296875q-1.484375 0 -2.28125 -0.71875q-0.796875 -0.734375 -0.796875 -1.859375q0 -0.65625 0.296875 -1.203125q0.3125 -0.54685974 0.796875 -0.87498474q0.484375 -0.328125 1.09375 -0.5q0.4375 -0.109375 1.34375 -0.21875q1.84375 -0.21875 2.71875 -0.53125q0.015625 -0.3125 0.015625 -0.390625q0 -0.9375 -0.4375 -1.3125q-0.578125 -0.515625 -1.734375 -0.515625q-1.078125 0 -1.59375 0.375q-0.5 0.375 -0.75 1.328125l-1.484375 -0.203125q0.203125 -0.953125 0.65625 -1.53125q0.46875 -0.59375 1.34375 -0.90625q0.890625 -0.328125 2.046875 -0.328125q1.15625 0 1.875 0.28125q0.71875 0.265625 1.046875 0.671875q0.34375 0.40625 0.484375 1.03125q0.078125 0.390625 0.078125 1.40625l0 2.03125q0 2.1249847 0.09375 2.6874847q0.09375 0.5625 0.390625 1.078125l-1.59375 0q-0.234375 -0.46875 -0.3125 -1.109375zm-0.125 -3.4062347q-0.828125 0.34375 -2.484375 0.578125q-0.9375 0.140625 -1.328125 0.31248474q-0.390625 0.171875 -0.609375 0.5q-0.203125 0.3125 -0.203125 0.71875q0 0.609375 0.453125 1.015625q0.46875 0.40625 1.359375 0.40625q0.875 0 1.5625 -0.390625q0.6875 -0.390625 1.015625 -1.046875q0.234375 -0.515625 0.234375 -1.5312347l0 -0.5625zm9.730835 4.5156097l0 -1.140625q-0.84375 1.34375 -2.515625 1.34375q-1.0625 0 -1.96875 -0.59375q-0.90625 -0.59375 -1.40625 -1.65625q-0.484375 -1.0625 -0.484375 -2.4374847q0 -1.34375 0.4375 -2.4375q0.453125 -1.09375 1.34375 -1.671875q0.90625 -0.59375 2.015625 -0.59375q0.8125 0 1.4375 0.34375q0.640625 0.34375 1.046875 0.890625l0 -4.453125l1.515625 0l0 12.406235l-1.421875 0zm-4.8125 -4.4843597q0 1.7187347 0.71875 2.5781097q0.734375 0.859375 1.734375 0.859375q0.984375 0 1.6875 -0.8125q0.703125 -0.828125 0.703125 -2.4999847q0 -1.84375 -0.71875 -2.703125q-0.703125 -0.859375 -1.75 -0.859375q-1.015625 0 -1.703125 0.828125q-0.671875 0.828125 -0.671875 2.609375z" fill-rule="nonzero"/><path fill="#000000" d="m363.56577 280.6321l0 -10.9375l-4.09375 0l0 -1.46875l9.828125 0l0 1.46875l-4.09375 0l0 10.9375l-1.640625 0zm6.5664673 0l0 -8.984375l1.375 0l0 1.359375q0.515625 -0.953125 0.953125 -1.25q0.453125 -0.3125 0.984375 -0.3125q0.78125 0 1.5625 0.484375l-0.515625 1.421875q-0.5625 -0.328125 -1.125 -0.328125q-0.5 0 -0.890625 0.296875q-0.390625 0.296875 -0.5625 0.828125q-0.265625 0.8125 -0.265625 1.78125l0 4.703125l-1.515625 0zm11.645416 -1.109375q-0.84375 0.71875 -1.625 1.015625q-0.78125 0.296875 -1.671875 0.296875q-1.484375 0 -2.28125 -0.71875q-0.796875 -0.734375 -0.796875 -1.859375q0 -0.65625 0.296875 -1.203125q0.3125 -0.546875 0.796875 -0.875q0.484375 -0.328125 1.09375 -0.5q0.4375 -0.109375 1.34375 -0.21875q1.84375 -0.21875 2.71875 -0.53125q0.015625 -0.3125 0.015625 -0.390625q0 -0.9375 -0.4375 -1.3125q-0.578125 -0.515625 -1.734375 -0.515625q-1.078125 0 -1.59375 0.375q-0.5 0.375 -0.75 1.328125l-1.484375 -0.203125q0.203125 -0.953125 0.65625 -1.53125q0.46875 -0.59375 1.34375 -0.90625q0.890625 -0.328125 2.046875 -0.328125q1.15625 0 1.875 0.28125q0.71875 0.265625 1.046875 0.671875q0.34375 0.40625 0.484375 1.03125q0.078125 0.390625 0.078125 1.40625l0 2.03125q0 2.125 0.09375 2.6875q0.09375 0.5625 0.390625 1.078125l-1.59375 0q-0.234375 -0.46875 -0.3125 -1.109375zm-0.125 -3.40625q-0.828125 0.34375 -2.484375 0.578125q-0.9375 0.140625 -1.328125 0.3125q-0.390625 0.171875 -0.609375 0.5q-0.203125 0.3125 -0.203125 0.71875q0 0.609375 0.453125 1.015625q0.46875 0.40625 1.359375 0.40625q0.875 0 1.5625 -0.390625q0.6875 -0.390625 1.015625 -1.046875q0.234375 -0.515625 0.234375 -1.53125l0 -0.5625zm3.90271 4.515625l0 -8.984375l1.375 0l0 1.28125q0.984375 -1.484375 2.859375 -1.484375q0.8125 0 1.484375 0.296875q0.6875 0.28125 1.015625 0.765625q0.34375 0.46875 0.484375 1.125q0.078125 0.421875 0.078125 1.46875l0 5.53125l-1.515625 0l0 -5.46875q0 -0.921875 -0.1875 -1.375q-0.171875 -0.46875 -0.625 -0.75q-0.453125 -0.28125 -1.0625 -0.28125q-0.96875 0 -1.671875 0.625q-0.703125 0.609375 -0.703125 2.34375l0 4.90625l-1.53125 0zm9.02771 -2.6875l1.515625 -0.234375q0.125 0.90625 0.703125 1.390625q0.578125 0.484375 1.609375 0.484375q1.0625 0 1.5625 -0.421875q0.515625 -0.4375 0.515625 -1.015625q0 -0.515625 -0.453125 -0.8125q-0.3125 -0.203125 -1.5625 -0.515625q-1.671875 -0.421875 -2.328125 -0.71875q-0.640625 -0.3125 -0.984375 -0.859375q-0.328125 -0.546875 -0.328125 -1.203125q0 -0.609375 0.28125 -1.109375q0.28125 -0.515625 0.75 -0.859375q0.359375 -0.265625 0.96875 -0.4375q0.609375 -0.1875 1.3125 -0.1875q1.0625 0 1.859375 0.3125q0.796875 0.296875 1.171875 0.828125q0.390625 0.515625 0.53125 1.375l-1.484375 0.203125q-0.109375 -0.6875 -0.59375 -1.078125q-0.484375 -0.390625 -1.375 -0.390625q-1.046875 0 -1.5 0.34375q-0.4375 0.34375 -0.4375 0.8125q0 0.296875 0.171875 0.53125q0.1875 0.25 0.59375 0.40625q0.21875 0.09375 1.34375 0.390625q1.609375 0.4375 2.25 0.71875q0.640625 0.265625 1.0 0.796875q0.375 0.515625 0.375 1.296875q0 0.765625 -0.453125 1.4375q-0.4375 0.671875 -1.28125 1.046875q-0.828125 0.359375 -1.890625 0.359375q-1.75 0 -2.671875 -0.71875q-0.921875 -0.734375 -1.171875 -2.171875zm15.1328125 1.578125q-0.84375 0.71875 -1.625 1.015625q-0.78125 0.296875 -1.671875 0.296875q-1.484375 0 -2.28125 -0.71875q-0.796875 -0.734375 -0.796875 -1.859375q0 -0.65625 0.296875 -1.203125q0.3125 -0.546875 0.796875 -0.875q0.484375 -0.328125 1.09375 -0.5q0.4375 -0.109375 1.34375 -0.21875q1.84375 -0.21875 2.71875 -0.53125q0.015625 -0.3125 0.015625 -0.390625q0 -0.9375 -0.4375 -1.3125q-0.578125 -0.515625 -1.734375 -0.515625q-1.078125 0 -1.59375 0.375q-0.5 0.375 -0.75 1.328125l-1.484375 -0.203125q0.203125 -0.953125 0.65625 -1.53125q0.46875 -0.59375 1.34375 -0.90625q0.890625 -0.328125 2.046875 -0.328125q1.15625 0 1.875 0.28125q0.71875 0.265625 1.046875 0.671875q0.34375 0.40625 0.484375 1.03125q0.078125 0.390625 0.078125 1.40625l0 2.03125q0 2.125 0.09375 2.6875q0.09375 0.5625 0.390625 1.078125l-1.59375 0q-0.234375 -0.46875 -0.3125 -1.109375zm-0.125 -3.40625q-0.828125 0.34375 -2.484375 0.578125q-0.9375 0.140625 -1.328125 0.3125q-0.390625 0.171875 -0.609375 0.5q-0.203125 0.3125 -0.203125 0.71875q0 0.609375 0.453125 1.015625q0.46875 0.40625 1.359375 0.40625q0.875 0 1.5625 -0.390625q0.6875 -0.390625 1.015625 -1.046875q0.234375 -0.515625 0.234375 -1.53125l0 -0.5625zm9.762085 1.21875l1.5 0.203125q-0.234375 1.546875 -1.25 2.421875q-1.015625 0.875 -2.484375 0.875q-1.84375 0 -2.96875 -1.203125q-1.125 -1.203125 -1.125 -3.453125q0 -1.46875 0.484375 -2.546875q0.484375 -1.09375 1.46875 -1.640625q0.984375 -0.546875 2.140625 -0.546875q1.46875 0 2.390625 0.75q0.9375 0.734375 1.203125 2.09375l-1.484375 0.21875q-0.203125 -0.890625 -0.75 -1.34375q-0.53125 -0.46875 -1.296875 -0.46875q-1.140625 0 -1.875 0.828125q-0.71875 0.828125 -0.71875 2.609375q0 1.8125 0.6875 2.640625q0.703125 0.8125 1.828125 0.8125q0.890625 0 1.484375 -0.546875q0.609375 -0.5625 0.765625 -1.703125zm6.1328125 1.9375l0.21875 1.34375q-0.640625 0.140625 -1.15625 0.140625q-0.828125 0 -1.28125 -0.265625q-0.453125 -0.265625 -0.640625 -0.6875q-0.1875 -0.4375 -0.1875 -1.796875l0 -5.171875l-1.125 0l0 -1.1875l1.125 0l0 -2.21875l1.515625 -0.921875l0 3.140625l1.53125 0l0 1.1875l-1.53125 0l0 5.25q0 0.65625 0.078125 0.84375q0.078125 0.1875 0.25 0.296875q0.1875 0.109375 0.53125 0.109375q0.25 0 0.671875 -0.0625zm1.501831 -9.296875l0 -1.75l1.515625 0l0 1.75l-1.515625 0zm0 10.65625l0 -8.984375l1.515625 0l0 8.984375l-1.515625 0zm3.271637 -4.5q0 -2.484375 1.390625 -3.6875q1.15625 -1.0 2.8125 -1.0q1.859375 0 3.03125 1.21875q1.1875 1.203125 1.1875 3.34375q0 1.734375 -0.53125 2.734375q-0.515625 1.0 -1.515625 1.546875q-0.984375 0.546875 -2.171875 0.546875q-1.875 0 -3.046875 -1.203125q-1.15625 -1.21875 -1.15625 -3.5zm1.5625 0q0 1.734375 0.75 2.59375q0.75 0.859375 1.890625 0.859375q1.140625 0 1.890625 -0.859375q0.75 -0.875 0.75 -2.640625q0 -1.65625 -0.75 -2.515625q-0.75 -0.859375 -1.890625 -0.859375q-1.140625 0 -1.890625 0.859375q-0.75 0.84375 -0.75 2.5625zm8.637085 4.5l0 -8.984375l1.375 0l0 1.28125q0.984375 -1.484375 2.859375 -1.484375q0.8125 0 1.484375 0.296875q0.6875 0.28125 1.015625 0.765625q0.34375 0.46875 0.484375 1.125q0.078125 0.421875 0.078125 1.46875l0 5.53125l-1.515625 0l0 -5.46875q0 -0.921875 -0.1875 -1.375q-0.171875 -0.46875 -0.625 -0.75q-0.453125 -0.28125 -1.0625 -0.28125q-0.96875 0 -1.671875 0.625q-0.703125 0.609375 -0.703125 2.34375l0 4.90625l-1.53125 0zm14.0451355 -3.28125l1.515625 -0.203125q0.265625 1.296875 0.890625 1.875q0.640625 0.5625 1.53125 0.5625q1.078125 0 1.8125 -0.734375q0.75 -0.75 0.75 -1.84375q0 -1.046875 -0.6875 -1.734375q-0.6875 -0.6875 -1.734375 -0.6875q-0.4375 0 -1.078125 0.171875l0.171875 -1.328125q0.140625 0.015625 0.234375 0.015625q0.984375 0 1.75 -0.5q0.78125 -0.515625 0.78125 -1.578125q0 -0.84375 -0.5625 -1.390625q-0.5625 -0.546875 -1.46875 -0.546875q-0.890625 0 -1.484375 0.5625q-0.578125 0.5625 -0.75 1.671875l-1.53125 -0.265625q0.28125 -1.53125 1.265625 -2.375q1.0 -0.84375 2.46875 -0.84375q1.015625 0 1.859375 0.4375q0.859375 0.4375 1.3125 1.1875q0.453125 0.75 0.453125 1.59375q0 0.8125 -0.4375 1.46875q-0.421875 0.65625 -1.265625 1.046875q1.09375 0.25 1.703125 1.0625q0.609375 0.796875 0.609375 2.0q0 1.609375 -1.1875 2.75q-1.171875 1.125 -2.984375 1.125q-1.640625 0 -2.71875 -0.96875q-1.078125 -0.96875 -1.21875 -2.53125z" fill-rule="nonzero"/><path fill="#000000" fill-opacity="0.0" d="m664.5066 244.6063l-0.62994385 -51.653534" fill-rule="evenodd"/><path stroke="#000000" stroke-width="1.0" stroke-linejoin="round" stroke-linecap="butt" d="m664.5066 244.6063l-0.5567627 -45.65399" fill-rule="evenodd"/><path fill="#000000" stroke="#000000" stroke-width="1.0" stroke-linecap="butt" d="m665.60144 198.93217l-1.7069702 -4.517624l-1.5962524 4.557907z" fill-rule="evenodd"/><path fill="#ffe599" d="m600.69556 251.06837l0 0c0 -3.5689087 2.8931274 -6.462082 6.462036 -6.462082l114.69794 0c1.7138062 0 3.357483 0.6808319 4.569336 1.8927002c1.2119141 1.2118835 1.8927002 2.8555298 1.8927002 4.5693817l0 25.847519c0 3.5688782 -2.8931274 6.4620667 -6.462036 6.4620667l-114.69794 0c-3.5689087 0 -6.462036 -2.8931885 -6.462036 -6.4620667z" fill-rule="evenodd"/><path stroke="#000000" stroke-width="1.0" stroke-linejoin="round" stroke-linecap="butt" d="m600.69556 251.06837l0 0c0 -3.5689087 2.8931274 -6.462082 6.462036 -6.462082l114.69794 0c1.7138062 0 3.357483 0.6808319 4.569336 1.8927002c1.2119141 1.2118835 1.8927002 2.8555298 1.8927002 4.5693817l0 25.847519c0 3.5688782 -2.8931274 6.4620667 -6.462036 6.4620667l-114.69794 0c-3.5689087 0 -6.462036 -2.8931885 -6.462036 -6.4620667z" fill-rule="evenodd"/><path fill="#000000" d="m645.1534 259.6321l0 -12.406235l5.5 0q1.65625 0 2.515625 0.34375q0.875 0.328125 1.390625 1.171875q0.515625 0.84375 0.515625 1.875q0 1.3125 -0.859375 2.21875q-0.859375 0.90625 -2.640625 1.15625q0.65625 0.3125 1.0 0.609375q0.71875 0.671875 1.359375 1.6562347l2.15625 3.375l-2.0625 0l-1.640625 -2.578125q-0.71875 -1.1249847 -1.1875 -1.7031097q-0.46875 -0.59375 -0.84375 -0.828125q-0.359375 -0.25 -0.734375 -0.34375q-0.28125 -0.0625 -0.921875 -0.0625l-1.90625 0l0 5.5156097l-1.640625 0zm1.640625 -6.9218597l3.53125 0q1.125 0 1.75 -0.234375q0.640625 -0.234375 0.96875 -0.75q0.34375 -0.515625 0.34375 -1.109375q0 -0.890625 -0.640625 -1.453125q-0.640625 -0.5625 -2.03125 -0.5625l-3.921875 0l0 4.109375zm16.81073 4.0312347l1.5625 0.1875q-0.359375 1.390625 -1.375 2.15625q-1.0 0.75 -2.5625 0.75q-1.984375 0 -3.140625 -1.203125q-1.140625 -1.21875 -1.140625 -3.4218597q0 -2.265625 1.15625 -3.515625q1.171875 -1.25 3.03125 -1.25q1.8125 0 2.953125 1.234375q1.140625 1.21875 1.140625 3.4375q0 0.140625 -0.015625 0.40625l-6.703125 0q0.09375 1.4843597 0.84375 2.2812347q0.75 0.78125 1.875 0.78125q0.84375 0 1.4375 -0.4375q0.59375 -0.4375 0.9375 -1.40625zm-5.0 -2.4687347l5.015625 0q-0.109375 -1.125 -0.578125 -1.703125q-0.734375 -0.875 -1.890625 -0.875q-1.046875 0 -1.765625 0.703125q-0.703125 0.703125 -0.78125 1.875zm14.34021 4.2499847q-0.84375 0.71875 -1.625 1.015625q-0.78125 0.296875 -1.671875 0.296875q-1.484375 0 -2.28125 -0.71875q-0.796875 -0.734375 -0.796875 -1.859375q0 -0.65625 0.296875 -1.203125q0.3125 -0.54685974 0.796875 -0.87498474q0.484375 -0.328125 1.09375 -0.5q0.4375 -0.109375 1.34375 -0.21875q1.84375 -0.21875 2.71875 -0.53125q0.015625 -0.3125 0.015625 -0.390625q0 -0.9375 -0.4375 -1.3125q-0.578125 -0.515625 -1.734375 -0.515625q-1.078125 0 -1.59375 0.375q-0.5 0.375 -0.75 1.328125l-1.484375 -0.203125q0.203125 -0.953125 0.65625 -1.53125q0.46875 -0.59375 1.34375 -0.90625q0.890625 -0.328125 2.046875 -0.328125q1.15625 0 1.875 0.28125q0.71875 0.265625 1.046875 0.671875q0.34375 0.40625 0.484375 1.03125q0.078125 0.390625 0.078125 1.40625l0 2.03125q0 2.1249847 0.09375 2.6874847q0.09375 0.5625 0.390625 1.078125l-1.59375 0q-0.234375 -0.46875 -0.3125 -1.109375zm-0.125 -3.4062347q-0.828125 0.34375 -2.484375 0.578125q-0.9375 0.140625 -1.328125 0.31248474q-0.390625 0.171875 -0.609375 0.5q-0.203125 0.3125 -0.203125 0.71875q0 0.609375 0.453125 1.015625q0.46875 0.40625 1.359375 0.40625q0.875 0 1.5625 -0.390625q0.6875 -0.390625 1.015625 -1.046875q0.234375 -0.515625 0.234375 -1.5312347l0 -0.5625zm9.730835 4.5156097l0 -1.140625q-0.84375 1.34375 -2.515625 1.34375q-1.0625 0 -1.96875 -0.59375q-0.90625 -0.59375 -1.40625 -1.65625q-0.484375 -1.0625 -0.484375 -2.4374847q0 -1.34375 0.4375 -2.4375q0.453125 -1.09375 1.34375 -1.671875q0.90625 -0.59375 2.015625 -0.59375q0.8125 0 1.4375 0.34375q0.640625 0.34375 1.046875 0.890625l0 -4.453125l1.515625 0l0 12.406235l-1.421875 0zm-4.8125 -4.4843597q0 1.7187347 0.71875 2.5781097q0.734375 0.859375 1.734375 0.859375q0.984375 0 1.6875 -0.8125q0.703125 -0.828125 0.703125 -2.4999847q0 -1.84375 -0.71875 -2.703125q-0.703125 -0.859375 -1.75 -0.859375q-1.015625 0 -1.703125 0.828125q-0.671875 0.828125 -0.671875 2.609375z" fill-rule="nonzero"/><path fill="#000000" d="m616.8361 280.6321l0 -10.9375l-4.09375 0l0 -1.46875l9.828125 0l0 1.46875l-4.09375 0l0 10.9375l-1.640625 0zm6.5664673 0l0 -8.984375l1.375 0l0 1.359375q0.515625 -0.953125 0.953125 -1.25q0.453125 -0.3125 0.984375 -0.3125q0.78125 0 1.5625 0.484375l-0.515625 1.421875q-0.5625 -0.328125 -1.125 -0.328125q-0.5 0 -0.890625 0.296875q-0.390625 0.296875 -0.5625 0.828125q-0.265625 0.8125 -0.265625 1.78125l0 4.703125l-1.515625 0zm11.645386 -1.109375q-0.84375 0.71875 -1.625 1.015625q-0.78125 0.296875 -1.671875 0.296875q-1.484375 0 -2.28125 -0.71875q-0.796875 -0.734375 -0.796875 -1.859375q0 -0.65625 0.296875 -1.203125q0.3125 -0.546875 0.796875 -0.875q0.484375 -0.328125 1.09375 -0.5q0.4375 -0.109375 1.34375 -0.21875q1.84375 -0.21875 2.71875 -0.53125q0.015625 -0.3125 0.015625 -0.390625q0 -0.9375 -0.4375 -1.3125q-0.578125 -0.515625 -1.734375 -0.515625q-1.078125 0 -1.59375 0.375q-0.5 0.375 -0.75 1.328125l-1.484375 -0.203125q0.203125 -0.953125 0.65625 -1.53125q0.46875 -0.59375 1.34375 -0.90625q0.890625 -0.328125 2.046875 -0.328125q1.15625 0 1.875 0.28125q0.71875 0.265625 1.046875 0.671875q0.34375 0.40625 0.484375 1.03125q0.078125 0.390625 0.078125 1.40625l0 2.03125q0 2.125 0.09375 2.6875q0.09375 0.5625 0.390625 1.078125l-1.59375 0q-0.234375 -0.46875 -0.3125 -1.109375zm-0.125 -3.40625q-0.828125 0.34375 -2.484375 0.578125q-0.9375 0.140625 -1.328125 0.3125q-0.390625 0.171875 -0.609375 0.5q-0.203125 0.3125 -0.203125 0.71875q0 0.609375 0.453125 1.015625q0.46875 0.40625 1.359375 0.40625q0.875 0 1.5625 -0.390625q0.6875 -0.390625 1.015625 -1.046875q0.234375 -0.515625 0.234375 -1.53125l0 -0.5625zm3.90271 4.515625l0 -8.984375l1.375 0l0 1.28125q0.984375 -1.484375 2.859375 -1.484375q0.8125 0 1.484375 0.296875q0.6875 0.28125 1.015625 0.765625q0.34375 0.46875 0.484375 1.125q0.078125 0.421875 0.078125 1.46875l0 5.53125l-1.515625 0l0 -5.46875q0 -0.921875 -0.1875 -1.375q-0.171875 -0.46875 -0.625 -0.75q-0.453125 -0.28125 -1.0625 -0.28125q-0.96875 0 -1.671875 0.625q-0.703125 0.609375 -0.703125 2.34375l0 4.90625l-1.53125 0zm9.02771 -2.6875l1.515625 -0.234375q0.125 0.90625 0.703125 1.390625q0.578125 0.484375 1.609375 0.484375q1.0625 0 1.5625 -0.421875q0.515625 -0.4375 0.515625 -1.015625q0 -0.515625 -0.453125 -0.8125q-0.3125 -0.203125 -1.5625 -0.515625q-1.671875 -0.421875 -2.328125 -0.71875q-0.640625 -0.3125 -0.984375 -0.859375q-0.328125 -0.546875 -0.328125 -1.203125q0 -0.609375 0.28125 -1.109375q0.28125 -0.515625 0.75 -0.859375q0.359375 -0.265625 0.96875 -0.4375q0.609375 -0.1875 1.3125 -0.1875q1.0625 0 1.859375 0.3125q0.796875 0.296875 1.171875 0.828125q0.390625 0.515625 0.53125 1.375l-1.484375 0.203125q-0.109375 -0.6875 -0.59375 -1.078125q-0.484375 -0.390625 -1.375 -0.390625q-1.046875 0 -1.5 0.34375q-0.4375 0.34375 -0.4375 0.8125q0 0.296875 0.171875 0.53125q0.1875 0.25 0.59375 0.40625q0.21875 0.09375 1.34375 0.390625q1.609375 0.4375 2.25 0.71875q0.640625 0.265625 1.0 0.796875q0.375 0.515625 0.375 1.296875q0 0.765625 -0.453125 1.4375q-0.4375 0.671875 -1.28125 1.046875q-0.828125 0.359375 -1.890625 0.359375q-1.75 0 -2.671875 -0.71875q-0.921875 -0.734375 -1.171875 -2.171875zm15.1328125 1.578125q-0.84375 0.71875 -1.625 1.015625q-0.78125 0.296875 -1.671875 0.296875q-1.484375 0 -2.28125 -0.71875q-0.796875 -0.734375 -0.796875 -1.859375q0 -0.65625 0.296875 -1.203125q0.3125 -0.546875 0.796875 -0.875q0.484375 -0.328125 1.09375 -0.5q0.4375 -0.109375 1.34375 -0.21875q1.84375 -0.21875 2.71875 -0.53125q0.015625 -0.3125 0.015625 -0.390625q0 -0.9375 -0.4375 -1.3125q-0.578125 -0.515625 -1.734375 -0.515625q-1.078125 0 -1.59375 0.375q-0.5 0.375 -0.75 1.328125l-1.484375 -0.203125q0.203125 -0.953125 0.65625 -1.53125q0.46875 -0.59375 1.34375 -0.90625q0.890625 -0.328125 2.046875 -0.328125q1.15625 0 1.875 0.28125q0.71875 0.265625 1.046875 0.671875q0.34375 0.40625 0.484375 1.03125q0.078125 0.390625 0.078125 1.40625l0 2.03125q0 2.125 0.09375 2.6875q0.09375 0.5625 0.390625 1.078125l-1.59375 0q-0.234375 -0.46875 -0.3125 -1.109375zm-0.125 -3.40625q-0.828125 0.34375 -2.484375 0.578125q-0.9375 0.140625 -1.328125 0.3125q-0.390625 0.171875 -0.609375 0.5q-0.203125 0.3125 -0.203125 0.71875q0 0.609375 0.453125 1.015625q0.46875 0.40625 1.359375 0.40625q0.875 0 1.5625 -0.390625q0.6875 -0.390625 1.015625 -1.046875q0.234375 -0.515625 0.234375 -1.53125l0 -0.5625zm9.762085 1.21875l1.5 0.203125q-0.234375 1.546875 -1.25 2.421875q-1.015625 0.875 -2.484375 0.875q-1.84375 0 -2.96875 -1.203125q-1.125 -1.203125 -1.125 -3.453125q0 -1.46875 0.484375 -2.546875q0.484375 -1.09375 1.46875 -1.640625q0.984375 -0.546875 2.140625 -0.546875q1.46875 0 2.390625 0.75q0.9375 0.734375 1.203125 2.09375l-1.484375 0.21875q-0.203125 -0.890625 -0.75 -1.34375q-0.53125 -0.46875 -1.296875 -0.46875q-1.140625 0 -1.875 0.828125q-0.71875 0.828125 -0.71875 2.609375q0 1.8125 0.6875 2.640625q0.703125 0.8125 1.828125 0.8125q0.890625 0 1.484375 -0.546875q0.609375 -0.5625 0.765625 -1.703125zm6.1328125 1.9375l0.21875 1.34375q-0.640625 0.140625 -1.15625 0.140625q-0.828125 0 -1.28125 -0.265625q-0.453125 -0.265625 -0.640625 -0.6875q-0.1875 -0.4375 -0.1875 -1.796875l0 -5.171875l-1.125 0l0 -1.1875l1.125 0l0 -2.21875l1.515625 -0.921875l0 3.140625l1.53125 0l0 1.1875l-1.53125 0l0 5.25q0 0.65625 0.078125 0.84375q0.078125 0.1875 0.25 0.296875q0.1875 0.109375 0.53125 0.109375q0.25 0 0.671875 -0.0625zm1.501831 -9.296875l0 -1.75l1.515625 0l0 1.75l-1.515625 0zm0 10.65625l0 -8.984375l1.515625 0l0 8.984375l-1.515625 0zm3.2716675 -4.5q0 -2.484375 1.390625 -3.6875q1.15625 -1.0 2.8125 -1.0q1.859375 0 3.03125 1.21875q1.1875 1.203125 1.1875 3.34375q0 1.734375 -0.53125 2.734375q-0.515625 1.0 -1.515625 1.546875q-0.984375 0.546875 -2.171875 0.546875q-1.875 0 -3.046875 -1.203125q-1.15625 -1.21875 -1.15625 -3.5zm1.5625 0q0 1.734375 0.75 2.59375q0.75 0.859375 1.890625 0.859375q1.140625 0 1.890625 -0.859375q0.75 -0.875 0.75 -2.640625q0 -1.65625 -0.75 -2.515625q-0.75 -0.859375 -1.890625 -0.859375q-1.140625 0 -1.890625 0.859375q-0.75 0.84375 -0.75 2.5625zm8.637085 4.5l0 -8.984375l1.375 0l0 1.28125q0.984375 -1.484375 2.859375 -1.484375q0.8125 0 1.484375 0.296875q0.6875 0.28125 1.015625 0.765625q0.34375 0.46875 0.484375 1.125q0.078125 0.421875 0.078125 1.46875l0 5.53125l-1.515625 0l0 -5.46875q0 -0.921875 -0.1875 -1.375q-0.171875 -0.46875 -0.625 -0.75q-0.453125 -0.28125 -1.0625 -0.28125q-0.96875 0 -1.671875 0.625q-0.703125 0.609375 -0.703125 2.34375l0 4.90625l-1.53125 0zm14.02948 -3.25l1.59375 -0.140625q0.1875 1.171875 0.828125 1.765625q0.65625 0.578125 1.5625 0.578125q1.09375 0 1.859375 -0.828125q0.765625 -0.828125 0.765625 -2.1875q0 -1.3125 -0.734375 -2.0625q-0.734375 -0.75 -1.921875 -0.75q-0.734375 0 -1.328125 0.34375q-0.578125 0.328125 -0.921875 0.859375l-1.4375 -0.1875l1.203125 -6.375l6.171875 0l0 1.453125l-4.953125 0l-0.671875 3.328125q1.125 -0.765625 2.34375 -0.765625q1.625 0 2.734375 1.125q1.125 1.125 1.125 2.890625q0 1.6875 -0.96875 2.90625q-1.203125 1.515625 -3.265625 1.515625q-1.6875 0 -2.765625 -0.953125q-1.0625 -0.953125 -1.21875 -2.515625z" fill-rule="nonzero"/><path fill="#000000" fill-opacity="0.0" d="m31.955381 81.125984l798.6772 0" fill-rule="evenodd"/><path stroke="#000000" stroke-width="1.0" stroke-linejoin="round" stroke-linecap="butt" stroke-dasharray="1.0,3.0" d="m31.955381 81.125984l798.6772 0" fill-rule="evenodd"/><path fill="#000000" fill-opacity="0.0" d="m31.955381 136.08923l795.9685 0" fill-rule="evenodd"/><path stroke="#000000" stroke-width="1.0" stroke-linejoin="round" stroke-linecap="butt" stroke-dasharray="1.0,3.0" d="m31.955381 136.08923l795.9685 0" fill-rule="evenodd"/><path fill="#cfe2f3" d="m846.1916 38.774277l94.86615 0l0 33.889763l-94.86615 0z" fill-rule="evenodd"/><path stroke="#000000" stroke-width="1.0" stroke-linejoin="round" stroke-linecap="butt" d="m846.1916 38.774277l94.86615 0l0 33.889763l-94.86615 0z" fill-rule="evenodd"/><path fill="#000000" d="m890.23663 52.72928l0 -1.234375l6.796875 0l0 1.0q-1.0 1.078125 -1.984375 2.84375q-0.984375 1.765625 -1.515625 3.625q-0.390625 1.328125 -0.5 2.890625l-1.328125 0q0.03125 -1.234375 0.484375 -2.984375q0.46875 -1.765625 1.34375 -3.390625q0.875 -1.625 1.84375 -2.75l-5.140625 0z" fill-rule="nonzero"/><path fill="#cfe2f3" d="m740.1102 38.774277l94.86615 0l0 33.889763l-94.86615 0z" fill-rule="evenodd"/><path stroke="#000000" stroke-width="1.0" stroke-linejoin="round" stroke-linecap="butt" d="m740.1102 38.774277l94.86615 0l0 33.889763l-94.86615 0z" fill-rule="evenodd"/><path fill="#000000" d="m790.76465 53.932404l-1.28125 0.09375q-0.171875 -0.75 -0.484375 -1.09375q-0.53125 -0.546875 -1.296875 -0.546875q-0.609375 0 -1.078125 0.34375q-0.609375 0.4375 -0.96875 1.296875q-0.34375 0.84375 -0.359375 2.421875q0.46875 -0.71875 1.140625 -1.0625q0.671875 -0.34375 1.40625 -0.34375q1.296875 0 2.203125 0.953125q0.90625 0.953125 0.90625 2.453125q0 0.984375 -0.4375 1.84375q-0.421875 0.84375 -1.171875 1.296875q-0.734375 0.4375 -1.6875 0.4375q-1.609375 0 -2.625 -1.171875q-1.015625 -1.1875 -1.015625 -3.90625q0 -3.046875 1.125 -4.421875q0.984375 -1.203125 2.640625 -1.203125q1.234375 0 2.03125 0.703125q0.796875 0.6875 0.953125 1.90625zm-5.265625 4.515625q0 0.671875 0.28125 1.28125q0.28125 0.609375 0.78125 0.9375q0.515625 0.3125 1.078125 0.3125q0.8125 0 1.390625 -0.65625q0.59375 -0.671875 0.59375 -1.796875q0 -1.09375 -0.578125 -1.71875q-0.578125 -0.625 -1.453125 -0.625q-0.875 0 -1.484375 0.625q-0.609375 0.625 -0.609375 1.640625z" fill-rule="nonzero"/></g></svg>