<?xml version="1.0" encoding="UTF-8" standalone="no"?>
<svg
   version="1.1"
   viewBox="0 0 960 350"
   fill="none"
   stroke="none"
   stroke-linecap="square"
   stroke-miterlimit="10"
   id="svg558"
   sodipodi:docname="obj_graph_types.svg"
   width="960"
   height="350"
   inkscape:version="1.2.1 (9c6d41e410, 2022-07-14)"
   xmlns:inkscape="http://www.inkscape.org/namespaces/inkscape"
   xmlns:sodipodi="http://sodipodi.sourceforge.net/DTD/sodipodi-0.dtd"
   xmlns="http://www.w3.org/2000/svg"
   xmlns:svg="http://www.w3.org/2000/svg">
  <defs
     id="defs562" />
  <sodipodi:namedview
     id="namedview560"
     pagecolor="#ffffff"
     bordercolor="#000000"
     borderopacity="0.25"
     inkscape:showpageshadow="2"
     inkscape:pageopacity="0.0"
     inkscape:pagecheckerboard="0"
     inkscape:deskcolor="#d1d1d1"
     showgrid="false"
     inkscape:zoom="1.3645833"
     inkscape:cx="362.38168"
     inkscape:cy="360.18321"
     inkscape:window-width="2560"
     inkscape:window-height="1351"
     inkscape:window-x="-9"
     inkscape:window-y="-9"
     inkscape:window-maximized="1"
     inkscape:current-layer="svg558" />
  <clipPath
     id="p.0">
    <path
       d="M 0,0 H 960 V 720 H 0 Z"
       clip-rule="nonzero"
       id="path283" />
  </clipPath>
  <g
     clip-path="url(#p.0)"
     id="g556"
     transform="translate(0.73282443,-120.18321)">
    <path
       fill="#000000"
       fill-opacity="0"
       d="M 0,0 H 960 V 720 H 0 Z"
       fill-rule="evenodd"
       id="path286" />
    <path
       fill="#cfe2f3"
       d="m 109.92651,218.37007 v 0 c 0,-11.698 9.4831,-21.18109 21.18109,-21.18109 v 0 c 5.61759,0 11.00509,2.23157 14.97731,6.2038 3.97223,3.97222 6.2038,9.35972 6.2038,14.97729 v 0 c 0,11.69801 -9.48309,21.18111 -21.18111,21.18111 v 0 c -11.69799,0 -21.18109,-9.4831 -21.18109,-21.18111 z"
       fill-rule="evenodd"
       id="path288" />
    <path
       stroke="#000000"
       stroke-width="1"
       stroke-linejoin="round"
       stroke-linecap="butt"
       d="m 109.92651,218.37007 v 0 c 0,-11.698 9.4831,-21.18109 21.18109,-21.18109 v 0 c 5.61759,0 11.00509,2.23157 14.97731,6.2038 3.97223,3.97222 6.2038,9.35972 6.2038,14.97729 v 0 c 0,11.69801 -9.48309,21.18111 -21.18111,21.18111 v 0 c -11.69799,0 -21.18109,-9.4831 -21.18109,-21.18111 z"
       fill-rule="evenodd"
       id="path290" />
    <path
       fill="#000000"
       d="m 133.12988,225.85008 h -1.875 v -11.9375 q -0.6875,0.64062 -1.78125,1.28125 -1.09375,0.64062 -1.96874,0.96875 v -1.8125 q 1.56249,-0.73438 2.73437,-1.78125 1.1875,-1.0625 1.67187,-2.04688 h 1.21875 z"
       fill-rule="nonzero"
       id="path292" />
    <path
       fill="#cfe2f3"
       d="m 45.72966,294.5118 v 0 c 0,-11.698 9.483101,-21.18109 21.181099,-21.18109 v 0 c 5.617577,0 11.005074,2.23157 14.977303,6.2038 3.972229,3.97222 6.203804,9.35971 6.203804,14.97729 v 0 c 0,11.698 -9.483101,21.18109 -21.181107,21.18109 v 0 c -11.697998,0 -21.181099,-9.48309 -21.181099,-21.18109 z"
       fill-rule="evenodd"
       id="path294" />
    <path
       stroke="#000000"
       stroke-width="1"
       stroke-linejoin="round"
       stroke-linecap="butt"
       d="m 45.72966,294.5118 v 0 c 0,-11.698 9.483101,-21.18109 21.181099,-21.18109 v 0 c 5.617577,0 11.005074,2.23157 14.977303,6.2038 3.972229,3.97222 6.203804,9.35971 6.203804,14.97729 v 0 c 0,11.698 -9.483101,21.18109 -21.181107,21.18109 v 0 c -11.697998,0 -21.181099,-9.48309 -21.181099,-21.18109 z"
       fill-rule="evenodd"
       id="path296" />
    <path
       fill="#000000"
       d="m 71.71429,300.19495 v 1.79687 H 61.62054 q -0.01563,-0.67187 0.21875,-1.29687 0.390625,-1.03125 1.234375,-2.03125 0.859375,-1 2.453125,-2.3125 2.5,-2.04688 3.375,-3.23438 0.875,-1.20312 0.875,-2.25 0,-1.125 -0.796875,-1.89062 -0.796875,-0.76563 -2.078125,-0.76563 -1.359375,0 -2.171875,0.8125 -0.8125,0.8125 -0.828125,2.25 l -1.921875,-0.1875 q 0.203125,-2.15625 1.484375,-3.28125 1.296875,-1.14062 3.46875,-1.14062 2.203125,0 3.484375,1.21875 1.28125,1.21875 1.28125,3.01562 0,0.92188 -0.375,1.8125 -0.375,0.875 -1.25,1.85938 -0.859375,0.96875 -2.890625,2.6875 -1.6875,1.40625 -2.171875,1.92187 -0.46875,0.5 -0.78125,1.01563 z"
       fill-rule="nonzero"
       id="path298" />
    <path
       fill="#cfe2f3"
       d="m 109.92651,294.5118 v 0 c 0,-11.698 9.4831,-21.18109 21.18109,-21.18109 v 0 c 5.61759,0 11.00509,2.23157 14.97731,6.2038 3.97223,3.97222 6.2038,9.35971 6.2038,14.97729 v 0 c 0,11.698 -9.48309,21.18109 -21.18111,21.18109 v 0 c -11.69799,0 -21.18109,-9.48309 -21.18109,-21.18109 z"
       fill-rule="evenodd"
       id="path300" />
    <path
       stroke="#000000"
       stroke-width="1"
       stroke-linejoin="round"
       stroke-linecap="butt"
       d="m 109.92651,294.5118 v 0 c 0,-11.698 9.4831,-21.18109 21.18109,-21.18109 v 0 c 5.61759,0 11.00509,2.23157 14.97731,6.2038 3.97223,3.97222 6.2038,9.35971 6.2038,14.97729 v 0 c 0,11.698 -9.48309,21.18109 -21.18111,21.18109 v 0 c -11.69799,0 -21.18109,-9.48309 -21.18109,-21.18109 z"
       fill-rule="evenodd"
       id="path302" />
    <path
       fill="#000000"
       d="m 126.06739,297.96057 1.875,-0.25 q 0.32812,1.59375 1.09374,2.29688 0.78125,0.70312 1.90625,0.70312 1.3125,0 2.21875,-0.90625 0.92188,-0.92187 0.92188,-2.28125 0,-1.29687 -0.84375,-2.125 -0.84375,-0.84375 -2.14063,-0.84375 -0.53125,0 -1.32812,0.20313 l 0.20312,-1.64063 q 0.1875,0.0156 0.3125,0.0156 1.1875,0 2.14063,-0.625 0.96875,-0.625 0.96875,-1.92188 0,-1.03125 -0.70313,-1.70312 -0.6875,-0.67188 -1.79687,-0.67188 -1.09375,0 -1.82813,0.6875 -0.71875,0.6875 -0.9375,2.0625 l -1.87499,-0.34375 q 0.34375,-1.875 1.5625,-2.90625 1.21874,-1.04687 3.03124,-1.04687 1.25,0 2.29688,0.54687 1.0625,0.53125 1.60937,1.45313 0.5625,0.92187 0.5625,1.96875 0,0.98437 -0.53125,1.79687 -0.53125,0.8125 -1.5625,1.29688 1.34375,0.3125 2.09375,1.29687 0.75,0.98438 0.75,2.45313 0,2 -1.45312,3.39062 -1.45313,1.39063 -3.6875,1.39063 -2.01563,0 -3.34374,-1.1875 -1.32813,-1.20313 -1.51563,-3.10938 z"
       fill-rule="nonzero"
       id="path304" />
    <path
       fill="#cfe2f3"
       d="m 10.162729,366.32547 v 0 c 0,-11.698 9.483103,-21.18112 21.181103,-21.18112 v 0 c 5.617578,0 11.005075,2.2316 14.977301,6.20379 3.972229,3.97223 6.2038,9.35975 6.2038,14.97733 v 0 c 0,11.698 -9.483101,21.18109 -21.1811,21.18109 v 0 c -11.698,0 -21.181103,-9.48309 -21.181103,-21.18109 z"
       fill-rule="evenodd"
       id="path306" />
    <path
       stroke="#000000"
       stroke-width="1"
       stroke-linejoin="round"
       stroke-linecap="butt"
       d="m 10.162729,366.32547 v 0 c 0,-11.698 9.483103,-21.18112 21.181103,-21.18112 v 0 c 5.617578,0 11.005075,2.2316 14.977301,6.20379 3.972229,3.97223 6.2038,9.35975 6.2038,14.97733 v 0 c 0,11.698 -9.483101,21.18109 -21.1811,21.18109 v 0 c -11.698,0 -21.181103,-9.48309 -21.181103,-21.18109 z"
       fill-rule="evenodd"
       id="path308" />
    <path
       fill="#000000"
       d="m 26.30361,369.80545 1.96875,-0.17188 q 0.21875,1.4375 1.015625,2.17188 0.796875,0.71875 1.921875,0.71875 1.343748,0 2.281248,-1.01563 0.9375,-1.03125 0.9375,-2.71875 0,-1.59375 -0.90625,-2.51562 -0.890625,-0.9375 -2.343748,-0.9375 -0.90625,0 -1.640625,0.42187 -0.734375,0.40625 -1.140625,1.0625 l -1.765625,-0.23437 1.484375,-7.84375 h 7.593748 v 1.79687 H 29.61611 l -0.828125,4.09375 q 1.375,-0.95312 2.890625,-0.95312 1.999998,0 3.359373,1.39062 1.375,1.375 1.375,3.5625 0,2.0625 -1.203125,3.57813 -1.46875,1.85937 -3.999998,1.85937 -2.09375,0 -3.40625,-1.17187 -1.3125,-1.17188 -1.5,-3.09375 z"
       fill-rule="nonzero"
       id="path310" />
    <path
       fill="#cfe2f3"
       d="m 77.83202,366.32547 v 0 c 0,-11.698 9.483101,-21.18112 21.181099,-21.18112 v 0 c 5.617581,0 11.005071,2.2316 14.977301,6.20379 3.97223,3.97223 6.20381,9.35975 6.20381,14.97733 v 0 c 0,11.698 -9.48311,21.18109 -21.181111,21.18109 v 0 c -11.697998,0 -21.181099,-9.48309 -21.181099,-21.18109 z"
       fill-rule="evenodd"
       id="path312" />
    <path
       stroke="#000000"
       stroke-width="1"
       stroke-linejoin="round"
       stroke-linecap="butt"
       d="m 77.83202,366.32547 v 0 c 0,-11.698 9.483101,-21.18112 21.181099,-21.18112 v 0 c 5.617581,0 11.005071,2.2316 14.977301,6.20379 3.97223,3.97223 6.20381,9.35975 6.20381,14.97733 v 0 c 0,11.698 -9.48311,21.18109 -21.181111,21.18109 v 0 c -11.697998,0 -21.181099,-9.48309 -21.181099,-21.18109 z"
       fill-rule="evenodd"
       id="path314" />
    <path
       fill="#000000"
       d="m 103.69165,362.2742 -1.85938,0.15625 q -0.25,-1.10938 -0.70312,-1.60938 -0.76563,-0.79687 -1.875,-0.79687 -0.90625,0 -1.578125,0.5 -0.890625,0.64062 -1.40625,1.875 -0.5,1.23437 -0.515625,3.53125 0.671875,-1.03125 1.640625,-1.53125 0.984375,-0.5 2.0625,-0.5 1.874995,0 3.187495,1.39062 1.3125,1.375 1.3125,3.5625 0,1.4375 -0.625,2.67188 -0.60937,1.23437 -1.6875,1.89062 -1.07812,0.65625 -2.45312,0.65625 -2.34375,0 -3.828125,-1.71875 -1.484375,-1.73437 -1.484375,-5.6875 0,-4.42187 1.640625,-6.4375 1.421875,-1.75 3.84375,-1.75 1.796875,0 2.953125,1.01563 1.15625,1 1.375,2.78125 z m -7.65625,6.57812 q 0,0.96875 0.40625,1.85938 0.421875,0.89062 1.15625,1.35937 0.75,0.45313 1.5625,0.45313 1.1875,0 2.03125,-0.95313 0.85937,-0.96875 0.85937,-2.60937 0,-1.57813 -0.84375,-2.48438 -0.84375,-0.92187 -2.124995,-0.92187 -1.265625,0 -2.15625,0.92187 -0.890625,0.90625 -0.890625,2.375 z"
       fill-rule="nonzero"
       id="path316" />
    <path
       fill="#cfe2f3"
       d="m 174.12335,294.5118 v 0 c 0,-11.698 9.48311,-21.18109 21.18111,-21.18109 v 0 c 5.61758,0 11.00508,2.23157 14.97731,6.2038 3.97223,3.97222 6.20379,9.35971 6.20379,14.97729 v 0 c 0,11.698 -9.48311,21.18109 -21.1811,21.18109 v 0 c -11.698,0 -21.18111,-9.48309 -21.18111,-21.18109 z"
       fill-rule="evenodd"
       id="path318" />
    <path
       stroke="#000000"
       stroke-width="1"
       stroke-linejoin="round"
       stroke-linecap="butt"
       d="m 174.12335,294.5118 v 0 c 0,-11.698 9.48311,-21.18109 21.18111,-21.18109 v 0 c 5.61758,0 11.00508,2.23157 14.97731,6.2038 3.97223,3.97222 6.20379,9.35971 6.20379,14.97729 v 0 c 0,11.698 -9.48311,21.18109 -21.1811,21.18109 v 0 c -11.698,0 -21.18111,-9.48309 -21.18111,-21.18109 z"
       fill-rule="evenodd"
       id="path320" />
    <path
       fill="#000000"
       d="m 196.26424,301.99182 v -3.65625 h -6.625 v -1.71875 l 6.96875,-9.89062 h 1.53125 v 9.89062 h 2.0625 v 1.71875 h -2.0625 v 3.65625 z m 0,-5.375 v -6.875 l -4.78125,6.875 z"
       fill-rule="nonzero"
       id="path322" />
    <path
       fill="#000000"
       fill-opacity="0"
       d="M 131.1076,239.55118 81.87926,279.51969"
       fill-rule="evenodd"
       id="path324" />
    <path
       stroke="#000000"
       stroke-width="1"
       stroke-linejoin="round"
       stroke-linecap="butt"
       d="M 131.1076,239.55118 86.537318,275.73783"
       fill-rule="evenodd"
       id="path326" />
    <path
       fill="#000000"
       stroke="#000000"
       stroke-width="1"
       stroke-linecap="butt"
       d="m 85.49621,274.4555 -2.48201,4.14273 4.564224,-1.57812 z"
       fill-rule="evenodd"
       id="path328" />
    <path
       fill="#000000"
       fill-opacity="0"
       d="m 131.1076,239.55118 v 33.79529"
       fill-rule="evenodd"
       id="path330" />
    <path
       stroke="#000000"
       stroke-width="1"
       stroke-linejoin="round"
       stroke-linecap="butt"
       d="m 131.1076,239.55118 v 27.79529"
       fill-rule="evenodd"
       id="path332" />
    <path
       fill="#000000"
       stroke="#000000"
       stroke-width="1"
       stroke-linecap="butt"
       d="m 129.45587,267.34647 1.65173,4.53809 1.65174,-4.53809 z"
       fill-rule="evenodd"
       id="path334" />
    <path
       fill="#000000"
       fill-opacity="0"
       d="m 131.1076,239.55118 49.22835,39.96851"
       fill-rule="evenodd"
       id="path336" />
    <path
       stroke="#000000"
       stroke-width="1"
       stroke-linejoin="round"
       stroke-linecap="butt"
       d="m 131.1076,239.55118 44.5703,36.18665"
       fill-rule="evenodd"
       id="path338" />
    <path
       fill="#000000"
       stroke="#000000"
       stroke-width="1"
       stroke-linecap="butt"
       d="m 174.6368,277.0201 4.56422,1.57813 -2.48201,-4.14274 z"
       fill-rule="evenodd"
       id="path340" />
    <path
       fill="#000000"
       fill-opacity="0"
       d="M 66.91076,315.6929 31.35171,345.14172"
       fill-rule="evenodd"
       id="path342" />
    <path
       stroke="#000000"
       stroke-width="1"
       stroke-linejoin="round"
       stroke-linecap="butt"
       d="M 66.91076,315.6929 35.972756,341.31473"
       fill-rule="evenodd"
       id="path344" />
    <path
       fill="#000000"
       stroke="#000000"
       stroke-width="1"
       stroke-linecap="butt"
       d="m 34.919224,340.0426 -2.441597,4.16669 4.548656,-1.62244 z"
       fill-rule="evenodd"
       id="path346" />
    <path
       fill="#000000"
       fill-opacity="0"
       d="m 66.91076,315.6929 32.09449,29.44882"
       fill-rule="evenodd"
       id="path348" />
    <path
       stroke="#000000"
       stroke-width="1"
       stroke-linejoin="round"
       stroke-linecap="butt"
       d="m 66.91076,315.6929 27.673546,25.3923"
       fill-rule="evenodd"
       id="path350" />
    <path
       fill="#000000"
       stroke="#000000"
       stroke-width="1"
       stroke-linecap="butt"
       d="m 93.4676,342.30225 4.460487,1.8511 -2.227066,-4.28515 z"
       fill-rule="evenodd"
       id="path352" />
    <path
       fill="#cfe2f3"
       d="m 576.56433,217.26772 v 0 c 0,-11.698 9.48309,-21.18111 21.18109,-21.18111 v 0 c 5.61755,0 11.00507,2.23159 14.9773,6.20381 3.97223,3.97223 6.20379,9.35973 6.20379,14.9773 v 0 c 0,11.698 -9.48309,21.18111 -21.18109,21.18111 v 0 c -11.698,0 -21.18109,-9.48311 -21.18109,-21.18111 z"
       fill-rule="evenodd"
       id="path354" />
    <path
       stroke="#000000"
       stroke-width="1"
       stroke-linejoin="round"
       stroke-linecap="butt"
       d="m 576.56433,217.26772 v 0 c 0,-11.698 9.48309,-21.18111 21.18109,-21.18111 v 0 c 5.61755,0 11.00507,2.23159 14.9773,6.20381 3.97223,3.97223 6.20379,9.35973 6.20379,14.9773 v 0 c 0,11.698 -9.48309,21.18111 -21.18109,21.18111 v 0 c -11.698,0 -21.18109,-9.48311 -21.18109,-21.18111 z"
       fill-rule="evenodd"
       id="path356" />
    <path
       fill="#000000"
       d="m 599.7677,224.74771 h -1.875 v -11.9375 q -0.6875,0.64062 -1.78125,1.28125 -1.09375,0.64062 -1.96875,0.96875 v -1.8125 q 1.5625,-0.73438 2.73437,-1.78125 1.1875,-1.0625 1.67188,-2.04688 h 1.21875 z"
       fill-rule="nonzero"
       id="path358" />
    <path
       fill="#cfe2f3"
       d="m 512.09186,299.59842 v 0 c 0,-11.698 9.48309,-21.18109 21.18109,-21.18109 v 0 c 5.61762,0 11.00507,2.23157 14.9773,6.2038 3.97223,3.97222 6.20379,9.35971 6.20379,14.97729 v 0 c 0,11.698 -9.48309,21.18112 -21.18109,21.18112 v 0 c -11.698,0 -21.18109,-9.48312 -21.18109,-21.18112 z"
       fill-rule="evenodd"
       id="path360" />
    <path
       stroke="#000000"
       stroke-width="1"
       stroke-linejoin="round"
       stroke-linecap="butt"
       d="m 512.09186,299.59842 v 0 c 0,-11.698 9.48309,-21.18109 21.18109,-21.18109 v 0 c 5.61762,0 11.00507,2.23157 14.9773,6.2038 3.97223,3.97222 6.20379,9.35971 6.20379,14.97729 v 0 c 0,11.698 -9.48309,21.18112 -21.18109,21.18112 v 0 c -11.698,0 -21.18109,-9.48312 -21.18109,-21.18112 z"
       fill-rule="evenodd"
       id="path362" />
    <path
       fill="#000000"
       d="m 538.0765,305.28156 v 1.79688 h -10.09375 q -0.0156,-0.67188 0.21875,-1.29688 0.39062,-1.03125 1.23437,-2.03125 0.85938,-1 2.45313,-2.3125 2.5,-2.04687 3.375,-3.23437 0.875,-1.20313 0.875,-2.25 0,-1.125 -0.79688,-1.89063 -0.79687,-0.76562 -2.07812,-0.76562 -1.35938,0 -2.17188,0.8125 -0.8125,0.8125 -0.82812,2.25 l -1.92188,-0.1875 q 0.20313,-2.15625 1.48438,-3.28125 1.29687,-1.14063 3.46875,-1.14063 2.20312,0 3.48437,1.21875 1.28125,1.21875 1.28125,3.01563 0,0.92187 -0.375,1.8125 -0.375,0.875 -1.25,1.85937 -0.85937,0.96875 -2.89062,2.6875 -1.6875,1.40625 -2.17188,1.92188 -0.46875,0.5 -0.78125,1.01562 z"
       fill-rule="nonzero"
       id="path364" />
    <path
       fill="#cfe2f3"
       d="m 576.56433,365.22308 v 0 c 0,-11.698 9.48309,-21.18109 21.18109,-21.18109 v 0 c 5.61755,0 11.00507,2.23157 14.9773,6.2038 3.97223,3.97222 6.20379,9.35974 6.20379,14.97729 v 0 c 0,11.69803 -9.48309,21.18112 -21.18109,21.18112 v 0 c -11.698,0 -21.18109,-9.48309 -21.18109,-21.18112 z"
       fill-rule="evenodd"
       id="path366" />
    <path
       stroke="#000000"
       stroke-width="1"
       stroke-linejoin="round"
       stroke-linecap="butt"
       d="m 576.56433,365.22308 v 0 c 0,-11.698 9.48309,-21.18109 21.18109,-21.18109 v 0 c 5.61755,0 11.00507,2.23157 14.9773,6.2038 3.97223,3.97222 6.20379,9.35974 6.20379,14.97729 v 0 c 0,11.69803 -9.48309,21.18112 -21.18109,21.18112 v 0 c -11.698,0 -21.18109,-9.48309 -21.18109,-21.18112 z"
       fill-rule="evenodd"
       id="path368" />
    <path
       fill="#000000"
       d="m 598.7052,372.7031 v -3.65625 h -6.625 v -1.71875 l 6.96875,-9.89063 h 1.53125 v 9.89063 h 2.0625 v 1.71875 h -2.0625 v 3.65625 z m 0,-5.375 v -6.875 l -4.78125,6.875 z"
       fill-rule="nonzero"
       id="path370" />
    <path
       fill="#cfe2f3"
       d="m 641.50397,299.59842 v 0 c 0,-11.698 9.48309,-21.18109 21.18109,-21.18109 v 0 c 5.61755,0 11.00507,2.23157 14.9773,6.2038 3.97223,3.97222 6.20379,9.35971 6.20379,14.97729 v 0 c 0,11.698 -9.48309,21.18112 -21.18109,21.18112 v 0 c -11.698,0 -21.18109,-9.48312 -21.18109,-21.18112 z"
       fill-rule="evenodd"
       id="path372" />
    <path
       stroke="#000000"
       stroke-width="1"
       stroke-linejoin="round"
       stroke-linecap="butt"
       d="m 641.50397,299.59842 v 0 c 0,-11.698 9.48309,-21.18109 21.18109,-21.18109 v 0 c 5.61755,0 11.00507,2.23157 14.9773,6.2038 3.97223,3.97222 6.20379,9.35971 6.20379,14.97729 v 0 c 0,11.698 -9.48309,21.18112 -21.18109,21.18112 v 0 c -11.698,0 -21.18109,-9.48312 -21.18109,-21.18112 z"
       fill-rule="evenodd"
       id="path374" />
    <path
       fill="#000000"
       d="m 657.64484,303.04718 1.875,-0.25 q 0.32813,1.59375 1.09375,2.29688 0.78125,0.70312 1.90625,0.70312 1.3125,0 2.21875,-0.90625 0.92188,-0.92187 0.92188,-2.28125 0,-1.29687 -0.84375,-2.125 -0.84375,-0.84375 -2.14063,-0.84375 -0.53125,0 -1.32812,0.20313 l 0.20312,-1.64063 q 0.1875,0.0156 0.3125,0.0156 1.1875,0 2.14063,-0.625 0.96875,-0.625 0.96875,-1.92188 0,-1.03125 -0.70313,-1.70312 -0.6875,-0.67188 -1.79687,-0.67188 -1.09375,0 -1.82813,0.6875 -0.71875,0.6875 -0.9375,2.0625 l -1.875,-0.34375 q 0.34375,-1.875 1.5625,-2.90625 1.21875,-1.04687 3.03125,-1.04687 1.25,0 2.29688,0.54687 1.0625,0.53125 1.60937,1.45313 0.5625,0.92187 0.5625,1.96875 0,0.98437 -0.53125,1.79687 -0.53125,0.8125 -1.5625,1.29688 1.34375,0.3125 2.09375,1.29687 0.75,0.98438 0.75,2.45313 0,2 -1.45312,3.39062 -1.45313,1.39063 -3.6875,1.39063 -2.01563,0 -3.34375,-1.1875 -1.32813,-1.20313 -1.51563,-3.10938 z"
       fill-rule="nonzero"
       id="path376" />
    <path
       fill="#cfe2f3"
       d="m 512.09186,437.03412 v 0 c 0,-11.698 9.48309,-21.18109 21.18109,-21.18109 v 0 c 5.61762,0 11.00507,2.23157 14.9773,6.2038 3.97223,3.97222 6.20379,9.35971 6.20379,14.97729 v 0 c 0,11.698 -9.48309,21.18109 -21.18109,21.18109 v 0 c -11.698,0 -21.18109,-9.48309 -21.18109,-21.18109 z"
       fill-rule="evenodd"
       id="path378" />
    <path
       stroke="#000000"
       stroke-width="1"
       stroke-linejoin="round"
       stroke-linecap="butt"
       d="m 512.09186,437.03412 v 0 c 0,-11.698 9.48309,-21.18109 21.18109,-21.18109 v 0 c 5.61762,0 11.00507,2.23157 14.9773,6.2038 3.97223,3.97222 6.20379,9.35971 6.20379,14.97729 v 0 c 0,11.698 -9.48309,21.18109 -21.18109,21.18109 v 0 c -11.698,0 -21.18109,-9.48309 -21.18109,-21.18109 z"
       fill-rule="evenodd"
       id="path380" />
    <path
       fill="#000000"
       d="m 528.2327,440.51413 1.96875,-0.17187 q 0.21875,1.4375 1.01563,2.17187 0.79687,0.71875 1.92187,0.71875 1.34375,0 2.28125,-1.01562 0.9375,-1.03125 0.9375,-2.71875 0,-1.59375 -0.90625,-2.51563 -0.89062,-0.9375 -2.34375,-0.9375 -0.90625,0 -1.64062,0.42188 -0.73438,0.40625 -1.14063,1.0625 l -1.76562,-0.23438 1.48437,-7.84375 h 7.59375 v 1.79688 h -6.09375 l -0.82812,4.09375 q 1.375,-0.95313 2.89062,-0.95313 2,0 3.35938,1.39063 1.375,1.375 1.375,3.5625 0,2.0625 -1.20313,3.57812 -1.46875,1.85938 -4,1.85938 -2.09375,0 -3.40625,-1.17188 -1.3125,-1.17187 -1.5,-3.09375 z"
       fill-rule="nonzero"
       id="path382" />
    <path
       fill="#cfe2f3"
       d="m 641.50397,437.03412 v 0 c 0,-11.698 9.48309,-21.18109 21.18109,-21.18109 v 0 c 5.61755,0 11.00507,2.23157 14.9773,6.2038 3.97223,3.97222 6.20379,9.35971 6.20379,14.97729 v 0 c 0,11.698 -9.48309,21.18109 -21.18109,21.18109 v 0 c -11.698,0 -21.18109,-9.48309 -21.18109,-21.18109 z"
       fill-rule="evenodd"
       id="path384" />
    <path
       stroke="#000000"
       stroke-width="1"
       stroke-linejoin="round"
       stroke-linecap="butt"
       d="m 641.50397,437.03412 v 0 c 0,-11.698 9.48309,-21.18109 21.18109,-21.18109 v 0 c 5.61755,0 11.00507,2.23157 14.9773,6.2038 3.97223,3.97222 6.20379,9.35971 6.20379,14.97729 v 0 c 0,11.698 -9.48309,21.18109 -21.18109,21.18109 v 0 c -11.698,0 -21.18109,-9.48309 -21.18109,-21.18109 z"
       fill-rule="evenodd"
       id="path386" />
    <path
       fill="#000000"
       d="m 667.3636,432.98288 -1.85937,0.15625 q -0.25,-1.10937 -0.70313,-1.60937 -0.76562,-0.79688 -1.875,-0.79688 -0.90625,0 -1.57812,0.5 -0.89063,0.64063 -1.40625,1.875 -0.5,1.23438 -0.51563,3.53125 0.67188,-1.03125 1.64063,-1.53125 0.98437,-0.5 2.0625,-0.5 1.875,0 3.1875,1.39063 1.3125,1.375 1.3125,3.5625 0,1.4375 -0.625,2.67187 -0.60938,1.23438 -1.6875,1.89063 -1.07813,0.65625 -2.45313,0.65625 -2.34375,0 -3.82812,-1.71875 -1.48438,-1.73438 -1.48438,-5.6875 0,-4.42188 1.64063,-6.4375 1.42187,-1.75 3.84375,-1.75 1.79687,0 2.95312,1.01562 1.15625,1 1.375,2.78125 z m -7.65625,6.57813 q 0,0.96875 0.40625,1.85937 0.42188,0.89063 1.15625,1.35938 0.75,0.45312 1.5625,0.45312 1.1875,0 2.03125,-0.95312 0.85938,-0.96875 0.85938,-2.60938 0,-1.57812 -0.84375,-2.48437 -0.84375,-0.92188 -2.125,-0.92188 -1.26563,0 -2.15625,0.92188 -0.89063,0.90625 -0.89063,2.375 z"
       fill-rule="nonzero"
       id="path388" />
    <path
       fill="#000000"
       fill-opacity="0"
       d="m 597.7454,238.44882 -64.47247,39.96851"
       fill-rule="evenodd"
       id="path390" />
    <path
       stroke="#000000"
       stroke-width="1"
       stroke-linejoin="round"
       stroke-linecap="butt"
       d="m 597.7454,238.44882 -59.37286,36.80713"
       fill-rule="evenodd"
       id="path392" />
    <path
       fill="#000000"
       stroke="#000000"
       stroke-width="1"
       stroke-linecap="butt"
       d="m 537.50226,273.85208 -2.98676,3.79498 4.72736,-0.98727 z"
       fill-rule="evenodd"
       id="path394" />
    <path
       fill="#000000"
       fill-opacity="0"
       d="m 533.27295,320.77954 64.47247,23.27557"
       fill-rule="evenodd"
       id="path396" />
    <path
       stroke="#000000"
       stroke-width="1"
       stroke-linejoin="round"
       stroke-linecap="butt"
       d="m 533.27295,320.77954 58.82898,21.23819"
       fill-rule="evenodd"
       id="path398" />
    <path
       fill="#000000"
       stroke="#000000"
       stroke-width="1"
       stroke-linecap="butt"
       d="m 591.541,343.57132 4.82935,-0.0126 -3.70758,-3.09458 z"
       fill-rule="evenodd"
       id="path400" />
    <path
       fill="#000000"
       fill-opacity="0"
       d="m 597.7454,344.042 64.94489,-23.27557"
       fill-rule="evenodd"
       id="path402" />
    <path
       stroke="#000000"
       stroke-width="1"
       stroke-linejoin="round"
       stroke-linecap="butt"
       d="m 597.7454,344.042 59.29663,-21.25134"
       fill-rule="evenodd"
       id="path404" />
    <path
       fill="#000000"
       stroke="#000000"
       stroke-width="1"
       stroke-linecap="butt"
       d="m 657.5993,324.34555 3.71478,-3.08594 -4.82928,-0.0238 z"
       fill-rule="evenodd"
       id="path406" />
    <path
       fill="#000000"
       fill-opacity="0"
       d="M 662.68506,278.41733 597.74018,238.44882"
       fill-rule="evenodd"
       id="path408" />
    <path
       stroke="#000000"
       stroke-width="1"
       stroke-linejoin="round"
       stroke-linecap="butt"
       d="M 662.68506,278.41733 602.85004,241.59355"
       fill-rule="evenodd"
       id="path410" />
    <path
       fill="#000000"
       stroke="#000000"
       stroke-width="1"
       stroke-linecap="butt"
       d="m 603.71576,240.18686 -4.73059,-0.97183 2.99914,3.7852 z"
       fill-rule="evenodd"
       id="path412" />
    <path
       fill="#000000"
       fill-opacity="0"
       d="m 597.7454,386.4042 -64.47247,29.44882"
       fill-rule="evenodd"
       id="path414" />
    <path
       stroke="#000000"
       stroke-width="1"
       stroke-linejoin="round"
       stroke-linecap="butt"
       d="m 597.7454,386.4042 -59.01483,26.95596"
       fill-rule="evenodd"
       id="path416" />
    <path
       fill="#000000"
       stroke="#000000"
       stroke-width="1"
       stroke-linecap="butt"
       d="m 538.0443,411.85773 -3.44159,3.38791 4.81415,-0.38306 z"
       fill-rule="evenodd"
       id="path418" />
    <path
       fill="#000000"
       fill-opacity="0"
       d="m 597.7454,386.4042 64.94489,29.44882"
       fill-rule="evenodd"
       id="path420" />
    <path
       stroke="#000000"
       stroke-width="1"
       stroke-linejoin="round"
       stroke-linecap="butt"
       d="m 597.7454,386.4042 59.48041,26.97101"
       fill-rule="evenodd"
       id="path422" />
    <path
       fill="#000000"
       stroke="#000000"
       stroke-width="1"
       stroke-linecap="butt"
       d="m 656.5437,414.8795 4.81519,0.36981 -3.45093,-3.37842 z"
       fill-rule="evenodd"
       id="path424" />
    <path
       fill="#000000"
       fill-opacity="0"
       d="M 533.27295,415.85303 V 320.76642"
       fill-rule="evenodd"
       id="path426" />
    <path
       stroke="#000000"
       stroke-width="1"
       stroke-linejoin="round"
       stroke-linecap="butt"
       d="M 533.27295,415.85303 V 326.76642"
       fill-rule="evenodd"
       id="path428" />
    <path
       fill="#000000"
       stroke="#000000"
       stroke-width="1"
       stroke-linecap="butt"
       d="m 534.9247,326.76642 -1.65173,-4.53812 -1.65174,4.53812 z"
       fill-rule="evenodd"
       id="path430" />
    <path
       fill="#cfe2f3"
       d="m 722.92126,263.32022 v 0 c 0,-11.69801 9.48309,-21.18111 21.18109,-21.18111 v 0 c 5.61755,0 11.00507,2.23157 14.9773,6.2038 3.97222,3.97223 6.20379,9.35973 6.20379,14.97731 v 0 c 0,11.698 -9.48309,21.18109 -21.18109,21.18109 v 0 c -11.698,0 -21.18109,-9.48309 -21.18109,-21.18109 z"
       fill-rule="evenodd"
       id="path432" />
    <path
       stroke="#000000"
       stroke-width="1"
       stroke-linejoin="round"
       stroke-linecap="butt"
       d="m 722.92126,263.32022 v 0 c 0,-11.69801 9.48309,-21.18111 21.18109,-21.18111 v 0 c 5.61755,0 11.00507,2.23157 14.9773,6.2038 3.97222,3.97223 6.20379,9.35973 6.20379,14.97731 v 0 c 0,11.698 -9.48309,21.18109 -21.18109,21.18109 v 0 c -11.698,0 -21.18109,-9.48309 -21.18109,-21.18109 z"
       fill-rule="evenodd"
       id="path434" />
    <path
       fill="#000000"
       d="m 746.12463,270.8002 h -1.875 v -11.9375 q -0.6875,0.64063 -1.78125,1.28125 -1.09375,0.64063 -1.96875,0.96875 v -1.8125 q 1.5625,-0.73437 2.73438,-1.78125 1.1875,-1.0625 1.67187,-2.04686 h 1.21875 z"
       fill-rule="nonzero"
       id="path436" />
    <path
       fill="#cfe2f3"
       d="m 812.70605,263.32022 v 0 c 0,-11.69801 9.48309,-21.18111 21.18109,-21.18111 v 0 c 5.61755,0 11.00507,2.23157 14.9773,6.2038 3.97223,3.97223 6.20379,9.35973 6.20379,14.97731 v 0 c 0,11.698 -9.48309,21.18109 -21.18109,21.18109 v 0 c -11.698,0 -21.18109,-9.48309 -21.18109,-21.18109 z"
       fill-rule="evenodd"
       id="path438" />
    <path
       stroke="#000000"
       stroke-width="1"
       stroke-linejoin="round"
       stroke-linecap="butt"
       d="m 812.70605,263.32022 v 0 c 0,-11.69801 9.48309,-21.18111 21.18109,-21.18111 v 0 c 5.61755,0 11.00507,2.23157 14.9773,6.2038 3.97223,3.97223 6.20379,9.35973 6.20379,14.97731 v 0 c 0,11.698 -9.48309,21.18109 -21.18109,21.18109 v 0 c -11.698,0 -21.18109,-9.48309 -21.18109,-21.18109 z"
       fill-rule="evenodd"
       id="path440" />
    <path
       fill="#000000"
       d="m 838.6907,269.00333 v 1.79687 h -10.09375 q -0.0156,-0.67187 0.21875,-1.29687 0.39062,-1.03125 1.23437,-2.03125 0.85938,-1 2.45313,-2.3125 2.5,-2.04688 3.375,-3.23438 0.875,-1.20312 0.875,-2.25 0,-1.125 -0.79688,-1.89062 -0.79687,-0.76563 -2.07812,-0.76563 -1.35938,0 -2.17188,0.8125 -0.8125,0.8125 -0.82812,2.25 l -1.92188,-0.1875 q 0.20313,-2.15625 1.48438,-3.28125 1.29687,-1.1406 3.46875,-1.1406 2.20312,0 3.48437,1.21873 1.28125,1.21875 1.28125,3.01562 0,0.92188 -0.375,1.8125 -0.375,0.875 -1.25,1.85938 -0.85937,0.96875 -2.89062,2.6875 -1.6875,1.40625 -2.17188,1.92187 -0.46875,0.5 -0.78125,1.01563 z"
       fill-rule="nonzero"
       id="path442" />
    <path
       fill="#cfe2f3"
       d="m 906.72705,263.32022 v 0 c 0,-11.69801 9.48309,-21.18111 21.18109,-21.18111 v 0 c 5.61755,0 11.00507,2.23157 14.9773,6.2038 3.97222,3.97223 6.20379,9.35973 6.20379,14.97731 v 0 c 0,11.698 -9.48309,21.18109 -21.18109,21.18109 v 0 c -11.698,0 -21.18109,-9.48309 -21.18109,-21.18109 z"
       fill-rule="evenodd"
       id="path444" />
    <path
       stroke="#000000"
       stroke-width="1"
       stroke-linejoin="round"
       stroke-linecap="butt"
       d="m 906.72705,263.32022 v 0 c 0,-11.69801 9.48309,-21.18111 21.18109,-21.18111 v 0 c 5.61755,0 11.00507,2.23157 14.9773,6.2038 3.97222,3.97223 6.20379,9.35973 6.20379,14.97731 v 0 c 0,11.698 -9.48309,21.18109 -21.18109,21.18109 v 0 c -11.698,0 -21.18109,-9.48309 -21.18109,-21.18109 z"
       fill-rule="evenodd"
       id="path446" />
    <path
       fill="#000000"
       d="m 922.8679,266.76895 1.875,-0.25 q 0.32812,1.59375 1.09375,2.29688 0.78125,0.70312 1.90625,0.70312 1.3125,0 2.21875,-0.90625 0.92187,-0.92187 0.92187,-2.28125 0,-1.29687 -0.84375,-2.125 -0.84375,-0.84375 -2.14062,-0.84375 -0.53125,0 -1.32813,0.20313 l 0.20313,-1.64063 q 0.1875,0.0156 0.3125,0.0156 1.1875,0 2.14062,-0.625 0.96875,-0.625 0.96875,-1.92188 0,-1.03125 -0.70312,-1.70312 -0.6875,-0.67188 -1.79688,-0.67188 -1.09375,0 -1.82812,0.6875 -0.71875,0.6875 -0.9375,2.0625 l -1.875,-0.34375 q 0.34375,-1.875 1.5625,-2.90625 1.21875,-1.04686 3.03125,-1.04686 1.25,0 2.29687,0.54686 1.0625,0.53125 1.60938,1.45313 0.5625,0.92187 0.5625,1.96875 0,0.98437 -0.53125,1.79687 -0.53125,0.8125 -1.5625,1.29688 1.34375,0.3125 2.09375,1.29687 0.75,0.98438 0.75,2.45313 0,2 -1.45313,3.39062 -1.45312,1.39063 -3.6875,1.39063 -2.01562,0 -3.34375,-1.1875 -1.32812,-1.20313 -1.51562,-3.10938 z"
       fill-rule="nonzero"
       id="path448" />
    <path
       fill="#cfe2f3"
       d="m 722.92126,367.86877 v 0 c 0,-11.698 9.48309,-21.18112 21.18109,-21.18112 v 0 c 5.61755,0 11.00507,2.2316 14.9773,6.20382 3.97222,3.9722 6.20379,9.35972 6.20379,14.9773 v 0 c 0,11.698 -9.48309,21.18109 -21.18109,21.18109 v 0 c -11.698,0 -21.18109,-9.48309 -21.18109,-21.18109 z"
       fill-rule="evenodd"
       id="path450" />
    <path
       stroke="#000000"
       stroke-width="1"
       stroke-linejoin="round"
       stroke-linecap="butt"
       d="m 722.92126,367.86877 v 0 c 0,-11.698 9.48309,-21.18112 21.18109,-21.18112 v 0 c 5.61755,0 11.00507,2.2316 14.9773,6.20382 3.97222,3.9722 6.20379,9.35972 6.20379,14.9773 v 0 c 0,11.698 -9.48309,21.18109 -21.18109,21.18109 v 0 c -11.698,0 -21.18109,-9.48309 -21.18109,-21.18109 z"
       fill-rule="evenodd"
       id="path452" />
    <path
       fill="#000000"
       d="m 745.06213,375.34875 v -3.65625 h -6.625 v -1.71875 l 6.96875,-9.89063 h 1.53125 v 9.89063 h 2.0625 v 1.71875 h -2.0625 v 3.65625 z m 0,-5.375 v -6.875 l -4.78125,6.875 z"
       fill-rule="nonzero"
       id="path454" />
    <path
       fill="#cfe2f3"
       d="m 906.72705,367.86877 v 0 c 0,-11.698 9.48309,-21.18112 21.18109,-21.18112 v 0 c 5.61755,0 11.00507,2.2316 14.9773,6.20382 3.97222,3.9722 6.20379,9.35972 6.20379,14.9773 v 0 c 0,11.698 -9.48309,21.18109 -21.18109,21.18109 v 0 c -11.698,0 -21.18109,-9.48309 -21.18109,-21.18109 z"
       fill-rule="evenodd"
       id="path456" />
    <path
       stroke="#000000"
       stroke-width="1"
       stroke-linejoin="round"
       stroke-linecap="butt"
       d="m 906.72705,367.86877 v 0 c 0,-11.698 9.48309,-21.18112 21.18109,-21.18112 v 0 c 5.61755,0 11.00507,2.2316 14.9773,6.20382 3.97222,3.9722 6.20379,9.35972 6.20379,14.9773 v 0 c 0,11.698 -9.48309,21.18109 -21.18109,21.18109 v 0 c -11.698,0 -21.18109,-9.48309 -21.18109,-21.18109 z"
       fill-rule="evenodd"
       id="path458" />
    <path
       fill="#000000"
       d="m 923.55585,375.34875 v -15.26563 h 2.07812 l 8.01563,11.98438 v -11.98438 h 1.9375 v 15.26563 h -2.07813 l -8.01562,-12 v 12 z"
       fill-rule="nonzero"
       id="path460" />
    <path
       fill="#000000"
       fill-opacity="0"
       d="m 765.28345,263.32022 h 47.4331"
       fill-rule="evenodd"
       id="path462" />
    <path
       stroke="#000000"
       stroke-width="1"
       stroke-linejoin="round"
       stroke-linecap="butt"
       d="m 765.28345,263.32022 h 41.4331"
       fill-rule="evenodd"
       id="path464" />
    <path
       fill="#000000"
       stroke="#000000"
       stroke-width="1"
       stroke-linecap="butt"
       d="m 806.71655,264.97195 4.53809,-1.65173 -4.53809,-1.65174 z"
       fill-rule="evenodd"
       id="path466" />
    <path
       fill="#000000"
       fill-opacity="0"
       d="M 855.06824,263.32022 H 906.7218"
       fill-rule="evenodd"
       id="path468" />
    <path
       stroke="#000000"
       stroke-width="1"
       stroke-linejoin="round"
       stroke-linecap="butt"
       d="M 855.06824,263.32022 H 900.7218"
       fill-rule="evenodd"
       id="path470" />
    <path
       fill="#000000"
       stroke="#000000"
       stroke-width="1"
       stroke-linecap="butt"
       d="m 900.7218,264.97195 4.53809,-1.65173 -4.53809,-1.65174 z"
       fill-rule="evenodd"
       id="path472" />
    <path
       fill="#000000"
       fill-opacity="0"
       d="m 765.28345,367.86877 h 47.4331"
       fill-rule="evenodd"
       id="path474" />
    <path
       stroke="#000000"
       stroke-width="1"
       stroke-linejoin="round"
       stroke-linecap="butt"
       d="m 765.28345,367.86877 h 41.4331"
       fill-rule="evenodd"
       id="path476" />
    <path
       fill="#000000"
       stroke="#000000"
       stroke-width="1"
       stroke-linecap="butt"
       d="m 806.71655,369.5205 4.53809,-1.65173 -4.53809,-1.65174 z"
       fill-rule="evenodd"
       id="path478" />
    <path
       fill="#000000"
       fill-opacity="0"
       d="m 855.0735,367.86877 h 51.65356"
       fill-rule="evenodd"
       id="path480" />
    <path
       stroke="#000000"
       stroke-width="1"
       stroke-linejoin="round"
       stroke-linecap="butt"
       d="m 855.0735,367.86877 h 45.65356"
       fill-rule="evenodd"
       id="path482" />
    <path
       fill="#000000"
       stroke="#000000"
       stroke-width="1"
       stroke-linecap="butt"
       d="m 900.72705,369.5205 4.53809,-1.65173 -4.53809,-1.65174 z"
       fill-rule="evenodd"
       id="path484" />
    <path
       fill="#000000"
       fill-opacity="0"
       d="M 927.90814,284.5013 744.0971,346.67452"
       fill-rule="evenodd"
       id="path486" />
    <path
       stroke="#000000"
       stroke-width="1"
       stroke-linejoin="round"
       stroke-linecap="butt"
       d="M 927.90814,284.5013 749.78076,344.75203"
       fill-rule="evenodd"
       id="path488" />
    <path
       fill="#000000"
       stroke="#000000"
       stroke-width="1"
       stroke-linecap="butt"
       d="m 749.2515,343.1874 -3.76959,3.01871 4.82806,0.11059 z"
       fill-rule="evenodd"
       id="path490" />
    <path
       fill="#000000"
       fill-opacity="0"
       d="M 57.412075,131.91077 H 201.41208 v 42.01575 H 57.412075 Z"
       fill-rule="evenodd"
       id="path492" />
    <path
       fill="#000000"
       d="m 66.38082,158.83076 5.125,-13.35938 h 1.90625 l 5.46875,13.35938 h -2.015625 l -1.546875,-4.04688 h -5.59375 l -1.46875,4.04688 z m 3.859375,-5.48438 h 4.53125 l -1.40625,-3.70312 q -0.625,-1.6875 -0.9375,-2.76563 -0.265625,1.28125 -0.71875,2.54688 z m 16.162323,1.9375 1.609375,0.21875 q -0.265625,1.65625 -1.359375,2.60938 -1.078125,0.9375 -2.671875,0.9375 -1.984375,0 -3.1875,-1.29688 -1.203125,-1.29687 -1.203125,-3.71875 0,-1.57812 0.515625,-2.75 0.515625,-1.17187 1.578125,-1.75 1.0625,-0.59375 2.3125,-0.59375 1.578125,0 2.578125,0.79688 1,0.79687 1.28125,2.26562 l -1.59375,0.23438 q -0.234375,-0.96875 -0.8125,-1.45313 -0.578125,-0.5 -1.390625,-0.5 -1.234375,0 -2.015625,0.89063 -0.78125,0.89062 -0.78125,2.8125 0,1.95312 0.75,2.84375 0.75,0.875 1.953125,0.875 0.96875,0 1.609375,-0.59375 0.65625,-0.59375 0.828125,-1.82813 z m 2.9375,7.26563 -0.1875,-1.53125 q 0.546875,0.14062 0.9375,0.14062 0.546875,0 0.875,-0.1875 0.328125,-0.17187 0.546875,-0.5 0.15625,-0.25 0.5,-1.21875 0.04687,-0.14062 0.140625,-0.40625 l -3.671875,-9.6875 h 1.765625 l 2.015625,5.59375 q 0.390625,1.07813 0.703125,2.25 0.28125,-1.125 0.671875,-2.20312 l 2.078125,-5.64063 h 1.640625 l -3.6875,9.82813 q -0.59375,1.60937 -0.921875,2.20312 -0.4375,0.8125 -1,1.1875 -0.5625,0.375 -1.34375,0.375 -0.484375,0 -1.0625,-0.20312 z m 15.718752,-7.26563 1.60937,0.21875 q -0.26562,1.65625 -1.35937,2.60938 -1.07813,0.9375 -2.67188,0.9375 -1.98437,0 -3.187497,-1.29688 -1.203125,-1.29687 -1.203125,-3.71875 0,-1.57812 0.515625,-2.75 0.515625,-1.17187 1.578127,-1.75 1.0625,-0.59375 2.3125,-0.59375 1.57812,0 2.57812,0.79688 1,0.79687 1.28125,2.26562 l -1.59375,0.23438 q -0.23437,-0.96875 -0.8125,-1.45313 -0.57812,-0.5 -1.39062,-0.5 -1.23438,0 -2.01563,0.89063 -0.781247,0.89062 -0.781247,2.8125 0,1.95312 0.749997,2.84375 0.75,0.875 1.95313,0.875 0.96875,0 1.60937,-0.59375 0.65625,-0.59375 0.82813,-1.82813 z m 2.96875,3.54688 v -13.35938 h 1.64062 v 13.35938 z m 4.19169,-11.46875 v -1.89063 h 1.64063 v 1.89063 z m 0,11.46875 v -9.67188 h 1.64063 v 9.67188 z m 10.45733,-3.54688 1.60937,0.21875 q -0.26562,1.65625 -1.35937,2.60938 -1.07813,0.9375 -2.67188,0.9375 -1.98437,0 -3.1875,-1.29688 -1.20312,-1.29687 -1.20312,-3.71875 0,-1.57812 0.51562,-2.75 0.51563,-1.17187 1.57813,-1.75 1.0625,-0.59375 2.3125,-0.59375 1.57812,0 2.57812,0.79688 1,0.79687 1.28125,2.26562 l -1.59375,0.23438 q -0.23437,-0.96875 -0.8125,-1.45313 -0.57812,-0.5 -1.39062,-0.5 -1.23438,0 -2.01563,0.89063 -0.78125,0.89062 -0.78125,2.8125 0,1.95312 0.75,2.84375 0.75,0.875 1.95313,0.875 0.96875,0 1.60937,-0.59375 0.65625,-0.59375 0.82813,-1.82813 z m 7.88643,4.34375 1.59375,0.23438 q 0.10938,0.75 0.5625,1.07812 0.60938,0.45313 1.67188,0.45313 1.14062,0 1.75,-0.45313 0.625,-0.45312 0.84375,-1.26562 0.125,-0.5 0.10937,-2.10938 -1.0625,1.26563 -2.67187,1.26563 -2,0 -3.09375,-1.4375 -1.09375,-1.4375 -1.09375,-3.45313 0,-1.39062 0.5,-2.5625 0.51562,-1.17187 1.45312,-1.79687 0.95313,-0.64063 2.25,-0.64063 1.70313,0 2.8125,1.375 v -1.15625 h 1.51563 v 8.35938 q 0,2.26562 -0.46875,3.20312 -0.45313,0.9375 -1.45313,1.48438 -0.98437,0.54687 -2.45312,0.54687 -1.71875,0 -2.79688,-0.78125 -1.0625,-0.76562 -1.03125,-2.34375 z m 1.35938,-5.8125 q 0,1.90625 0.75,2.78125 0.76562,0.875 1.90625,0.875 1.125,0 1.89062,-0.85937 0.76563,-0.875 0.76563,-2.73438 0,-1.78125 -0.79688,-2.67187 -0.78125,-0.90625 -1.89062,-0.90625 -1.09375,0 -1.85938,0.89062 -0.76562,0.875 -0.76562,2.625 z m 9.31321,5.01563 v -9.67188 h 1.46875 v 1.46875 q 0.5625,-1.03125 1.03125,-1.35937 0.48438,-0.32813 1.0625,-0.32813 0.82813,0 1.6875,0.53125 l -0.5625,1.51563 q -0.60937,-0.35938 -1.20312,-0.35938 -0.54688,0 -0.96875,0.32813 -0.42188,0.32812 -0.60938,0.89062 -0.28125,0.875 -0.28125,1.92188 v 5.0625 z m 12.54081,-1.1875 q -0.92188,0.76562 -1.76563,1.09375 -0.82812,0.3125 -1.79687,0.3125 -1.59375,0 -2.45313,-0.78125 -0.85937,-0.78125 -0.85937,-1.98438 0,-0.71875 0.32812,-1.29687 0.32813,-0.59375 0.84375,-0.9375 0.53125,-0.35938 1.1875,-0.54688 0.46875,-0.125 1.45313,-0.25 1.98437,-0.23437 2.92187,-0.5625 0.0156,-0.34375 0.0156,-0.42187 0,-1 -0.46875,-1.42188 -0.625,-0.54687 -1.875,-0.54687 -1.15625,0 -1.70313,0.40625 -0.54687,0.40625 -0.8125,1.42187 l -1.60937,-0.21875 q 0.21875,-1.01562 0.71875,-1.64062 0.5,-0.64063 1.45312,-0.98438 0.95313,-0.34375 2.1875,-0.34375 1.25,0 2.01563,0.29688 0.78125,0.28125 1.14062,0.73437 0.375,0.4375 0.51563,1.10938 0.0781,0.42187 0.0781,1.51562 v 2.1875 q 0,2.28125 0.10938,2.89063 0.10937,0.59375 0.40625,1.15625 h -1.70313 q -0.26562,-0.51563 -0.32812,-1.1875 z m -0.14063,-3.67188 q -0.89062,0.375 -2.67187,0.625 -1.01563,0.14063 -1.4375,0.32813 -0.42188,0.1875 -0.65625,0.53125 -0.21875,0.34375 -0.21875,0.78125 0,0.65625 0.5,1.09375 0.5,0.4375 1.45312,0.4375 0.9375,0 1.67188,-0.40625 0.75,-0.42188 1.09375,-1.14063 0.26562,-0.5625 0.26562,-1.64062 z m 4.20384,8.5625 v -13.375 h 1.48438 v 1.25 q 0.53125,-0.73437 1.1875,-1.09375 0.67187,-0.375 1.625,-0.375 1.23437,0 2.17187,0.64063 0.95313,0.625 1.4375,1.79687 0.48438,1.15625 0.48438,2.54688 0,1.48437 -0.53125,2.67187 -0.53125,1.1875 -1.54688,1.82813 -1.01562,0.625 -2.14062,0.625 -0.8125,0 -1.46875,-0.34375 -0.65625,-0.34375 -1.0625,-0.875 v 4.70312 z m 1.48438,-8.48437 q 0,1.85937 0.75,2.76562 0.76562,0.89063 1.82812,0.89063 1.09375,0 1.875,-0.92188 0.78125,-0.9375 0.78125,-2.875 0,-1.84375 -0.76562,-2.76562 -0.75,-0.92188 -1.8125,-0.92188 -1.04688,0 -1.85938,0.98438 -0.79687,0.96875 -0.79687,2.84375 z m 8.89134,4.78125 v -13.35938 h 1.64062 v 4.79688 q 1.14063,-1.32813 2.89063,-1.32813 1.07812,0 1.85937,0.42188 0.79688,0.42187 1.14063,1.17187 0.34375,0.75 0.34375,2.17188 v 6.125 h -1.64063 v -6.125 q 0,-1.23438 -0.53125,-1.79688 -0.53125,-0.5625 -1.51562,-0.5625 -0.71875,0 -1.35938,0.39063 -0.64062,0.375 -0.92187,1.01562 -0.26563,0.64063 -0.26563,1.78125 v 5.29688 z"
       fill-rule="nonzero"
       id="path494" />
    <path
       fill="#000000"
       fill-opacity="0"
       d="m 527.0105,130.8084 h 138.07874 v 42.01575 H 527.0105 Z"
       fill-rule="evenodd"
       id="path496" />
    <path
       fill="#000000"
       d="m 546.97925,153.0409 1.76562,0.45312 q -0.5625,2.17188 -2,3.32813 -1.4375,1.14062 -3.53125,1.14062 -2.15625,0 -3.51562,-0.875 -1.34375,-0.89062 -2.0625,-2.54687 -0.70313,-1.67188 -0.70313,-3.59375 0,-2.07813 0.79688,-3.625 0.79687,-1.5625 2.26562,-2.35938 1.48438,-0.8125 3.25,-0.8125 2,0 3.35938,1.01563 1.375,1.01562 1.90625,2.875 l -1.73438,0.40625 q -0.46875,-1.45313 -1.35937,-2.10938 -0.875,-0.67187 -2.20313,-0.67187 -1.54687,0 -2.57812,0.73437 -1.03125,0.73438 -1.45313,1.98438 -0.42187,1.23437 -0.42187,2.5625 0,1.70312 0.5,2.96875 0.5,1.26562 1.54687,1.90625 1.04688,0.625 2.26563,0.625 1.48437,0 2.51562,-0.85938 1.03125,-0.85937 1.39063,-2.54687 z m 3.66046,8.40625 -0.1875,-1.53125 q 0.54688,0.14062 0.9375,0.14062 0.54688,0 0.875,-0.1875 0.32813,-0.17187 0.54688,-0.5 0.15625,-0.25 0.5,-1.21875 0.0469,-0.14062 0.14062,-0.40625 l -3.67187,-9.6875 h 1.76562 l 2.01563,5.59375 q 0.39062,1.07813 0.70312,2.25 0.28125,-1.125 0.67188,-2.20312 l 2.07812,-5.64063 h 1.64063 l -3.6875,9.82813 q -0.59375,1.60937 -0.92188,2.20312 -0.4375,0.8125 -1,1.1875 -0.5625,0.375 -1.34375,0.375 -0.48437,0 -1.0625,-0.20312 z m 15.71875,-7.26563 1.60938,0.21875 q -0.26563,1.65625 -1.35938,2.60938 -1.07812,0.9375 -2.67187,0.9375 -1.98438,0 -3.1875,-1.29688 -1.20313,-1.29687 -1.20313,-3.71875 0,-1.57812 0.51563,-2.75 0.51562,-1.17187 1.57812,-1.75 1.0625,-0.59375 2.3125,-0.59375 1.57813,0 2.57813,0.79688 1,0.79687 1.28125,2.26562 l -1.59375,0.23438 q -0.23438,-0.96875 -0.8125,-1.45313 -0.57813,-0.5 -1.39063,-0.5 -1.23437,0 -2.01562,0.89063 -0.78125,0.89062 -0.78125,2.8125 0,1.95312 0.75,2.84375 0.75,0.875 1.95312,0.875 0.96875,0 1.60938,-0.59375 0.65625,-0.59375 0.82812,-1.82813 z m 2.96875,3.54688 v -13.35938 h 1.64063 v 13.35938 z m 4.19171,-11.46875 v -1.89063 h 1.64063 v 1.89063 z m 0,11.46875 v -9.67188 h 1.64063 v 9.67188 z m 10.45728,-3.54688 1.60937,0.21875 q -0.26562,1.65625 -1.35937,2.60938 -1.07813,0.9375 -2.67188,0.9375 -1.98437,0 -3.1875,-1.29688 -1.20312,-1.29687 -1.20312,-3.71875 0,-1.57812 0.51562,-2.75 0.51563,-1.17187 1.57813,-1.75 1.0625,-0.59375 2.3125,-0.59375 1.57812,0 2.57812,0.79688 1,0.79687 1.28125,2.26562 l -1.59375,0.23438 q -0.23437,-0.96875 -0.8125,-1.45313 -0.57812,-0.5 -1.39062,-0.5 -1.23438,0 -2.01563,0.89063 -0.78125,0.89062 -0.78125,2.8125 0,1.95312 0.75,2.84375 0.75,0.875 1.95313,0.875 0.96875,0 1.60937,-0.59375 0.65625,-0.59375 0.82813,-1.82813 z m 14.6521,-1.6875 v -1.57812 h 5.65625 v 4.95312 q -1.29688,1.04688 -2.6875,1.57813 -1.375,0.51562 -2.84375,0.51562 -1.96875,0 -3.57813,-0.84375 -1.60937,-0.84375 -2.42187,-2.4375 -0.8125,-1.59375 -0.8125,-3.5625 0,-1.95312 0.8125,-3.64062 0.8125,-1.6875 2.34375,-2.5 1.53125,-0.82813 3.51562,-0.82813 1.45313,0 2.625,0.46875 1.17188,0.46875 1.82813,1.3125 0.67187,0.82813 1.01562,2.17188 l -1.59375,0.4375 q -0.29687,-1.01563 -0.75,-1.59375 -0.4375,-0.59375 -1.26562,-0.9375 -0.82813,-0.34375 -1.84375,-0.34375 -1.20313,0 -2.09375,0.375 -0.89063,0.35937 -1.4375,0.96875 -0.53125,0.59375 -0.82813,1.3125 -0.51562,1.23437 -0.51562,2.6875 0,1.78125 0.60937,2.98437 0.625,1.20313 1.79688,1.79688 1.17187,0.57812 2.5,0.57812 1.14062,0 2.23437,-0.4375 1.09375,-0.45312 1.65625,-0.95312 v -2.48438 z m 8.04266,5.23438 v -9.67188 h 1.46875 v 1.46875 q 0.5625,-1.03125 1.03125,-1.35937 0.48438,-0.32813 1.0625,-0.32813 0.82813,0 1.6875,0.53125 l -0.5625,1.51563 q -0.60937,-0.35938 -1.20312,-0.35938 -0.54688,0 -0.96875,0.32813 -0.42188,0.32812 -0.60938,0.89062 -0.28125,0.875 -0.28125,1.92188 v 5.0625 z m 12.54077,-1.1875 q -0.92187,0.76562 -1.76562,1.09375 -0.82813,0.3125 -1.79688,0.3125 -1.59375,0 -2.45312,-0.78125 -0.85938,-0.78125 -0.85938,-1.98438 0,-0.71875 0.32813,-1.29687 0.32812,-0.59375 0.84375,-0.9375 0.53125,-0.35938 1.1875,-0.54688 0.46875,-0.125 1.45312,-0.25 1.98438,-0.23437 2.92188,-0.5625 0.0156,-0.34375 0.0156,-0.42187 0,-1 -0.46875,-1.42188 -0.625,-0.54687 -1.875,-0.54687 -1.15625,0 -1.70312,0.40625 -0.54688,0.40625 -0.8125,1.42187 l -1.60938,-0.21875 q 0.21875,-1.01562 0.71875,-1.64062 0.5,-0.64063 1.45313,-0.98438 0.95312,-0.34375 2.1875,-0.34375 1.25,0 2.01562,0.29688 0.78125,0.28125 1.14063,0.73437 0.375,0.4375 0.51562,1.10938 0.0781,0.42187 0.0781,1.51562 v 2.1875 q 0,2.28125 0.10937,2.89063 0.10938,0.59375 0.40625,1.15625 h -1.70312 q -0.26563,-0.51563 -0.32813,-1.1875 z m -0.14062,-3.67188 q -0.89063,0.375 -2.67188,0.625 -1.01562,0.14063 -1.4375,0.32813 -0.42187,0.1875 -0.65625,0.53125 -0.21875,0.34375 -0.21875,0.78125 0,0.65625 0.5,1.09375 0.5,0.4375 1.45313,0.4375 0.9375,0 1.67187,-0.40625 0.75,-0.42188 1.09375,-1.14063 0.26563,-0.5625 0.26563,-1.64062 z m 4.20386,8.5625 v -13.375 h 1.48437 v 1.25 q 0.53125,-0.73437 1.1875,-1.09375 0.67188,-0.375 1.625,-0.375 1.23438,0 2.17188,0.64063 0.95312,0.625 1.4375,1.79687 0.48437,1.15625 0.48437,2.54688 0,1.48437 -0.53125,2.67187 -0.53125,1.1875 -1.54687,1.82813 -1.01563,0.625 -2.14063,0.625 -0.8125,0 -1.46875,-0.34375 -0.65625,-0.34375 -1.0625,-0.875 v 4.70312 z m 1.48437,-8.48437 q 0,1.85937 0.75,2.76562 0.76563,0.89063 1.82813,0.89063 1.09375,0 1.875,-0.92188 0.78125,-0.9375 0.78125,-2.875 0,-1.84375 -0.76563,-2.76562 -0.75,-0.92188 -1.8125,-0.92188 -1.04687,0 -1.85937,0.98438 -0.79688,0.96875 -0.79688,2.84375 z m 8.89136,4.78125 v -13.35938 h 1.64062 v 4.79688 q 1.14063,-1.32813 2.89063,-1.32813 1.07812,0 1.85937,0.42188 0.79688,0.42187 1.14063,1.17187 0.34375,0.75 0.34375,2.17188 v 6.125 h -1.64063 v -6.125 q 0,-1.23438 -0.53125,-1.79688 -0.53125,-0.5625 -1.51562,-0.5625 -0.71875,0 -1.35938,0.39063 -0.64062,0.375 -0.92187,1.01562 -0.26563,0.64063 -0.26563,1.78125 v 5.29688 z"
       fill-rule="nonzero"
       id="path498" />
    <path
       fill="#000000"
       fill-opacity="0"
       d="m 767.3727,130.36745 h 129.63782 v 42.01576 H 767.3727 Z"
       fill-rule="evenodd"
       id="path500" />
    <path
       fill="#000000"
       d="m 777.8102,157.28745 v -13.35938 h 4.60937 q 1.54688,0 2.375,0.20313 1.14063,0.25 1.95313,0.95312 1.0625,0.89063 1.57812,2.28125 0.53125,1.39063 0.53125,3.17188 0,1.51562 -0.35937,2.70312 -0.35938,1.17188 -0.92188,1.9375 -0.54687,0.76563 -1.20312,1.21875 -0.65625,0.4375 -1.59375,0.67188 -0.9375,0.21875 -2.14063,0.21875 z m 1.76562,-1.57813 h 2.85938 q 1.3125,0 2.0625,-0.23437 0.75,-0.25 1.20312,-0.70313 0.625,-0.625 0.96875,-1.6875 0.35938,-1.0625 0.35938,-2.57812 0,-2.09375 -0.6875,-3.21875 -0.6875,-1.125 -1.67188,-1.5 -0.70312,-0.28125 -2.28125,-0.28125 h -2.8125 z m 18.12922,-1.53125 1.6875,0.20313 q -0.40625,1.48437 -1.48438,2.3125 -1.07812,0.8125 -2.76562,0.8125 -2.125,0 -3.375,-1.29688 -1.23438,-1.3125 -1.23438,-3.67187 0,-2.45313 1.25,-3.79688 1.26563,-1.34375 3.26563,-1.34375 1.9375,0 3.15625,1.32813 1.23437,1.3125 1.23437,3.70312 0,0.15625 0,0.4375 h -7.21875 q 0.0937,1.59375 0.90625,2.45313 0.8125,0.84375 2.01563,0.84375 0.90625,0 1.54687,-0.46875 0.64063,-0.48438 1.01563,-1.51563 z m -5.39063,-2.65625 h 5.40625 q -0.10937,-1.21875 -0.625,-1.82812 -0.78125,-0.95313 -2.03125,-0.95313 -1.125,0 -1.90625,0.76563 -0.76562,0.75 -0.84375,2.01562 z m 15.76636,2.65625 1.6875,0.20313 q -0.40625,1.48437 -1.48438,2.3125 -1.07812,0.8125 -2.76562,0.8125 -2.125,0 -3.375,-1.29688 -1.23438,-1.3125 -1.23438,-3.67187 0,-2.45313 1.25,-3.79688 1.26563,-1.34375 3.26563,-1.34375 1.9375,0 3.15625,1.32813 1.23437,1.3125 1.23437,3.70312 0,0.15625 0,0.4375 h -7.21875 q 0.0937,1.59375 0.90625,2.45313 0.8125,0.84375 2.01563,0.84375 0.90625,0 1.54687,-0.46875 0.64063,-0.48438 1.01563,-1.51563 z m -5.39063,-2.65625 h 5.40625 q -0.10937,-1.21875 -0.625,-1.82812 -0.78125,-0.95313 -2.03125,-0.95313 -1.125,0 -1.90625,0.76563 -0.76562,0.75 -0.84375,2.01562 z m 9.14136,9.46875 v -13.375 h 1.48437 v 1.25 q 0.53125,-0.73437 1.1875,-1.09375 0.67188,-0.375 1.625,-0.375 1.23438,0 2.17188,0.64063 0.95312,0.625 1.4375,1.79687 0.48437,1.15625 0.48437,2.54688 0,1.48437 -0.53125,2.67187 -0.53125,1.1875 -1.54687,1.82813 -1.01563,0.625 -2.14063,0.625 -0.8125,0 -1.46875,-0.34375 -0.65625,-0.34375 -1.0625,-0.875 v 4.70312 z m 1.48437,-8.48437 q 0,1.85937 0.75,2.76562 0.76563,0.89063 1.82813,0.89063 1.09375,0 1.875,-0.92188 0.78125,-0.9375 0.78125,-2.875 0,-1.84375 -0.76563,-2.76562 -0.75,-0.92188 -1.8125,-0.92188 -1.04687,0 -1.85937,0.98438 -0.79688,0.96875 -0.79688,2.84375 z m 20.52778,-0.45313 v -1.57812 h 5.65625 v 4.95312 q -1.29688,1.04688 -2.6875,1.57813 -1.375,0.51562 -2.84375,0.51562 -1.96875,0 -3.57813,-0.84375 -1.60937,-0.84375 -2.42187,-2.4375 -0.8125,-1.59375 -0.8125,-3.5625 0,-1.95312 0.8125,-3.64062 0.8125,-1.6875 2.34375,-2.5 1.53125,-0.82813 3.51562,-0.82813 1.45313,0 2.625,0.46875 1.17188,0.46875 1.82813,1.3125 0.67187,0.82813 1.01562,2.17188 l -1.59375,0.4375 q -0.29687,-1.01563 -0.75,-1.59375 -0.4375,-0.59375 -1.26562,-0.9375 -0.82813,-0.34375 -1.84375,-0.34375 -1.20313,0 -2.09375,0.375 -0.89063,0.35937 -1.4375,0.96875 -0.53125,0.59375 -0.82813,1.3125 -0.51562,1.23437 -0.51562,2.6875 0,1.78125 0.60937,2.98437 0.625,1.20313 1.79688,1.79688 1.17187,0.57812 2.5,0.57812 1.14062,0 2.23437,-0.4375 1.09375,-0.45312 1.65625,-0.95312 v -2.48438 z m 8.04266,5.23438 v -9.67188 h 1.46875 v 1.46875 q 0.5625,-1.03125 1.03125,-1.35937 0.48437,-0.32813 1.0625,-0.32813 0.82812,0 1.6875,0.53125 l -0.5625,1.51563 q -0.60938,-0.35938 -1.20313,-0.35938 -0.54687,0 -0.96875,0.32813 -0.42187,0.32812 -0.60937,0.89062 -0.28125,0.875 -0.28125,1.92188 v 5.0625 z m 12.54077,-1.1875 q -0.92187,0.76562 -1.76562,1.09375 -0.82813,0.3125 -1.79688,0.3125 -1.59375,0 -2.45312,-0.78125 -0.85938,-0.78125 -0.85938,-1.98438 0,-0.71875 0.32813,-1.29687 0.32812,-0.59375 0.84375,-0.9375 0.53125,-0.35938 1.1875,-0.54688 0.46875,-0.125 1.45312,-0.25 1.98438,-0.23437 2.92188,-0.5625 0.0156,-0.34375 0.0156,-0.42187 0,-1 -0.46875,-1.42188 -0.625,-0.54687 -1.875,-0.54687 -1.15625,0 -1.70312,0.40625 -0.54688,0.40625 -0.8125,1.42187 l -1.60938,-0.21875 q 0.21875,-1.01562 0.71875,-1.64062 0.5,-0.64063 1.45313,-0.98438 0.95312,-0.34375 2.1875,-0.34375 1.25,0 2.01562,0.29688 0.78125,0.28125 1.14063,0.73437 0.375,0.4375 0.51562,1.10938 0.0781,0.42187 0.0781,1.51562 v 2.1875 q 0,2.28125 0.10937,2.89063 0.10938,0.59375 0.40625,1.15625 h -1.70312 q -0.26563,-0.51563 -0.32813,-1.1875 z m -0.14062,-3.67188 q -0.89063,0.375 -2.67188,0.625 -1.01562,0.14063 -1.4375,0.32813 -0.42187,0.1875 -0.65625,0.53125 -0.21875,0.34375 -0.21875,0.78125 0,0.65625 0.5,1.09375 0.5,0.4375 1.45313,0.4375 0.9375,0 1.67187,-0.40625 0.75,-0.42188 1.09375,-1.14063 0.26563,-0.5625 0.26563,-1.64062 z m 4.20385,8.5625 v -13.375 h 1.48438 v 1.25 q 0.53125,-0.73437 1.1875,-1.09375 0.67187,-0.375 1.625,-0.375 1.23437,0 2.17187,0.64063 0.95313,0.625 1.4375,1.79687 0.48438,1.15625 0.48438,2.54688 0,1.48437 -0.53125,2.67187 -0.53125,1.1875 -1.54688,1.82813 -1.01562,0.625 -2.14062,0.625 -0.8125,0 -1.46875,-0.34375 -0.65625,-0.34375 -1.0625,-0.875 v 4.70312 z m 1.48438,-8.48437 q 0,1.85937 0.75,2.76562 0.76562,0.89063 1.82812,0.89063 1.09375,0 1.875,-0.92188 0.78125,-0.9375 0.78125,-2.875 0,-1.84375 -0.76562,-2.76562 -0.75,-0.92188 -1.8125,-0.92188 -1.04688,0 -1.85938,0.98438 -0.79687,0.96875 -0.79687,2.84375 z m 8.89136,4.78125 v -13.35938 h 1.64062 v 4.79688 q 1.14063,-1.32813 2.89063,-1.32813 1.07812,0 1.85937,0.42188 0.79688,0.42187 1.14063,1.17187 0.34375,0.75 0.34375,2.17188 v 6.125 h -1.64063 v -6.125 q 0,-1.23438 -0.53125,-1.79688 -0.53125,-0.5625 -1.51562,-0.5625 -0.71875,0 -1.35938,0.39063 -0.64062,0.375 -0.92187,1.01562 -0.26563,0.64063 -0.26563,1.78125 v 5.29688 z"
       fill-rule="nonzero"
       id="path502" />
    <path
       fill="#000000"
       fill-opacity="0"
       d="m 814.82416,346.8609 h 42.36218 v 42.01575 h -42.36218 z"
       fill-rule="evenodd"
       id="path504" />
    <path
       fill="#000000"
       d="m 825.99603,373.78088 v -1.875 h 1.875 v 1.875 z m 6.23438,0 v -1.875 h 1.85937 v 1.875 z m 6.20312,0 v -1.875 h 1.875 v 1.875 z"
       fill-rule="nonzero"
       id="path506" />
    <path
       fill="#cfe2f3"
       d="m 305.2034,218.37007 v 0 c 0,-11.698 9.48312,-21.18109 21.18112,-21.18109 v 0 c 5.61759,0 11.00507,2.23157 14.9773,6.2038 3.97223,3.97222 6.20379,9.35972 6.20379,14.97729 v 0 c 0,11.69801 -9.48309,21.18111 -21.18109,21.18111 v 0 c -11.698,0 -21.18112,-9.4831 -21.18112,-21.18111 z"
       fill-rule="evenodd"
       id="path508" />
    <path
       stroke="#000000"
       stroke-width="1"
       stroke-linejoin="round"
       stroke-linecap="butt"
       d="m 305.2034,218.37007 v 0 c 0,-11.698 9.48312,-21.18109 21.18112,-21.18109 v 0 c 5.61759,0 11.00507,2.23157 14.9773,6.2038 3.97223,3.97222 6.20379,9.35972 6.20379,14.97729 v 0 c 0,11.69801 -9.48309,21.18111 -21.18109,21.18111 v 0 c -11.698,0 -21.18112,-9.4831 -21.18112,-21.18111 z"
       fill-rule="evenodd"
       id="path510" />
    <path
       fill="#000000"
       d="m 328.4068,225.85008 h -1.875 v -11.9375 q -0.6875,0.64062 -1.78125,1.28125 -1.09375,0.64062 -1.96875,0.96875 v -1.8125 q 1.5625,-0.73438 2.73437,-1.78125 1.1875,-1.0625 1.67188,-2.04688 h 1.21875 z"
       fill-rule="nonzero"
       id="path512" />
    <path
       fill="#cfe2f3"
       d="m 381.37665,225.72704 v 0 c 0,-11.698 9.48309,-21.18111 21.18109,-21.18111 v 0 c 5.61758,0 11.00507,2.23159 14.9773,6.20381 3.97223,3.97222 6.20379,9.35972 6.20379,14.9773 v 0 c 0,11.698 -9.48309,21.18111 -21.18109,21.18111 v 0 c -11.698,0 -21.18109,-9.48311 -21.18109,-21.18111 z"
       fill-rule="evenodd"
       id="path514" />
    <path
       stroke="#000000"
       stroke-width="1"
       stroke-linejoin="round"
       stroke-linecap="butt"
       d="m 381.37665,225.72704 v 0 c 0,-11.698 9.48309,-21.18111 21.18109,-21.18111 v 0 c 5.61758,0 11.00507,2.23159 14.9773,6.20381 3.97223,3.97222 6.20379,9.35972 6.20379,14.9773 v 0 c 0,11.698 -9.48309,21.18111 -21.18109,21.18111 v 0 c -11.698,0 -21.18109,-9.48311 -21.18109,-21.18111 z"
       fill-rule="evenodd"
       id="path516" />
    <path
       fill="#000000"
       d="m 407.36127,231.41016 v 1.79687 h -10.09375 q -0.0156,-0.67187 0.21875,-1.29687 0.39062,-1.03125 1.23437,-2.03125 0.85938,-1 2.45313,-2.3125 2.5,-2.04688 3.375,-3.23438 0.875,-1.20312 0.875,-2.25 0,-1.125 -0.79688,-1.89062 -0.79687,-0.76563 -2.07812,-0.76563 -1.35938,0 -2.17188,0.8125 -0.8125,0.8125 -0.82812,2.25 l -1.92188,-0.1875 q 0.20313,-2.15625 1.48438,-3.28125 1.29687,-1.14062 3.46875,-1.14062 2.20312,0 3.48437,1.21875 1.28125,1.21875 1.28125,3.01562 0,0.92188 -0.375,1.8125 -0.375,0.875 -1.25,1.85938 -0.85937,0.96875 -2.89062,2.6875 -1.6875,1.40625 -2.17188,1.92187 -0.46875,0.5 -0.78125,1.01563 z"
       fill-rule="nonzero"
       id="path518" />
    <path
       fill="#cfe2f3"
       d="m 263.73752,295.9475 v 0 c 0,-11.698 9.48312,-21.18109 21.18112,-21.18109 v 0 c 5.61759,0 11.00507,2.23157 14.9773,6.2038 3.97223,3.97222 6.20379,9.35971 6.20379,14.97729 v 0 c 0,11.698 -9.48309,21.18109 -21.18109,21.18109 v 0 c -11.698,0 -21.18112,-9.48309 -21.18112,-21.18109 z"
       fill-rule="evenodd"
       id="path520" />
    <path
       stroke="#000000"
       stroke-width="1"
       stroke-linejoin="round"
       stroke-linecap="butt"
       d="m 263.73752,295.9475 v 0 c 0,-11.698 9.48312,-21.18109 21.18112,-21.18109 v 0 c 5.61759,0 11.00507,2.23157 14.9773,6.2038 3.97223,3.97222 6.20379,9.35971 6.20379,14.97729 v 0 c 0,11.698 -9.48309,21.18109 -21.18109,21.18109 v 0 c -11.698,0 -21.18112,-9.48309 -21.18112,-21.18109 z"
       fill-rule="evenodd"
       id="path522" />
    <path
       fill="#000000"
       d="m 279.87842,299.39627 1.875,-0.25 q 0.32812,1.59375 1.09375,2.29688 0.78125,0.70312 1.90625,0.70312 1.3125,0 2.21875,-0.90625 0.92187,-0.92187 0.92187,-2.28125 0,-1.29687 -0.84375,-2.125 -0.84375,-0.84375 -2.14062,-0.84375 -0.53125,0 -1.32813,0.20313 l 0.20313,-1.64063 q 0.1875,0.0156 0.3125,0.0156 1.1875,0 2.14062,-0.625 0.96875,-0.625 0.96875,-1.92188 0,-1.03125 -0.70312,-1.70312 -0.6875,-0.67188 -1.79688,-0.67188 -1.09375,0 -1.82812,0.6875 -0.71875,0.6875 -0.9375,2.0625 l -1.875,-0.34375 q 0.34375,-1.875 1.5625,-2.90625 1.21875,-1.04687 3.03125,-1.04687 1.25,0 2.29687,0.54687 1.0625,0.53125 1.60938,1.45313 0.5625,0.92187 0.5625,1.96875 0,0.98437 -0.53125,1.79687 -0.53125,0.8125 -1.5625,1.29688 1.34375,0.3125 2.09375,1.29687 0.75,0.98438 0.75,2.45313 0,2 -1.45313,3.39062 -1.45312,1.39063 -3.6875,1.39063 -2.01562,0 -3.34375,-1.1875 -1.32812,-1.20313 -1.51562,-3.10938 z"
       fill-rule="nonzero"
       id="path524" />
    <path
       fill="#cfe2f3"
       d="m 343.1063,295.9475 v 0 c 0,-11.698 9.48312,-21.18109 21.18112,-21.18109 v 0 c 5.61756,0 11.00507,2.23157 14.9773,6.2038 3.97223,3.97222 6.20379,9.35971 6.20379,14.97729 v 0 c 0,11.698 -9.48309,21.18109 -21.18109,21.18109 v 0 c -11.698,0 -21.18112,-9.48309 -21.18112,-21.18109 z"
       fill-rule="evenodd"
       id="path526" />
    <path
       stroke="#000000"
       stroke-width="1"
       stroke-linejoin="round"
       stroke-linecap="butt"
       d="m 343.1063,295.9475 v 0 c 0,-11.698 9.48312,-21.18109 21.18112,-21.18109 v 0 c 5.61756,0 11.00507,2.23157 14.9773,6.2038 3.97223,3.97222 6.20379,9.35971 6.20379,14.97729 v 0 c 0,11.698 -9.48309,21.18109 -21.18109,21.18109 v 0 c -11.698,0 -21.18112,-9.48309 -21.18112,-21.18109 z"
       fill-rule="evenodd"
       id="path528" />
    <path
       fill="#000000"
       d="m 365.2472,303.42752 v -3.65625 h -6.625 v -1.71875 l 6.96875,-9.89062 h 1.53125 v 9.89062 h 2.0625 v 1.71875 h -2.0625 v 3.65625 z m 0,-5.375 v -6.875 l -4.78125,6.875 z"
       fill-rule="nonzero"
       id="path530" />
    <path
       fill="#000000"
       fill-opacity="0"
       d="M 326.38452,239.55118 284.9042,274.7638"
       fill-rule="evenodd"
       id="path532" />
    <path
       stroke="#000000"
       stroke-width="1"
       stroke-linejoin="round"
       stroke-linecap="butt"
       d="m 326.38452,239.55118 -36.90619,31.32965"
       fill-rule="evenodd"
       id="path534" />
    <path
       fill="#000000"
       stroke="#000000"
       stroke-width="1"
       stroke-linecap="butt"
       d="m 288.4094,269.6216 -2.39072,4.19608 4.52857,-1.67768 z"
       fill-rule="evenodd"
       id="path536" />
    <path
       fill="#000000"
       fill-opacity="0"
       d="m 326.38452,239.55118 37.88977,35.21262"
       fill-rule="evenodd"
       id="path538" />
    <path
       stroke="#000000"
       stroke-width="1"
       stroke-linejoin="round"
       stroke-linecap="butt"
       d="m 326.38452,239.55118 33.49469,31.12808"
       fill-rule="evenodd"
       id="path540" />
    <path
       fill="#000000"
       stroke="#000000"
       stroke-width="1"
       stroke-linecap="butt"
       d="m 358.7548,271.88916 4.44864,1.87943 -2.1998,-4.29926 z"
       fill-rule="evenodd"
       id="path542" />
    <path
       fill="#000000"
       fill-opacity="0"
       d="M 284.9606,120.60368 H 464.11023 V 185.2336 H 284.9606 Z"
       fill-rule="evenodd"
       id="path544" />
    <path
       fill="#000000"
       d="m 293.92935,147.52367 5.125,-13.35938 h 1.90625 l 5.46875,13.35938 h -2.01563 l -1.54687,-4.04688 h -5.59375 l -1.46875,4.04688 z m 3.85937,-5.48438 h 4.53125 l -1.40625,-3.70312 q -0.625,-1.6875 -0.9375,-2.76563 -0.26562,1.28125 -0.71875,2.54688 z m 16.16233,1.9375 1.60937,0.21875 q -0.26562,1.65625 -1.35937,2.60938 -1.07813,0.9375 -2.67188,0.9375 -1.98437,0 -3.1875,-1.29688 -1.20312,-1.29687 -1.20312,-3.71875 0,-1.57812 0.51562,-2.75 0.51563,-1.17187 1.57813,-1.75 1.0625,-0.59375 2.3125,-0.59375 1.57812,0 2.57812,0.79688 1,0.79687 1.28125,2.26562 l -1.59375,0.23438 q -0.23437,-0.96875 -0.8125,-1.45313 -0.57812,-0.5 -1.39062,-0.5 -1.23438,0 -2.01563,0.89063 -0.78125,0.89062 -0.78125,2.8125 0,1.95312 0.75,2.84375 0.75,0.875 1.95313,0.875 0.96875,0 1.60937,-0.59375 0.65625,-0.59375 0.82813,-1.82813 z m 2.9375,7.26563 -0.1875,-1.53125 q 0.54687,0.14062 0.9375,0.14062 0.54687,0 0.875,-0.1875 0.32812,-0.17187 0.54687,-0.5 0.15625,-0.25 0.5,-1.21875 0.0469,-0.14062 0.14063,-0.40625 l -3.67188,-9.6875 h 1.76563 l 2.01562,5.59375 q 0.39063,1.07813 0.70313,2.25 0.28125,-1.125 0.67187,-2.20312 l 2.07813,-5.64063 h 1.64062 l -3.6875,9.82813 q -0.59375,1.60937 -0.92187,2.20312 -0.4375,0.8125 -1,1.1875 -0.5625,0.375 -1.34375,0.375 -0.48438,0 -1.0625,-0.20312 z m 15.71875,-7.26563 1.60937,0.21875 q -0.26562,1.65625 -1.35937,2.60938 -1.07813,0.9375 -2.67188,0.9375 -1.98437,0 -3.1875,-1.29688 -1.20312,-1.29687 -1.20312,-3.71875 0,-1.57812 0.51562,-2.75 0.51563,-1.17187 1.57813,-1.75 1.0625,-0.59375 2.3125,-0.59375 1.57812,0 2.57812,0.79688 1,0.79687 1.28125,2.26562 l -1.59375,0.23438 q -0.23437,-0.96875 -0.8125,-1.45313 -0.57812,-0.5 -1.39062,-0.5 -1.23438,0 -2.01563,0.89063 -0.78125,0.89062 -0.78125,2.8125 0,1.95312 0.75,2.84375 0.75,0.875 1.95313,0.875 0.96875,0 1.60937,-0.59375 0.65625,-0.59375 0.82813,-1.82813 z m 2.96875,3.54688 v -13.35938 h 1.64062 v 13.35938 z m 4.19171,-11.46875 v -1.89063 h 1.64062 v 1.89063 z m 0,11.46875 v -9.67188 h 1.64062 v 9.67188 z m 10.45731,-3.54688 1.60937,0.21875 q -0.26562,1.65625 -1.35937,2.60938 -1.07813,0.9375 -2.67188,0.9375 -1.98437,0 -3.1875,-1.29688 -1.20312,-1.29687 -1.20312,-3.71875 0,-1.57812 0.51562,-2.75 0.51563,-1.17187 1.57813,-1.75 1.0625,-0.59375 2.3125,-0.59375 1.57812,0 2.57812,0.79688 1,0.79687 1.28125,2.26562 l -1.59375,0.23438 q -0.23437,-0.96875 -0.8125,-1.45313 -0.57812,-0.5 -1.39062,-0.5 -1.23438,0 -2.01563,0.89063 -0.78125,0.89062 -0.78125,2.8125 0,1.95312 0.75,2.84375 0.75,0.875 1.95313,0.875 0.96875,0 1.60937,-0.59375 0.65625,-0.59375 0.82813,-1.82813 z m 7.88644,4.34375 1.59375,0.23438 q 0.10937,0.75 0.5625,1.07812 0.60937,0.45313 1.67187,0.45313 1.14063,0 1.75,-0.45313 0.625,-0.45312 0.84375,-1.26562 0.125,-0.5 0.10938,-2.10938 -1.0625,1.26563 -2.67188,1.26563 -2,0 -3.09375,-1.4375 -1.09375,-1.4375 -1.09375,-3.45313 0,-1.39062 0.5,-2.5625 0.51563,-1.17187 1.45313,-1.79687 0.95312,-0.64063 2.25,-0.64063 1.70312,0 2.8125,1.375 v -1.15625 h 1.51562 v 8.35938 q 0,2.26562 -0.46875,3.20312 -0.45312,0.9375 -1.45312,1.48438 -0.98438,0.54687 -2.45313,0.54687 -1.71875,0 -2.79687,-0.78125 -1.0625,-0.76562 -1.03125,-2.34375 z m 1.35937,-5.8125 q 0,1.90625 0.75,2.78125 0.76563,0.875 1.90625,0.875 1.125,0 1.89063,-0.85937 0.76562,-0.875 0.76562,-2.73438 0,-1.78125 -0.79687,-2.67187 -0.78125,-0.90625 -1.89063,-0.90625 -1.09375,0 -1.85937,0.89062 -0.76563,0.875 -0.76563,2.625 z m 9.31321,5.01563 v -9.67188 h 1.46875 v 1.46875 q 0.5625,-1.03125 1.03125,-1.35937 0.48437,-0.32813 1.0625,-0.32813 0.82812,0 1.6875,0.53125 l -0.5625,1.51563 q -0.60938,-0.35938 -1.20313,-0.35938 -0.54687,0 -0.96875,0.32813 -0.42187,0.32812 -0.60937,0.89062 -0.28125,0.875 -0.28125,1.92188 v 5.0625 z m 12.5408,-1.1875 q -0.92188,0.76562 -1.76563,1.09375 -0.82812,0.3125 -1.79687,0.3125 -1.59375,0 -2.45313,-0.78125 -0.85937,-0.78125 -0.85937,-1.98438 0,-0.71875 0.32812,-1.29687 0.32813,-0.59375 0.84375,-0.9375 0.53125,-0.35938 1.1875,-0.54688 0.46875,-0.125 1.45313,-0.25 1.98437,-0.23437 2.92187,-0.5625 0.0156,-0.34375 0.0156,-0.42187 0,-1 -0.46875,-1.42188 -0.625,-0.54687 -1.875,-0.54687 -1.15625,0 -1.70313,0.40625 -0.54687,0.40625 -0.8125,1.42187 l -1.60937,-0.21875 q 0.21875,-1.01562 0.71875,-1.64062 0.5,-0.64063 1.45312,-0.98438 0.95313,-0.34375 2.1875,-0.34375 1.25,0 2.01563,0.29688 0.78125,0.28125 1.14062,0.73437 0.375,0.4375 0.51563,1.10938 0.0781,0.42187 0.0781,1.51562 v 2.1875 q 0,2.28125 0.10938,2.89063 0.10937,0.59375 0.40625,1.15625 h -1.70313 q -0.26562,-0.51563 -0.32812,-1.1875 z m -0.14063,-3.67188 q -0.89062,0.375 -2.67187,0.625 -1.01563,0.14063 -1.4375,0.32813 -0.42188,0.1875 -0.65625,0.53125 -0.21875,0.34375 -0.21875,0.78125 0,0.65625 0.5,1.09375 0.5,0.4375 1.45312,0.4375 0.9375,0 1.67188,-0.40625 0.75,-0.42188 1.09375,-1.14063 0.26562,-0.5625 0.26562,-1.64062 z m 4.20386,8.5625 v -13.375 h 1.48438 v 1.25 q 0.53125,-0.73437 1.1875,-1.09375 0.67187,-0.375 1.625,-0.375 1.23437,0 2.17187,0.64063 0.95313,0.625 1.4375,1.79687 0.48438,1.15625 0.48438,2.54688 0,1.48437 -0.53125,2.67187 -0.53125,1.1875 -1.54688,1.82813 -1.01562,0.625 -2.14062,0.625 -0.8125,0 -1.46875,-0.34375 -0.65625,-0.34375 -1.0625,-0.875 v 4.70312 z m 1.48438,-8.48437 q 0,1.85937 0.75,2.76562 0.76562,0.89063 1.82812,0.89063 1.09375,0 1.875,-0.92188 0.78125,-0.9375 0.78125,-2.875 0,-1.84375 -0.76562,-2.76562 -0.75,-0.92188 -1.8125,-0.92188 -1.04688,0 -1.85938,0.98438 -0.79687,0.96875 -0.79687,2.84375 z m 8.89132,4.78125 v -13.35938 h 1.64063 v 4.79688 q 1.14062,-1.32813 2.89062,-1.32813 1.07813,0 1.85938,0.42188 0.79687,0.42187 1.14062,1.17187 0.34375,0.75 0.34375,2.17188 v 6.125 h -1.64062 v -6.125 q 0,-1.23438 -0.53125,-1.79688 -0.53125,-0.5625 -1.51563,-0.5625 -0.71875,0 -1.35937,0.39063 -0.64063,0.375 -0.92188,1.01562 -0.26562,0.64063 -0.26562,1.78125 v 5.29688 z m 17.34027,0 -2.96875,-9.67188 h 1.70313 l 1.53125,5.57813 0.57812,2.07812 q 0.0469,-0.15625 0.5,-2 l 1.54688,-5.65625 h 1.6875 l 1.4375,5.60938 0.48437,1.84375 0.5625,-1.85938 1.65625,-5.59375 h 1.59375 l -3.03125,9.67188 h -1.70312 l -1.53125,-5.79688 -0.375,-1.64062 -1.95313,7.4375 z m 11.69171,-11.46875 v -1.89063 h 1.64063 v 1.89063 z m 0,11.46875 v -9.67188 h 1.64063 v 9.67188 z m 7.72294,-1.46875 0.23437,1.45312 q -0.6875,0.14063 -1.23437,0.14063 -0.89063,0 -1.39063,-0.28125 -0.48437,-0.28125 -0.6875,-0.73438 -0.20312,-0.46875 -0.20312,-1.9375 v -5.57812 h -1.20313 v -1.26563 h 1.20313 v -2.39062 l 1.625,-0.98438 v 3.375 h 1.65625 v 1.26563 h -1.65625 v 5.67187 q 0,0.6875 0.0781,0.89063 0.0937,0.20312 0.28125,0.32812 0.20313,0.10938 0.57813,0.10938 0.26562,0 0.71875,-0.0625 z m 1.60519,1.46875 v -13.35938 h 1.64062 v 4.79688 q 1.14063,-1.32813 2.89063,-1.32813 1.07812,0 1.85937,0.42188 0.79688,0.42187 1.14063,1.17187 0.34375,0.75 0.34375,2.17188 v 6.125 h -1.64063 v -6.125 q 0,-1.23438 -0.53125,-1.79688 -0.53125,-0.5625 -1.51562,-0.5625 -0.71875,0 -1.35938,0.39063 -0.64062,0.375 -0.92187,1.01562 -0.26563,0.64063 -0.26563,1.78125 v 5.29688 z"
       fill-rule="nonzero"
       id="path546" />
    <path
       fill="#000000"
       d="m 295.19498,169.92368 v -9.67188 h 1.46875 v 1.35938 q 0.45312,-0.71875 1.20312,-1.14063 0.76563,-0.4375 1.71875,-0.4375 1.07813,0 1.76563,0.45313 0.6875,0.4375 0.96875,1.23437 1.15625,-1.6875 2.98437,-1.6875 1.45313,0 2.21875,0.79688 0.78125,0.79687 0.78125,2.45312 v 6.64063 h -1.64062 v -6.09375 q 0,-0.98438 -0.15625,-1.40625 -0.15625,-0.4375 -0.57813,-0.70313 -0.42187,-0.26562 -0.98437,-0.26562 -1.01563,0 -1.6875,0.6875 -0.67188,0.67187 -0.67188,2.15625 v 5.625 h -1.64062 v -6.28125 q 0,-1.09375 -0.40625,-1.64063 -0.40625,-0.54687 -1.3125,-0.54687 -0.6875,0 -1.28125,0.35937 -0.59375,0.35938 -0.85938,1.0625 -0.25,0.70313 -0.25,2.03125 v 5.01563 z m 21.86893,0 v -1.42188 q -1.125,1.64063 -3.0625,1.64063 -0.85938,0 -1.60938,-0.32813 -0.73437,-0.32812 -1.09375,-0.82812 -0.35937,-0.5 -0.5,-1.21875 -0.10937,-0.46875 -0.10937,-1.53125 v -5.98438 h 1.64062 v 5.35938 q 0,1.28125 0.10938,1.73437 0.15625,0.64063 0.65625,1.01563 0.5,0.375 1.23437,0.375 0.73438,0 1.375,-0.375 0.65625,-0.39063 0.92188,-1.03125 0.26562,-0.65625 0.26562,-1.89063 v -5.1875 h 1.64063 v 9.67188 z m 4.00073,0 V 156.5643 h 1.64062 v 13.35938 z m 7.76981,-1.46875 0.23437,1.45312 q -0.6875,0.14063 -1.23437,0.14063 -0.89063,0 -1.39063,-0.28125 -0.48437,-0.28125 -0.6875,-0.73438 -0.20312,-0.46875 -0.20312,-1.9375 v -5.57812 h -1.20313 v -1.26563 h 1.20313 v -2.39062 l 1.625,-0.98438 v 3.375 h 1.65625 v 1.26563 h -1.65625 v 5.67187 q 0,0.6875 0.0781,0.89063 0.0937,0.20312 0.28125,0.32812 0.20313,0.10938 0.57813,0.10938 0.26562,0 0.71875,-0.0625 z m 1.60519,-10 v -1.89063 h 1.64062 v 1.89063 z m 0,11.46875 v -9.67188 h 1.64062 v 9.67188 z m 4.12918,0 v -9.67188 h 1.46875 v 1.46875 q 0.5625,-1.03125 1.03125,-1.35937 0.48438,-0.32813 1.0625,-0.32813 0.82813,0 1.6875,0.53125 l -0.5625,1.51563 q -0.60937,-0.35938 -1.20312,-0.35938 -0.54688,0 -0.96875,0.32813 -0.42188,0.32812 -0.60938,0.89062 -0.28125,0.875 -0.28125,1.92188 v 5.0625 z m 12.8533,-3.10938 1.6875,0.20313 q -0.40625,1.48437 -1.48437,2.3125 -1.07813,0.8125 -2.76563,0.8125 -2.125,0 -3.375,-1.29688 -1.23437,-1.3125 -1.23437,-3.67187 0,-2.45313 1.25,-3.79688 1.26562,-1.34375 3.26562,-1.34375 1.9375,0 3.15625,1.32813 1.23438,1.3125 1.23438,3.70312 0,0.15625 0,0.4375 h -7.21875 q 0.0937,1.59375 0.90625,2.45313 0.8125,0.84375 2.01562,0.84375 0.90625,0 1.54688,-0.46875 0.64062,-0.48438 1.01562,-1.51563 z m -5.39062,-2.65625 h 5.40625 q -0.10938,-1.21875 -0.625,-1.82812 -0.78125,-0.95313 -2.03125,-0.95313 -1.125,0 -1.90625,0.76563 -0.76563,0.75 -0.84375,2.01562 z m 9.53198,5.76563 v -8.40625 h -1.45313 v -1.26563 h 1.45313 v -1.03125 q 0,-0.96875 0.17187,-1.45312 0.23438,-0.64063 0.82813,-1.03125 0.59375,-0.39063 1.67187,-0.39063 0.6875,0 1.53125,0.15625 l -0.25,1.4375 q -0.5,-0.0937 -0.95312,-0.0937 -0.75,0 -1.0625,0.32813 -0.3125,0.3125 -0.3125,1.1875 v 0.89062 h 1.89062 v 1.26563 h -1.89062 v 8.40625 z m 11.41766,-3.10938 1.6875,0.20313 q -0.40625,1.48437 -1.48437,2.3125 -1.07813,0.8125 -2.76563,0.8125 -2.125,0 -3.375,-1.29688 -1.23437,-1.3125 -1.23437,-3.67187 0,-2.45313 1.25,-3.79688 1.26562,-1.34375 3.26562,-1.34375 1.9375,0 3.15625,1.32813 1.23438,1.3125 1.23438,3.70312 0,0.15625 0,0.4375 h -7.21875 q 0.0937,1.59375 0.90625,2.45313 0.8125,0.84375 2.01562,0.84375 0.90625,0 1.54688,-0.46875 0.64062,-0.48438 1.01562,-1.51563 z m -5.39062,-2.65625 h 5.40625 q -0.10938,-1.21875 -0.625,-1.82812 -0.78125,-0.95313 -2.03125,-0.95313 -1.125,0 -1.90625,0.76563 -0.76563,0.75 -0.84375,2.01562 z m 9.12573,5.76563 v -9.67188 h 1.46875 v 1.46875 q 0.5625,-1.03125 1.03125,-1.35937 0.48438,-0.32813 1.0625,-0.32813 0.82813,0 1.6875,0.53125 l -0.5625,1.51563 q -0.60937,-0.35938 -1.20312,-0.35938 -0.54688,0 -0.96875,0.32813 -0.42188,0.32812 -0.60938,0.89062 -0.28125,0.875 -0.28125,1.92188 v 5.0625 z m 12.8533,-3.10938 1.6875,0.20313 q -0.40625,1.48437 -1.48437,2.3125 -1.07813,0.8125 -2.76563,0.8125 -2.125,0 -3.375,-1.29688 -1.23437,-1.3125 -1.23437,-3.67187 0,-2.45313 1.25,-3.79688 1.26562,-1.34375 3.26562,-1.34375 1.9375,0 3.15625,1.32813 1.23438,1.3125 1.23438,3.70312 0,0.15625 0,0.4375 h -7.21875 q 0.0937,1.59375 0.90625,2.45313 0.8125,0.84375 2.01562,0.84375 0.90625,0 1.54688,-0.46875 0.64062,-0.48438 1.01562,-1.51563 z m -5.39062,-2.65625 h 5.40625 q -0.10938,-1.21875 -0.625,-1.82812 -0.78125,-0.95313 -2.03125,-0.95313 -1.125,0 -1.90625,0.76563 -0.76563,0.75 -0.84375,2.01562 z m 9.14132,5.76563 v -9.67188 h 1.46875 v 1.375 q 1.0625,-1.59375 3.07813,-1.59375 0.875,0 1.60937,0.3125 0.73438,0.3125 1.09375,0.82813 0.375,0.5 0.51563,1.20312 0.0937,0.45313 0.0937,1.59375 v 5.95313 H 389.539 v -5.89063 q 0,-1 -0.20312,-1.48437 -0.1875,-0.5 -0.67188,-0.79688 -0.48437,-0.29687 -1.14062,-0.29687 -1.04688,0 -1.8125,0.67187 -0.75,0.65625 -0.75,2.51563 v 5.28125 z m 16.68824,-3.54688 1.60937,0.21875 q -0.26562,1.65625 -1.35937,2.60938 -1.07813,0.9375 -2.67188,0.9375 -1.98437,0 -3.1875,-1.29688 -1.20312,-1.29687 -1.20312,-3.71875 0,-1.57812 0.51562,-2.75 0.51563,-1.17187 1.57813,-1.75 1.0625,-0.59375 2.3125,-0.59375 1.57812,0 2.57812,0.79688 1,0.79687 1.28125,2.26562 l -1.59375,0.23438 q -0.23437,-0.96875 -0.8125,-1.45313 -0.57812,-0.5 -1.39062,-0.5 -1.23438,0 -2.01563,0.89063 -0.78125,0.89062 -0.78125,2.8125 0,1.95312 0.75,2.84375 0.75,0.875 1.95313,0.875 0.96875,0 1.60937,-0.59375 0.65625,-0.59375 0.82813,-1.82813 z m 9.64062,0.4375 1.6875,0.20313 q -0.40625,1.48437 -1.48437,2.3125 -1.07813,0.8125 -2.76563,0.8125 -2.125,0 -3.375,-1.29688 -1.23437,-1.3125 -1.23437,-3.67187 0,-2.45313 1.25,-3.79688 1.26562,-1.34375 3.26562,-1.34375 1.9375,0 3.15625,1.32813 1.23438,1.3125 1.23438,3.70312 0,0.15625 0,0.4375 h -7.21875 q 0.0937,1.59375 0.90625,2.45313 0.8125,0.84375 2.01562,0.84375 0.90625,0 1.54688,-0.46875 0.64062,-0.48438 1.01562,-1.51563 z m -5.39062,-2.65625 h 5.40625 q -0.10938,-1.21875 -0.625,-1.82812 -0.78125,-0.95313 -2.03125,-0.95313 -1.125,0 -1.90625,0.76563 -0.76563,0.75 -0.84375,2.01562 z m 8.48507,2.875 1.625,-0.25 q 0.125,0.96875 0.75,1.5 0.625,0.51563 1.75,0.51563 1.125,0 1.67188,-0.45313 0.54687,-0.46875 0.54687,-1.09375 0,-0.54687 -0.48437,-0.875 -0.32813,-0.21875 -1.67188,-0.54687 -1.8125,-0.46875 -2.51562,-0.79688 -0.6875,-0.32812 -1.04688,-0.90625 -0.35937,-0.59375 -0.35937,-1.3125 0,-0.64062 0.29687,-1.1875 0.29688,-0.5625 0.8125,-0.92187 0.375,-0.28125 1.03125,-0.46875 0.67188,-0.20313 1.42188,-0.20313 1.14062,0 2,0.32813 0.85937,0.32812 1.26562,0.89062 0.42188,0.5625 0.57813,1.5 l -1.60938,0.21875 q -0.10937,-0.75 -0.64062,-1.17187 -0.51563,-0.42188 -1.46875,-0.42188 -1.14063,0 -1.625,0.375 -0.46875,0.375 -0.46875,0.875 0,0.3125 0.1875,0.57813 0.20312,0.26562 0.64062,0.4375 0.23438,0.0937 1.4375,0.42187 1.75,0.45313 2.4375,0.75 0.6875,0.29688 1.07813,0.85938 0.39062,0.5625 0.39062,1.40625 0,0.82812 -0.48437,1.54687 -0.46875,0.71875 -1.375,1.125 -0.90625,0.39063 -2.04688,0.39063 -1.875,0 -2.875,-0.78125 -0.98437,-0.78125 -1.25,-2.32813 z"
       fill-rule="nonzero"
       id="path548" />
    <path
       fill="#000000"
       fill-opacity="0"
       d="m 402.55774,246.90814 -38.2677,27.87402"
       fill-rule="evenodd"
       id="path550" />
    <path
       stroke="#000000"
       stroke-width="1"
       stroke-linejoin="round"
       stroke-linecap="butt"
       d="m 402.55774,246.90814 -33.41791,24.34143"
       fill-rule="evenodd"
       id="path552" />
    <path
       fill="#000000"
       stroke="#000000"
       stroke-width="1"
       stroke-linecap="butt"
       d="m 368.16736,269.91446 -2.69568,4.00699 4.64066,-1.33679 z"
       fill-rule="evenodd"
       id="path554" />
  </g>
</svg>
