<?xml version="1.0" encoding="UTF-8" standalone="no"?>
<!-- Created with Inkscape (http://www.inkscape.org/) -->

<svg
   width="450"
   height="260"
   viewBox="0 0 119.0625 68.791667"
   version="1.1"
   id="svg1628"
   xmlns:xlink="http://www.w3.org/1999/xlink"
   xmlns="http://www.w3.org/2000/svg"
   xmlns:svg="http://www.w3.org/2000/svg">
  <defs
     id="defs1625">
    <linearGradient
       xlink:href="#linearGradient35208"
       id="linearGradient35210"
       x1="87.014847"
       y1="153.11105"
       x2="93.596352"
       y2="153.11105"
       gradientUnits="userSpaceOnUse"
       gradientTransform="translate(-17.627143,-82.823393)" />
    <linearGradient
       id="linearGradient35208">
      <stop
         style="stop-color:#adadad;stop-opacity:0;"
         offset="0"
         id="stop35204" />
      <stop
         style="stop-color:#b40000;stop-opacity:1;"
         offset="1"
         id="stop35206" />
    </linearGradient>
    <linearGradient
       xlink:href="#linearGradient35216"
       id="linearGradient35218"
       x1="87.014847"
       y1="153.11105"
       x2="93.596352"
       y2="153.11105"
       gradientUnits="userSpaceOnUse"
       gradientTransform="translate(-17.627143,-82.823393)" />
    <linearGradient
       id="linearGradient35216">
      <stop
         style="stop-color:#000000;stop-opacity:0;"
         offset="0"
         id="stop35212" />
      <stop
         style="stop-color:#000000;stop-opacity:1;"
         offset="1"
         id="stop35214" />
    </linearGradient>
    <linearGradient
       xlink:href="#linearGradient35208"
       id="linearGradient35265"
       gradientUnits="userSpaceOnUse"
       x1="87.014847"
       y1="153.11105"
       x2="93.596352"
       y2="153.11105"
       gradientTransform="translate(-19.611518,-81.268978)" />
    <linearGradient
       xlink:href="#linearGradient35216"
       id="linearGradient35267"
       gradientUnits="userSpaceOnUse"
       x1="87.014847"
       y1="153.11105"
       x2="93.596352"
       y2="153.11105"
       gradientTransform="translate(-19.611518,-81.268978)" />
    <linearGradient
       xlink:href="#linearGradient35208"
       id="linearGradient35298"
       gradientUnits="userSpaceOnUse"
       x1="87.014847"
       y1="153.11105"
       x2="93.596352"
       y2="153.11105"
       gradientTransform="translate(-16.883002,-79.896452)" />
    <linearGradient
       xlink:href="#linearGradient35216"
       id="linearGradient35300"
       gradientUnits="userSpaceOnUse"
       x1="87.014847"
       y1="153.11105"
       x2="93.596352"
       y2="153.11105"
       gradientTransform="translate(-16.883002,-79.896452)" />
  </defs>
  <g
     id="layer1">
    <g
       id="g1974"
       transform="matrix(4.6561942,0,0,4.6561942,-308.55132,-314.74917)">
      <g
         id="g14539"
         transform="translate(-17.627143,-82.823393)">
        <path
           style="fill:#2f5660;fill-opacity:1;stroke-width:0.783439"
           d="m 101.00636,157.88733 c 3.69222,0 6.51664,0.52967 6.40163,1.32482 -0.11512,0.79593 -2.78977,1.59261 -6.83532,1.59261 -4.045537,0 -6.483329,-0.79668 -6.361814,-1.59261 0.121397,-0.79515 3.103287,-1.32482 6.795504,-1.32482 z"
           id="path1138-8" />
        <path
           style="fill:#2f91aa;fill-opacity:1;stroke-width:0.783439"
           d="m 100.61216,160.53911 c 2.32877,0 6.68071,-0.53104 6.79583,-1.32696 l -0.38416,2.65608 c -0.11549,0.79849 -3.2604,1.33125 -6.80714,1.33125 -3.546742,0 -6.533247,-0.53276 -6.411339,-1.33125 l 0.405505,-2.65608 c -0.121513,0.79592 2.703125,1.32696 6.401304,1.32696 z"
           id="path1138-4-3" />
        <path
           style="fill:#2f5660;fill-opacity:1;stroke-width:0.783439"
           d="m 101.47772,154.71646 c 3.68508,0 6.50419,0.52762 6.38963,1.31971 -0.11467,0.79284 -2.62737,1.58645 -6.82164,1.58645 -4.194275,0 -6.471017,-0.79361 -6.349974,-1.58645 0.120928,-0.79209 3.096901,-1.31971 6.781984,-1.31971 z"
           id="path1138-1-9" />
        <path
           style="fill:#2f91aa;fill-opacity:1;stroke-width:0.783439"
           d="m 101.08505,157.358 c 2.32426,0 6.66763,-0.52899 6.7823,-1.32184 l -0.38268,2.64581 c -0.11504,0.79541 -3.2537,1.3261 -6.79357,1.3261 -3.539863,0 -6.520736,-0.53069 -6.399301,-1.3261 l 0.403938,-2.64581 c -0.121044,0.79285 2.698284,1.32184 6.389313,1.32184 z"
           id="path1138-4-9-2" />
        <path
           style="fill:#1f606f;fill-opacity:1;stroke-width:0.783439"
           d="m 101.94726,151.55782 c 3.67798,0 6.4918,0.52559 6.37768,1.31461 -0.11423,0.78979 -2.86036,1.58034 -6.80802,1.58034 -3.947668,0 -6.458751,-0.79055 -6.338174,-1.58034 0.120461,-0.78902 3.09054,-1.31461 6.768514,-1.31461 z"
           id="path1138-42-3" />
        <path
           style="fill:#2f91aa;fill-opacity:1;stroke-width:0.783439"
           d="m 101.5561,154.18917 c 2.31978,0 6.65461,-0.52695 6.76884,-1.31674 l -0.3812,2.6356 c -0.1146,0.79233 -3.24704,1.32098 -6.78006,1.32098 -3.533017,0 -6.508279,-0.52865 -6.387313,-1.32098 l 0.402379,-2.6356 c -0.120577,0.78979 2.693461,1.31674 6.377354,1.31674 z"
           id="path1138-4-99-6" />
      </g>
      <g
         id="g13805"
         transform="matrix(1.124507,0,0,1.124507,-24.270753,-86.263844)">
        <path
           id="path8417-5"
           style="fill:#c3e3e5;fill-opacity:1;stroke:none;stroke-width:0.0142857;stroke-dasharray:none;stroke-opacity:1"
           d="m 87.312501,145.52083 a 2.645833,2.645833 0 0 0 -2.645833,2.64585 h 5.291665 a 2.645833,2.645833 0 0 0 -2.645832,-2.64585 z" />
        <path
           id="path8417"
           style="fill:#e5efee;fill-opacity:1;stroke:none;stroke-width:0.01;stroke-dasharray:none;stroke-opacity:1"
           d="m 87.3125,146.31458 a 1.8520833,1.8520833 0 0 0 -1.852083,1.85209 h 3.704166 A 1.8520833,1.8520833 0 0 0 87.3125,146.31458 Z" />
        <path
           style="fill:#66ccff;fill-opacity:1;stroke-width:0.264583"
           d="m 84.453761,145.41231 c 0.694531,-0.7276 1.668115,-1.21439 2.858739,-1.2144 1.190625,1e-5 2.162142,0.48577 2.856673,1.21337 0.440634,-0.48398 0.502571,-0.55628 0.880567,-0.98185 -0.959114,-0.95911 -2.282031,-1.55443 -3.73724,-1.55443 -1.455208,0 -2.778124,0.59532 -3.737239,1.55443 0.270544,0.30895 0.470137,0.54082 0.8785,0.98288 z"
           id="path4194" />
        <path
           style="fill:#e00d0d;fill-opacity:1;stroke:none;stroke-width:0.264583;stroke-opacity:1"
           d="m 90.16814,145.40819 c 0.694532,0.72761 1.11311,1.70015 1.11311,2.75848 0.529168,1e-5 0.793751,1e-5 1.322917,0 0,-1.4552 -0.595312,-2.77812 -1.554427,-3.73723 -0.368998,0.40095 -0.57408,0.60919 -0.8816,0.97875 z"
           id="path4192" />
        <path
           style="fill:#66ccff;fill-opacity:1;stroke-width:0.264583"
           d="m 82.020832,148.16666 c 0.529168,1e-5 0.793751,1e-5 1.322917,0 0,-1.05833 0.419614,-2.02675 1.114145,-2.75435 -0.331789,-0.37001 -0.483064,-0.53812 -0.882634,-0.98288 -0.959115,0.95911 -1.554427,2.28202 -1.554428,3.73723 z"
           id="path4148" />
        <rect
           style="fill:#b40000;fill-opacity:1;stroke:none;stroke-width:0.01;stroke-dasharray:none;stroke-opacity:1"
           id="rect12290"
           width="7.4083333"
           height="0.52916664"
           x="63.838001"
           y="158.90865"
           rx="0.2645818"
           ry="0.39687499"
           transform="rotate(-8.2559236)" />
        <circle
           style="fill:#41545d;fill-opacity:1;stroke:none;stroke-width:0.0199998;stroke-dasharray:none;stroke-opacity:1"
           id="path6911"
           cx="87.312508"
           cy="148.16667"
           r="0.79374337" />
      </g>
      <path
         id="path28687"
         style="fill:url(#linearGradient35210);fill-opacity:1;stroke:url(#linearGradient35218);stroke-width:0.3;stroke-linecap:round;stroke-linejoin:round;stroke-dasharray:none;stroke-dashoffset:0;stroke-opacity:1"
         d="m 69.3877,70.271137 h 3.50573 z m 4.29948,0 h 0.99219 z m 1.78594,0.0331 h 0.49609 z" />
      <path
         id="path28687-0"
         style="fill:url(#linearGradient35265);fill-opacity:1;stroke:url(#linearGradient35267);stroke-width:0.3;stroke-linecap:round;stroke-linejoin:round;stroke-dasharray:none;stroke-dashoffset:0;stroke-opacity:1"
         d="m 67.40333,71.825547 h 3.50573 z m 4.29948,0 h 0.99218 z m 1.78593,0.0331 h 0.4961 z" />
      <path
         id="path28687-4"
         style="fill:url(#linearGradient35298);fill-opacity:1;stroke:url(#linearGradient35300);stroke-width:0.3;stroke-linecap:round;stroke-linejoin:round;stroke-dasharray:none;stroke-dashoffset:0;stroke-opacity:1"
         d="m 70.13184,73.198077 h 3.50573 z m 4.29948,0 h 0.99219 z m 1.78594,0.0331 h 0.49609 z" />
    </g>
  </g>
</svg>
