<?xml version="1.0" encoding="UTF-8" standalone="no"?>
<!-- Created with Inkscape (http://www.inkscape.org/) -->

<svg
   width="312"
   height="300"
   viewBox="0 0 82.549997 79.375"
   version="1.1"
   id="svg2353"
   xmlns="http://www.w3.org/2000/svg"
   xmlns:svg="http://www.w3.org/2000/svg">
  <defs
     id="defs2350" />
  <g
     id="layer1">
    <g
       id="g2623"
       transform="matrix(3.1961309,0,0,3.1961309,-350.69491,-437.29927)">
      <path
         style="fill:#1d6172;fill-opacity:1;stroke-width:0.724155"
         d="m 122.7722,149.82618 c 3.43569,0 6.13515,0.48745 6.13515,1.21861 0,0.73116 -2.70714,1.4547 -6.14282,1.4547 -3.43568,0 -6.12748,-0.72354 -6.12748,-1.4547 0,-0.73116 2.69947,-1.21861 6.13515,-1.21861 z"
         id="path1138-7" />
      <path
         style="fill:#2f91ad;fill-opacity:1;stroke-width:0.724155"
         d="m 122.7722,152.26338 c 2.16348,0 6.13515,-0.48743 6.13515,-1.21859 0,1.46232 0,2.16646 0,2.4372 0,0.73116 -2.84549,1.21861 -6.13515,1.21861 -3.28968,0 -6.13514,-0.48745 -6.13514,-1.21861 v -2.4372 c 0,0.73116 2.69946,1.21859 6.13514,1.21859 z"
         id="path1138-4-7" />
      <path
         style="fill:#1d6172;fill-opacity:1;stroke-width:0.724155"
         d="m 122.7722,146.90153 c 3.43569,0 6.13515,0.48744 6.13515,1.2186 0,0.73117 -2.71481,1.41664 -6.15049,1.41664 -3.43569,0 -6.11981,-0.68547 -6.11981,-1.41664 0,-0.73116 2.69947,-1.2186 6.13515,-1.2186 z"
         id="path1138-1-5" />
      <path
         style="fill:#2f91ad;fill-opacity:1;stroke-width:0.724155"
         d="m 122.7722,149.33874 c 2.16348,0 6.13515,-0.48744 6.13515,-1.21861 0,1.46233 0,2.16646 0,2.43721 0,0.73117 -2.84549,1.21861 -6.13515,1.21861 -3.28968,0 -6.13514,-0.48744 -6.13514,-1.21861 v -2.43721 c 0,0.73117 2.69946,1.21861 6.13514,1.21861 z"
         id="path1138-4-9-4" />
      <path
         style="fill:#1d6172;fill-opacity:1;stroke-width:0.724155"
         d="m 122.7722,143.97688 c 3.43569,0 6.13515,0.48745 6.13515,1.21861 0,0.73115 -2.69947,1.4547 -6.13515,1.4547 -3.43568,0 -6.13514,-0.72355 -6.13514,-1.4547 0,-0.73116 2.69946,-1.21861 6.13514,-1.21861 z"
         id="path1138-42-36" />
      <path
         style="fill:#2f91ad;fill-opacity:1;stroke-width:0.724155"
         d="m 122.7722,146.41409 c 2.16348,0 6.13515,-0.48745 6.13515,-1.2186 0,1.46232 0,2.16646 0,2.4372 0,0.73116 -2.84549,1.21861 -6.13515,1.21861 -3.28968,0 -6.13514,-0.48745 -6.13514,-1.21861 v -2.4372 c 0,0.73115 2.69946,1.2186 6.13514,1.2186 z"
         id="path1138-4-99-0" />
      <path
         style="fill:none;stroke:#64cbff;stroke-width:1.51062;stroke-linecap:square;stroke-linejoin:round;stroke-dasharray:none;stroke-opacity:1"
         d="m 113.64889,147.74 c 0,5.99527 0,5.99527 0,5.99527 l 3.99685,3.99684"
         id="path93029" />
      <circle
         style="fill:#65cbff;fill-opacity:1;stroke:none;stroke-width:4.22708;stroke-linecap:square;stroke-linejoin:round;stroke-dasharray:none;stroke-opacity:1"
         id="path95572"
         cx="118.09104"
         cy="158.25299"
         r="1.7475266" />
      <text
         xml:space="preserve"
         style="font-style:normal;font-variant:normal;font-weight:normal;font-stretch:normal;font-size:2.39811px;font-family:arial;-inkscape-font-specification:arial;fill:#99ddff;fill-opacity:1;stroke:#f5c94c;stroke-width:0.377655;stroke-linecap:square;stroke-linejoin:round;stroke-dasharray:none;stroke-opacity:1"
         x="117.36733"
         y="159.2729"
         id="text97080"><tspan
           id="tspan97078"
           style="font-style:normal;font-variant:normal;font-weight:normal;font-stretch:normal;font-family:arial;-inkscape-font-specification:arial;stroke:#f5c94c;stroke-width:0.377655;stroke-linecap:square;stroke-dasharray:none;stroke-opacity:1"
           x="117.36733"
           y="159.2729">T</tspan></text>
      <path
         style="fill:none;stroke:#64cbff;stroke-width:1.51062;stroke-linecap:square;stroke-linejoin:round;stroke-dasharray:none;stroke-opacity:1"
         d="m 123.641,139.7463 c -5.99526,0 -5.99526,0 -5.99526,0 l -3.99685,3.99685"
         id="path93029-5" />
      <circle
         style="fill:#65cbff;fill-opacity:1;stroke:none;stroke-width:4.22708;stroke-linecap:square;stroke-linejoin:round;stroke-dasharray:none;stroke-opacity:1"
         id="path95572-8"
         cx="144.18845"
         cy="-113.128"
         r="1.7475266"
         transform="rotate(90)" />
      <text
         xml:space="preserve"
         style="font-style:normal;font-variant:normal;font-weight:normal;font-stretch:normal;font-size:2.39811px;font-family:arial;-inkscape-font-specification:arial;fill:#99ddff;fill-opacity:1;stroke:#f5c94c;stroke-width:0.377655;stroke-linecap:square;stroke-linejoin:round;stroke-dasharray:none;stroke-opacity:1"
         x="112.39368"
         y="145.19609"
         id="text97080-24"><tspan
           id="tspan97078-0"
           style="font-style:normal;font-variant:normal;font-weight:normal;font-stretch:normal;font-family:arial;-inkscape-font-specification:arial;stroke:#f5c94c;stroke-width:0.377655;stroke-linecap:square;stroke-dasharray:none;stroke-opacity:1"
           x="112.39368"
           y="145.19609">T</tspan></text>
      <path
         style="fill:none;fill-opacity:1;stroke:#64cbff;stroke-width:1.51062;stroke-linecap:square;stroke-linejoin:round;stroke-dasharray:none;stroke-opacity:1"
         d="m 131.63468,150.73763 c 0,-5.99526 0,-5.99526 0,-5.99526 l -3.99685,-3.99684"
         id="path93029-2" />
      <circle
         style="fill:#65cbff;fill-opacity:1;stroke:none;stroke-width:4.22708;stroke-linecap:square;stroke-linejoin:round;stroke-dasharray:none;stroke-opacity:1"
         id="path95572-7"
         cx="-127.19256"
         cy="-140.22462"
         r="1.7475266"
         transform="scale(-1)" />
      <text
         xml:space="preserve"
         style="font-style:normal;font-variant:normal;font-weight:normal;font-stretch:normal;font-size:2.39811px;font-family:arial;-inkscape-font-specification:arial;fill:#ffe499;fill-opacity:1;stroke:#f5c94c;stroke-width:0.377655;stroke-linecap:square;stroke-linejoin:round;stroke-dasharray:none;stroke-opacity:1"
         x="126.44319"
         y="141.11246"
         id="text97080-4"><tspan
           id="tspan97078-6"
           style="font-style:normal;font-variant:normal;font-weight:normal;font-stretch:normal;font-family:arial;-inkscape-font-specification:arial;fill:#ffe499;fill-opacity:1;stroke:#f5c94c;stroke-width:0.377655;stroke-linecap:square;stroke-dasharray:none;stroke-opacity:1"
           x="126.44319"
           y="141.11246">T</tspan></text>
      <path
         style="fill:none;stroke:#64cbff;stroke-width:1.51062;stroke-linecap:square;stroke-linejoin:round;stroke-dasharray:none;stroke-opacity:1"
         d="m 121.64257,158.73132 c 5.99526,0 5.99526,0 5.99526,0 l 3.99685,-3.99685"
         id="path93029-5-1" />
      <circle
         style="fill:#65cbff;fill-opacity:1;stroke:none;stroke-width:4.22708;stroke-linecap:square;stroke-linejoin:round;stroke-dasharray:none;stroke-opacity:1"
         id="path95572-8-4"
         cx="-154.28917"
         cy="132.15558"
         r="1.7475266"
         transform="rotate(-90)" />
      <text
         xml:space="preserve"
         style="font-style:normal;font-variant:normal;font-weight:normal;font-stretch:normal;font-size:2.39811px;font-family:arial;-inkscape-font-specification:arial;fill:#99ddff;fill-opacity:1;stroke:#f5c94c;stroke-width:0.377655;stroke-linecap:square;stroke-linejoin:round;stroke-dasharray:none;stroke-opacity:1"
         x="131.43422"
         y="155.19727"
         id="text97080-24-8"><tspan
           id="tspan97078-0-8"
           style="font-style:normal;font-variant:normal;font-weight:normal;font-stretch:normal;font-family:arial;-inkscape-font-specification:arial;stroke:#f5c94c;stroke-width:0.377655;stroke-linecap:square;stroke-dasharray:none;stroke-opacity:1"
           x="131.43422"
           y="155.19727">T</tspan></text>
    </g>
  </g>
</svg>
