<?xml version="1.0" encoding="UTF-8" standalone="no"?>
<!-- Created with Inkscape (http://www.inkscape.org/) -->

<svg
   width="400"
   height="300"
   viewBox="0 0 105.83333 79.374999"
   version="1.1"
   id="svg616"
   xmlns="http://www.w3.org/2000/svg"
   xmlns:svg="http://www.w3.org/2000/svg">
  <defs
     id="defs613" />
  <g
     id="layer1">
    <g
       id="g1020"
       transform="matrix(3.9034462,0,0,3.9034462,-102.81336,-52.596961)">
      <path
         style="fill:#b0e5f1;fill-opacity:1;stroke:#525252;stroke-width:0.425288;stroke-linejoin:miter;stroke-dasharray:none;stroke-opacity:1;paint-order:markers stroke fill"
         d="m 49.43318,27.809092 10e-7,0.90019 H 44.93222 v -0.90019 z"
         id="path9484-7-32" />
      <path
         style="fill:#b0e5f1;fill-opacity:1;stroke:#525252;stroke-width:0.390627;stroke-linejoin:miter;stroke-dasharray:none;stroke-opacity:1;paint-order:markers stroke fill"
         d="m 49.45051,28.917002 10e-7,2.0725 H 44.91489 v -2.0725 z"
         id="path9484-8-9-6" />
      <path
         id="rect14861-5-1"
         style="fill:#464633;fill-opacity:1;stroke:none;stroke-width:0;stroke-opacity:1;paint-order:markers stroke fill"
         d="m 45.382324,28.034142 h 2.878937 c 0.124676,0 0.225047,0.0827 0.225047,0.18536 0,0.10269 -0.100371,0.18536 -0.225047,0.18536 h -2.878937 c -0.124676,0 -0.225048,-0.0827 -0.225048,-0.18536 0,-0.10269 0.100372,-0.18536 0.225048,-0.18536 z" />
      <path
         id="rect14863-7-0"
         style="fill:#464633;fill-opacity:1;stroke:none;stroke-width:0;stroke-opacity:1;paint-order:markers stroke fill"
         d="m 45.39886,29.225532 h 0.917559 c 0.124676,0 0.225047,0.0827 0.225047,0.18536 v 0 c 0,0.10269 -0.100371,0.18536 -0.225047,0.18536 H 45.39886 c -0.124676,0 -0.225048,-0.0827 -0.225048,-0.18536 v 0 c 0,-0.10269 0.100372,-0.18536 0.225048,-0.18536 z" />
      <path
         id="rect14863-8-7-42"
         style="fill:#464633;fill-opacity:1;stroke:none;stroke-width:0;stroke-opacity:1;paint-order:markers stroke fill"
         d="m 45.382324,29.880822 h 3.028326 c 0.124676,0 0.225047,0.0827 0.225047,0.18536 v 0 c 0,0.10269 -0.100371,0.18536 -0.225047,0.18536 h -3.028326 c -0.124676,0 -0.225048,-0.0827 -0.225048,-0.18536 v 0 c 0,-0.10269 0.100372,-0.18536 0.225048,-0.18536 z" />
      <path
         id="rect14863-2-3-5"
         style="fill:#464633;fill-opacity:1;stroke:none;stroke-width:0;stroke-opacity:1;paint-order:markers stroke fill"
         d="m 46.956481,29.225532 h 0.935357 c 0.124676,0 0.225047,0.0827 0.225047,0.18536 v 0 c 0,0.10269 -0.100371,0.18536 -0.225047,0.18536 h -0.935357 c -0.124676,0 -0.225048,-0.0827 -0.225048,-0.18536 v 0 c 0,-0.10269 0.100372,-0.18536 0.225048,-0.18536 z" />
      <path
         style="fill:#1d6172;fill-opacity:1;stroke-width:0.783439"
         d="m 40.043957,24.423732 c 3.704167,0 6.614583,0.52917 6.614583,1.32292 0,0.79375 -2.918684,1.57923 -6.622851,1.57923 -3.704167,0 -6.606315,-0.78548 -6.606315,-1.57923 0,-0.79375 2.910416,-1.32292 6.614583,-1.32292 z"
         id="path1138" />
      <path
         style="fill:#378da5;fill-opacity:1;stroke-width:0.783439"
         d="m 40.043957,27.069562 c 2.332537,0 6.614583,-0.52916 6.614583,-1.32291 0,1.5875 0,2.35191 0,2.64583 0,0.79375 -3.067842,1.32292 -6.614583,1.32292 -3.546742,0 -6.614583,-0.52917 -6.614583,-1.32292 v -2.64583 c 0,0.79375 2.910416,1.32291 6.614583,1.32291 z"
         id="path1138-4" />
      <path
         style="fill:#1d6172;fill-opacity:1;stroke-width:0.783439"
         d="m 40.043957,21.248733 c 3.704167,0 6.614583,0.529167 6.614583,1.322917 0,0.79375 -2.926952,1.537892 -6.631119,1.537892 -3.704167,0 -6.598047,-0.744142 -6.598047,-1.537892 0,-0.79375 2.910416,-1.322917 6.614583,-1.322917 z"
         id="path1138-1" />
      <path
         style="fill:#378da5;fill-opacity:1;stroke-width:0.783439"
         d="m 40.043957,23.894562 c 2.332537,0 6.614583,-0.529162 6.614583,-1.322912 0,1.587502 0,2.351912 0,2.645832 0,0.79375 -3.067842,1.32292 -6.614583,1.32292 -3.546742,0 -6.614583,-0.52917 -6.614583,-1.32292 V 22.57165 c 0,0.79375 2.910416,1.322912 6.614583,1.322912 z"
         id="path1138-4-9" />
      <path
         style="fill:#1d6172;fill-opacity:1;stroke-width:0.783439"
         d="m 40.043957,18.073733 c 3.704167,0 6.614583,0.529167 6.614583,1.322917 0,0.79375 -2.910416,1.579231 -6.614583,1.579231 -3.704167,0 -6.614583,-0.785481 -6.614583,-1.579231 0,-0.79375 2.910416,-1.322917 6.614583,-1.322917 z"
         id="path1138-42" />
      <path
         style="fill:#378da5;fill-opacity:1;stroke-width:0.783439"
         d="m 40.043957,20.719566 c 2.332537,0 6.614583,-0.529166 6.614583,-1.322916 0,1.5875 0,2.351912 0,2.645833 0,0.79375 -3.067842,1.322916 -6.614583,1.322916 -3.546742,0 -6.614583,-0.529166 -6.614583,-1.322916 V 19.39665 c 0,0.79375 2.910416,1.322916 6.614583,1.322916 z"
         id="path1138-4-99" />
      <path
         style="fill:#ecc455;fill-opacity:1;stroke:#525252;stroke-width:0.837901;stroke-linejoin:miter;stroke-dasharray:none;stroke-opacity:1;paint-order:markers stroke fill"
         d="m 51.700133,15.249084 2e-6,1.77356 h -8.867791 v -1.773557 z"
         id="path9484" />
      <path
         style="fill:#ecc455;fill-opacity:1;stroke:#525252;stroke-width:0.769612;stroke-linejoin:miter;stroke-dasharray:none;stroke-opacity:1;paint-order:markers stroke fill"
         d="m 51.734278,17.431889 10e-7,4.083234 H 42.7982 V 17.43189 Z"
         id="path9484-8" />
      <path
         id="rect14861"
         style="fill:#464633;fill-opacity:1;stroke:none;stroke-width:0;stroke-opacity:1;paint-order:markers stroke fill"
         d="m 43.735655,15.84131 h 4.877282 c 0.245637,0 0.443388,0.131374 0.443388,0.29456 0,0.163188 -0.197751,0.294561 -0.443388,0.294561 h -4.877282 c -0.245637,0 -0.443389,-0.131373 -0.443389,-0.294561 0,-0.163186 0.197752,-0.29456 0.443389,-0.29456 z" />
      <path
         id="rect14863"
         style="fill:#464633;fill-opacity:1;stroke:none;stroke-width:0;stroke-opacity:1;paint-order:markers stroke fill"
         d="m 43.719119,18.074789 h 3.547116 c 0.245637,0 0.443388,0.131373 0.443388,0.29456 v 1e-6 c 0,0.163187 -0.197751,0.294561 -0.443388,0.294561 h -3.547116 c -0.245637,0 -0.443389,-0.131374 -0.443389,-0.294561 v -1e-6 c 0,-0.163187 0.197752,-0.29456 0.443389,-0.29456 z" />
      <path
         id="rect14863-8"
         style="fill:#464633;fill-opacity:1;stroke:none;stroke-width:0;stroke-opacity:1;paint-order:markers stroke fill"
         d="m 43.719119,19.23959 h 1.773557 c 0.245638,0 0.443389,0.138749 0.443389,0.311097 v 2e-6 c 0,0.172348 -0.197751,0.311097 -0.443389,0.311097 h -1.773557 c -0.245637,0 -0.443389,-0.138749 -0.443389,-0.311097 v -2e-6 c 0,-0.172348 0.197752,-0.311097 0.443389,-0.311097 z" />
      <path
         id="rect14863-2"
         style="fill:#464633;fill-opacity:1;stroke:none;stroke-width:0;stroke-opacity:1;paint-order:markers stroke fill"
         d="m 48.596408,18.074789 h 0.886778 c 0.245638,0 0.443389,0.131373 0.443389,0.29456 v 2e-6 c 0,0.163186 -0.197751,0.29456 -0.443389,0.29456 h -0.886778 c -0.245637,0 -0.443389,-0.131374 -0.443389,-0.29456 v -2e-6 c 0,-0.163187 0.197752,-0.29456 0.443389,-0.29456 z" />
      <path
         style="fill:#e6d197;fill-opacity:1;stroke:#525252;stroke-width:0.425288;stroke-linejoin:miter;stroke-dasharray:none;stroke-opacity:1;paint-order:markers stroke fill"
         d="m 34.356937,15.163316 10e-7,0.900193 h -4.500961 v -0.900192 z"
         id="path9484-7" />
      <path
         style="fill:#e6d197;fill-opacity:1;stroke:#525252;stroke-width:0.390627;stroke-linejoin:miter;stroke-dasharray:none;stroke-opacity:1;paint-order:markers stroke fill"
         d="m 34.374267,16.271226 10e-7,2.072499 h -4.535621 v -2.072498 z"
         id="path9484-8-9" />
      <path
         id="rect14861-5"
         style="fill:#464633;fill-opacity:1;stroke:none;stroke-width:0;stroke-opacity:1;paint-order:markers stroke fill"
         d="m 30.306076,15.388367 h 1.031436 c 0.124677,0 0.225048,0.08481 0.225048,0.190163 0,0.105351 -0.100371,0.190164 -0.225048,0.190164 h -1.031436 c -0.124677,0 -0.225048,-0.08481 -0.225048,-0.190164 0,-0.10535 0.100371,-0.190163 0.225048,-0.190163 z" />
      <path
         id="rect14863-7"
         style="fill:#464633;fill-opacity:1;stroke:none;stroke-width:0;stroke-opacity:1;paint-order:markers stroke fill"
         d="m 30.306076,16.55416 h 2.653976 c 0.124676,0 0.225047,0.08481 0.225047,0.190164 v 1e-6 c 0,0.10535 -0.100371,0.190163 -0.225047,0.190163 h -2.653976 c -0.124677,0 -0.225048,-0.08481 -0.225048,-0.190163 v -1e-6 c 0,-0.105351 0.100371,-0.190164 0.225048,-0.190164 z" />
      <path
         id="rect14863-8-7"
         style="fill:#464633;fill-opacity:1;stroke:none;stroke-width:0;stroke-opacity:1;paint-order:markers stroke fill"
         d="m 30.28954,17.182208 h 2.180579 c 0.124676,0 0.225048,0.08481 0.225048,0.190164 v 0 c 0,0.105351 -0.100372,0.190163 -0.225048,0.190163 H 30.28954 c -0.124677,0 -0.225048,-0.08481 -0.225048,-0.190163 v 0 c 0,-0.105352 0.100371,-0.190164 0.225048,-0.190164 z" />
      <path
         id="rect14863-2-3"
         style="fill:#464633;fill-opacity:1;stroke:none;stroke-width:0;stroke-opacity:1;paint-order:markers stroke fill"
         d="m 33.010617,17.182208 h 0.771654 c 0.124677,0 0.225048,0.08481 0.225048,0.190164 v 0 c 0,0.105351 -0.100371,0.190163 -0.225048,0.190163 h -0.771654 c -0.124677,0 -0.225048,-0.08481 -0.225048,-0.190163 v 0 c 0,-0.105352 0.100371,-0.190164 0.225048,-0.190164 z" />
      <path
         style="fill:#c5f4ff;fill-opacity:1;stroke:#525252;stroke-width:0.377757;stroke-linejoin:miter;stroke-dasharray:none;stroke-opacity:1;paint-order:markers stroke fill"
         d="m 31.85877,21.11706 2e-6,0.799587 H 27.860837 V 21.11706 Z"
         id="path9484-7-4" />
      <path
         style="fill:#c5f4ff;fill-opacity:1;stroke:#525252;stroke-width:0.34697;stroke-linejoin:miter;stroke-dasharray:none;stroke-opacity:1;paint-order:markers stroke fill"
         d="m 31.874164,22.101149 v 1.134554 h -4.028721 v -1.134552 z"
         id="path9484-8-9-1" />
      <path
         id="rect14861-5-8"
         style="fill:#464633;fill-opacity:1;stroke:none;stroke-width:0;stroke-opacity:1;paint-order:markers stroke fill"
         d="m 28.260648,21.316956 h 2.198862 c 0.110751,0 0.199896,0.07723 0.199896,0.173168 v 0 c 0,0.09594 -0.08915,0.173171 -0.199896,0.173171 h -2.198862 c -0.110751,0 -0.199896,-0.07723 -0.199896,-0.173171 v 0 c 0,-0.09593 0.08915,-0.173168 0.199896,-0.173168 z" />
      <path
         id="rect14863-7-1"
         style="fill:#464633;fill-opacity:1;stroke:none;stroke-width:0;stroke-opacity:1;paint-order:markers stroke fill"
         d="m 28.277184,22.381242 h 1.599173 c 0.11075,0 0.199897,0.07723 0.199897,0.173169 v 10e-7 c 0,0.09594 -0.08915,0.173169 -0.199897,0.173169 h -1.599173 c -0.110751,0 -0.199896,-0.07723 -0.199896,-0.173169 v -10e-7 c 0,-0.09594 0.08915,-0.173169 0.199896,-0.173169 z" />
      <path
         id="rect14863-2-3-1"
         style="fill:#464633;fill-opacity:1;stroke:none;stroke-width:0;stroke-opacity:1;paint-order:markers stroke fill"
         d="m 30.476035,22.381242 h 0.399793 c 0.110751,0 0.199896,0.07723 0.199896,0.173169 v 10e-7 c 0,0.09594 -0.08915,0.173169 -0.199896,0.173169 h -0.399793 c -0.110751,0 -0.199896,-0.07723 -0.199896,-0.173169 v -10e-7 c 0,-0.09594 0.08915,-0.173169 0.199896,-0.173169 z" />
      <path
         style="fill:#ebd296;fill-opacity:1;stroke:#525252;stroke-width:0.619592;stroke-linejoin:miter;stroke-dasharray:none;stroke-opacity:1;paint-order:markers stroke fill"
         d="m 36.984068,27.535442 2e-6,1.31147 h -6.557341 v -1.31147 z"
         id="path9484-7-3" />
      <path
         style="fill:#ebd496;fill-opacity:1;stroke:#525252;stroke-width:0.569095;stroke-linejoin:miter;stroke-dasharray:none;stroke-opacity:1;paint-order:markers stroke fill"
         d="m 37.009316,29.149532 1e-6,3.01937 h -6.607836 v -3.01937 z"
         id="path9484-8-9-0" />
      <path
         id="rect14861-5-5"
         style="fill:#464633;fill-opacity:1;stroke:none;stroke-width:0;stroke-opacity:1;paint-order:markers stroke fill"
         d="m 31.035699,27.910092 h 2.302761 c 0.181638,0 0.327866,0.11807 0.327866,0.26473 0,0.14666 -0.146228,0.26473 -0.327866,0.26473 h -2.302761 c -0.181638,0 -0.327866,-0.11807 -0.327866,-0.26473 0,-0.14666 0.146228,-0.26473 0.327866,-0.26473 z" />
      <path
         id="rect14863-7-6"
         style="fill:#464633;fill-opacity:1;stroke:none;stroke-width:0;stroke-opacity:1;paint-order:markers stroke fill"
         d="m 31.012313,29.490982 h 3.289438 c 0.181638,0 0.327867,0.11807 0.327867,0.26473 v 0 c 0,0.14666 -0.146229,0.26473 -0.327867,0.26473 h -3.289438 c -0.181638,0 -0.327866,-0.11807 -0.327866,-0.26473 v 0 c 0,-0.14666 0.146228,-0.26473 0.327866,-0.26473 z" />
      <path
         id="rect14863-8-7-2"
         style="fill:#464633;fill-opacity:1;stroke:none;stroke-width:0;stroke-opacity:1;paint-order:markers stroke fill"
         d="m 31.012313,30.285172 h 1.311467 c 0.181638,0 0.327867,0.11807 0.327867,0.26473 v 10e-6 c 0,0.14666 -0.146229,0.26473 -0.327867,0.26473 h -1.311467 c -0.181638,0 -0.327866,-0.11807 -0.327866,-0.26473 v -10e-6 c 0,-0.14666 0.146228,-0.26473 0.327866,-0.26473 z" />
      <path
         id="rect14863-2-3-0"
         style="fill:#464633;fill-opacity:1;stroke:none;stroke-width:0;stroke-opacity:1;paint-order:markers stroke fill"
         d="m 33.271121,30.285432 h 0.655734 c 0.181638,0 0.327866,0.11807 0.327866,0.26473 v 0 c 0,0.14666 -0.146228,0.26473 -0.327866,0.26473 h -0.655734 c -0.181638,0 -0.327866,-0.11807 -0.327866,-0.26473 v 0 c 0,-0.14666 0.146228,-0.26473 0.327866,-0.26473 z" />
      <path
         style="fill:#525252;fill-opacity:1;stroke:#525252;stroke-width:0;stroke-linejoin:miter;stroke-dasharray:none;stroke-opacity:1;paint-order:markers stroke fill"
         d="m 47.409435,27.627302 0.489159,-4.381891 -0.411683,-0.01807 -0.339385,4.398511"
         id="path21708" />
      <path
         style="fill:#525252;fill-opacity:1;stroke:#525252;stroke-width:0;stroke-linejoin:miter;stroke-dasharray:none;stroke-opacity:1;paint-order:markers stroke fill"
         d="m 34.546635,16.867783 6.594978,0.249062 0.03826,-0.345003 -6.721509,-0.07771"
         id="path21708-7" />
      <path
         style="fill:#525252;fill-opacity:1;stroke:#525252;stroke-width:0;stroke-linejoin:miter;stroke-dasharray:none;stroke-opacity:1;paint-order:markers stroke fill"
         d="m 29.791249,23.388765 2.068098,3.859607 0.451406,0.0282 -2.307882,-3.909593"
         id="path21708-7-8" />
      <path
         style="fill:none;fill-opacity:1;stroke:#525252;stroke-width:0.3;stroke-linecap:round;stroke-linejoin:miter;stroke-dasharray:none;stroke-opacity:1;paint-order:normal"
         d="m 47.675279,23.099272 c 1.055412,0.07858 1.055412,0.07858 1.055412,0.07858 l -0.976835,-1.133991 -1.133991,0.976837 z"
         id="path21710" />
      <path
         style="fill:none;fill-opacity:1;stroke:#525252;stroke-width:0.3;stroke-linecap:round;stroke-linejoin:miter;stroke-dasharray:none;stroke-opacity:1;paint-order:normal"
         d="m 41.226536,16.950189 c -0.04979,1.057161 -0.04979,1.057161 -0.04979,1.057161 l 1.106955,-1.007369 -1.007372,-1.106955 z"
         id="path21710-2" />
      <g
         aria-label="*"
         id="text24041"
         style="font-size:1.60595px;fill:none;stroke:#3b3b3b;stroke-width:0.151742;stroke-linecap:round"
         transform="matrix(1.1413073,0,0,1.1413073,-49.61523,-53.10272)">
        <path
           d="m 72.369269,69.745792 -0.05019,0.08626 -0.283865,-0.167025 0.0047,0.282296 h -0.101156 l 0.0039,-0.282296 -0.28308,0.167809 -0.05097,-0.08626 0.298763,-0.16232 -0.298763,-0.16232 0.05097,-0.08626 0.283864,0.167025 -0.0047,-0.281512 h 0.101156 l -0.0055,0.281512 0.284649,-0.166241 0.05019,0.08626 -0.297979,0.160752 z"
           id="path25735"
           style="fill:#464633;fill-opacity:1;stroke:none;stroke-opacity:1" />
      </g>
      <g
         aria-label="1"
         id="text24095"
         style="font-size:0.47025px;fill:none;stroke:#3b3b3b;stroke-width:0.0999745;stroke-linecap:round"
         transform="matrix(2.0364361,0,0,2.0364361,-110.98975,-112.32648)">
        <path
           d="m 69.105217,67.160973 h -0.185069 v -0.0349 h 0.07118 v -0.229155 h -0.07118 v -0.03123 q 0.01447,0 0.031,-0.0023 0.01653,-0.0025 0.02503,-0.0071 0.01056,-0.0057 0.01653,-0.01447 0.0062,-0.009 0.0071,-0.02388 h 0.03559 v 0.308142 h 0.0698 z"
           id="path25738"
           style="fill:#464633;fill-opacity:1;stroke:none;stroke-opacity:1" />
      </g>
    </g>
  </g>
</svg>
