<?xml version="1.0" encoding="UTF-8" standalone="no"?>
<svg
   version="1.0"
   viewBox="0 0 450 300"
   id="svg46"
   width="450"
   height="300"
   xmlns="http://www.w3.org/2000/svg"
   xmlns:svg="http://www.w3.org/2000/svg"
   xmlns:rdf="http://www.w3.org/1999/02/22-rdf-syntax-ns#"
   xmlns:cc="http://creativecommons.org/ns#"
   xmlns:dc="http://purl.org/dc/elements/1.1/">
  <defs
     id="defs50" />
  <g
     id="g261"
     transform="matrix(0.20693525,0,0,0.20693525,78.730764,17.642805)">
    <path
       d="m 470,11.6 c -56.9,6.7 -89.5,22.1 -125.5,59.5 -29.5,30.5 -49.7,69.3 -56.6,108.4 -2,11 -2.3,16.5 -2.3,35.3 -0.1,21 -0.2,22.2 -2,22.8 -1.8,0.6 -1.8,1.3 -1.2,11.8 0.4,6.1 1.3,14.5 2,18.6 1.2,7.1 1.2,7.7 -1.1,13.2 -1.5,3.8 -2.3,7.8 -2.3,11.8 0,5.4 0.3,6.3 3.5,9.9 3.8,4.1 12.9,8.8 19.6,9.9 4.1,0.7 4.2,0.8 6.5,8 2.7,8.3 7.8,16.8 13.6,22.8 l 4,4.1 -11.9,3.2 c -6.5,1.8 -16.7,4.6 -22.8,6.2 -6,1.7 -14.8,4.2 -19.4,5.6 l -8.4,2.5 0.7,18.2 c 1.1,28.9 6.9,108.3 8.1,109.4 0.2,0.3 4.2,0 8.7,-0.6 9.1,-1.3 58.3,-7.2 59.5,-7.2 0.5,0 0.3,0.4 -0.2,0.8 -1.2,0.8 -3.5,11.3 -3.5,15.9 0,1.7 -0.8,3.7 -2,4.8 -2.1,1.9 -4.6,8.7 -5.6,15.5 -0.4,2.5 -1.9,7 -3.5,10 -1.6,3 -6.5,12.9 -10.9,22 -11.4,23.2 -12,23.9 -19.6,27.4 -3.5,1.6 -8.2,4.2 -10.4,5.9 -4.5,3.2 -9.1,11.3 -11.1,19.3 -0.7,2.7 -2.7,7 -4.4,9.6 -4.5,6.6 -6.9,16 -6.3,24.8 0.3,3.9 1.1,7.7 1.7,8.3 1.8,1.8 1.3,4.4 -2.5,11.9 -5.1,10.2 -12,28.2 -16.5,43 -3.5,11.8 -8.9,36.3 -8.9,40.8 0,1.1 -2,3.8 -4.4,6 -8,7.4 -13.1,24.6 -9.6,33 1,2.4 1,3.9 0,7.5 l -1.3,4.5 -6.1,0.1 h -6.1 l -4.3,5.2 c -8.4,10.1 -12.1,20.6 -14.9,41.7 -1.7,13.4 -2.4,52.8 -1,56.7 0.8,2.3 0.7,2.3 -5.5,1.6 -7,-0.7 -7,-0.8 -1.1,5.8 l 2.4,2.6 -5.6,4.3 c -3,2.3 -5.5,4.5 -5.5,4.7 0,0.3 2,2.9 4.5,5.7 2.5,2.9 4.5,5.5 4.5,5.8 0,0.2 -2.3,2.1 -5,4.2 -2.8,2.1 -5,4.3 -5,4.9 0,0.5 2.1,3.3 4.7,6 l 4.7,5 -3.4,2.6 c -1.9,1.4 -4.5,3.5 -5.8,4.7 l -2.5,2 4.7,5.2 c 2.5,2.9 4.6,5.6 4.6,6 -0.1,0.4 -2.3,2.4 -5,4.5 -2.8,2.1 -5,4.2 -5,4.5 0,0.4 2.1,3.1 4.6,6 2.6,2.9 4.5,5.4 4.3,5.6 -0.2,0.1 -2.6,2 -5.4,4.1 -2.7,2.2 -5.2,4 -5.4,4.2 -0.2,0.1 1.9,2.9 4.7,6.1 l 5,5.8 -5.4,4.2 c -3,2.3 -5.4,4.5 -5.4,5 0,0.4 2.1,3.1 4.6,6 2.6,2.9 4.3,5.7 3.8,6.1 -0.5,0.4 -2.8,2.2 -5.1,4 -2.4,1.8 -4.3,3.7 -4.3,4.2 0,0.4 2.1,3.2 4.6,6.1 l 4.7,5.2 -2.6,2 c -1.5,1.2 -4,3.2 -5.7,4.4 l -3,2.4 4.4,5.5 c 2.4,3.1 4.2,6.1 4,6.7 -0.3,0.6 -2.7,2.7 -5.4,4.6 -4.6,3.3 -6.1,5 -4.2,5 0.8,0 8.2,9.3 8.2,10.3 0,0.3 -2.3,2.2 -5,4.2 -2.7,2 -5,4.1 -5,4.6 0,0.6 2.1,3.2 4.7,6 l 4.6,5 -4.3,4.4 c -5,5.1 -5.3,4.4 5,11.2 3,2 13.2,8.7 22.7,14.9 9.4,6.3 17.5,11.4 18.1,11.4 0.5,0 2,-2.4 3.2,-5.3 1.2,-2.8 3.7,-8.4 5.5,-12.2 1.8,-3.9 4.6,-9.9 6.3,-13.5 27,-58.9 49.5,-106.6 66.4,-141.2 L 308.3,956 h 4.1 4.1 l 0.3,10.3 c 0.4,13 1.4,16.9 5.7,21.2 1.9,1.9 3.5,4.2 3.5,5.2 0,0.9 1,3.7 2.1,6.1 2.4,4.9 8.1,9.1 16,11.7 l 4.8,1.6 -3.8,7.8 c -4.3,8.5 -9.5,16.3 -20.9,31.8 -6.2,8.3 -8.3,10.4 -11.7,11.8 -5,1.9 -6.5,4.6 -6.5,12 0,4.9 -0.4,5.9 -3.5,9.4 -4,4.4 -7.1,10.9 -11,23.1 -2.4,7.8 -2.6,9.8 -2.5,23.5 0.1,8.2 -0.3,19 -0.7,24 l -0.9,9 6.2,12.8 c 5.4,11.1 6.1,13.2 5.2,15.3 -0.9,1.9 -1.3,2.1 -2.2,1 -0.8,-1.1 -5.9,-1.5 -21.1,-2 -11,-0.3 -21.3,-0.9 -23,-1.2 -2.8,-0.7 -2.9,-0.6 -1.2,1 0.9,1 2.1,1.4 2.7,1.1 0.6,-0.4 0.9,-0.2 0.8,0.3 -0.2,0.5 1.8,3 4.5,5.6 2.6,2.6 4.7,5 4.7,5.4 0,0.4 2.4,2.2 5.3,4 4.2,2.5 6.4,3.2 10.6,3.2 4.9,0 5.6,0.3 8.7,3.7 1.8,2.1 3.6,4.6 4,5.5 0.3,1 0.9,1.8 1.4,1.8 0.9,0 19.3,-18.6 19.8,-20.1 0.2,-0.5 1.5,-0.9 2.8,-0.9 2,0 2.4,0.5 2.3,2.7 0,2.7 -0.1,2.7 -0.9,0.5 -0.5,-1.2 -1.2,-2.2 -1.4,-2.2 -0.3,0 -0.3,0.7 0,1.5 0.4,0.9 0.1,1.5 -0.8,1.5 -0.7,0 -5.7,4.3 -11.1,9.6 l -9.8,9.5 3.3,4.1 c 12.7,16.1 41.5,29.5 74.3,34.7 23.9,3.8 64.9,6.3 65.7,4.1 0.2,-0.6 2,-1.3 4.1,-1.7 3,-0.5 3.7,-0.3 3.7,1.1 0,1.3 0.7,1.6 3.3,1.2 1.7,-0.3 6.6,-1 10.7,-1.7 15,-2.2 37.2,-8.1 40,-10.4 0.8,-0.8 4.7,-2.3 8.5,-3.6 14.5,-4.6 25.1,-11.3 28.4,-18.1 1.8,-3.9 2.1,-6.2 2.1,-18.5 0,-7.7 -0.3,-15.4 -0.6,-17.1 -0.7,-3.4 -9.3,-12.7 -15.6,-16.9 -2.1,-1.4 -4.9,-4.4 -6.2,-6.7 -1.4,-2.4 -4.6,-6.6 -7.2,-9.5 l -4.7,-5.2 1.8,-3.7 c 0.9,-2 2,-6.5 2.3,-9.9 0.4,-5.3 0.1,-7 -2.2,-11.6 -3.9,-8 -8.3,-12 -16.8,-15.3 -9.6,-3.6 -10.2,-4.3 -10.2,-10.8 0,-5.2 0.1,-5.4 6.1,-11.2 4.3,-4.2 6.4,-7.1 7.2,-9.9 1.7,-6.2 1.3,-16.6 -0.8,-23.5 l -1.9,-6.1 8.4,-18.5 c 4.6,-10.1 8.4,-18.9 8.4,-19.5 0,-0.6 0.7,-2.3 1.5,-3.7 3.3,-5.9 21.8,-57.6 25.5,-71.3 0.8,-3 2,-4.4 5.3,-6.3 9.5,-5.6 8.9,-5.8 16.4,5.7 9.1,13.8 18.6,32.6 21.9,43.2 2.4,7.7 2.6,9.2 1.5,12.1 -1.7,4.7 -0.7,8.5 4.4,15.9 l 4.4,6.4 1.6,16.3 c 0.9,9 1.9,29.9 2.2,46.5 l 0.6,30.2 -5.7,5.8 c -3.1,3.2 -5.9,6.8 -6.2,8 -0.4,1.3 -0.4,6.1 -0.3,10.9 0.4,8.3 0.5,8.6 3.7,11.2 2.1,1.8 3.4,3.9 3.8,6.2 0.5,3.1 0.2,3.7 -2.5,5.3 -5.4,3.1 -9,13.9 -5.7,16.6 0.9,0.7 1.3,1.7 1,2.2 -0.3,0.5 0.1,0.7 0.8,0.4 2.2,-0.8 4.4,1.1 3.1,2.7 -1,1.2 -1.7,5.4 -1.4,8.4 0.1,0.6 1.5,1.7 3.1,2.4 3.5,1.4 3.8,2.6 1.1,3.3 -1.3,0.3 -1.8,0 -1.5,-0.8 0.3,-0.7 0,-1.6 -0.7,-2.1 -0.8,-0.4 -1,-0.3 -0.5,0.4 0.4,0.7 0.2,1.2 -0.3,1.2 -0.6,0 -1.1,-0.6 -1.1,-1.4 0,-0.7 -0.6,-1.9 -1.4,-2.5 -1,-0.9 -1.5,-0.8 -1.9,0.3 -0.4,1.1 -0.1,1.3 1,0.9 1.1,-0.4 1.4,-0.2 1.1,0.8 -0.3,0.8 0.2,2 1,2.8 2.3,2.3 -0.5,2.7 -3,0.5 -1.1,-1.1 -2.3,-1.8 -2.7,-1.7 -0.3,0.2 -0.6,0 -0.6,-0.5 0,-0.4 -1,-1.7 -2.2,-3 -1.3,-1.2 -2.3,-1.8 -2.3,-1.3 0,0.5 0.6,1.6 1.3,2.3 0.7,0.7 1.6,2.1 2,3.1 0.6,1.5 0,1.3 -2.4,-0.7 -3,-2.6 -6.8,-2.8 -7.7,-0.4 -0.2,0.5 -1,0.4 -1.7,-0.2 -0.8,-0.7 -1.5,-0.7 -1.9,-0.1 -0.3,0.5 1.8,2.4 4.6,4.1 2.9,1.8 6.9,4.8 9,6.7 l 3.6,3.5 -4,3.9 c -2.2,2.1 -3.8,4.4 -3.6,5.1 0.7,2.2 6.9,4.6 14,5.6 l 6.7,0.8 3.8,-3.8 c 3.6,-3.7 3.8,-3.8 4.5,-1.7 0.5,1.2 0.7,2.7 0.4,3.3 -0.2,0.6 -0.5,0.3 -0.5,-0.7 -0.1,-2.3 -1.2,-2.1 -4,0.8 l -2.3,2.5 h 2.5 c 1.4,0 2.9,0.4 3.2,1 0.3,0.5 -0.1,1 -0.9,1 -0.9,0 -1.6,0.4 -1.6,1 0,1.2 7.6,3.4 18.3,5.5 47.4,8.9 74.7,13.7 90.7,16 l 11.5,1.7 10.8,-10.7 c 6,-5.9 11,-10.5 11.3,-10.3 0.2,0.3 -4.1,4.9 -9.5,10.3 -5.5,5.5 -9.8,10.2 -9.5,10.6 0.9,1.5 31.8,3.4 55.9,3.4 22.6,0 27.7,-0.4 38.7,-2.3 30.7,-5.5 48.8,-15 42.2,-22.3 -2.8,-3.1 -8.2,-5.6 -18.1,-8.3 -8.5,-2.4 -31.1,-6.9 -34.5,-7 -3.3,-0.1 -0.6,-1.5 8.7,-4.6 7.2,-2.4 9.5,-3.6 9.5,-4.9 0,-1.3 0.6,-1.7 2.8,-1.3 3.3,0.4 16.6,-4.7 30.7,-12.1 7.9,-4.1 9.9,-5.6 9.7,-7.1 -0.3,-1.6 0.1,-1.8 2.8,-1.3 3.6,0.8 9.8,-1.8 14.9,-6.1 2.6,-2.2 3.3,-3.8 4.2,-9.2 1.2,-7 0.6,-21.2 -1.1,-27.1 -1.3,-4.7 -5.6,-6.6 -17,-7.5 l -8.1,-0.7 -3.9,-5.7 c -4.7,-6.9 -9.2,-10.4 -18.3,-14.3 -6.2,-2.6 -7.7,-2.8 -13.3,-2.2 -4.7,0.5 -7,0.3 -9.2,-0.9 -1.7,-0.9 -6.2,-2.1 -10.1,-2.8 -3.9,-0.7 -7.1,-1.7 -7.1,-2.3 0,-3.5 -11,-9.3 -19.4,-10.4 -4.5,-0.6 -5,-0.9 -6.1,-4.1 -0.6,-1.9 -2.4,-4.2 -4,-5.2 -2.4,-1.4 -3.6,-3.7 -6.7,-12.9 -2.1,-6.1 -4.5,-13.6 -5.2,-16.7 -2,-8.2 -8.3,-29.8 -10.7,-36.4 l -2.1,-5.6 2.6,-4.5 c 1.4,-2.4 2.6,-5.3 2.6,-6.4 0,-1.2 -3,-5.3 -7,-9.6 -6.4,-6.8 -7.1,-8.1 -8.5,-14.3 -7.6,-33.5 -20.4,-74.3 -29.5,-94.1 l -3.9,-8.3 h 6.8 c 12.8,0 28.1,-4.7 28.1,-8.7 0,-1 1.5,-3 3.4,-4.5 l 3.5,-2.8 0.5,-11.7 c 0.2,-6.5 0.5,-19.7 0.5,-29.3 0,-17 -0.1,-17.6 -2.4,-19.9 -2.3,-2.4 -2.3,-2.4 -0.3,-4 1.7,-1.4 2.1,-3.2 2.5,-12.2 l 0.6,-10.6 -4.2,-2.9 c -2.3,-1.6 -4.9,-3.4 -5.7,-3.9 -1.3,-0.9 -1.2,-1.7 0.9,-6 5.2,-10.4 4.4,-15.8 -3.2,-20.8 -4,-2.7 -13.4,-5.7 -17.7,-5.7 -2.9,0 -3.2,-2.4 -3.8,-37 -0.3,-14.6 -1.5,-41.8 -2.6,-60.5 -1.1,-18.7 -2,-37.7 -2,-42.2 v -8.2 l 11.9,-8.5 c 6.5,-4.7 14.3,-9.4 17.2,-10.6 3,-1.1 7.8,-3.4 10.7,-5.1 4.5,-2.6 5.8,-4 8.3,-9.2 1.6,-3.4 2.9,-7.2 2.9,-8.5 0,-1.6 1.3,-3 4.6,-5 2.6,-1.5 7.8,-4.9 11.8,-7.7 4.4,-3.1 11.6,-6.7 19.1,-9.6 11.3,-4.3 12.1,-4.8 14.7,-9 2.2,-3.7 2.7,-5.6 2.7,-12 0.1,-4.6 0.7,-8.8 1.6,-10.6 2,-4.1 3.4,-12 3.7,-22.3 l 0.3,-8.5 23.5,0.3 c 52.2,0.6 104.5,3.3 173,8.7 10.2,0.8 21.7,1.7 25.5,2 3.9,0.3 9,0.8 11.5,1 2.5,0.3 16,1.7 30,3 14,1.4 37.5,3.7 52.2,5.1 l 26.7,2.7 20.8,-7.1 c 27.6,-9.4 40,-12.8 56.6,-15.7 7.6,-1.3 14.1,-2.5 14.3,-2.8 0.6,-0.6 -2.7,-136.2 -5.2,-212.7 -1.1,-32.3 -1.9,-47.7 -2.7,-48.2 -2.5,-1.5 -33.2,-6.4 -51.7,-8.2 -29.4,-2.9 -38.8,-3 -60,-0.7 -22.8,2.5 -56.7,6.7 -66,8.1 -3.6,0.5 -13.9,1.9 -23,3 -73.3,9.2 -153.1,22.1 -242.9,39.2 -5.3,1 -6.4,1 -7.1,-0.3 -2.9,-5.1 -11.4,-16.1 -13.5,-17.5 -6.8,-4.4 -28.3,-1.7 -37.7,4.8 -2.1,1.5 -2.9,3 -3.4,6.7 l -0.6,4.9 -7.7,0.4 c -5.3,0.3 -9.3,1.2 -13.2,3 -4.1,1.9 -7.3,2.6 -12,2.6 -6.1,0 -18.8,3.7 -21.3,6.2 -0.6,0.6 -4,1 -7.6,1 -5.9,0 -7.2,0.4 -10.8,3 -3.8,2.7 -4.2,3.4 -4.2,7.3 v 4.4 l -6.2,1.2 c -3.5,0.6 -7.6,1.4 -9.1,1.8 -2.8,0.6 -2.8,0.5 -2.2,-3.3 1,-6 3.6,-13.4 4.6,-13.4 1.2,0 1.1,1.4 -0.2,2.7 -2,2 0.7,2.3 6.7,0.7 17.9,-4.6 28.4,-19 28.4,-39 0,-4 -0.4,-8.4 -0.9,-9.7 -0.5,-1.4 -0.7,-4.7 -0.3,-7.3 0.6,-4.4 1,-4.9 3.4,-5.2 1.5,-0.2 5.6,0.4 9,1.4 9.6,2.5 14.1,1.6 18.1,-3.8 3.4,-4.6 1.3,-7.5 -10.8,-14.7 -5.7,-3.4 -14.1,-7.8 -18.6,-9.9 l -8.2,-3.7 0.6,-9.2 c 0.7,-11.7 -0.1,-12.7 -10.1,-13.5 -3.2,-0.3 -3.5,-0.7 -7.2,-9.7 -4.6,-11.2 -11.1,-22.7 -19.2,-33.9 -5.7,-7.9 -6.1,-8.8 -8.4,-20 -3.9,-18.9 -8.3,-35.5 -10.1,-37.4 -3.7,-4.1 -26.7,-11.1 -50.3,-15.3 -8,-1.4 -19.2,-3.7 -25,-5 -18,-4.1 -30.7,-5.6 -51,-6 -10.7,-0.2 -21.1,-0.1 -23,0.1 z m 51.1,8 c 13.7,1.9 30.5,6.1 42.3,10.5 l 8.9,3.4 1.9,5.5 c 3.2,9.6 10.2,14.4 17.8,12.1 3.8,-1.1 10,-7 10,-9.5 0,-1.7 8.9,-1.2 10.6,0.6 2.3,2.4 11.6,41.8 15.5,65.3 2.5,15.8 5.9,42.7 5.9,47.5 v 3.5 l -18.7,-0.3 c -20.4,-0.4 -40.6,1.2 -69.2,5.4 -9.1,1.3 -20.1,2.4 -24.5,2.4 -4.5,0 -11.9,0.9 -16.6,2 -4.7,1 -8.8,1.6 -9.1,1.2 -0.4,-0.4 -1.9,-6.1 -3.4,-12.7 -1.5,-6.6 -3.2,-12.6 -3.8,-13.4 -1.4,-1.7 -6.8,-1 -19.7,2.5 -9.2,2.5 -32,10.6 -34.9,12.4 -1.6,0.9 -1.2,2.9 3.9,21.9 1.1,4.1 1.9,7.5 1.7,7.6 -0.1,0 -2.8,0.9 -6,1.9 -8.4,2.5 -6.5,2.9 2.4,0.5 6.7,-1.9 12.3,-4.9 9.1,-4.9 -0.7,0 -1.2,0.5 -1.2,1.2 0,0.8 -0.4,0.8 -1.3,-0.2 -1.3,-1.4 -6.7,-21.2 -6.7,-24.5 0,-1.7 5.7,-4.5 15,-7.5 3,-1 8,-2.7 11.1,-3.9 6.4,-2.3 20.5,-5.4 22.2,-4.8 0.6,0.2 2.1,3.9 3.3,8.3 1.2,4.3 2.3,7.2 2.3,6.4 0,-0.8 -0.6,-4 -1.4,-7 -1.5,-5.6 -2,-9.8 -0.9,-8.8 1.4,1.5 7.1,26.4 6.3,27.9 -0.5,1 -2.6,2.2 -4.6,2.8 l -3.8,1 4,-0.5 c 2.2,-0.3 4.7,-1.4 5.5,-2.3 2,-2.4 15.1,-5.5 21.5,-5.1 9.3,0.5 12,0.3 24,-1.8 20,-3.5 37.2,-5.4 54,-6.1 16.5,-0.6 35.9,0 40.8,1.4 2.1,0.5 2.7,0.4 2.7,-0.8 0,-1.6 3.4,-1.2 15.2,1.9 15.9,4.1 42.7,15.7 50.3,21.8 2.5,2 2.8,2.6 1.6,4 -2,2.4 -3.9,2 -13.7,-2.7 -13.9,-6.8 -28.1,-11.1 -47.4,-14.4 -8.2,-1.4 -16.1,-1.8 -36.5,-1.8 -31.3,0 -42.2,1.5 -72.5,9.6 -22.5,6 -46,9.5 -46,6.9 0,-1.6 -4.2,-1.2 -5.4,0.6 -1.2,1.5 -7.2,2.5 -23.6,3.9 -9.5,0.8 -16.2,2.2 -28.3,6.1 -31.4,10 -77.2,32.8 -100.4,49.9 -4.7,3.5 -7.8,5 -10,5 -2,0.1 -4.3,1.1 -6,2.5 -1.5,1.4 -2.1,1.7 -1.3,0.6 4,-5.2 28.2,-22 46.5,-32.3 18,-10.1 40.3,-20.2 59,-26.7 1.9,-0.7 1.9,-0.8 0.2,-1.8 -2.3,-1.2 -13.1,2.8 -12,4.5 0.4,0.6 0,0.8 -1,0.4 -2.2,-0.8 -4.9,0.2 -4,1.6 0.3,0.6 0.1,0.7 -0.5,0.3 -0.6,-0.4 -2.1,-0.2 -3.2,0.4 -1.8,1 -2.2,0.6 -4,-3.5 -1.1,-2.5 -3.9,-10.1 -6.2,-16.9 l -4.3,-12.5 -5.5,-0.6 c -11.1,-1.2 -12.1,-1 -21,4 -4.7,2.6 -12.5,7.4 -17.3,10.6 -4.8,3.3 -8.9,5.9 -9.1,5.9 -0.1,0 -0.3,-0.6 -0.4,-1.3 0,-0.6 -1.5,-6.4 -3.3,-12.7 -2.9,-10.6 -3.2,-12.8 -3.3,-28 -0.1,-19.3 1.4,-26.1 9.2,-41.5 2.5,-5 4.5,-9.3 4.4,-9.8 -0.1,-0.4 0.3,-0.7 0.8,-0.7 1.3,0 1.3,-2.7 0,-3.5 -0.6,-0.4 -0.7,0.1 -0.3,1.1 0.4,1.2 0.3,1.5 -0.5,1 -0.7,-0.4 -1.2,-0.1 -1.2,0.8 0,0.9 -0.4,1.6 -1,1.6 -0.5,0 -1,0.9 -1,2.1 0,1.1 -0.4,1.8 -0.9,1.4 -1,-0.6 -7.4,9.9 -7.4,12.1 0,0.7 -0.3,1.1 -0.7,0.9 -1.1,-0.7 -8.8,16.5 -12.7,27.9 -4.4,13.1 -8,33 -8.9,49.3 -0.6,11.5 -0.5,13.4 1,14.8 0.9,0.9 1.6,1.2 1.6,0.8 0,-0.5 0.7,-1.8 1.5,-2.9 1,-1.2 0.8,-0.3 -0.4,2.3 -1.5,3 -1.7,4.3 -0.8,4.6 1.5,0.5 3.9,-4.1 3,-5.7 -0.4,-0.6 0.1,-0.5 1.1,0.3 1.6,1.3 1.6,1.5 0.1,2.4 -1.3,0.7 -1.5,1.7 -1,4.8 0.4,2.5 0.3,3.9 -0.4,3.9 -0.6,0 -1.1,0.5 -1.1,1.1 0,0.5 0.6,0.7 1.3,0.3 0.6,-0.4 0.5,0.1 -0.4,1.1 -1.5,1.5 -1.5,2.2 -0.2,6.8 0.9,2.9 1.6,6.2 1.7,7.4 0,1.1 0.4,1.9 0.7,1.7 0.4,-0.2 1,1.1 1.3,2.9 0.3,1.8 1.5,5.1 2.6,7.2 2.4,4.7 2.4,4.9 0.5,4.1 -0.8,-0.3 -1.4,0 -1.2,0.7 0.1,0.7 -0.4,1.1 -1.1,0.9 -0.6,-0.1 -1.1,0.2 -1,0.7 0.5,1.5 -16.1,16.4 -16.7,14.9 -0.2,-0.7 -2,-5.7 -4,-11.2 -1.9,-5.4 -3.2,-10.2 -3,-10.7 0.7,-1.1 9.3,-4.9 11,-4.9 0.8,0 2.5,3.5 4,8.1 3.3,9.9 4.5,9.8 1.4,-0.3 -1.2,-4 -2.3,-7.9 -2.6,-8.7 -0.2,-1 -1.5,-1.2 -4.8,-0.8 l -4.4,0.6 -0.7,-5.6 c -1,-8.4 0.2,-39.7 2,-49.3 7.4,-39.6 23.9,-73.8 47.2,-97.8 7.8,-8.1 9.5,-9.4 10.5,-8.2 0.9,1.3 1,1.3 0.6,-0.1 -0.6,-1.9 2.8,-5.3 11.3,-11.5 8.3,-6.1 14.8,-9.6 16.1,-8.8 0.7,0.4 0.9,0.3 0.6,-0.3 -1.5,-2.5 20.9,-9.6 38,-12.1 9.4,-1.4 12.4,-1.4 19.5,-0.4 16.2,2.3 37,11 42.5,17.6 15.9,19.3 29.5,59.4 32,93.9 0.3,4.8 1,9 1.6,9.4 2,1.2 -1.6,-28.7 -5.4,-44.7 C 505.3,98.3 496.1,75.8 486.8,61.4 483.1,55.7 481.3,53.9 476.4,51.3 468.3,47 455.7,42.4 447.9,41 c -3.5,-0.7 -7.1,-1.4 -7.9,-1.7 -0.8,-0.3 -4.9,-0.5 -9,-0.5 -5.4,0.1 -6.6,-0.1 -4.5,-0.7 1.7,-0.4 4,-1.3 5,-1.9 1.7,-1 1.5,-1.1 -1.5,-0.7 -8.8,1.3 -17.2,3.8 -15.8,4.7 1,0.7 0.9,0.8 -0.5,0.4 -1,-0.3 -2.5,-0.2 -3.5,0.3 -2.7,1.5 -23.4,8.2 -23.9,7.8 -0.2,-0.2 4.5,-2.4 10.4,-4.9 18.1,-7.7 29.1,-10.1 44.8,-9.9 18.9,0.2 35.9,3.5 54.7,10.5 6.9,2.6 8.7,3 7,1.6 -2.9,-2.4 -23.7,-9.2 -35.7,-11.7 -6.7,-1.3 -13.4,-1.8 -26,-1.8 -16.6,0 -16.8,0 -10.5,-1.3 10,-2.1 38.6,-2 49.5,0.2 13,2.5 26.9,6.3 35,9.7 6.2,2.5 7.3,3.4 9.4,7.4 4.5,8.4 12.1,11.5 18.5,7.6 3.9,-2.5 8.1,-10 9.1,-16.8 l 0.6,-4.1 8.2,-1 8.2,-0.9 -8,-0.1 c -4.4,-0.1 -8.5,0.2 -9.1,0.6 -0.6,0.4 -1.5,2.9 -1.9,5.7 -0.4,2.7 -1.3,6.5 -2,8.2 -1.6,3.8 -6.8,7.3 -10.7,7.3 -3.5,0 -9.3,-5.1 -10.9,-9.5 -1.2,-3.1 -2.1,-3.7 -10.8,-6.9 -21.4,-7.7 -40.1,-11.5 -57.9,-11.7 -9.3,-0.1 -10.1,-0.2 -6.4,-1.1 2.3,-0.5 4,-1.3 3.7,-1.7 -0.6,-1 -9.6,0.5 -10.4,1.8 -1,1.4 -3.5,1.9 -5.5,0.9 -1.1,-0.6 -2.1,-0.6 -2.5,-0.1 -0.3,0.5 -3.5,1.4 -7.1,2.1 -8.9,1.8 -26.1,7.7 -34.3,11.9 -7.3,3.6 -8.5,2.8 -1.4,-0.9 12.9,-6.8 30,-13.2 42.6,-15.8 33.6,-6.9 67.2,-4.9 100.9,6.2 5.1,1.6 9.5,2.8 9.8,2.5 0.6,-0.6 -20.3,-7.2 -30.6,-9.6 -4.7,-1.1 -12.3,-2.4 -17,-3 -23,-3 -23.2,-3 -6.3,-2.6 9,0.3 21.3,1.2 27.4,2.1 z m 53.6,10.6 c 0.7,0.5 1.8,0.6 2.4,0.2 0.8,-0.5 0.9,-0.3 0.4,0.6 -0.6,1 -0.1,1.2 2.1,0.7 1.6,-0.3 2.3,-0.4 1.5,0 -0.8,0.3 2.6,2 7.9,3.9 5.2,1.9 9.6,3.1 9.8,2.9 0.6,-0.6 -4.6,-2.8 -10.6,-4.6 -2.3,-0.7 -4,-1.4 -3.8,-1.7 0.5,-0.4 22.6,6.7 22.6,7.4 0,0.2 -1.3,0.1 -2.8,-0.2 -2.5,-0.5 -3.1,-0.2 -4.1,2.4 -2.9,6.9 -9.2,9.6 -15.1,6.4 -4.5,-2.5 -6.8,-5.7 -8.4,-11.8 -1.1,-4.5 -1.6,-5 -5.7,-6.7 -4.1,-1.6 -4.1,-1.7 -0.9,-1.1 1.9,0.3 4,1.1 4.7,1.6 z m 61.7,76.6 c 6,9.1 13.2,22.5 17,31.6 2,4.8 2,4.6 -0.2,4.6 -1.7,0 -1.8,0.8 -1.4,8.5 0.5,9.6 1.1,9.1 -8.3,7.2 l -5.9,-1.3 -2.2,-17.4 c -2.1,-16.5 -4.7,-34.1 -6,-40.3 -0.3,-1.5 -0.3,-2.7 0,-2.7 0.4,0 3.5,4.4 7,9.8 z m 31.2,45.3 c -0.3,3.4 -0.6,7.5 -0.6,9 0,3.4 -0.4,3.4 -7.6,1.3 l -5.4,-1.5 v -7.5 -7.4 h 7.1 7.2 z m -284.1,18.2 c 0,0.1 2.5,6.5 5.4,14.2 2.9,7.7 5.5,14.9 5.8,16.1 0.4,1.7 -1,2.7 -9.9,6.8 -13.8,6.4 -13.6,6.4 -12,4.3 5.3,-6.4 -10.2,-11.1 -29.1,-8.8 -5.6,0.7 -12.7,1.9 -15.7,2.7 -3,0.8 -6.8,1.4 -8.5,1.4 -2.9,0 -2.8,-0.2 4.5,-7 4.1,-3.8 10.9,-9.4 15.1,-12.4 9.7,-7.1 27,-17.7 27.9,-17.1 0.4,0.3 1,1.7 1.3,3.3 0.9,4.3 10.7,30.6 11.9,31.7 1.3,1.2 1.3,1.1 -5.7,-18.9 -3,-8.7 -5.2,-16.3 -4.9,-16.8 0.6,-0.9 13.6,-0.3 13.9,0.5 z m 205.9,5.7 c 3.7,1.2 6.5,2.4 6.2,2.8 -0.2,0.4 0.7,0.8 2,0.8 5.8,0.4 30.2,13.5 37,19.9 5.3,5 6.4,10.2 4.1,20.2 -0.8,3.8 -1.3,7 -1,7.3 0.2,0.3 1.5,-0.7 2.8,-2.3 1.3,-1.5 2.6,-2.7 2.8,-2.7 2.4,0 -0.3,19.3 -3.5,25.5 -3.9,7.4 -4.6,21 -1.6,29.7 0.6,1.9 6.1,8.4 12.4,15 18,18.8 22.8,27.2 22.7,39.8 0,10.4 -2.4,15.7 -14.7,34.2 -20.6,30.9 -28.5,49.3 -35,81.5 -3.1,15.4 -3.2,15.8 -6.6,18 -1.8,1.3 -5.7,3 -8.4,3.8 -7.2,2 -31.9,4.9 -39.6,4.6 -14.9,-0.5 -46.7,-6.5 -68.8,-12.9 -7.2,-2.1 -13.2,-3.6 -13.2,-3.1 0,1 15,6.3 27.7,9.9 10.8,3.1 38.6,8.9 43.1,9.1 1.7,0.1 2,0.3 1,0.6 -3.3,0.8 -1.8,1.9 5.7,4.1 8.4,2.5 8.6,2.7 5.9,10.6 -1.6,4.6 -1.2,7.5 0.6,4.6 2.6,-4.1 -0.7,7.3 -4.1,14.2 -1.3,2.7 -2.5,4.8 -2.8,4.8 -0.8,0 -3,-4 -9.8,-17.1 l -5.4,-10.6 -9.7,-4.6 C 524.3,476.8 513.4,473 480,463 c -11.3,-3.3 -26.8,-8.1 -34.5,-10.5 l -14.1,-4.4 -1.2,-13.8 c -0.6,-7.6 -0.8,-14.1 -0.4,-14.5 0.5,-0.5 2.3,0.8 4.2,2.7 5,5.2 5.6,4.3 1.3,-1.9 -13.9,-19.8 -25.5,-36.9 -28.2,-41.7 -3.8,-6.8 -7.1,-16.2 -7.1,-20.2 0,-3 0,-3 -2.1,-1.1 -1.9,1.7 -3.7,1.9 -16.3,1.8 -12.2,-0.1 -15.3,-0.5 -23.1,-2.8 -20.2,-6.1 -32.1,-14.8 -38.7,-28.5 -3.1,-6.3 -3.3,-7.2 -3.3,-18.1 0,-10.8 0.2,-11.9 3.3,-19.2 5.6,-12.9 16.3,-20.8 28.3,-20.8 16.3,0 34.9,8.9 48.1,22.9 5.7,5.9 13.8,17.5 13.8,19.6 0,1.2 4.1,6.5 5,6.5 0.4,0 0.6,-0.9 0.3,-2 -0.4,-1.6 0,-2 2.1,-2 1.4,0 2.6,0.4 2.6,1 0,0.6 2.9,1 6.6,1 4.1,0 6.3,-0.4 5.9,-1 -0.3,-0.6 -0.1,-1 0.5,-1 0.9,0 1.1,-5.4 1,-20.3 -0.2,-11.9 0.2,-22.7 0.9,-26.2 1.3,-6.9 1.2,-44.5 -0.1,-44.5 -0.4,0 -0.8,-1.5 -0.8,-3.3 0,-2.7 0.8,-4 3.9,-6.5 3.2,-2.6 13.1,-15.2 13.1,-16.7 0,-1.1 -2.4,-0.4 -5,1.5 -1.5,1.1 -3.1,1.6 -3.5,1.2 -0.5,-0.4 -0.5,-0.2 -0.2,0.4 0.4,0.7 0.1,1.7 -0.7,2.3 -1.1,0.9 -1.2,0.6 -0.8,-1.4 0.5,-3 -0.1,-3.1 -4.3,-0.5 -3.1,1.9 -7.1,1.8 -5.9,-0.1 0.3,-0.5 0.9,-0.7 1.4,-0.4 0.5,0.3 1.1,0.1 1.5,-0.4 1.1,-1.9 6.9,-4.1 10.6,-4.1 2.1,0 5.9,-0.7 8.4,-1.5 5.2,-1.8 21,-3.4 34,-3.5 12.4,0 33.2,-3.7 49,-8.6 12.1,-3.7 34.2,-8.2 41.1,-8.3 3.7,-0.1 8.9,0.7 12.8,1.9 z m 595.1,19.1 c 6.6,0.5 12,1.1 12.1,1.2 0.1,0.1 0.9,15 1.8,33.2 2.8,57.2 4,99.4 5.2,185.6 l 0.6,42.6 -20.5,6.6 c -11.2,3.7 -20.7,6.7 -20.9,6.7 -0.3,0 -0.8,-12.7 -1.2,-28.3 -1.7,-68.8 -6.1,-178.5 -9.4,-236.5 l -0.7,-12.2 h 10.5 c 5.8,0 15.9,0.5 22.5,1.1 z m -35.1,11.1 c 0.4,6.2 0.9,13.8 1.1,16.8 2.5,34 5.3,99.2 6.5,153.5 1,43.7 1.3,93.9 0.5,94.7 -0.2,0.2 -8.6,-0.4 -18.7,-1.4 -138.3,-13 -248,-17.7 -380.3,-16.2 -40.7,0.5 -78.9,0.9 -85,1 -6,0 -13.2,0.4 -15.8,0.9 -4.1,0.6 -5.1,0.4 -7,-1.3 -2.8,-2.6 -10.4,-4.5 -15.7,-4 l -4.1,0.4 0.7,-4.6 c 3.1,-22.9 10.9,-42.7 28.6,-72 12.8,-21.4 15.4,-26.3 17.3,-33.7 3.3,-12.8 0.8,-23.8 -8.4,-36 -3.2,-4.3 -7.2,-9.1 -8.9,-10.7 -1.7,-1.6 -2.9,-3.3 -2.6,-3.7 0.3,-0.5 -0.1,-0.7 -0.8,-0.4 -1.9,0.6 -12.6,-9.5 -13.3,-12.7 -0.6,-2.5 -0.4,-2.7 4.7,-3.6 2.9,-0.6 6.5,-1.2 8.1,-1.5 l 2.7,-0.4 v 10.2 c 0,13.5 0.3,13.8 14.6,14.3 10.3,0.4 10.4,0.5 11,3.1 0.3,1.4 0.7,3.1 0.9,3.8 0.4,1.4 7.7,2.6 15.5,2.6 6.8,0 12.6,-2.6 15.1,-6.7 1.8,-2.9 2.2,-3.1 8.6,-3.2 6.2,-0.2 15,-2.6 19.3,-5.4 1.2,-0.7 1.5,-3.2 1.5,-11.5 0,-9.5 0.2,-10.5 1.8,-10.5 1,0 3.9,-0.5 6.4,-1.2 5.8,-1.4 14,-8.9 14.9,-13.5 0.4,-2.2 1.5,-3.5 3.3,-4.2 14.3,-5.6 152.4,-28.8 226.4,-38.1 34.1,-4.3 139.3,-15.7 146.3,-15.9 l 4.1,-0.1 z m 78,-5.7 c 4.3,0.8 8.1,1.7 8.3,1.9 1,0.9 3.7,75 6.9,189 1.4,47.7 1.4,58 0.3,58.6 -0.7,0.5 -3.9,1.1 -7,1.5 -3.2,0.4 -10.6,1.7 -16.6,3 -5.9,1.3 -10.9,2.3 -11,2.2 -0.1,-0.1 -0.8,-24.7 -1.7,-54.7 -0.8,-30 -1.8,-60.6 -2.1,-68 -0.3,-7.4 -0.8,-20.7 -1,-29.5 -0.3,-8.8 -1,-27.9 -1.5,-42.5 -0.5,-14.6 -1.2,-35.3 -1.6,-46.1 l -0.7,-19.6 9.9,1.3 c 5.4,0.8 13.4,2.1 17.8,2.9 z M 392.5,221 c -3.2,3.2 -6.2,5.7 -6.7,5.4 -0.5,-0.3 -0.7,-0.1 -0.6,0.3 0.3,0.8 -6.1,8.4 -24.6,29.2 l -5.9,6.6 -7.1,0.5 -7.2,0.5 1.6,-7.9 c 1.3,-6.7 2,-8.2 4.7,-10.3 l 3.1,-2.4 -0.9,3.8 c -0.5,2.1 -0.9,4.4 -0.9,5 0,1.7 3.1,1.6 5.6,-0.2 1.2,-0.8 2.5,-1.1 2.9,-0.7 0.3,0.4 0.5,0.2 0.3,-0.3 -0.1,-0.6 1.9,-3.7 4.6,-6.8 4.2,-4.9 5.1,-5.5 6.5,-4.5 1.4,1.2 1.5,1.1 0.2,-0.5 -1.3,-1.6 -1.3,-2 -0.1,-2.7 0.8,-0.5 1.8,-0.6 2.2,-0.4 0.5,0.3 0.7,0.1 0.6,-0.5 -0.2,-0.5 1.1,-3 2.7,-5.5 2.5,-3.8 4.6,-5.2 13.4,-9.5 5.8,-2.8 10.7,-5.1 11,-5.1 0.3,0 -2.1,2.7 -5.4,6 z m 386.8,7.9 c 3,3.3 6.4,7.3 7.6,9 l 2.2,3.1 h -3 c -2.4,0 -3.6,-0.8 -5.3,-3.5 -2.6,-3.9 -3.9,-4.5 -3,-1.3 0.5,1.9 0.2,2.1 -2.7,1.5 -3,-0.6 -3.1,-0.6 -2,1.6 0.7,1.2 1.7,2.5 2.3,2.9 0.8,0.5 0.7,0.8 -0.1,0.8 -0.7,0 -1.9,-1.4 -2.8,-3 -0.9,-1.7 -2,-3 -2.5,-3 -0.5,0 -1.6,2.6 -2.5,5.7 -2.2,7.5 -4.9,11.8 -8.5,13.7 l -3,1.4 1.5,-2.9 c 2.1,-4 0.1,-3.7 -2.3,0.5 -1.6,2.7 -2.8,3.5 -5.8,3.8 -2.2,0.3 -4.5,0.3 -5.1,0 -2,-0.7 -1.4,-5.2 1.2,-10.2 4.2,-7.9 4.7,-9.4 4.1,-13 -0.4,-1.9 -0.7,-4.3 -0.8,-5.2 -0.1,-0.9 -0.5,-1.5 -0.9,-1.2 -0.4,0.2 -1,-0.3 -1.3,-1.2 -1,-2.6 -3.4,0.1 -3.9,4.4 l -0.4,3.7 0.1,-3.9 c 0.2,-7 5.6,-9.3 21.7,-9.5 l 9.7,-0.1 z m -46.9,13 c 5.8,1.4 6.2,2.1 4.1,9.6 -0.9,3.6 -1.4,7.5 -1,8.8 2.1,7 2.3,8.7 0.9,8.7 -1,0 -1.4,1.4 -1.4,5 0,3.8 0.4,5 1.5,5 1.1,0 1.5,-1.2 1.5,-4.5 0,-2.5 0.5,-4.5 1,-4.5 2.3,0 3.9,9.4 2.4,13.4 -0.8,2 -3.4,2.1 -3.4,0.1 0,-2.4 -2.8,-1.7 -3.2,0.7 -0.3,2 -1,2.3 -5.7,2.6 -8.4,0.5 -8.8,-0.1 -9.4,-17.6 -0.5,-13.9 -1.4,-19.8 -3.7,-23.2 -1.9,-2.7 -4,1.5 -3.5,6.9 l 0.4,4.6 -0.9,-4.5 c -0.8,-3.8 -0.7,-4.9 0.8,-7 3,-4 11.9,-5.8 19.6,-4.1 z m -24.3,13.6 c 2.2,29.2 2.8,40.9 2.4,41.3 -0.8,0.9 -8.6,1.4 -11.1,0.8 -2.2,-0.6 -2.4,-0.9 -1.3,-2.2 1,-1.3 0.8,-1.9 -1.3,-3.7 -3.5,-2.9 -3.8,-4.5 -4.7,-20.4 -0.7,-12.2 -1,-13.8 -3,-15.4 -2.3,-1.9 -2.5,-2.7 -1.2,-4.7 1.3,-2.1 11.1,-5.1 15.6,-4.9 l 4,0.2 z m -26.9,14.2 c -0.2,13 -0.6,16 -1.9,17 -2.2,1.7 -4.7,0.1 -6.9,-4.4 -2.2,-4.6 -3.1,-26.3 -1.1,-27.5 0.7,-0.4 3.2,-0.8 5.7,-0.8 h 4.5 z M 309.5,260 c -1.1,1.9 0.6,3.2 2.3,1.8 0.9,-0.7 -1.2,2.1 -4.6,6.2 -7.3,8.6 -13.2,19.8 -13.2,24.6 0,2.1 0.8,4.2 2,5.4 2.4,2.4 4.9,2.8 3,0.5 -0.7,-0.8 -1.2,-3.3 -1.2,-5.5 0.1,-4.8 5.9,-16.2 8.5,-16.6 0.9,-0.1 1.5,0.2 1.1,0.7 -0.3,0.5 -0.9,0.7 -1.4,0.4 -1.8,-1.1 -2.6,5.3 -1.4,11.3 0.4,2.1 1.3,3.2 3.1,3.7 1.8,0.4 2.3,1 1.8,2.3 -0.3,0.9 -0.9,3.8 -1.2,6.4 l -0.6,4.6 -3.6,-0.5 c -5.1,-0.7 -9.1,-2.2 -12.8,-5 -2.7,-2 -3.3,-3.1 -3.3,-6.2 0,-7.7 5.3,-17.9 15.2,-29 4.7,-5.2 8.1,-8 6.3,-5.1 z m 23.1,96.7 c 3,13.4 8.8,23.7 19.1,33.9 3.2,3.3 5.4,5.6 4.9,5.1 -0.6,-0.4 -1.4,-0.7 -2,-0.7 -0.5,0 -0.1,0.6 0.9,1.4 1.1,0.8 2.3,1.2 2.8,0.9 0.4,-0.2 3.1,1.1 6,3 2.9,1.9 7.4,4.5 10,5.8 3.2,1.5 4.3,2.6 3.4,3.1 -0.8,0.5 -0.5,0.8 0.8,0.6 4.2,-0.3 5.2,0.3 7.4,4.8 1.3,2.5 2.1,4.7 2,4.9 -0.2,0.2 -2,0.8 -3.9,1.3 -2.4,0.7 -2.8,1.1 -1.5,1.2 1.5,0.2 1.2,0.5 -1,1 -2.9,0.8 -2.9,0.8 0.8,0.7 2.5,-0.1 3.6,-0.5 3.3,-1.3 -0.3,-0.8 0.3,-1.2 1.5,-1.1 1.6,0.1 1.9,0.9 1.9,5.3 0,4.2 -0.5,5.9 -2.6,8.3 -1.4,1.7 -3.1,3.1 -3.7,3.1 -0.7,0 -0.1,-0.9 1.3,-2 1.4,-1.1 2,-2 1.3,-2 -0.7,0 -1.8,0.6 -2.5,1.3 -0.7,0.8 -1.9,1.2 -2.8,1 -0.8,-0.2 -2.4,0.2 -3.4,1 -1.9,1.4 -1.9,1.4 0.7,1.4 1.5,0 2.4,-0.3 2.1,-0.8 -0.3,-0.5 0,-0.9 0.6,-0.9 0.6,0 1.5,1.1 2,2.4 0.8,2.3 5.4,4.6 9,4.6 1.4,0 1.6,0.8 1.3,4.2 -0.2,2.4 -0.9,4.5 -1.4,4.6 -0.5,0.2 -0.7,0.8 -0.3,1.3 0.3,0.5 0,0.9 -0.5,0.9 -0.6,0 -1.1,-0.3 -1.1,-0.8 0,-0.4 -5.5,-0.2 -12.2,0.6 -6.8,0.7 -13.3,1.3 -14.5,1.4 -1.6,0 -2.3,0.7 -2.3,2 0,1.4 0.5,1.8 1.8,1.4 2.2,-0.7 24.9,-3.6 27.8,-3.6 1.5,0 2.3,0.7 2.6,2.4 0.4,2.1 -0.3,2.8 -6.1,5.5 -3.7,1.7 -8,3.1 -9.6,3.1 -1.7,0 -6.1,0.9 -10,2 -4.4,1.2 -5.5,1.8 -3,1.4 9.5,-1.2 10.5,-1.3 10.5,-0.9 0,1 -10.6,5.6 -15,6.6 -2.5,0.6 -14.6,2.3 -27,3.9 -12.4,1.6 -28.6,3.8 -36,4.9 -7.4,1 -13.7,1.7 -13.9,1.5 -0.2,-0.2 -1.1,-9 -2.1,-19.6 -1,-10.6 -2.4,-24.3 -2.9,-30.3 -1.4,-13.5 -3.8,-43.7 -4.5,-56.6 l -0.6,-9.6 15.7,-4.8 c 17.2,-5.3 39.8,-11.3 42.5,-11.4 1.1,-0.1 2,0.9 2.4,2.6 z m 95.4,85.4 c 0,1.1 -0.4,1.8 -0.9,1.4 -0.6,-0.3 -1.5,0.3 -2,1.3 -1.7,3.3 0.8,4.9 13.4,8.7 6.6,2 16.5,5 22,6.7 5.5,1.6 12.3,3.7 15,4.5 19.3,5.7 52.5,17.9 64.9,23.9 6.3,3 16.6,19.6 23.3,37.3 3.4,9 7.3,24.1 6.3,24.1 -0.4,0 -10.2,-9.1 -21.6,-20.3 -11.5,-11.1 -22.4,-21.5 -24.3,-23 l -3.4,-2.8 3.7,-3.8 c 4.4,-4.5 7.5,-4.9 10.7,-1.5 3,3.2 4.3,3 2.5,-0.4 -2.3,-4.4 -5.2,-6.5 -8,-5.8 -1.4,0.3 -6.4,4.2 -11.1,8.6 -4.8,4.4 -9.4,8 -10.4,8 -1,0 -6.6,-4 -12.6,-9 -20.6,-17.1 -27.7,-21.3 -67.7,-39.4 l -7.8,-3.5 v -7.5 c 0,-8 0.9,-9.5 5.8,-9.6 1.6,0 2.2,0.6 2.2,2.1 z m 220,17.5 c 4.5,2.3 9,5.8 21.4,16.8 3.7,3.2 6.9,5.7 7.2,5.4 0.6,-0.7 -6.4,-9.8 -12.5,-16.2 -4,-4.1 -4.3,-4.7 -2.1,-4.1 5.1,1.5 11.3,4.6 15.1,7.6 2.1,1.7 3.9,2.7 3.9,2.2 0,-1.5 -5.9,-9.7 -8.2,-11.5 -2.2,-1.7 -2,-1.8 7.4,-1.8 h 9.6 l 6.2,6.7 c 3.3,3.8 7.7,9.9 9.6,13.8 3.9,7.9 8.7,25.9 10.5,39.2 1.3,9.9 0.7,27.8 -1.2,33.5 -1.1,3.4 -1.7,3.9 -8.5,6.1 -7,2.3 -7.4,2.4 -7.4,0.6 0,-1 -0.9,-3.3 -1.9,-5.1 C 696,551 693,542.5 690.5,534 682.9,508.9 675,494.6 660.3,478.9 c -6.9,-7.2 -20.6,-18.2 -24.3,-19.4 -1.7,-0.5 -1.9,-0.9 -0.9,-2.1 1.5,-1.8 6.8,-1 12.9,2.2 z m 80.4,-2.1 c -0.4,0.8 -0.3,1.5 0.1,1.5 0.3,0 1.3,-0.7 2.1,-1.5 4.4,-4.3 10.3,0.8 17.2,14.8 7.5,15.4 11,44.8 7.3,60.7 -2.7,11.1 -9.1,21.3 -15.9,25.2 l -3,1.8 1.9,-3.7 c 1.9,-3.8 2.6,-9.9 1,-8.9 -0.5,0.3 -2.3,3 -3.9,5.9 -4.6,8.1 -31.3,29.2 -33.6,26.6 -0.2,-0.2 -0.6,-3.6 -1,-7.5 l -0.7,-7.1 3.8,-1.6 c 2.1,-0.8 4,-1.3 4.2,-1.2 0.2,0.2 -0.2,1.8 -0.8,3.6 -2.3,6.6 1.5,5 6.4,-2.7 4.9,-7.6 7.5,-18.2 7.5,-30.2 0,-15.4 -4.4,-41 -8.8,-51.2 -1.6,-3.8 -1.7,-4.7 -0.6,-5.8 0.8,-0.7 1.4,-3.3 1.4,-5.8 0,-6.4 1.9,-13.2 3.9,-13.7 0.9,-0.3 3.9,-0.5 6.8,-0.6 4.3,-0.1 5.1,0.2 4.7,1.4 z m 30.4,3.8 c 1.8,2.9 5.6,7.7 8.3,10.7 4.9,5.4 5,5.5 2.9,1.5 -3.1,-6.2 -2.5,-7.4 1.8,-3.2 3.7,3.6 15.1,11.1 15.9,10.4 0.2,-0.2 -1.5,-1.7 -3.7,-3.2 -2.2,-1.5 -4,-3.1 -4,-3.4 0,-0.3 -2.6,-2.6 -5.7,-5.1 -3.1,-2.5 -7.9,-6.4 -10.5,-8.8 l -4.9,-4.2 h 23.5 23.5 l 1.2,4.2 c 2,7.2 1.5,22.4 -0.9,29.3 -1.7,4.8 -1.8,6.1 -0.7,6.7 1.6,1 0.7,5.5 -2.5,11.8 -2.2,4.4 -5.6,6.8 -14.3,10 l -2.7,1 1.5,-3 c 2.3,-4.5 1.8,-4.6 -2.7,-0.3 -6.3,5.7 -19.6,14.3 -22.3,14.3 -0.3,0 -0.5,-4.4 -0.6,-9.8 -0.1,-10.4 -0.6,-14.9 -3.7,-28.2 -3.6,-15.2 -6.8,-25.4 -9.5,-30.1 -1.5,-2.5 -2.7,-4.9 -2.7,-5.2 0,-0.4 2.1,-0.7 4.8,-0.7 4.6,0.1 4.8,0.2 8,5.3 z m -320.3,6.4 c 1.1,0.3 2.5,0.9 3,1.3 0.6,0.5 5.5,3.2 11,6 17.7,9.3 23.2,13.5 37.5,28.3 15.6,16.1 15.7,16.2 23.7,7.9 2.5,-2.6 4,-3.9 3.3,-2.9 -1.7,2.3 0.2,4.9 2.2,2.9 0.7,-0.7 1.5,-1.2 1.9,-1.2 1.5,0 10,7.8 28.4,25.9 14.7,14.5 20.9,19.9 27.6,24 l 8.5,5.2 4.2,30.7 c 6.9,49.5 12,98.7 15.7,149.2 1.8,25.5 1.9,32.7 0.3,33.3 -0.8,0.4 -0.7,0.6 0.4,0.6 1.3,0.1 1.7,1.9 2.3,11.4 0.8,12 0.4,29.1 -0.6,30.1 -1.6,1.6 -28,5.3 -50.4,7.1 -14.5,1.2 -15.9,1.5 -18.7,4.2 -1.6,1.5 -2.8,2.4 -2.8,2 0,-0.3 1,-1.5 2.2,-2.7 l 2.2,-2 h -5.1 c -2.7,0 -8.5,0.3 -12.7,0.6 l -7.7,0.7 2.3,2.6 c 2.3,2.5 2.3,2.5 -1,-0.2 -4.2,-3.4 -8.7,-3.5 -12,-0.5 l -2.5,2.3 2.2,-3 c 3.2,-4.5 4,-15.2 1.6,-20.6 -1,-2.2 -3.1,-4.7 -4.6,-5.5 -4.1,-2 -12.2,-1.8 -16.9,0.6 -4.8,2.5 -4.7,2.5 -5.4,-0.3 -0.8,-3.4 -7.6,-10.8 -11.3,-12.3 -8.7,-3.7 -12.6,-1.1 -15.3,10.4 -1.1,4.6 -2,9 -2,9.8 0,0.9 -1,3.8 -2.1,6.5 l -2.1,4.9 h -6.9 c -6.9,0 -6.9,0 -6.9,-2.8 0,-8.9 -2.2,-25.9 -3.6,-28 -1.5,-2.2 -2.1,-2.4 -8.8,-2 -6.1,0.3 -8,0.8 -11.5,3.2 -2.8,1.9 -4.1,3.6 -4.1,5.2 0,2.1 -0.5,2.3 -6.5,2.6 -6.2,0.3 -6.6,0.2 -8.6,-2.5 -4.1,-5.6 -16.1,-8.5 -23.5,-5.7 -1.5,0.6 -2.9,0.8 -3.2,0.6 -0.2,-0.3 0.6,-2.6 1.8,-5.1 1.9,-4 2.2,-5.7 1.7,-11.5 l -0.6,-6.9 4.7,2.4 c 8.9,4.4 31,9.5 41.5,9.5 2.5,0 2.7,-0.2 2,-2.8 -0.5,-1.5 -0.8,-6.1 -0.7,-10.3 0.1,-5.8 0.7,-8.9 2.6,-13 3.1,-6.8 8,-12.4 12.9,-15 l 3.8,-1.9 -0.3,-12 c -0.1,-7.1 -0.6,-12.4 -1.3,-13.1 -1.7,-1.7 -5.1,-0.1 -11.2,5.5 -6.2,5.8 -13.5,11 -16.6,11.9 -1.1,0.3 -3.8,1.3 -6,2.1 -2.2,0.8 -5.8,1.5 -8.1,1.6 -4.4,0 -13,-2.6 -14,-4.2 -0.4,-0.5 0.4,-0.5 1.6,0.2 2.9,1.6 12.6,1.6 17.3,0.1 2,-0.7 4.2,-0.9 4.8,-0.5 0.8,0.5 0.9,0.3 0.4,-0.6 -0.6,-1 -0.4,-1.2 0.8,-0.7 1,0.4 1.6,0.2 1.4,-0.6 -0.1,-0.7 0.6,-1.1 1.5,-1.1 1,0.1 1.6,-0.2 1.3,-0.6 -0.2,-0.4 2.1,-3.1 5.3,-6.1 17.1,-15.9 23.2,-27.5 27.1,-51.4 1.4,-8 4,-40.5 3.4,-40.5 -0.1,0 -1.9,1.5 -4,3.2 l -3.8,3.3 4.2,-4.9 4.2,-4.8 -0.7,-11.2 c -0.3,-6.1 -0.7,-13.4 -0.7,-16.3 0,-2.8 -0.3,-4.9 -0.7,-4.6 -0.5,0.2 -0.8,-1.5 -0.8,-3.9 -0.1,-10 -6.1,-31.9 -13.7,-49.7 -6.5,-15.2 -17.1,-33.1 -19.5,-33.1 -1.7,0 -0.6,2.2 2.7,5.9 3.8,4.2 4.2,5.1 2.1,5.1 -0.7,0 -3,-1.9 -5.1,-4.1 -3.3,-3.7 -3.6,-4.6 -3.1,-7.9 0.6,-3.6 0.3,-4 -4.5,-8.1 -6.5,-5.6 -12,-8.5 -18.9,-10 -5.2,-1.1 -9.7,-0.6 -18.5,1.8 -3.1,0.8 1.8,-2.7 9,-6.6 5.8,-3.1 19.5,-6.1 28.2,-6.1 5.4,0 4.6,-1.8 -1.2,-2.5 -6.6,-0.9 -16.5,0.2 -16.5,1.7 0,0.6 -0.3,0.9 -0.6,0.5 -0.4,-0.3 -4.6,1.4 -9.5,3.8 -12.3,6.2 -12.6,5.6 -0.4,-0.8 5.5,-2.9 16.2,-8.6 23.7,-12.6 7.5,-3.9 16,-8 18.9,-9 l 5.2,-1.9 10.6,4.5 c 5.8,2.4 11.5,4.7 12.6,5 z m 207.7,4.2 c 14.4,11.5 29.8,31.1 35.4,44.9 1.3,3.2 3.5,10 4.9,15.2 1.5,5.2 4.2,14.7 6,21 3.4,11.6 4.4,18.9 6.5,48.5 0.9,13.1 1.3,24.2 4,100.8 0.6,16.4 1.3,30.4 1.6,31.2 0.4,0.8 -0.8,2.3 -2.9,3.7 -6,3.9 -7,6.6 -5.7,15.5 0.9,6.4 0.8,7.9 -0.5,9.3 -0.8,0.9 -1.7,3.9 -2.1,6.6 -0.9,8.5 -1.3,9.6 -3.1,9 -1.3,-0.5 -1.4,-0.4 -0.4,0.8 1,1.1 0.6,1.8 -1.7,3.5 -1.6,1.1 -3.2,1.7 -3.6,1.3 -0.4,-0.4 -0.6,-0.1 -0.4,0.7 0.3,1.5 -8.8,7.5 -10.2,6.6 -0.5,-0.3 -1.2,0 -1.6,0.6 -0.4,0.8 -0.3,0.9 0.4,0.5 0.7,-0.4 1.2,-0.5 1.2,-0.2 0,1.1 -16.5,9.7 -25,13 -9.3,3.7 -12.3,4.6 -25.8,7.5 -4.6,1 -8.4,2 -8.6,2.2 -0.2,0.2 -0.7,1.2 -1.2,2.1 -0.5,1 -1,-11.7 -1,-32.5 -0.2,-41.8 -2.6,-69 -12.9,-146.7 -2.9,-21.8 -5.6,-44.1 -8.1,-68.2 -0.3,-3.1 -1.2,-6.2 -1.8,-6.8 -1,-0.8 -0.8,-2 1,-5.8 5.6,-11.8 14.9,-46.3 15.5,-57.9 l 0.3,-4.3 2.6,2.5 c 3.3,3.2 4.8,3.2 5.6,-0.1 1.1,-4.3 -0.3,-10.3 -3.6,-15.7 -1.7,-2.9 -3.2,-5.6 -3.3,-6 -0.1,-0.5 2.1,-1.6 5,-2.6 2.8,-0.9 6.8,-3.1 8.8,-4.7 8.2,-6.5 8.4,-6.6 12.8,-4.1 2.1,1.2 7.4,5 11.9,8.6 z m -38.3,8.3 c 1.7,3.5 3.4,8.1 3.8,10.3 l 0.6,4 -4.9,-4.4 c -5.2,-4.6 -13.5,-9.1 -16.9,-9.1 -3.1,0 -6,2.5 -9.6,8 -1.8,2.8 -3.4,4.8 -3.6,4.6 -0.2,-0.2 0.3,-2.9 1.2,-6.2 0.8,-3.2 1.5,-6.9 1.5,-8.1 0,-1.3 0.3,-2.3 0.8,-2.4 0.4,0 5.4,-0.6 11.2,-1.4 5.8,-0.7 11,-1.3 11.6,-1.4 0.6,0 2.5,2.7 4.3,6.1 z m -17.9,5.7 c 0,0.6 2.3,2.2 5,3.7 5.9,3.2 5.8,0.6 0.5,22.9 -5.2,21.9 -13.1,44.5 -15.4,44.5 -0.4,0 -1.6,-0.7 -2.8,-1.5 -1.5,-1 -2.6,-3.7 -3.8,-9.2 -0.9,-4.3 -2.8,-11.9 -4.2,-17 -2.5,-8.9 -2.5,-9.2 -0.8,-14.2 0.9,-2.8 2.2,-5.7 2.9,-6.4 0.7,-0.6 3.2,-4.5 5.5,-8.6 5.9,-10.1 13.1,-17.9 13.1,-14.2 z m -208.2,14.6 c 14.4,6.7 27.3,28.9 35.6,61.7 5.9,23 6.2,25.1 3.8,29 -1.1,1.8 -3.2,4.4 -4.5,5.6 l -2.4,2.3 -0.5,-7.3 c -0.4,-6.6 -2.2,-12.7 -3.4,-11.5 -0.3,0.2 0,2.6 0.6,5.3 0.7,2.8 0.9,7.5 0.5,10.9 -0.5,4.9 -1.4,6.9 -4.6,11.1 -7.6,9.9 -6.6,9.9 -16.8,0.2 C 375.7,594 362.1,586 346.6,582 337,579.6 319,578.3 313.7,579.8 l -3.7,1 2.6,-4.1 c 5.3,-8.7 28.3,-56.4 28.9,-59.9 1.1,-7.2 6.7,-11.4 22.3,-16.8 7.6,-2.6 11.6,-2.5 18,0.5 z m -35.7,85.9 c 19.9,5.8 38.3,17.4 48.4,30.6 5.4,7 6.2,8.6 8,15.6 1.9,7.3 1.2,11.3 -2.8,15.3 l -3,3.2 -2.9,-5.3 c -2.8,-5.1 -8.4,-11.8 -9.9,-11.8 -0.4,0 -1.1,0.9 -1.4,2.1 -0.6,1.9 -0.8,1.9 -3.1,0.4 -1.4,-0.9 -3.3,-1.5 -4.2,-1.3 -1.1,0.3 0.1,1.3 3.5,3.1 4.7,2.5 5.3,2.5 6.2,1 0.8,-1.5 1.2,-1.2 2.9,1.7 3,4.8 4.5,12.4 3.9,18.9 -1.2,13.9 -15.2,30.1 -25.9,30.1 -1.4,0 -1.8,-0.8 -1.7,-3.8 0,-2.9 0.2,-3.3 0.9,-1.7 0.4,1.2 1.6,2.7 2.5,3.5 1.7,1.4 1.7,1.3 0.9,-1 -0.5,-1.4 -0.9,-4.1 -0.8,-6.2 0,-3.1 -0.3,-3.6 -2.1,-3.4 -1.1,0.1 -2.6,0.5 -3.2,0.9 -0.7,0.5 -0.9,0 -0.6,-1.3 0.3,-1.1 1.2,-2 1.9,-2 0.8,0 1.4,-0.6 1.4,-1.3 0.1,-0.7 0.7,-0.4 1.5,0.7 0.8,1.1 2,1.6 3,1.2 3.3,-1.2 0.3,-9 -7.7,-19.9 -3.8,-5.1 -6.5,-7.5 -11.1,-10.1 -8,-4.4 -19.9,-8.5 -36.2,-12.5 -17.9,-4.4 -20.3,-5.1 -14,-4.4 6.7,0.7 31.6,7 37.2,9.4 5.2,2.2 4.8,0.7 -0.5,-2 -6.9,-3.5 -24.9,-7.9 -38.9,-9.5 -3.8,-0.5 -5.5,-0.3 -6.6,0.9 -0.9,0.8 -2.2,1.5 -2.9,1.4 -1,0 -1,-0.2 0.1,-0.6 1.1,-0.4 1.1,-0.7 0,-1.4 -1.7,-1 -4.9,0.7 -4.9,2.6 0,0.8 -0.4,1.5 -0.9,1.5 -1.7,0 -7.1,5.1 -7.1,6.7 0,0.9 -0.8,2.2 -1.7,2.9 -1.4,1 -1.5,1.3 -0.4,1.4 0.8,0 2.3,-0.7 3.3,-1.7 2.7,-2.5 3.5,-0.7 0.8,2.2 -1.3,1.4 -2,3.1 -1.7,3.9 0.8,2.1 -1.7,2.1 -3.4,-0.1 -1,-1.1 -1.4,-4.4 -1.4,-10.2 0,-7.4 0.4,-9.4 2.8,-14.4 1.6,-3.2 3.9,-6.4 5,-7.2 3.2,-2 10.5,-4.3 16.5,-5.1 3.5,-0.4 4.9,-1 4,-1.5 -2.1,-1.4 -10.6,-1 -14.5,0.6 l -3.6,1.5 0.6,-3.2 c 0.3,-1.8 1.5,-5.4 2.7,-8.1 1.6,-3.7 3.2,-5.4 7.3,-7.7 4.8,-2.8 11.8,-5.3 17.7,-6.3 1.4,-0.2 8.2,-0.5 15.1,-0.6 10.7,-0.1 14,0.3 21,2.3 z m 76.5,9.9 c -0.9,1.3 -1.3,2.7 -0.9,3.2 0.5,0.4 0.3,0.5 -0.4,0.1 -0.7,-0.4 -1.6,0.2 -2.2,1.3 -0.8,1.5 -0.7,2 0.6,2.5 2.1,0.9 3.1,-0.3 1.3,-1.4 -0.8,-0.6 -1,-1 -0.5,-1 0.6,0.1 2.1,1 3.5,2.1 2.4,2 2.5,2.5 2.6,15.2 0,7.3 -0.1,9.5 -0.3,4.9 -0.3,-6 -0.7,-8.2 -1.6,-7.9 -0.7,0.2 -1.1,1.1 -1.1,2 0.1,1 -0.3,1.4 -0.9,1 -0.7,-0.4 -0.8,0 -0.2,1.3 0.4,1 1.4,4.4 2,7.6 0.7,3.1 1.6,6.1 2,6.7 1.1,1.9 0.7,14.9 -1,27.6 -3.2,24.7 -11.2,47.2 -20.4,57.7 -4.9,5.5 -12.7,9.6 -19.8,10.5 l -5.1,0.6 -0.6,-7.4 c -0.3,-4.1 -0.9,-13 -1.3,-19.9 l -0.8,-12.5 6.2,-5.9 c 7.1,-6.6 11.9,-15.2 12.9,-23.1 0.5,-3.7 1.6,-6 4.1,-8.9 4.5,-4.9 6.3,-9.4 6.3,-15.3 0,-4.4 -1.6,-12.3 -3.4,-16.4 -0.9,-2 3.4,-8.3 5.9,-8.7 1.6,-0.2 1.5,0 -0.4,1 -1.4,0.7 -2.7,2 -2.9,2.8 -0.5,1.3 -0.3,1.3 1.4,0 1.7,-1.4 1.8,-1.4 0.6,0.2 -2.1,2.6 -0.6,3.8 4.9,3.8 5.3,0 5.7,-0.3 3.3,-2.7 -2,-2.1 -0.2,-4.2 2,-2.3 0.9,0.7 1.3,1.6 1,2.1 -0.3,0.5 0.3,0.9 1.2,0.9 1,0 1.5,-0.3 1.1,-0.6 -0.7,-0.8 1.7,-3.4 3.2,-3.4 0.6,0 1.1,-0.7 1.1,-1.5 0,-0.8 -0.5,-1.5 -1.1,-1.5 -0.5,0 -0.7,0.5 -0.3,1.2 0.4,0.7 0.3,0.8 -0.5,0.4 -0.6,-0.4 -0.8,-1.2 -0.5,-1.8 0.5,-0.8 0.1,-0.9 -1.1,-0.4 -2.1,0.8 -11.6,1.9 -10,1.2 0.6,-0.3 3.6,-1 6.9,-1.6 6.4,-1.3 6.4,-2.4 0,-3.7 l -4.2,-0.8 4.2,-7.1 c 2.2,-4 4.2,-6.6 4.4,-5.8 0.2,0.7 -0.4,2.4 -1.2,3.7 z m -110,40.7 c 28.3,7.5 41,13.7 46.7,22.7 l 2.4,3.8 -1.8,8 c -5.9,26.6 -24.3,63.6 -40.6,81.3 l -2.2,2.4 -5.3,-2.6 c -10.2,-4.9 -16.9,-6.1 -34.8,-6.1 -14.5,0.1 -24.2,1.1 -29.7,3.2 -2,0.8 -1.6,-3.4 2.2,-21.1 3.8,-17.8 5.5,-23.3 13.9,-44.5 7.8,-19.6 13.2,-30.1 15.6,-30.1 0.5,0 1.5,1.8 2.1,4 0.7,2.2 1.6,4 2.2,4 0.5,0 0.6,-0.8 0.3,-1.7 -1.3,-3.3 -0.7,-18 0.8,-21.6 1.1,-2.9 2.1,-3.7 4.8,-4 5.7,-0.8 15.1,0.1 23.4,2.3 z m 40.8,107.5 c 1.4,12.1 3.1,25.9 3.6,30.6 1,7.6 0.9,8.9 -0.7,11.8 -1.4,2.4 -2.3,3 -3.8,2.5 -1.1,-0.3 -5.7,-0.8 -10.2,-1.1 -7.1,-0.5 -8.8,-0.2 -12.8,1.7 -4.2,2 -4.7,2.1 -6.8,0.6 -4,-2.8 -6.1,-4.6 -5.6,-4.8 0.2,-0.2 1.3,-0.8 2.4,-1.4 1,-0.6 3.2,-4.2 4.8,-8 2.3,-5.6 2.7,-8.1 2.5,-13.5 l -0.2,-6.6 10,-15.4 c 5.6,-8.5 10.6,-16.5 11.3,-17.8 0.7,-1.3 1.6,-1.9 2.1,-1.5 0.4,0.5 2,10.8 3.4,22.9 z m -52.2,10 c 7.5,1.6 15.1,5.4 16.1,7.9 1.1,2.8 -0.5,8.7 -2.8,10.2 -1.9,1.2 -3.2,1.2 -9.3,0.1 -4,-0.8 -7.2,-1 -7.2,-0.6 0,0.4 1.9,2 4.2,3.6 3.3,2.2 4.3,3.5 4.6,6.2 0.4,4.2 -0.4,7.7 -2.1,8.4 -1.2,0.4 -7.6,-0.4 -12.7,-1.8 l -2.5,-0.7 2.3,2.1 c 3,2.6 8.3,4.1 15.6,4.2 5.1,0.2 6.4,0.6 11.4,4.4 3.1,2.4 9.7,8.3 14.6,13.3 l 8.9,9.1 0.5,8 c 0.2,4.5 0.2,8.1 -0.2,8.1 -1.7,0 -5.5,-3.3 -4.9,-4.3 0.3,-0.5 0.2,-0.7 -0.4,-0.4 -0.5,0.3 -3,-1.4 -5.4,-3.9 -6.1,-6.3 -7.2,-6.8 -10,-4.3 -1.3,1.2 -2.3,2.5 -2.2,3 0.2,0.5 -0.2,0.9 -0.7,0.9 -0.6,0 -1,-0.9 -1,-2 0,-3.4 -2,-2.2 -4.1,2.5 -2.4,5.5 -4.9,16.5 -4.9,22.2 0,3.6 -0.2,4.1 -2,3.6 -2.5,-0.7 -2.5,-0.4 0.4,3.6 4.5,6.1 4.3,20.3 -0.5,32.3 l -1.1,2.8 -4.9,-6.1 c -2.7,-3.4 -4.6,-6.6 -4.2,-7.2 0.3,-0.5 0.2,-0.7 -0.4,-0.4 -0.5,0.3 -3.4,-0.6 -6.4,-2 -4.6,-2.3 -6.9,-2.7 -16.1,-2.9 -5.9,-0.1 -11.3,-0.6 -11.9,-1 -0.7,-0.4 -0.9,-0.3 -0.5,0.4 0.3,0.5 0,1.2 -0.6,1.5 -0.9,0.3 -0.7,1.1 0.7,2.8 1.8,2.2 1.8,2.2 -1,-0.2 -3.4,-2.9 -5.9,-4.1 -9.4,-4.3 -3,-0.2 -5.1,-3.1 -5.1,-7.1 0,-2.2 -1,-4.1 -3.6,-6.6 -3.2,-3.1 -4,-3.4 -9.5,-3.4 -5,0.1 -5.8,-0.2 -5.3,-1.5 0.4,-0.8 0.8,-4.9 1,-9 0.1,-4.2 0.7,-11.1 1.4,-15.4 0.6,-4.3 1.2,-10.3 1.2,-13.3 0,-3 0.4,-4.9 0.8,-4.2 0.6,0.8 2.2,1 5.5,0.6 l 4.7,-0.7 -0.6,3.8 c -1.4,9.6 -1.8,21.2 -0.7,21.2 0.7,0 1,2.2 0.9,6.2 -0.1,6 -0.1,6.1 -0.7,1.8 -0.8,-5.7 -2,-3.9 -2.3,3.4 -0.2,5.1 0,5.8 3.2,9.1 1.8,1.9 3.6,3.2 3.9,2.9 0.3,-0.3 1.6,-3.8 2.8,-7.7 1.5,-5.1 2.2,-6.3 2.2,-4.3 0.1,1.6 0.4,2.6 0.8,2.2 0.9,-0.9 2.3,-12.8 1.5,-14 -0.3,-0.5 -0.6,-3.7 -0.7,-7 -0.2,-4.4 -0.1,-5.1 0.4,-2.6 0.6,3.3 0.7,3.3 1.3,1 0.4,-1.4 1,-6 1.3,-10.2 0.6,-6.3 0.5,-7.9 -0.7,-8.3 -1.3,-0.5 -1.3,-1.6 0,-8.3 0.8,-4.2 2.2,-10.4 3.3,-13.7 2.1,-6.7 2,-6.9 -5,-8.1 -4.4,-0.7 -4.5,-0.8 -1.6,-1.5 1.7,-0.3 4.6,-0.7 6.6,-0.8 2,0 4.1,-0.7 4.7,-1.4 0.6,-0.7 2.3,-1.4 3.8,-1.5 1.6,-0.1 3.2,-0.6 3.7,-1.1 1.5,-1.5 -0.1,-4.4 -1.9,-3.7 -0.9,0.3 -5.9,0.9 -11.2,1.2 -11.6,0.7 -13.3,-0.1 -13.4,-6.3 0,-2.3 0.3,-4.6 0.6,-5.2 1.1,-1.7 -2.2,-1.3 -5.1,0.6 -2,1.4 -2.5,1.4 -2.1,0.3 2,-6 45.3,-10.4 64,-6.5 z m 431.1,18.1 c 6.2,3.2 6.7,4.1 6.7,12.1 0,6.1 -0.3,7.5 -1.7,8 -1,0.3 -2.8,1.8 -4.1,3.2 -2.5,2.8 -1.9,0.8 0.6,-2.2 2,-2.3 0.8,-3.3 -2.2,-1.9 -2,0.9 -2.7,0.7 -4.1,-0.8 -1,-1.1 -3.7,-2.7 -6.1,-3.6 -5.5,-2.1 -18,-1.5 -21.8,1 -2.6,1.6 -2.6,1.6 -2.6,-0.9 0,-2.9 0.7,-3.1 14.3,-4 11.5,-0.6 18.7,-2 21.3,-4.1 1.8,-1.4 1.8,-1.4 0,-2.9 -2.6,-2 -3.8,-1.9 -3.4,0.2 0.2,1.2 -0.4,1.9 -1.9,2.1 -1.3,0.2 -2.3,0.1 -2.3,-0.2 0,-0.8 3.3,-7.6 3.7,-7.6 0.2,0 1.8,0.7 3.6,1.6 z m -381.6,24 c 2.6,0.9 5.2,1.9 5.6,2.4 0.5,0.4 -0.3,2.4 -1.7,4.5 -1.4,2.1 -2.6,4.4 -2.6,5.1 0,0.7 -0.3,1.9 -0.6,2.8 -0.3,0.9 -0.2,1.6 0.3,1.6 0.5,0 1.4,-1.5 2.1,-3.4 2.1,-5.8 7.4,-10.3 13.8,-11.6 6.6,-1.4 11,-0.8 15.5,2.3 4.1,2.8 4,4 -0.7,5 -7.8,1.6 -13.4,8.4 -13.4,16.2 0,3 -0.3,3.5 -2.4,3.5 -1.4,0 -3.2,0.7 -4.1,1.6 -2.2,2.2 -0.1,4.7 3.6,4.2 2.3,-0.4 2.8,0 3.1,2.4 0.3,1.8 0,2.8 -0.8,2.8 -3.1,0 -10.1,-5.1 -13.1,-9.5 -2.8,-4 -3.3,-4.4 -3.3,-2.4 0,1.3 0.9,3.9 2,5.7 1.2,1.9 1.5,3 0.9,2.6 -0.7,-0.4 -1,-0.2 -0.7,0.7 0.3,0.8 1.2,1.3 2.1,1.1 0.8,-0.1 1.8,0.2 2.2,0.8 0.3,0.5 0,0.7 -0.9,0.4 -1.2,-0.5 -1.4,0.6 -1.2,6.5 0.1,3.9 0,6.9 -0.2,6.7 -0.2,-0.2 -1.7,0 -3.3,0.4 -1.6,0.5 -3,0.8 -3,0.7 -0.1,-0.1 -0.4,-7.1 -0.8,-15.6 l -0.6,-15.3 -9.7,-9.3 c -9.3,-9 -9.6,-9.4 -7.8,-11 3.9,-3.5 12.5,-4.3 19.7,-1.9 z M 500,810.8 c 3.9,3.9 4.7,9 2.5,15 -1.3,3.5 -4.2,7 -11.2,13.8 -7.9,7.6 -10.1,9.3 -13.5,9.8 -2.2,0.4 -4.2,0.5 -4.5,0.3 -0.2,-0.2 1.4,-3.5 3.5,-7.3 8.2,-14.5 11,-24.8 7.6,-28.5 -1.4,-1.5 -1.3,-1.9 1.2,-3.8 4.1,-3.2 10.8,-2.9 14.4,0.7 z m 126.9,25 c -0.5,20 -0.5,20 -13.1,24 -10.5,3.3 -27.3,6.6 -29.5,5.8 -0.9,-0.4 -1.1,-0.2 -0.7,0.6 0.5,0.8 0.2,0.9 -1,0.5 -1,-0.4 -3.5,-0.7 -5.5,-0.7 -2.2,0 -4.7,-0.8 -5.9,-1.8 -2.9,-2.5 -6.2,-13.1 -6.2,-19.8 0,-5.6 0,-5.6 1.8,-3.3 1.3,1.5 3,2.2 5.2,2.2 h 3.2 l -0.4,6.4 c -0.3,4.4 0,6.3 0.8,6.3 0.6,0 6.3,-0.9 12.5,-2 19.1,-3.3 34.3,-8.2 30.4,-9.6 -1.4,-0.6 -0.6,-22.7 0.8,-23.6 0.7,-0.4 2.7,-0.8 4.6,-0.8 h 3.3 z m -299.7,1.4 c 2.7,1.6 4.5,3.5 4.1,4.1 -0.3,0.5 -0.1,0.7 0.5,0.4 0.5,-0.4 3.2,1 5.9,3.2 8.3,6.5 12.2,20.4 8.8,30.6 -1.1,3 -2.3,5.1 -2.8,4.8 -0.6,-0.4 -0.7,-0.1 -0.3,0.6 1.4,2.2 -15.9,41.6 -17.7,40.4 -0.5,-0.3 -0.7,-0.1 -0.3,0.5 0.8,1.3 -1.4,6.3 -2.5,5.6 -0.5,-0.3 -0.6,0.3 -0.2,1.2 0.5,1.3 0.3,1.5 -0.7,0.9 -0.8,-0.5 -1.1,-0.4 -0.6,0.3 0.7,1.2 -3.4,10.3 -4.5,9.7 -0.4,-0.3 -0.6,0.3 -0.5,1.3 0.1,1.5 -0.9,1.7 -8.4,1.7 -8,0 -21.5,-2.9 -20.6,-4.4 1.2,-1.8 -5.7,-0.2 -8.1,1.9 l -2.8,2.5 2.4,-2.8 c 1.7,-1.8 2.1,-3.1 1.5,-3.7 -0.6,-0.6 -9,-4.4 -18.7,-8.5 -30,-12.6 -39,-18.1 -50.3,-30.7 -5.3,-5.8 -6.1,-8.9 -6.5,-22.8 -0.2,-7.6 -0.6,-8.5 -2.5,-6.9 -2,1.6 -1.7,0.6 0.5,-1.9 1.3,-1.6 2,-4.5 2.4,-10.8 0.8,-11.5 2.3,-12.8 1.8,-1.6 l -0.3,8.7 2.8,-2.5 c 2.5,-2.2 2.4,-2 -0.4,1.4 -2.9,3.4 -3.2,4 -1.9,5.5 0.8,0.9 1.8,3.4 2.2,5.6 0.8,4.8 3.6,10.4 6.4,12.9 1.1,1 1.8,2.3 1.5,2.7 -0.3,0.5 0.2,0.6 1,0.3 0.9,-0.3 1.6,-0.1 1.6,0.5 0,2.8 28.4,17.8 43.9,23.1 12,4.1 18.2,4.7 24.1,2.5 2.5,-0.9 6,-2.2 7.8,-2.8 1.7,-0.7 3.2,-1.5 3.2,-1.9 0,-0.5 0.5,-0.8 1.1,-0.8 0.5,0 3.2,-1.9 5.9,-4.2 4.3,-3.7 5,-4.8 5.6,-9.2 0.3,-2.8 1.4,-5.7 2.3,-6.4 0.9,-0.7 1,-1.1 0.4,-0.7 -1.6,0.8 -1.6,-0.5 -0.1,-4.2 0.6,-1.5 1,-3.3 0.9,-3.9 0,-0.6 0.5,-4.2 1.3,-7.9 1.3,-6.4 1.3,-7 -0.6,-10.7 -1.8,-3.4 -2,-5.1 -1.5,-12.6 0.3,-4.8 1.1,-10.4 1.7,-12.4 1,-3.5 1.2,-3.7 3.8,-2.7 1.5,0.6 4.8,2.4 7.4,4.1 z m 163,21.6 c 0.2,8.2 -0.1,10.5 -1.2,11.2 -2.4,1.5 -14.1,3.9 -32.5,6.7 -15.1,2.4 -19.8,2.6 -41.5,2.6 -25.9,-0.1 -50.3,-2.1 -52.3,-4.3 -0.8,-0.9 -0.9,-1.1 -0.1,-0.7 1.5,0.9 2.4,-2.5 2.4,-9.6 0,-5.6 -1.5,-7.8 -2.3,-3.5 -0.2,1.3 -0.3,0 -0.1,-2.7 0.2,-2.8 0.4,-5.4 0.4,-5.8 0,-0.7 6.1,-3.7 7.5,-3.7 0.3,0 0.5,0.9 0.5,1.9 0,1.5 -0.5,1.8 -2.1,1.4 -1.6,-0.5 -2,-0.2 -1.8,1.2 0.5,2.4 0.7,2.5 36.2,3.2 32.5,0.6 53.7,-0.4 73.9,-3.6 10.3,-1.7 13.8,-2.9 11,-3.8 -0.6,-0.3 -0.9,-0.9 -0.6,-1.5 1.5,-2.4 2.4,1.5 2.6,11 z m -130.8,22.4 c 1.6,3.4 1.9,6.5 2,18.7 0,14.5 -0.6,22.6 -1.7,23.8 -1.1,1 0.3,2.3 2.7,2.3 1.2,0 2.7,-0.5 3.3,-1.1 1.6,-1.6 3.7,-0.1 2.3,1.5 -0.5,0.7 -0.7,2.8 -0.4,4.7 0.4,2.4 0.3,3 -0.4,2 -0.8,-1.1 -1.2,-1 -2.1,0.8 -0.7,1.2 -0.9,2.5 -0.7,3 1,1.5 -2.5,2.3 -12.8,2.8 -7,0.4 -9.7,0.3 -9.2,-0.5 0.3,-0.6 -0.2,-1.3 -1.1,-1.6 -1,-0.3 -3.2,-1.9 -5,-3.6 -3.8,-3.6 -3.9,-3.6 -4.6,-0.8 -0.4,1.4 0,2.9 1,4 1.5,1.7 1.4,1.8 -3,1.8 -3.1,0 -4.7,-0.4 -4.6,-1.3 0,-0.6 2.2,-5.5 4.8,-10.7 4.7,-9.1 4.9,-9.3 4.7,-5.5 l -0.1,4 9.3,0.3 c 10,0.3 13.2,-1.5 3.5,-2 l -5.7,-0.3 -0.4,-4.5 c -0.5,-5.4 -1.9,-6.6 -4.4,-3.7 -1,1.2 0.3,-2.3 2.8,-7.8 2.6,-5.5 6.5,-14.6 8.8,-20.2 3.7,-9.2 4.4,-10.3 6.6,-10.3 1.9,0 2.9,1 4.4,4.2 z M 487.6,897 c 0.3,8.5 0.7,16.5 1,17.7 0.3,1.9 0,2.3 -1.8,2.3 -4.1,0.1 -10.8,3.8 -16.7,9.5 l -5.9,5.6 -0.4,-13.4 c -0.2,-8.7 -0.7,-13.9 -1.5,-14.9 -1.7,-2 -23.9,-3.9 -54.3,-4.7 l -23.5,-0.6 -0.3,-4.8 -0.3,-4.7 h 18.2 18.3 l -3.5,-3.7 -3.4,-3.7 4.3,3.7 c 2.3,2 4.5,3.7 5,3.7 0.4,0 8.2,-0.7 17.5,-1.5 19.1,-1.7 29.6,-3.2 31.2,-4.5 0.9,-0.7 11.5,-1.8 14.8,-1.5 0.5,0 1,7 1.3,15.5 z m -47.1,7.4 12,1.1 -5.6,5.6 c -6.9,6.8 -13.4,11.1 -28.5,19.1 -11.6,6.1 -11.7,6.1 -16.2,4.9 -8,-2.1 -15.3,-6.2 -21.8,-12.4 l -6.5,-6 0.7,-5.4 c 0.4,-3.3 0.3,-5.3 -0.4,-5.3 -1.4,0 -2.2,2.6 -2.2,7.5 0,3.8 0.6,5 4.8,9.4 5.6,6.1 14.4,11.5 22.9,14.1 l 6.2,1.9 6.8,-2.8 c 13.9,-5.8 31,-17.4 39.2,-26.7 3.1,-3.6 4.5,-4.4 6,-3.9 1.2,0.3 2.1,0.9 2.1,1.3 0.1,0.4 0.2,6.8 0.4,14.2 0.2,7.4 0.7,15.4 1.1,17.6 0.7,4.1 0.6,4.2 -2.4,4.9 -4.9,1.1 -3.8,2.9 1.4,2.2 l 4.4,-0.7 1.1,3.8 c 1.8,6.5 2.2,13.6 1.1,17.8 -1.5,5.7 -4.7,6.9 -18.1,6.9 -8.5,0 -11.1,-0.4 -13.3,-1.8 l -2.8,-1.8 2.8,-5.2 c 2.9,-5.3 9.5,-12.7 14.8,-16.5 2.9,-2 2.9,-2.1 0.7,-2.2 -2.9,0 -12,8.4 -16.3,15.1 l -3.1,4.9 h -6.7 c -9.7,0 -17.2,-1.1 -16.4,-2.3 0.4,-0.6 -0.9,0 -2.8,1.3 -1.9,1.3 -2.8,1.7 -2.1,1 1.6,-1.9 1.5,-3 -0.4,-3 -0.9,0 -1.2,-0.5 -0.8,-1.3 0.4,-0.6 -0.2,-0.4 -1.4,0.6 -2,1.9 -2.1,1.8 -4.1,-2 -1.1,-2.2 -3.8,-5.6 -6,-7.6 -2.4,-2.2 -3.9,-4.4 -3.8,-5.6 0.2,-2.6 0.4,-2.6 6.9,0.4 8.9,4.1 22,2.9 30.3,-2.9 1.6,-1.1 3.5,-2.1 4.2,-2.2 1.9,-0.3 16.3,-9.2 21.1,-13.1 l 4.2,-3.4 v 2.5 c 0,2.7 1.7,3.6 2.5,1.3 0.2,-0.6 0.6,-3.7 0.9,-6.7 0.2,-3 0.8,-7.6 1.2,-10.3 0.6,-4.2 0.5,-4.7 -1,-4.1 -0.9,0.4 -2.3,1.9 -3.1,3.3 -3.6,7.1 -19.4,18.9 -35.7,26.6 -5.2,2.5 -10.2,4.5 -11,4.5 -4,0 -13.5,-4.4 -20.3,-9.4 -4.1,-3.1 -7.9,-5.6 -8.4,-5.6 -0.4,0 -3.1,-2.3 -6,-5.1 -5.5,-5.4 -6,-7.2 -4.1,-14 l 1,-3.7 8.3,-1.1 c 4.5,-0.6 9.8,-1.3 11.7,-1.5 5.4,-0.6 37.1,0.5 50.5,1.8 z m -242.2,0.7 c 2.1,0.5 6.6,2.9 10,5.3 10.6,7.4 39.5,22.8 54.2,29.1 12.1,5.1 20.9,8.5 27.1,10.4 9.2,2.9 11.7,4.6 10.8,7.4 -0.8,2.6 -31.7,70.5 -46.9,103.2 -12.1,26 -39.7,82.1 -41.7,84.8 -1.2,1.6 -2.2,1.2 -13.9,-5.6 -11.8,-6.9 -24,-15.4 -25.5,-17.8 -0.3,-0.6 0.7,-2.5 2.4,-4.2 l 3,-3 -3.9,-5.2 c -2.1,-2.8 -3.9,-5.5 -3.9,-6 0,-0.4 2,-2.5 4.5,-4.7 l 4.5,-4 -1.7,-2.9 c -0.9,-1.6 -2.7,-4 -4,-5.3 -1.3,-1.4 -2.3,-2.9 -2.3,-3.3 0,-0.5 2,-2.6 4.5,-4.6 2.5,-2.1 4.5,-4.2 4.5,-4.7 0,-0.5 -1.8,-3.3 -3.9,-6.2 l -4,-5.2 4.9,-4.4 4.9,-4.4 -4.1,-5.5 -4.2,-5.5 4.7,-4.5 c 2.6,-2.4 4.7,-4.7 4.7,-5 0,-0.3 -1.9,-3.1 -4.1,-6.1 -2.4,-3.1 -3.7,-5.7 -3.1,-6.1 0.5,-0.3 2.8,-2.3 5.1,-4.4 l 4.1,-3.7 -4,-5.1 c -2.2,-2.8 -4,-5.5 -4,-5.9 0,-0.5 2,-2.6 4.5,-4.8 2.5,-2.2 4.5,-4.2 4.5,-4.4 0,-0.2 -1.8,-2.9 -4.1,-5.9 l -4.1,-5.4 5.1,-4.5 5,-4.5 -4,-5.2 c -2.1,-2.9 -3.9,-5.6 -3.9,-6.1 0,-0.5 2.1,-2.8 4.6,-5 l 4.5,-4.1 -4.3,-5.7 -4.3,-5.7 5,-4.4 c 3.8,-3.3 4.7,-4.7 4,-5.8 -0.6,-0.8 -2.5,-3.5 -4.3,-5.9 l -3.2,-4.5 4.9,-4.2 5,-4.3 -1.8,-2.5 c -3.5,-5 -3.4,-5.1 0.6,-5.1 2.1,0 5.5,0.5 7.6,1.1 z M 492,926.5 c 0.3,3.3 0.4,8.7 0.2,11.9 -0.4,5.3 -0.6,5.8 -1.8,4.1 -0.8,-1.1 -1.4,-4.4 -1.4,-8.2 0,-3.5 -0.4,-6.3 -0.9,-6.3 -0.4,0 -0.6,3.1 -0.3,6.9 0.4,6.4 0.3,6.9 -1.7,7.6 -3.3,1 -2.5,2.3 1.7,2.7 l 3.7,0.3 -4.7,2.2 c -3.3,1.6 -6.6,2.3 -10.7,2.3 -5.9,0 -6,0 -7.1,-3.4 -0.6,-1.9 -1.8,-4 -2.6,-4.6 -2.7,-2.3 -1.5,-5.4 4.4,-11.2 7,-7 13.7,-10.9 17.7,-10.6 2.9,0.3 3,0.5 3.5,6.3 z m -105.8,26.4 c 4,3 8.2,7.9 11,13 1.3,2.4 2.4,3.1 4.8,3.1 3.7,0 3.9,1.7 0.3,3.1 -2,0.7 -4.9,0.5 -11.9,-1.1 -5,-1.2 -9.9,-2.6 -10.8,-3.3 -2,-1.5 -4,-11.8 -3.1,-15.9 0.6,-2.6 1,-2.9 3.3,-2.3 1.5,0.4 4.3,1.9 6.4,3.4 z m 358.2,89.6 c 0.6,2.8 0.4,3.1 -4.1,4.9 -14.7,6 -20.4,21.2 -13.3,35.3 1.7,3.4 4.3,6.9 5.8,7.9 l 2.7,1.7 -5,1.9 -5,1.8 6,-0.7 c 3.3,-0.4 8.5,-0.7 11.6,-0.5 3.1,0.1 7.6,-0.4 10,-1.1 5.3,-1.5 10.5,-1.1 11.3,0.8 0.3,1 -1,1.7 -5,2.5 -2.9,0.6 -5.4,1.3 -5.4,1.6 0,0.3 1,0.9 2.3,1.3 2.2,0.9 2.1,0.9 -0.8,2.1 -8.2,3.2 -20.4,2 -28,-2.7 -16,-10.1 -19.1,-35.7 -6.1,-51.1 3.5,-4 10.5,-8.2 16.5,-9.8 5.1,-1.3 5.4,-1 6.5,4.1 z m 4,13.9 c 0.3,1.3 0.8,3.1 1.1,3.9 0.4,0.9 -0.5,1.9 -2.6,2.7 -3.9,1.6 -6.9,6.4 -6.9,10.8 0,4.3 4.7,9.4 7.9,8.5 2.2,-0.6 2.4,-1.1 2.1,-5.4 -0.1,-2.7 2.2,-5.5 3.8,-4.5 0.5,0.3 1.5,2.6 2.2,5.1 1.1,4.1 1.1,4.8 -0.5,6.5 -3.5,3.9 -11.2,4.4 -17.2,1.2 -1.1,-0.7 -3,-3.1 -4.2,-5.5 -4.5,-9.2 -1.7,-18.2 7.4,-23.8 4,-2.5 6.2,-2.4 6.9,0.5 z m 43.6,59.4 c 2.4,0.9 2.4,1 0.5,1.7 -19.4,7.3 -27.2,11.4 -34.1,18.2 -4.5,4.6 -7.6,5.3 -12.9,3.3 -2,-0.8 -2.5,-1.5 -2,-2.8 0.4,-0.9 0.8,-2.5 0.9,-3.5 0.5,-4.7 12.5,-12.6 26.1,-17.3 4.4,-1.5 17.2,-1.3 21.5,0.4 z m 47.3,6.4 c 7.7,3.6 13.8,9.5 16.7,16.4 2.6,6 2.5,7.5 -0.7,10.6 -3,2.8 -13.6,9.1 -16.8,10 -1.1,0.4 -5.8,2.2 -10.5,4.2 -10.4,4.5 -29.4,10.8 -33.5,11.2 -1.6,0.1 -8.8,0.9 -16,1.7 -7.1,0.8 -15,1.3 -17.4,1.2 -3.2,-0.1 -4.6,0.3 -5.4,1.7 -0.7,1 -1.5,1.8 -1.9,1.8 -0.8,0 -2.5,-5.3 -3.3,-10.4 -0.6,-4.1 -1.4,-6 -1.6,-3.5 -0.2,3.3 -1.1,7.4 -1.8,7.9 -0.3,0.3 -0.6,2.4 -0.6,4.7 0.1,2.3 -0.2,4 -0.7,3.7 -0.4,-0.3 -0.8,-0.1 -0.8,0.4 0,0.8 -4.6,1.7 -18.2,3.7 -4,0.5 -4.6,-0.2 -2.5,-2.5 1,-1.2 0.9,-1.2 -0.3,-0.4 -2,1.4 -4.5,1.2 -4.6,-0.4 -0.2,-2.2 -0.4,-2.3 -1.5,-1.7 -0.7,0.5 -0.4,1.3 0.7,2.6 0.9,1 2.1,1.6 2.7,1.2 0.6,-0.4 0.8,0 0.4,1 -0.4,1.1 0.2,2.2 1.5,3.1 1.2,0.9 1.8,1.9 1.4,2.3 -0.4,0.4 -1.5,-0.2 -2.4,-1.3 -2.2,-2.9 -5.1,-4.1 -8.2,-3.6 -1.4,0.2 -7.7,0.5 -14,0.6 l -11.5,0.3 9.5,-0.7 c 5.2,-0.3 8,-0.7 6.3,-0.8 -1.8,-0.1 -3.3,-0.7 -3.3,-1.3 0,-0.8 1.8,-0.9 5.8,-0.6 4.4,0.5 4.9,0.4 2.2,-0.3 -1.9,-0.5 -7.6,-1 -12.6,-1.2 -5.2,-0.1 -9.1,-0.7 -9.1,-1.3 0,-0.5 -0.4,-1.7 -0.8,-2.7 -0.5,-1.2 0.9,-2.6 5.7,-5.9 3.5,-2.3 6.5,-4.4 6.8,-4.6 0.2,-0.2 -0.2,-1.4 -0.9,-2.6 -1.3,-2.1 -1.3,-2.1 0.5,-0.6 1.3,1.1 2.7,1.4 4.4,0.8 1.4,-0.4 5.7,-0.7 9.7,-0.8 6.1,-0.1 7.4,-0.4 8.3,-2.1 0.6,-1.1 1.8,-2 2.8,-1.9 1,0 1.2,0.3 0.5,0.6 -1.4,0.5 -1.8,2.3 -0.5,2.3 0.5,0 1.8,-0.9 2.9,-2 1.6,-1.4 15.6,-6 18.5,-6 0.2,0 0.2,1.6 0,3.5 -0.6,5 0.9,4.3 3.7,-1.7 4.5,-9.8 17.1,-20.8 32.6,-28.6 7.8,-3.9 24,-8.8 33.5,-10.1 4.1,-0.6 8.6,-1.3 10,-1.5 3.8,-0.6 6.8,0.2 14.3,3.6 z m 37.4,20.9 c 3.9,1.3 5.3,5.6 6,18.2 0.5,9.3 0.4,9.9 -1.8,12.3 -1.3,1.3 -2.9,2.2 -3.7,1.9 -0.7,-0.2 -1.1,-0.1 -0.8,0.4 0.4,0.6 -3.4,3.1 -4.9,3.1 -0.2,0 -0.9,-1.7 -1.5,-3.8 -3.1,-10 -4.6,-11.6 -7.9,-8 -1.4,1.4 -2.8,1.9 -4.5,1.6 -4,-0.8 -5,1.4 -2.1,4.2 1.4,1.3 2.8,2 3.2,1.7 0.4,-0.4 1.3,0.7 2,2.4 1.5,3.6 1.7,6.1 0.3,3.9 -0.9,-1.3 -1,-1.3 -1.1,0 -0.1,0.8 -0.1,1.8 -0.1,2.1 0.1,0.3 -1.7,1.6 -3.9,2.8 -3.2,1.8 -3.9,2 -3.9,0.7 0,-2.1 -3.2,-3.7 -5.1,-2.5 -2.6,1.6 -3.4,0.9 -1.2,-1.2 2.4,-2.4 8.9,-3.3 11.3,-1.6 0.8,0.6 1.2,0.7 0.8,0.3 -0.4,-0.5 -0.3,-1.5 0.4,-2.3 0.9,-1.1 0.3,-2.2 -3,-5.5 -4,-4.1 -4.1,-4.1 -6.6,-2.5 -3.3,2.2 -3.9,2.1 -2.6,-0.2 1.8,-3.5 1.2,-4.2 -2,-2.6 -1.7,0.9 -3.6,1.3 -4.2,0.9 -0.6,-0.4 -0.8,-0.3 -0.5,0.3 1,1.6 -29.5,12.9 -31.5,11.7 -0.6,-0.4 -0.8,-0.2 -0.5,0.3 0.4,0.6 -3.2,2.1 -9.1,3.7 -14.7,4.2 -16.4,4.8 -20,7.8 -4.1,3.5 -5.3,3.6 -2.1,0.2 2.3,-2.6 2.3,-2.6 0.2,-2 -5,1.6 -40.3,8.7 -41.7,8.4 -0.6,-0.1 -2,0.1 -3.1,0.5 -4.9,1.6 -31.5,4.9 -47,5.7 -16.7,0.9 -38.5,0.4 -38.5,-1 0,-0.4 7.3,-1 16.3,-1.3 16.5,-0.7 34.1,-2.5 52.5,-5.3 5.7,-0.9 11,-1.3 11.8,-1 0.8,0.3 1.3,0.2 1,-0.3 -0.3,-0.4 4.3,-1.8 10.2,-2.9 5.9,-1.2 16,-3.3 22.6,-4.7 6.5,-1.4 12.7,-2.7 13.7,-2.8 1,-0.2 2.1,-0.6 2.5,-1 0.4,-0.3 1.6,-0.2 2.7,0.4 1.4,0.8 1.8,0.8 1.3,0 -0.4,-0.6 0,-1.2 0.8,-1.2 2.5,-0.2 3,-0.4 4.6,-1.4 0.8,-0.6 3.1,-1.1 5,-1.1 1.9,-0.1 5.1,-0.8 7.1,-1.7 1.9,-0.9 4.8,-1.9 6.5,-2.3 1.6,-0.4 3.1,-1 3.4,-1.4 0.9,-1.2 10.2,-4 11.3,-3.3 0.6,0.4 0.7,0.1 0.2,-0.7 -0.6,-1 -0.3,-1.2 1.3,-0.8 1.2,0.4 2,0.3 1.7,-0.2 -0.6,-1 7.5,-3.1 8.9,-2.3 0.6,0.3 0.8,0.3 0.4,-0.2 -0.4,-0.4 1.8,-1.7 5,-2.7 3.1,-1.1 6.2,-2.5 6.7,-3.1 0.6,-0.7 1.7,-1.3 2.5,-1.5 2.8,-0.5 6,-2.5 6,-3.8 0,-1.6 3.1,-2.7 4.4,-1.4 0.5,0.5 1.5,1 2.1,1 0.5,0 0.2,-0.5 -0.9,-1.1 -1.7,-1 -1.6,-1.2 1,-3 1.5,-1 3.1,-1.6 3.4,-1.4 0.4,0.2 0.7,-0.1 0.7,-0.8 0,-0.7 0.4,-2.5 0.8,-4.1 0.5,-1.9 0.4,-2.7 -0.2,-2.3 -1,0.7 -2.3,-1.3 -2.3,-3.5 0,-1.3 11.1,-0.4 15.7,1.3 z m -405.2,1.9 c 3.9,2.7 9.5,8.7 9.5,10.2 0,0.3 -6.5,0.3 -14.4,0 -8.4,-0.3 -18.5,0 -24.3,0.7 -11.5,1.4 -30.7,5.5 -36,7.7 -3.6,1.5 -3.7,1.5 -2.1,-0.2 1.5,-1.5 1.5,-1.9 0.1,-4 -0.8,-1.3 -2.2,-2.4 -3,-2.4 -1.2,0 -1.3,-0.3 -0.3,-1.5 0.6,-0.8 0.9,-2.3 0.5,-3.4 -0.8,-2.6 4.6,-4.6 21.1,-7.6 9.7,-1.7 16.9,-2.3 28.7,-2.4 l 15.8,-0.1 z m 31.5,22.5 c 9.8,9.5 13.5,19 11,28.3 -5.6,21.1 -62.3,33.9 -106.3,24.1 -8.5,-1.9 -21,-7 -22.3,-9.1 -0.4,-0.5 1.2,0 3.5,1.1 4.9,2.5 6.9,2.8 5.1,0.6 -1.7,-2 -0.2,-1.9 4.8,0.5 6,2.9 6.6,2.4 0.7,-0.7 -12.3,-6.3 -18.3,-14.4 -17,-22.9 0.7,-4.6 0.2,-5.2 -2.5,-3.2 -0.9,0.7 0.6,-0.8 3.3,-3.4 8.6,-8.2 24.6,-15 47.5,-20.5 8.3,-1.9 14.4,-2.6 27.2,-3 18.2,-0.6 25.3,0.5 36.2,5.4 3.2,1.4 6.1,2.3 6.4,2 0.3,-0.3 -1.3,-1.9 -3.5,-3.7 -2.2,-1.8 -4.2,-3.9 -4.6,-4.8 -0.3,-0.9 0.5,-0.5 1.8,0.9 1.4,1.3 5.2,5.1 8.7,8.4 z m -167.5,16.3 c -0.3,0.9 -0.3,1.3 0.1,0.9 1,-1 3.6,3.1 2.8,4.5 -0.5,0.7 -0.3,0.8 0.6,0.3 1,-0.6 1.2,-0.4 0.7,0.9 -0.4,1 -0.3,1.5 0.3,1.1 1,-0.6 3.2,2.8 2.5,3.9 -0.3,0.3 -0.2,0.4 0.2,0.1 1,-0.8 5.5,6.4 4.7,7.7 -0.4,0.6 -0.3,0.8 0.3,0.5 1.1,-0.7 7,6.2 6.5,7.5 -0.1,0.5 0.3,0.7 1,0.5 0.7,-0.1 1.3,0.5 1.3,1.3 0,0.8 0.6,1.4 1.2,1.3 0.6,-0.1 1.9,0.7 2.9,1.9 1.9,2 1.9,2 -1.3,1.3 -5.5,-1.1 -3.8,1.2 2.5,3.5 3.1,1.2 8.1,2.6 11,3.2 3.7,0.8 4.9,1.4 4,2 -0.9,0.6 -0.7,0.8 0.8,0.4 1.1,-0.4 8.1,0.1 15.5,1 10,1.2 20.2,1.5 40.1,1.2 14.6,-0.2 26.4,-0.6 26.2,-0.9 -0.2,-0.4 2.7,-0.9 6.4,-1.3 3.7,-0.4 10.2,-1.6 14.5,-2.7 4.3,-1.1 8.3,-1.7 8.9,-1.3 0.6,0.4 0.8,0.3 0.5,-0.3 -0.8,-1.3 10,-5.6 11.5,-4.6 0.6,0.3 0.9,0.2 0.6,-0.3 -0.3,-0.5 2.3,-2.7 5.8,-4.9 3.4,-2.2 6.8,-5 7.5,-6.2 0.7,-1.2 1.5,-2 1.9,-1.8 0.4,0.2 0.7,-0.1 0.8,-0.8 0,-0.7 0.8,-3.1 1.6,-5.5 1.2,-3.1 1.4,-5.3 0.7,-8.2 -0.8,-3.5 -0.7,-3.8 0.8,-3.1 2.9,1.7 9.2,8.8 8.9,10.1 -0.2,0.8 0.4,1.4 1.2,1.5 1.8,0 2.8,7.5 1.1,7.5 -0.6,0 -2.8,1.8 -4.8,4.1 -3.8,4.2 -10.6,9 -18.5,13 -6.6,3.4 -24.5,9.5 -32,11 -3.8,0.7 -6.8,1.6 -6.8,2 0,0.4 0.8,1.4 1.8,2.1 0.9,0.8 4.9,4.7 8.7,8.8 5.7,6.1 5.1,5.6 -3.2,-2.3 -9,-8.7 -10.4,-9.7 -12.2,-8.7 -2.3,1.2 -31.9,4.3 -33.2,3.4 -0.5,-0.3 -6,4.3 -12.2,10.3 l -11.2,10.7 9.3,-9.5 c 5,-5.2 9.2,-9.8 9.2,-10.2 0,-0.4 -2.9,-0.7 -6.5,-0.7 -10.8,0 -34.4,-2.9 -44.2,-5.4 -7.3,-1.8 -10.4,-3.2 -14.8,-6.6 -10.6,-8.2 -24.6,-25.4 -22.9,-28.1 0.4,-0.7 0.3,-1 -0.4,-0.6 -1,0.7 -6.2,-7.5 -8.2,-12.9 -0.8,-2 -0.5,-2.6 1.8,-3.8 3.1,-1.6 4.6,-1.1 3.7,1.2 z"
       id="path4"
       style="fill:#000000;stroke-width:0.1" />
    <path
       d="m 513.5,45.7 c -2.7,0.8 -5.4,1.8 -5.9,2.3 -0.4,0.4 1.2,8.8 3.8,18.7 6.5,25.5 11,49.5 14,75.3 0.9,7.4 1.9,15.4 2.2,17.7 0.3,2.4 1,4.5 1.5,4.9 0.6,0.3 0.8,-0.4 0.5,-1.8 -0.3,-1.2 -0.8,-5.5 -1.1,-9.3 -1.9,-22 -11.1,-73.2 -16.9,-95 -1.4,-4.9 -2.3,-9.2 -2.1,-9.6 0.3,-0.3 2.9,-1.4 6,-2.3 5.3,-1.7 6.9,-2.7 4.3,-2.5 -0.7,0 -3.5,0.7 -6.3,1.6 z"
       id="path6"
       style="fill:#000000;stroke-width:0.1" />
    <path
       d="m 585,164.1 c -14,1.2 -28.9,3.7 -43,7 -18.7,4.5 -48.8,9.7 -63.5,11 -7.1,0.6 -13.2,1.3 -13.5,1.6 -0.3,0.3 6,0.2 13.9,-0.2 14.6,-0.7 14.1,-0.6 74.1,-13 15,-3.1 34.2,-5.5 44,-5.5 4.3,0 8.2,-0.5 8.5,-1 0.7,-1.2 -6.4,-1.1 -20.5,0.1 z"
       id="path8"
       style="fill:#000000;stroke-width:0.1" />
    <path
       d="m 598.5,188 c 0.4,0.6 -0.3,2.5 -1.4,4.4 -3.4,5.4 -2.5,10.2 1.2,6.9 1.9,-1.8 2,-1.7 1.4,0.9 -0.7,2.5 -0.5,2.6 6.8,4.3 5.1,1.1 7.5,2.1 7.5,3.1 0,0.8 0.7,1.4 1.5,1.4 1.4,0 16.5,9.8 16.5,10.7 0,0.2 -1.9,-0.8 -4.2,-2.2 -6.2,-3.7 -15.6,-8.5 -16.8,-8.5 -2.6,0 -0.2,3.4 3.3,4.6 2.1,0.7 5.8,2.7 8.2,4.3 4.7,3.1 10.5,4.9 10.5,3.2 0,-0.5 1.1,-2.1 2.5,-3.5 5.5,-5.5 1.9,-17.6 -5.2,-17.6 -0.8,0 -4,-1.8 -7.1,-3.9 -7.7,-5.4 -26.9,-11.6 -24.7,-8.1 z"
       id="path10"
       style="fill:#000000;stroke-width:0.1" />
    <path
       d="m 543.7,190.6 c -0.3,0.3 -0.3,1.3 0.1,2.2 0.5,1.5 0.4,1.5 -1.2,-0.1 -2,-1.9 -3,-2.1 -5.4,-0.8 -1,0.5 -5.1,1.4 -9.2,2 -6.1,0.8 -9.9,2.2 -20.3,7.6 -13.2,6.7 -19.1,11.4 -20.3,16 -0.5,2 -0.9,2.3 -2,1.4 -2.1,-1.8 -3.5,-0.2 -2.2,2.6 1.1,2.5 2.8,3.4 2.8,1.5 0,-0.5 0.7,-0.7 1.6,-0.3 0.9,0.3 1.9,0.1 2.3,-0.5 0.7,-1.2 31.3,-12.4 39.8,-14.6 3.2,-0.8 8.8,-1.8 12.5,-2.2 3.9,-0.4 6.6,-1.1 6.5,-1.7 -0.2,-1.2 6.3,-3.8 7.6,-3 0.4,0.2 0.3,1.3 -0.3,2.3 -1.6,2.9 -1.3,4.5 0.5,3 0.8,-0.7 2.2,-3.5 3,-6.3 1.8,-5.9 1.1,-6.7 -5.6,-7.2 -3.7,-0.3 -3.9,-0.2 -4,2.8 l -0.1,3.2 -0.7,-3.1 c -0.4,-1.7 -1.1,-3.6 -1.5,-4.2 -0.8,-1.3 -2.9,-1.6 -3.9,-0.6 z"
       id="path12"
       style="fill:#000000;stroke-width:0.1" />
    <path
       d="m 584.2,223.8 c -4.8,10.7 -6.2,16.8 -6.2,26.3 0,10.4 2.5,19.5 7.3,26.5 2.7,3.9 4.5,5.3 9.2,7.1 5.3,2.1 9.1,3 27.1,6.4 3.9,0.7 5.4,1.6 6.7,3.8 3.4,5.8 1.8,11.3 -5.5,18.8 -2.9,2.9 -4.9,5.5 -4.7,5.8 0.3,0.3 2.6,-0.5 5.2,-1.8 5,-2.6 7.7,-2.1 7.7,1.5 0,1.2 -1,3.2 -2.2,4.5 -3.2,3.4 -0.2,2.8 3.3,-0.6 3.5,-3.5 4,-8.4 1,-10.3 -1.8,-1.1 -1.8,-1.2 0,-4.2 2.5,-4.2 2.5,-12.1 -0.1,-16.3 -2.6,-4.4 -6.2,-5.9 -15.1,-6.6 -13,-1.1 -13.8,-2.4 -1.4,-2.6 10.2,-0.1 17.9,-1.1 19.2,-2.5 0.4,-0.3 -1.7,-0.6 -4.6,-0.6 -4.6,0 -5.3,-0.2 -4.8,-1.8 2.6,-8.2 3.8,-14.3 4.8,-24.6 l 1.1,-12.1 -3.6,-3.1 c -4.6,-4 -14.8,-7.8 -24.9,-9.4 -7,-1 -10.5,-0.9 -15.9,0.6 -3.2,0.9 -1.9,2.4 2.1,2.4 12.3,0 31.8,6.1 37.8,11.8 1.9,1.9 2.1,2.9 1.6,7.9 -0.6,7.9 -3.9,20.9 -6.1,24.7 -2.4,4.1 -8.9,5.3 -20.9,3.9 -10,-1.3 -10.9,-2 -17,-14.2 -3.6,-7.1 -3.8,-8 -3.8,-17 0.1,-8.5 0.5,-10.9 3.8,-20.1 4.2,-11.8 4,-11 2.8,-11 -0.4,0 -2.2,3 -3.9,6.8 z"
       id="path14"
       style="fill:#000000;stroke-width:0.1" />
    <path
       d="m 521,228.7 c -9.3,1.6 -24.2,5.8 -30.4,8.6 l -7.2,3.4 -1.2,5.4 c -3.2,14.6 -4.2,32.5 -2,34.7 1,1 0.6,1.1 -2,0.6 -3.6,-0.7 -16.2,0.4 -16.2,1.5 0,0.3 1.8,0.5 4,0.3 2.3,-0.2 6.2,-0.1 8.8,0.3 l 4.7,0.8 -5,1.2 c -5.2,1.2 -11.6,4.2 -15,7 l -2,1.7 2,-0.7 c 14.4,-5.1 20.6,-5.6 30.7,-2.5 7.1,2.2 19,10 23.3,15.2 2.4,3 2.6,3.1 2,0.8 -0.4,-1.4 -1.1,-2.9 -1.6,-3.5 -2.1,-2.2 -0.7,-2.6 1.6,-0.5 1.4,1.3 2.5,2 2.5,1.5 0,-1.6 -5.2,-7.7 -8.1,-9.4 -2.8,-1.7 -2.6,-1.7 11.9,-2.9 16,-1.2 25.5,-3.4 32.4,-7.5 l 4.5,-2.6 0.7,-11.8 c 0.6,-11.8 -0.4,-24.8 -2.5,-31.2 -0.9,-2.6 -0.9,-3.5 0.2,-4.2 2.1,-1.2 -0.5,-3.3 -6.4,-5.3 -4.5,-1.5 -22.8,-2.1 -29.7,-0.9 z m 30.8,4.6 c 0.5,0.4 1.8,3.9 2.8,7.9 1.9,7.8 2.6,28.2 1.1,35.1 -1.7,7.8 -12.2,11.3 -38.1,12.6 -15.5,0.8 -16.3,0.7 -20.6,-1.4 -2.5,-1.2 -6.3,-2.8 -8.5,-3.5 -2.2,-0.7 -4.3,-1.8 -4.7,-2.4 -1.3,-1.9 -0.8,-20.8 0.6,-27.8 2.9,-13.5 5.9,-15.8 26,-19.8 12,-2.4 37.8,-2.8 41.4,-0.7 z"
       id="path16"
       style="fill:#000000;stroke-width:0.1" />
    <path
       d="m 509.5,247.2 c -3.1,1.7 -4.5,3.9 -4.5,7.4 0,4.6 0.9,6.3 4.1,7.9 4.5,2.4 11.3,1.9 14.6,-0.9 2.2,-1.9 2.8,-3.2 2.8,-6.6 0,-3.5 -0.6,-4.6 -3,-6.6 -3.3,-2.6 -10.3,-3.2 -14,-1.2 z"
       id="path18"
       style="fill:#000000;stroke-width:0.1" />
    <path
       d="m 590.5,245.4 c -3.2,3.2 -4,6.8 -2.3,10.2 1.7,3.7 5.2,5.4 10.9,5.4 6.4,0 9.9,-2.8 9.9,-8 0,-5.2 -0.8,-6.8 -4.1,-8.5 -4.5,-2.4 -11.5,-1.9 -14.4,0.9 z"
       id="path20"
       style="fill:#000000;stroke-width:0.1" />
    <path
       d="m 346.7,297.1 c -2,0.6 -5.1,2.4 -6.7,3.9 -2.5,2.3 -3,3.6 -3,7.4 0,2.5 0.3,4.6 0.8,4.6 0.4,0 1.4,-1.8 2.3,-3.9 2.5,-5.9 8.1,-8.5 17.3,-7.9 4.6,0.3 8.5,1.2 11.1,2.6 3.8,2 3.9,2.1 1.2,2.2 -4,0 -9.4,2.5 -10.6,4.8 -0.6,1.2 -1.1,3.6 -1,5.4 l 0.1,3.3 0.8,-2.9 c 1.9,-6.1 6.3,-8.4 12.8,-6.6 5,1.3 9,5.6 10.8,11.5 1.9,6.5 1.8,8.5 -0.5,8.5 -2.5,0 -3.8,1.7 -4.6,6.2 -0.9,4.6 0.5,4.9 2.5,0.5 1.2,-2.5 2.2,-3.3 4.8,-3.5 3.1,-0.3 3.2,-0.4 3.2,-5.1 0,-10.3 -9.6,-23.8 -20.7,-29.2 -5.1,-2.5 -15,-3.3 -20.6,-1.8 z"
       id="path22"
       style="fill:#000000;stroke-width:0.1" />
    <path
       d="m 548.7,308.3 c -4.5,2.8 -14.7,11.7 -14.7,12.9 0,0.6 1.5,-0.1 3.3,-1.4 1.7,-1.3 5.4,-3.6 8.1,-5.1 l 4.8,-2.7 -0.6,3.1 c -1.6,8.1 4.2,15.8 13.4,17.8 9.4,2 9.6,0.8 0.5,-3.7 -8.3,-4.1 -9.4,-6.2 -7.2,-14.7 2.1,-8.5 -0.4,-10.5 -7.6,-6.2 z"
       id="path24"
       style="fill:#000000;stroke-width:0.1" />
    <path
       d="m 654.4,348.8 c 1.2,7.2 -1.9,9.3 -20,13.1 -33.5,7.1 -70.7,10.7 -100.9,9.7 -26.1,-0.8 -42.6,-3.6 -52.8,-8.7 -4.5,-2.4 -4.4,-4 0.5,-5.4 4,-1.1 6,-2.5 3.6,-2.5 -4.1,0 -12.5,3.5 -15.5,6.5 -3.5,3.5 -4.1,6 -2,8.9 1.2,1.7 1.5,1.3 3.6,-3.5 l 2.2,-5.4 6,11.4 c 10.5,20 16.5,27.7 28.8,37 9.6,7.2 16.5,11.4 23.9,14.5 13.9,5.9 42.6,9.1 59,6.7 12.4,-1.8 29,-7.8 32.2,-11.6 1.5,-1.9 0.5,-3.4 -1.2,-1.7 -2.1,2.1 -2.8,1.3 -2.4,-3.1 0.8,-8 8.8,-26.2 16.8,-38 4.8,-7 11.6,-14.7 13,-14.7 2.1,0 7.9,-3.4 8.9,-5.1 1.2,-2.3 0.4,-5.7 -2.2,-8.9 l -2.1,-2.5 z m -29.7,21.9 c 1,4.1 0.9,10.1 -0.2,11.2 -1.4,1.4 -21.4,4.7 -40,6.7 -23.6,2.6 -70.9,0.7 -89.6,-3.5 -5.1,-1.2 -10.8,-6.3 -9.2,-8.3 0.6,-0.7 1.3,-2.5 1.7,-4.1 0.9,-3.9 2.3,-3.3 1.8,0.8 -0.3,2.7 -0.1,3.5 1.2,3.5 0.9,0 1.6,-0.8 1.6,-1.8 0,-2.9 1.6,-4.5 3.8,-3.8 1.7,0.6 2,1.3 1.5,3.7 -0.3,1.8 -0.1,2.9 0.5,2.9 1.4,0 3.5,-3.7 2.8,-4.9 -0.3,-0.4 1.6,-0.4 4.2,0 17.5,3.1 45.3,3.8 68.2,1.9 12.7,-1.1 48.2,-5.9 48.9,-6.6 1.1,-1 2.1,-0.2 2.8,2.3 z m -32.4,32.9 c 7.7,1.7 14.7,4.7 17.2,7.4 1.1,1.2 1.5,3.1 1.3,6.1 -0.3,3.9 -0.7,4.6 -3.9,6.2 -13,6.3 -48.2,6.2 -67.9,-0.4 -13,-4.3 -12.6,-4.4 11.8,-4.4 23.3,0 39.5,-1.8 46.7,-5.1 l 3,-1.4 -3.1,0.6 c -2.5,0.4 -3.4,0 -4.7,-2 -1.9,-2.8 -10.1,-6.2 -17.6,-7.2 -2.8,-0.4 -4.9,-0.9 -4.7,-1.3 0.7,-1.1 14.5,-0.1 21.9,1.5 z"
       id="path26"
       style="fill:#000000;stroke-width:0.1" />
    <path
       d="m 429.1,755.9 c -4,4 -5.5,8.4 -5.6,15.6 0,3.8 0.6,8.5 1.4,10.2 1.1,2.7 1.9,3.3 4.5,3.3 1.7,0 2.6,-0.4 2,-0.8 -1.2,-0.8 -1.6,-19.5 -0.5,-18.7 0.4,0.2 1.6,-1.2 2.6,-3.1 1,-2 3,-4.2 4.4,-4.9 1.9,-1.1 2.1,-1.4 0.9,-1.5 -1,0 -3.1,1.8 -4.7,4 -3.4,4.7 -4.2,4.2 -3.1,-1.8 0.4,-2.3 0.6,-4.2 0.4,-4.2 -0.2,0 -1.3,0.9 -2.3,1.9 z"
       id="path28"
       style="fill:#000000;stroke-width:0.1" />
    <path
       d="m 402,917.1 c -6,2.5 -7.9,7.8 -4.1,11.3 8.1,7.4 23,-1.2 16.3,-9.4 -2,-2.5 -8.4,-3.5 -12.2,-1.9 z"
       id="path30"
       style="fill:#000000;stroke-width:0.1" />
  </g>
  <metadata
     id="metadata44">
    <rdf:RDF>
      <cc:Work>
        <dc:format>image/svg+xml</dc:format>
        <dc:type
           rdf:resource="http://purl.org/dc/dcmitype/StillImage" />
        <cc:license
           rdf:resource="http://creativecommons.org/publicdomain/zero/1.0/" />
        <dc:publisher>
          <cc:Agent
             rdf:about="http://openclipart.org/">
            <dc:title>Openclipart</dc:title>
          </cc:Agent>
        </dc:publisher>
      </cc:Work>
      <cc:License
         rdf:about="http://creativecommons.org/publicdomain/zero/1.0/">
        <cc:permits
           rdf:resource="http://creativecommons.org/ns#Reproduction" />
        <cc:permits
           rdf:resource="http://creativecommons.org/ns#Distribution" />
        <cc:permits
           rdf:resource="http://creativecommons.org/ns#DerivativeWorks" />
      </cc:License>
    </rdf:RDF>
  </metadata>
</svg>
